%TF.GenerationSoftware,KiCad,Pcbnew,(6.0.1)*%
%TF.CreationDate,2022-02-09T15:48:38+01:00*%
%TF.ProjectId,rp2040,72703230-3430-42e6-9b69-6361645f7063,rev?*%
%TF.SameCoordinates,PX8917370PY699e930*%
%TF.FileFunction,Copper,L2,Bot*%
%TF.FilePolarity,Positive*%
%FSLAX46Y46*%
G04 Gerber Fmt 4.6, Leading zero omitted, Abs format (unit mm)*
G04 Created by KiCad (PCBNEW (6.0.1)) date 2022-02-09 15:48:38*
%MOMM*%
%LPD*%
G01*
G04 APERTURE LIST*
G04 Aperture macros list*
%AMRoundRect*
0 Rectangle with rounded corners*
0 $1 Rounding radius*
0 $2 $3 $4 $5 $6 $7 $8 $9 X,Y pos of 4 corners*
0 Add a 4 corners polygon primitive as box body*
4,1,4,$2,$3,$4,$5,$6,$7,$8,$9,$2,$3,0*
0 Add four circle primitives for the rounded corners*
1,1,$1+$1,$2,$3*
1,1,$1+$1,$4,$5*
1,1,$1+$1,$6,$7*
1,1,$1+$1,$8,$9*
0 Add four rect primitives between the rounded corners*
20,1,$1+$1,$2,$3,$4,$5,0*
20,1,$1+$1,$4,$5,$6,$7,0*
20,1,$1+$1,$6,$7,$8,$9,0*
20,1,$1+$1,$8,$9,$2,$3,0*%
G04 Aperture macros list end*
%TA.AperFunction,ComponentPad*%
%ADD10C,0.600000*%
%TD*%
%TA.AperFunction,ComponentPad*%
%ADD11O,1.600000X1.000000*%
%TD*%
%TA.AperFunction,ComponentPad*%
%ADD12O,2.100000X1.000000*%
%TD*%
%TA.AperFunction,ComponentPad*%
%ADD13R,1.700000X1.700000*%
%TD*%
%TA.AperFunction,ComponentPad*%
%ADD14O,1.700000X1.700000*%
%TD*%
%TA.AperFunction,SMDPad,CuDef*%
%ADD15O,1.500000X0.800000*%
%TD*%
%TA.AperFunction,SMDPad,CuDef*%
%ADD16RoundRect,0.237500X0.237500X-0.300000X0.237500X0.300000X-0.237500X0.300000X-0.237500X-0.300000X0*%
%TD*%
%TA.AperFunction,SMDPad,CuDef*%
%ADD17RoundRect,0.237500X0.300000X0.237500X-0.300000X0.237500X-0.300000X-0.237500X0.300000X-0.237500X0*%
%TD*%
%TA.AperFunction,SMDPad,CuDef*%
%ADD18R,2.000000X1.500000*%
%TD*%
%TA.AperFunction,SMDPad,CuDef*%
%ADD19R,2.000000X3.800000*%
%TD*%
%TA.AperFunction,ViaPad*%
%ADD20C,0.400000*%
%TD*%
%TA.AperFunction,Conductor*%
%ADD21C,0.400000*%
%TD*%
%TA.AperFunction,Conductor*%
%ADD22C,0.200000*%
%TD*%
%TA.AperFunction,Conductor*%
%ADD23C,0.150000*%
%TD*%
G04 APERTURE END LIST*
D10*
%TO.P,U3,57,GND*%
%TO.N,GND*%
X19550000Y14225000D03*
X18275000Y14225000D03*
X18275000Y15500000D03*
X20825000Y15500000D03*
X19550000Y16775000D03*
X18275000Y16775000D03*
X19550000Y15500000D03*
X20825000Y14225000D03*
X20825000Y16775000D03*
%TD*%
D11*
%TO.P,J1,S1,SHIELD*%
%TO.N,GND*%
X38075000Y11180000D03*
X38075000Y19820000D03*
D12*
X33895000Y11180000D03*
X33895000Y19820000D03*
%TD*%
D13*
%TO.P,J3,1,Pin_1*%
%TO.N,/GPIO0*%
X7385000Y26925000D03*
D14*
%TO.P,J3,2,Pin_2*%
%TO.N,GND*%
X7385000Y29465000D03*
%TO.P,J3,3,Pin_3*%
%TO.N,/GPIO1*%
X9925000Y26925000D03*
%TO.P,J3,4,Pin_4*%
%TO.N,unconnected-(J3-Pad4)*%
X9925000Y29465000D03*
%TO.P,J3,5,Pin_5*%
%TO.N,/GPIO28*%
X12465000Y26925000D03*
%TO.P,J3,6,Pin_6*%
%TO.N,/GPIO29*%
X12465000Y29465000D03*
%TO.P,J3,7,Pin_7*%
%TO.N,/GPIO26*%
X15005000Y26925000D03*
%TO.P,J3,8,Pin_8*%
%TO.N,/GPIO27*%
X15005000Y29465000D03*
%TO.P,J3,9,Pin_9*%
%TO.N,/GPIO24*%
X17545000Y26925000D03*
%TO.P,J3,10,Pin_10*%
%TO.N,/GPIO25*%
X17545000Y29465000D03*
%TO.P,J3,11,Pin_11*%
%TO.N,/GPIO22*%
X20085000Y26925000D03*
%TO.P,J3,12,Pin_12*%
%TO.N,/GPIO23*%
X20085000Y29465000D03*
%TO.P,J3,13,Pin_13*%
%TO.N,GND*%
X22625000Y26925000D03*
%TO.P,J3,14,Pin_14*%
%TO.N,/GPIO21*%
X22625000Y29465000D03*
%TO.P,J3,15,Pin_15*%
%TO.N,VBUS*%
X25165000Y26925000D03*
%TO.P,J3,16,Pin_16*%
%TO.N,/GPIO20*%
X25165000Y29465000D03*
%TO.P,J3,17,Pin_17*%
%TO.N,/GPIO18*%
X27705000Y26925000D03*
%TO.P,J3,18,Pin_18*%
%TO.N,/GPIO19*%
X27705000Y29465000D03*
%TO.P,J3,19,Pin_19*%
%TO.N,/GPIO16*%
X30245000Y26925000D03*
%TO.P,J3,20,Pin_20*%
%TO.N,/GPIO17*%
X30245000Y29465000D03*
%TD*%
D15*
%TO.P,J4,5,Pin_5*%
%TO.N,/SWD*%
X1800000Y8155000D03*
%TO.P,J4,6,Pin_6*%
%TO.N,/SWCLK*%
X1800000Y6885000D03*
%TO.P,J4,7,Pin_7*%
%TO.N,unconnected-(J4-Pad7)*%
X1800000Y5615000D03*
%TO.P,J4,8,Pin_8*%
%TO.N,/RUN*%
X1800000Y4345000D03*
%TD*%
D13*
%TO.P,J2,1,Pin_1*%
%TO.N,GND*%
X7385000Y1525000D03*
D14*
%TO.P,J2,2,Pin_2*%
%TO.N,/RUN*%
X7385000Y4065000D03*
%TO.P,J2,3,Pin_3*%
%TO.N,unconnected-(J2-Pad3)*%
X9925000Y1525000D03*
%TO.P,J2,4,Pin_4*%
%TO.N,unconnected-(J2-Pad4)*%
X9925000Y4065000D03*
%TO.P,J2,5,Pin_5*%
%TO.N,/GPIO2*%
X12465000Y1525000D03*
%TO.P,J2,6,Pin_6*%
%TO.N,/GPIO3*%
X12465000Y4065000D03*
%TO.P,J2,7,Pin_7*%
%TO.N,/GPIO4*%
X15005000Y1525000D03*
%TO.P,J2,8,Pin_8*%
%TO.N,/GPIO5*%
X15005000Y4065000D03*
%TO.P,J2,9,Pin_9*%
%TO.N,/GPIO6*%
X17545000Y1525000D03*
%TO.P,J2,10,Pin_10*%
%TO.N,/GPIO7*%
X17545000Y4065000D03*
%TO.P,J2,11,Pin_11*%
%TO.N,/GPIO8*%
X20085000Y1525000D03*
%TO.P,J2,12,Pin_12*%
%TO.N,/GPIO9*%
X20085000Y4065000D03*
%TO.P,J2,13,Pin_13*%
%TO.N,/GPIO10*%
X22625000Y1525000D03*
%TO.P,J2,14,Pin_14*%
%TO.N,/GPIO11*%
X22625000Y4065000D03*
%TO.P,J2,15,Pin_15*%
%TO.N,/GPIO12*%
X25165000Y1525000D03*
%TO.P,J2,16,Pin_16*%
%TO.N,+3V3*%
X25165000Y4065000D03*
%TO.P,J2,17,Pin_17*%
%TO.N,/GPIO13*%
X27705000Y1525000D03*
%TO.P,J2,18,Pin_18*%
%TO.N,/GPIO14*%
X27705000Y4065000D03*
%TO.P,J2,19,Pin_19*%
%TO.N,/GPIO15*%
X30245000Y1525000D03*
%TO.P,J2,20,Pin_20*%
%TO.N,unconnected-(J2-Pad20)*%
X30245000Y4065000D03*
%TD*%
D16*
%TO.P,C3,1*%
%TO.N,+3V3*%
X22550000Y21187500D03*
%TO.P,C3,2*%
%TO.N,GND*%
X22550000Y22912500D03*
%TD*%
D17*
%TO.P,C2,1*%
%TO.N,VBUS*%
X31412500Y16700000D03*
%TO.P,C2,2*%
%TO.N,GND*%
X29687500Y16700000D03*
%TD*%
D18*
%TO.P,U2,1,GND*%
%TO.N,GND*%
X30950000Y23600000D03*
%TO.P,U2,2,VO*%
%TO.N,+3V3*%
X30950000Y21300000D03*
D19*
X24650000Y21300000D03*
D18*
%TO.P,U2,3,VI*%
%TO.N,VBUS*%
X30950000Y19000000D03*
%TD*%
D20*
%TO.N,GND*%
X3750000Y500000D03*
X8750000Y500000D03*
X13750000Y500000D03*
X18750000Y500000D03*
X23750000Y500000D03*
X28750000Y500000D03*
X33750000Y500000D03*
X38750000Y500000D03*
X38750000Y5500000D03*
X38750000Y10500000D03*
X38750000Y16000000D03*
X38750000Y21000000D03*
X38750000Y25500000D03*
X38750000Y30500000D03*
X33750000Y30500000D03*
X28750000Y30500000D03*
X23750000Y30500000D03*
X18750000Y30500000D03*
X13750000Y30500000D03*
X8750000Y30500000D03*
X3750000Y30500000D03*
X750000Y2750000D03*
X750000Y7750000D03*
X750000Y12750000D03*
X750000Y17750000D03*
X750000Y22750000D03*
X750000Y27750000D03*
X8650000Y14150000D03*
X13650000Y23550000D03*
X4850000Y23550000D03*
X30250000Y6750000D03*
X32050000Y8550000D03*
X28250000Y8550000D03*
X29050000Y11150000D03*
X23250000Y25950000D03*
X6250000Y29550000D03*
X4250000Y21550000D03*
X6850000Y11950000D03*
X15850000Y21950000D03*
X16050000Y19950000D03*
X30250000Y12750000D03*
X26650000Y15350000D03*
%TO.N,+3V3*%
X21750000Y21200000D03*
X25682500Y16532500D03*
X16050000Y21200000D03*
X17350000Y13100000D03*
X20550000Y13100000D03*
X35800000Y5250000D03*
X14600000Y18950000D03*
X14650000Y15700000D03*
%TO.N,GND*%
X24950000Y23800000D03*
X8650000Y17750000D03*
X8700000Y23550000D03*
X12450000Y20300000D03*
X23350000Y8600000D03*
X20450000Y7400000D03*
X17000000Y9850000D03*
X6220000Y21720000D03*
X24850000Y9700000D03*
X30950000Y22450000D03*
X21050000Y23600000D03*
X28500000Y24100000D03*
X11200000Y16050000D03*
X5100000Y3950000D03*
%TO.N,VBUS*%
X31450000Y13950000D03*
X32250000Y17750000D03*
%TO.N,/USB_D+*%
X10875000Y20450000D03*
X29279810Y22429810D03*
%TO.N,/USB_D-*%
X28820190Y21970190D03*
X11525000Y20450000D03*
%TO.N,/GPIO0*%
X8150000Y9300000D03*
X17050000Y11000000D03*
%TO.N,/GPIO1*%
X17400000Y10400000D03*
X6650000Y8750000D03*
%TO.N,/QSPI_SS*%
X2275489Y28024511D03*
X35700000Y25700000D03*
%TO.N,/SWD*%
X22000000Y17350000D03*
%TO.N,/RUN*%
X24362741Y17162765D03*
X35800000Y2600000D03*
%TO.N,/SWCLK*%
X23950000Y16800000D03*
%TD*%
D21*
%TO.N,+3V3*%
X14600000Y19750000D02*
X14600000Y18950000D01*
X25682500Y7482500D02*
X25165000Y6965000D01*
X30950000Y21300000D02*
X24650000Y21300000D01*
D22*
X35800000Y5250000D02*
X26350000Y5250000D01*
D21*
X21750000Y21200000D02*
X16050000Y21200000D01*
X25682500Y16532500D02*
X25682500Y7482500D01*
X16050000Y21200000D02*
X14600000Y19750000D01*
X25165000Y6965000D02*
X25165000Y4065000D01*
X25682500Y20267500D02*
X25682500Y16532500D01*
D22*
X26350000Y5250000D02*
X25165000Y4065000D01*
D21*
X14650000Y18900000D02*
X14600000Y18950000D01*
X20550000Y13100000D02*
X17350000Y13100000D01*
X22550000Y21187500D02*
X21762500Y21187500D01*
X22662500Y21300000D02*
X22550000Y21187500D01*
X24650000Y21300000D02*
X22662500Y21300000D01*
X14650000Y15700000D02*
X14750000Y15700000D01*
X14750000Y15700000D02*
X17350000Y13100000D01*
X21762500Y21187500D02*
X21750000Y21200000D01*
X14650000Y15700000D02*
X14650000Y18900000D01*
X24650000Y21300000D02*
X25682500Y20267500D01*
%TO.N,VBUS*%
X32150000Y25200000D02*
X27733634Y25200000D01*
X27583634Y25350000D02*
X26740000Y25350000D01*
X31450000Y13950000D02*
X31450000Y16662500D01*
X31300000Y19000000D02*
X32650000Y20350000D01*
X31450000Y16662500D02*
X31412500Y16700000D01*
X32250000Y16800000D02*
X32150000Y16700000D01*
X26740000Y25350000D02*
X25165000Y26925000D01*
X32650000Y20350000D02*
X32650000Y24700000D01*
X32650000Y24700000D02*
X32150000Y25200000D01*
X32250000Y17750000D02*
X32250000Y16800000D01*
X30950000Y19000000D02*
X31300000Y19000000D01*
X31412500Y16700000D02*
X31412500Y18537500D01*
X31412500Y18537500D02*
X30950000Y19000000D01*
X32150000Y16700000D02*
X31412500Y16700000D01*
X27733634Y25200000D02*
X27583634Y25350000D01*
D22*
%TO.N,/USB_D+*%
X29138389Y22429810D02*
X29279810Y22429810D01*
X10875000Y20450000D02*
X10974999Y20549999D01*
X13556800Y24875000D02*
X26693199Y24875000D01*
X26693199Y24875000D02*
X29138389Y22429810D01*
X10974999Y20549999D02*
X10974999Y22293199D01*
X10974999Y22293199D02*
X13556800Y24875000D01*
%TO.N,/USB_D-*%
X28820190Y22111611D02*
X28820190Y21970190D01*
X13743200Y24425000D02*
X26506801Y24425000D01*
X26506801Y24425000D02*
X28820190Y22111611D01*
X11525000Y20450000D02*
X11425001Y20549999D01*
X11425001Y20549999D02*
X11425001Y22106801D01*
X11425001Y22106801D02*
X13743200Y24425000D01*
%TO.N,/GPIO0*%
X17050000Y11000000D02*
X10600000Y11000000D01*
X7385000Y14215000D02*
X7385000Y26925000D01*
X10200000Y11350000D02*
X10250000Y11350000D01*
X10250000Y11350000D02*
X7385000Y14215000D01*
X10600000Y11000000D02*
X10250000Y11350000D01*
X8150000Y9300000D02*
X10200000Y11350000D01*
%TO.N,/GPIO1*%
X8700000Y8750000D02*
X9800000Y9850000D01*
X11750000Y11750000D02*
X9925000Y13575000D01*
X9800000Y9850000D02*
X14950000Y9850000D01*
X14950000Y9850000D02*
X15500000Y10400000D01*
X9925000Y13575000D02*
X9925000Y26925000D01*
X15500000Y10400000D02*
X17400000Y10400000D01*
X17600000Y10600000D02*
X17600000Y11200000D01*
X17600000Y11200000D02*
X17050000Y11750000D01*
X17050000Y11750000D02*
X11750000Y11750000D01*
X6650000Y8750000D02*
X8700000Y8750000D01*
X17400000Y10400000D02*
X17600000Y10600000D01*
%TO.N,/QSPI_SS*%
X34600000Y25700000D02*
X35700000Y25700000D01*
X34450000Y25750000D02*
X34500000Y25700000D01*
X34500000Y25700000D02*
X34600000Y25700000D01*
X32175489Y28024511D02*
X34450000Y25750000D01*
X2275489Y28024511D02*
X32175489Y28024511D01*
%TO.N,/SWD*%
X22000000Y17350000D02*
X22000000Y13100000D01*
X10200000Y9300000D02*
X9055000Y8155000D01*
X9055000Y8155000D02*
X3595000Y8155000D01*
X22000000Y13100000D02*
X18200000Y9300000D01*
D23*
X1800000Y8155000D02*
X3595000Y8155000D01*
D22*
X18200000Y9300000D02*
X10200000Y9300000D01*
%TO.N,/RUN*%
X35775489Y2624511D02*
X35800000Y2600000D01*
X11620000Y8300000D02*
X19350000Y8300000D01*
X24399501Y17126005D02*
X24362741Y17162765D01*
X24399501Y13349501D02*
X24399501Y17126005D01*
X1800000Y3450000D02*
X2250000Y3000000D01*
X1800000Y4345000D02*
X1800000Y3450000D01*
X8825489Y2624511D02*
X35775489Y2624511D01*
X7385000Y4065000D02*
X8825489Y2624511D01*
X2250000Y3000000D02*
X6320000Y3000000D01*
X19350000Y8300000D02*
X24399501Y13349501D01*
X7385000Y4065000D02*
X11620000Y8300000D01*
X6320000Y3000000D02*
X7385000Y4065000D01*
%TO.N,/SWCLK*%
X8835000Y6885000D02*
X3585000Y6885000D01*
X10750000Y8800000D02*
X8835000Y6885000D01*
D23*
X1800000Y6885000D02*
X3585000Y6885000D01*
D22*
X19100000Y8800000D02*
X10750000Y8800000D01*
X23950000Y16800000D02*
X23950000Y13650000D01*
X23950000Y13650000D02*
X19100000Y8800000D01*
%TD*%
%TA.AperFunction,Conductor*%
%TO.N,GND*%
G36*
X38973566Y30832687D02*
G01*
X38998876Y30788850D01*
X39000000Y30776000D01*
X39000000Y20295761D01*
X38982687Y20248195D01*
X38938850Y20222885D01*
X38889000Y20231675D01*
X38875344Y20241817D01*
X38763488Y20346856D01*
X38756022Y20352280D01*
X38620259Y20426917D01*
X38611676Y20430315D01*
X38461621Y20468843D01*
X38452462Y20470000D01*
X38163048Y20470000D01*
X38153052Y20466362D01*
X38150000Y20461075D01*
X38150000Y19183048D01*
X38153638Y19173052D01*
X38158925Y19170000D01*
X38413563Y19170000D01*
X38418211Y19170293D01*
X38533312Y19184833D01*
X38542264Y19187132D01*
X38686298Y19244159D01*
X38694397Y19248612D01*
X38819724Y19339668D01*
X38826460Y19345993D01*
X38868982Y19397393D01*
X38912642Y19423008D01*
X38962552Y19414567D01*
X38995359Y19376018D01*
X39000000Y19350224D01*
X39000000Y11655761D01*
X38982687Y11608195D01*
X38938850Y11582885D01*
X38889000Y11591675D01*
X38875344Y11601817D01*
X38763488Y11706856D01*
X38756022Y11712280D01*
X38620259Y11786917D01*
X38611676Y11790315D01*
X38461621Y11828843D01*
X38452462Y11830000D01*
X38163048Y11830000D01*
X38153052Y11826362D01*
X38150000Y11821075D01*
X38150000Y10543048D01*
X38153638Y10533052D01*
X38158925Y10530000D01*
X38413563Y10530000D01*
X38418211Y10530293D01*
X38533312Y10544833D01*
X38542264Y10547132D01*
X38686298Y10604159D01*
X38694397Y10608612D01*
X38819724Y10699668D01*
X38826460Y10705993D01*
X38868982Y10757393D01*
X38912642Y10783008D01*
X38962552Y10774567D01*
X38995359Y10736018D01*
X39000000Y10710224D01*
X39000000Y224000D01*
X38982687Y176434D01*
X38938850Y151124D01*
X38926000Y150000D01*
X2842784Y150000D01*
X2795218Y167313D01*
X2790458Y171674D01*
X2298265Y663867D01*
X6385001Y663867D01*
X6385712Y656653D01*
X6392281Y623622D01*
X6397752Y610413D01*
X6422807Y572916D01*
X6432916Y562807D01*
X6470415Y537751D01*
X6483620Y532281D01*
X6516655Y525710D01*
X6523865Y525000D01*
X7296952Y525000D01*
X7306948Y528638D01*
X7310000Y533925D01*
X7310000Y538049D01*
X7460000Y538049D01*
X7463638Y528053D01*
X7468925Y525001D01*
X8246133Y525001D01*
X8253347Y525712D01*
X8286378Y532281D01*
X8299587Y537752D01*
X8337084Y562807D01*
X8347193Y572916D01*
X8372249Y610415D01*
X8377719Y623620D01*
X8384290Y656655D01*
X8385000Y663865D01*
X8385000Y1436952D01*
X8381362Y1446948D01*
X8376075Y1450000D01*
X7473048Y1450000D01*
X7463052Y1446362D01*
X7460000Y1441075D01*
X7460000Y538049D01*
X7310000Y538049D01*
X7310000Y1436952D01*
X7306362Y1446948D01*
X7301075Y1450000D01*
X6398049Y1450000D01*
X6388053Y1446362D01*
X6385001Y1441075D01*
X6385001Y663867D01*
X2298265Y663867D01*
X1349084Y1613048D01*
X6385000Y1613048D01*
X6388638Y1603052D01*
X6393925Y1600000D01*
X7296952Y1600000D01*
X7306948Y1603638D01*
X7310000Y1608925D01*
X7310000Y1613048D01*
X7460000Y1613048D01*
X7463638Y1603052D01*
X7468925Y1600000D01*
X8371951Y1600000D01*
X8381947Y1603638D01*
X8384999Y1608925D01*
X8384999Y2386133D01*
X8384288Y2393347D01*
X8377719Y2426378D01*
X8372248Y2439587D01*
X8347193Y2477084D01*
X8337084Y2487193D01*
X8299585Y2512249D01*
X8286380Y2517719D01*
X8253345Y2524290D01*
X8246135Y2525000D01*
X7473048Y2525000D01*
X7463052Y2521362D01*
X7460000Y2516075D01*
X7460000Y1613048D01*
X7310000Y1613048D01*
X7310000Y2511951D01*
X7306362Y2521947D01*
X7301075Y2524999D01*
X6523867Y2524999D01*
X6516653Y2524288D01*
X6483622Y2517719D01*
X6470413Y2512248D01*
X6432916Y2487193D01*
X6422807Y2477084D01*
X6397751Y2439585D01*
X6392281Y2426380D01*
X6385710Y2393345D01*
X6385000Y2386135D01*
X6385000Y1613048D01*
X1349084Y1613048D01*
X321674Y2640458D01*
X300282Y2686334D01*
X300000Y2692784D01*
X300000Y4310109D01*
X895420Y4310109D01*
X896417Y4305165D01*
X896417Y4305163D01*
X924236Y4167200D01*
X925233Y4162257D01*
X993707Y4027868D01*
X1037139Y3980636D01*
X1092382Y3920559D01*
X1092386Y3920556D01*
X1095799Y3916844D01*
X1100085Y3914187D01*
X1100088Y3914184D01*
X1149550Y3883517D01*
X1223986Y3837365D01*
X1294352Y3816921D01*
X1365103Y3796366D01*
X1365106Y3796365D01*
X1368825Y3795285D01*
X1373697Y3794927D01*
X1378160Y3794599D01*
X1378174Y3794599D01*
X1379515Y3794500D01*
X1475500Y3794500D01*
X1523066Y3777187D01*
X1548376Y3733350D01*
X1549500Y3720500D01*
X1549500Y3481962D01*
X1548078Y3467525D01*
X1544592Y3450000D01*
X1564034Y3352259D01*
X1574257Y3336960D01*
X1619399Y3269399D01*
X1625459Y3265350D01*
X1634259Y3259470D01*
X1645473Y3250267D01*
X2050267Y2845473D01*
X2059470Y2834259D01*
X2069399Y2819399D01*
X2075459Y2815350D01*
X2075461Y2815348D01*
X2122086Y2784195D01*
X2122088Y2784194D01*
X2152259Y2764034D01*
X2250000Y2744592D01*
X2267525Y2748078D01*
X2281962Y2749500D01*
X6288038Y2749500D01*
X6302475Y2748078D01*
X6320000Y2744592D01*
X6417741Y2764034D01*
X6447912Y2784194D01*
X6500601Y2819399D01*
X6510530Y2834259D01*
X6519733Y2845473D01*
X6837409Y3163149D01*
X6883285Y3184541D01*
X6925834Y3175420D01*
X6982513Y3143743D01*
X7169118Y3083111D01*
X7229541Y3075906D01*
X7360346Y3060308D01*
X7360349Y3060308D01*
X7363946Y3059879D01*
X7428365Y3064836D01*
X7555965Y3074654D01*
X7555966Y3074654D01*
X7559576Y3074932D01*
X7748556Y3127697D01*
X7846569Y3177207D01*
X7896829Y3183201D01*
X7932258Y3163482D01*
X8625756Y2469984D01*
X8634959Y2458770D01*
X8644888Y2443910D01*
X8681572Y2419399D01*
X8727748Y2388545D01*
X8734893Y2387124D01*
X8734895Y2387123D01*
X8818340Y2370525D01*
X8825489Y2369103D01*
X8843014Y2372589D01*
X8857451Y2374011D01*
X9174262Y2374011D01*
X9221828Y2356698D01*
X9247138Y2312861D01*
X9238348Y2263011D01*
X9226039Y2247142D01*
X9224420Y2245557D01*
X9221600Y2243289D01*
X9095480Y2092984D01*
X9000956Y1921046D01*
X8999864Y1917603D01*
X8999863Y1917601D01*
X8995753Y1904643D01*
X8941628Y1734022D01*
X8941225Y1730426D01*
X8941224Y1730423D01*
X8932311Y1650961D01*
X8919757Y1539037D01*
X8920060Y1535428D01*
X8920060Y1535426D01*
X8927490Y1446948D01*
X8936175Y1343517D01*
X8990258Y1154909D01*
X8991911Y1151693D01*
X9078288Y983620D01*
X9078291Y983615D01*
X9079944Y980399D01*
X9201818Y826631D01*
X9351238Y699465D01*
X9354400Y697698D01*
X9519354Y605508D01*
X9519358Y605506D01*
X9522513Y603743D01*
X9525949Y602626D01*
X9525955Y602624D01*
X9617388Y572916D01*
X9709118Y543111D01*
X9769541Y535906D01*
X9900346Y520308D01*
X9900349Y520308D01*
X9903946Y519879D01*
X9979752Y525712D01*
X10095965Y534654D01*
X10095966Y534654D01*
X10099576Y534932D01*
X10288556Y587697D01*
X10291783Y589327D01*
X10460455Y674529D01*
X10460458Y674531D01*
X10463689Y676163D01*
X10618303Y796960D01*
X10746509Y945489D01*
X10748292Y948628D01*
X10748295Y948632D01*
X10794967Y1030790D01*
X10843425Y1116091D01*
X10855269Y1151693D01*
X10904215Y1298832D01*
X10905358Y1302268D01*
X10910130Y1340038D01*
X10929691Y1494885D01*
X10929691Y1494889D01*
X10929949Y1496929D01*
X10930341Y1525000D01*
X10911194Y1720272D01*
X10854484Y1908106D01*
X10762370Y2081347D01*
X10700366Y2157372D01*
X10640648Y2230594D01*
X10640647Y2230595D01*
X10638361Y2233398D01*
X10627563Y2242331D01*
X10626762Y2242994D01*
X10601148Y2286654D01*
X10609590Y2336564D01*
X10648139Y2369370D01*
X10673932Y2374011D01*
X11714262Y2374011D01*
X11761828Y2356698D01*
X11787138Y2312861D01*
X11778348Y2263011D01*
X11766039Y2247142D01*
X11764420Y2245557D01*
X11761600Y2243289D01*
X11635480Y2092984D01*
X11540956Y1921046D01*
X11539864Y1917603D01*
X11539863Y1917601D01*
X11535753Y1904643D01*
X11481628Y1734022D01*
X11481225Y1730426D01*
X11481224Y1730423D01*
X11472311Y1650961D01*
X11459757Y1539037D01*
X11460060Y1535428D01*
X11460060Y1535426D01*
X11467490Y1446948D01*
X11476175Y1343517D01*
X11530258Y1154909D01*
X11531911Y1151693D01*
X11618288Y983620D01*
X11618291Y983615D01*
X11619944Y980399D01*
X11741818Y826631D01*
X11891238Y699465D01*
X11894400Y697698D01*
X12059354Y605508D01*
X12059358Y605506D01*
X12062513Y603743D01*
X12065949Y602626D01*
X12065955Y602624D01*
X12157388Y572916D01*
X12249118Y543111D01*
X12309541Y535906D01*
X12440346Y520308D01*
X12440349Y520308D01*
X12443946Y519879D01*
X12519752Y525712D01*
X12635965Y534654D01*
X12635966Y534654D01*
X12639576Y534932D01*
X12828556Y587697D01*
X12831783Y589327D01*
X13000455Y674529D01*
X13000458Y674531D01*
X13003689Y676163D01*
X13158303Y796960D01*
X13286509Y945489D01*
X13288292Y948628D01*
X13288295Y948632D01*
X13334967Y1030790D01*
X13383425Y1116091D01*
X13395269Y1151693D01*
X13444215Y1298832D01*
X13445358Y1302268D01*
X13450130Y1340038D01*
X13469691Y1494885D01*
X13469691Y1494889D01*
X13469949Y1496929D01*
X13470341Y1525000D01*
X13451194Y1720272D01*
X13394484Y1908106D01*
X13302370Y2081347D01*
X13240366Y2157372D01*
X13180648Y2230594D01*
X13180647Y2230595D01*
X13178361Y2233398D01*
X13167563Y2242331D01*
X13166762Y2242994D01*
X13141148Y2286654D01*
X13149590Y2336564D01*
X13188139Y2369370D01*
X13213932Y2374011D01*
X14254262Y2374011D01*
X14301828Y2356698D01*
X14327138Y2312861D01*
X14318348Y2263011D01*
X14306039Y2247142D01*
X14304420Y2245557D01*
X14301600Y2243289D01*
X14175480Y2092984D01*
X14080956Y1921046D01*
X14079864Y1917603D01*
X14079863Y1917601D01*
X14075753Y1904643D01*
X14021628Y1734022D01*
X14021225Y1730426D01*
X14021224Y1730423D01*
X14012311Y1650961D01*
X13999757Y1539037D01*
X14000060Y1535428D01*
X14000060Y1535426D01*
X14007490Y1446948D01*
X14016175Y1343517D01*
X14070258Y1154909D01*
X14071911Y1151693D01*
X14158288Y983620D01*
X14158291Y983615D01*
X14159944Y980399D01*
X14281818Y826631D01*
X14431238Y699465D01*
X14434400Y697698D01*
X14599354Y605508D01*
X14599358Y605506D01*
X14602513Y603743D01*
X14605949Y602626D01*
X14605955Y602624D01*
X14697388Y572916D01*
X14789118Y543111D01*
X14849541Y535906D01*
X14980346Y520308D01*
X14980349Y520308D01*
X14983946Y519879D01*
X15059752Y525712D01*
X15175965Y534654D01*
X15175966Y534654D01*
X15179576Y534932D01*
X15368556Y587697D01*
X15371783Y589327D01*
X15540455Y674529D01*
X15540458Y674531D01*
X15543689Y676163D01*
X15698303Y796960D01*
X15826509Y945489D01*
X15828292Y948628D01*
X15828295Y948632D01*
X15874967Y1030790D01*
X15923425Y1116091D01*
X15935269Y1151693D01*
X15984215Y1298832D01*
X15985358Y1302268D01*
X15990130Y1340038D01*
X16009691Y1494885D01*
X16009691Y1494889D01*
X16009949Y1496929D01*
X16010341Y1525000D01*
X15991194Y1720272D01*
X15934484Y1908106D01*
X15842370Y2081347D01*
X15780366Y2157372D01*
X15720648Y2230594D01*
X15720647Y2230595D01*
X15718361Y2233398D01*
X15707563Y2242331D01*
X15706762Y2242994D01*
X15681148Y2286654D01*
X15689590Y2336564D01*
X15728139Y2369370D01*
X15753932Y2374011D01*
X16794262Y2374011D01*
X16841828Y2356698D01*
X16867138Y2312861D01*
X16858348Y2263011D01*
X16846039Y2247142D01*
X16844420Y2245557D01*
X16841600Y2243289D01*
X16715480Y2092984D01*
X16620956Y1921046D01*
X16619864Y1917603D01*
X16619863Y1917601D01*
X16615753Y1904643D01*
X16561628Y1734022D01*
X16561225Y1730426D01*
X16561224Y1730423D01*
X16552311Y1650961D01*
X16539757Y1539037D01*
X16540060Y1535428D01*
X16540060Y1535426D01*
X16547490Y1446948D01*
X16556175Y1343517D01*
X16610258Y1154909D01*
X16611911Y1151693D01*
X16698288Y983620D01*
X16698291Y983615D01*
X16699944Y980399D01*
X16821818Y826631D01*
X16971238Y699465D01*
X16974400Y697698D01*
X17139354Y605508D01*
X17139358Y605506D01*
X17142513Y603743D01*
X17145949Y602626D01*
X17145955Y602624D01*
X17237388Y572916D01*
X17329118Y543111D01*
X17389541Y535906D01*
X17520346Y520308D01*
X17520349Y520308D01*
X17523946Y519879D01*
X17599752Y525712D01*
X17715965Y534654D01*
X17715966Y534654D01*
X17719576Y534932D01*
X17908556Y587697D01*
X17911783Y589327D01*
X18080455Y674529D01*
X18080458Y674531D01*
X18083689Y676163D01*
X18238303Y796960D01*
X18366509Y945489D01*
X18368292Y948628D01*
X18368295Y948632D01*
X18414967Y1030790D01*
X18463425Y1116091D01*
X18475269Y1151693D01*
X18524215Y1298832D01*
X18525358Y1302268D01*
X18530130Y1340038D01*
X18549691Y1494885D01*
X18549691Y1494889D01*
X18549949Y1496929D01*
X18550341Y1525000D01*
X18531194Y1720272D01*
X18474484Y1908106D01*
X18382370Y2081347D01*
X18320366Y2157372D01*
X18260648Y2230594D01*
X18260647Y2230595D01*
X18258361Y2233398D01*
X18247563Y2242331D01*
X18246762Y2242994D01*
X18221148Y2286654D01*
X18229590Y2336564D01*
X18268139Y2369370D01*
X18293932Y2374011D01*
X19334262Y2374011D01*
X19381828Y2356698D01*
X19407138Y2312861D01*
X19398348Y2263011D01*
X19386039Y2247142D01*
X19384420Y2245557D01*
X19381600Y2243289D01*
X19255480Y2092984D01*
X19160956Y1921046D01*
X19159864Y1917603D01*
X19159863Y1917601D01*
X19155753Y1904643D01*
X19101628Y1734022D01*
X19101225Y1730426D01*
X19101224Y1730423D01*
X19092311Y1650961D01*
X19079757Y1539037D01*
X19080060Y1535428D01*
X19080060Y1535426D01*
X19087490Y1446948D01*
X19096175Y1343517D01*
X19150258Y1154909D01*
X19151911Y1151693D01*
X19238288Y983620D01*
X19238291Y983615D01*
X19239944Y980399D01*
X19361818Y826631D01*
X19511238Y699465D01*
X19514400Y697698D01*
X19679354Y605508D01*
X19679358Y605506D01*
X19682513Y603743D01*
X19685949Y602626D01*
X19685955Y602624D01*
X19777388Y572916D01*
X19869118Y543111D01*
X19929541Y535906D01*
X20060346Y520308D01*
X20060349Y520308D01*
X20063946Y519879D01*
X20139752Y525712D01*
X20255965Y534654D01*
X20255966Y534654D01*
X20259576Y534932D01*
X20448556Y587697D01*
X20451783Y589327D01*
X20620455Y674529D01*
X20620458Y674531D01*
X20623689Y676163D01*
X20778303Y796960D01*
X20906509Y945489D01*
X20908292Y948628D01*
X20908295Y948632D01*
X20954967Y1030790D01*
X21003425Y1116091D01*
X21015269Y1151693D01*
X21064215Y1298832D01*
X21065358Y1302268D01*
X21070130Y1340038D01*
X21089691Y1494885D01*
X21089691Y1494889D01*
X21089949Y1496929D01*
X21090341Y1525000D01*
X21071194Y1720272D01*
X21014484Y1908106D01*
X20922370Y2081347D01*
X20860366Y2157372D01*
X20800648Y2230594D01*
X20800647Y2230595D01*
X20798361Y2233398D01*
X20787563Y2242331D01*
X20786762Y2242994D01*
X20761148Y2286654D01*
X20769590Y2336564D01*
X20808139Y2369370D01*
X20833932Y2374011D01*
X21874262Y2374011D01*
X21921828Y2356698D01*
X21947138Y2312861D01*
X21938348Y2263011D01*
X21926039Y2247142D01*
X21924420Y2245557D01*
X21921600Y2243289D01*
X21795480Y2092984D01*
X21700956Y1921046D01*
X21699864Y1917603D01*
X21699863Y1917601D01*
X21695753Y1904643D01*
X21641628Y1734022D01*
X21641225Y1730426D01*
X21641224Y1730423D01*
X21632311Y1650961D01*
X21619757Y1539037D01*
X21620060Y1535428D01*
X21620060Y1535426D01*
X21627490Y1446948D01*
X21636175Y1343517D01*
X21690258Y1154909D01*
X21691911Y1151693D01*
X21778288Y983620D01*
X21778291Y983615D01*
X21779944Y980399D01*
X21901818Y826631D01*
X22051238Y699465D01*
X22054400Y697698D01*
X22219354Y605508D01*
X22219358Y605506D01*
X22222513Y603743D01*
X22225949Y602626D01*
X22225955Y602624D01*
X22317388Y572916D01*
X22409118Y543111D01*
X22469541Y535906D01*
X22600346Y520308D01*
X22600349Y520308D01*
X22603946Y519879D01*
X22679752Y525712D01*
X22795965Y534654D01*
X22795966Y534654D01*
X22799576Y534932D01*
X22988556Y587697D01*
X22991783Y589327D01*
X23160455Y674529D01*
X23160458Y674531D01*
X23163689Y676163D01*
X23318303Y796960D01*
X23446509Y945489D01*
X23448292Y948628D01*
X23448295Y948632D01*
X23494967Y1030790D01*
X23543425Y1116091D01*
X23555269Y1151693D01*
X23604215Y1298832D01*
X23605358Y1302268D01*
X23610130Y1340038D01*
X23629691Y1494885D01*
X23629691Y1494889D01*
X23629949Y1496929D01*
X23630341Y1525000D01*
X23611194Y1720272D01*
X23554484Y1908106D01*
X23462370Y2081347D01*
X23400366Y2157372D01*
X23340648Y2230594D01*
X23340647Y2230595D01*
X23338361Y2233398D01*
X23327563Y2242331D01*
X23326762Y2242994D01*
X23301148Y2286654D01*
X23309590Y2336564D01*
X23348139Y2369370D01*
X23373932Y2374011D01*
X24414262Y2374011D01*
X24461828Y2356698D01*
X24487138Y2312861D01*
X24478348Y2263011D01*
X24466039Y2247142D01*
X24464420Y2245557D01*
X24461600Y2243289D01*
X24335480Y2092984D01*
X24240956Y1921046D01*
X24239864Y1917603D01*
X24239863Y1917601D01*
X24235753Y1904643D01*
X24181628Y1734022D01*
X24181225Y1730426D01*
X24181224Y1730423D01*
X24172311Y1650961D01*
X24159757Y1539037D01*
X24160060Y1535428D01*
X24160060Y1535426D01*
X24167490Y1446948D01*
X24176175Y1343517D01*
X24230258Y1154909D01*
X24231911Y1151693D01*
X24318288Y983620D01*
X24318291Y983615D01*
X24319944Y980399D01*
X24441818Y826631D01*
X24591238Y699465D01*
X24594400Y697698D01*
X24759354Y605508D01*
X24759358Y605506D01*
X24762513Y603743D01*
X24765949Y602626D01*
X24765955Y602624D01*
X24857388Y572916D01*
X24949118Y543111D01*
X25009541Y535906D01*
X25140346Y520308D01*
X25140349Y520308D01*
X25143946Y519879D01*
X25219752Y525712D01*
X25335965Y534654D01*
X25335966Y534654D01*
X25339576Y534932D01*
X25528556Y587697D01*
X25531783Y589327D01*
X25700455Y674529D01*
X25700458Y674531D01*
X25703689Y676163D01*
X25858303Y796960D01*
X25986509Y945489D01*
X25988292Y948628D01*
X25988295Y948632D01*
X26034967Y1030790D01*
X26083425Y1116091D01*
X26095269Y1151693D01*
X26144215Y1298832D01*
X26145358Y1302268D01*
X26150130Y1340038D01*
X26169691Y1494885D01*
X26169691Y1494889D01*
X26169949Y1496929D01*
X26170341Y1525000D01*
X26151194Y1720272D01*
X26094484Y1908106D01*
X26002370Y2081347D01*
X25940366Y2157372D01*
X25880648Y2230594D01*
X25880647Y2230595D01*
X25878361Y2233398D01*
X25867563Y2242331D01*
X25866762Y2242994D01*
X25841148Y2286654D01*
X25849590Y2336564D01*
X25888139Y2369370D01*
X25913932Y2374011D01*
X26954262Y2374011D01*
X27001828Y2356698D01*
X27027138Y2312861D01*
X27018348Y2263011D01*
X27006039Y2247142D01*
X27004420Y2245557D01*
X27001600Y2243289D01*
X26875480Y2092984D01*
X26780956Y1921046D01*
X26779864Y1917603D01*
X26779863Y1917601D01*
X26775753Y1904643D01*
X26721628Y1734022D01*
X26721225Y1730426D01*
X26721224Y1730423D01*
X26712311Y1650961D01*
X26699757Y1539037D01*
X26700060Y1535428D01*
X26700060Y1535426D01*
X26707490Y1446948D01*
X26716175Y1343517D01*
X26770258Y1154909D01*
X26771911Y1151693D01*
X26858288Y983620D01*
X26858291Y983615D01*
X26859944Y980399D01*
X26981818Y826631D01*
X27131238Y699465D01*
X27134400Y697698D01*
X27299354Y605508D01*
X27299358Y605506D01*
X27302513Y603743D01*
X27305949Y602626D01*
X27305955Y602624D01*
X27397388Y572916D01*
X27489118Y543111D01*
X27549541Y535906D01*
X27680346Y520308D01*
X27680349Y520308D01*
X27683946Y519879D01*
X27759752Y525712D01*
X27875965Y534654D01*
X27875966Y534654D01*
X27879576Y534932D01*
X28068556Y587697D01*
X28071783Y589327D01*
X28240455Y674529D01*
X28240458Y674531D01*
X28243689Y676163D01*
X28398303Y796960D01*
X28526509Y945489D01*
X28528292Y948628D01*
X28528295Y948632D01*
X28574967Y1030790D01*
X28623425Y1116091D01*
X28635269Y1151693D01*
X28684215Y1298832D01*
X28685358Y1302268D01*
X28690130Y1340038D01*
X28709691Y1494885D01*
X28709691Y1494889D01*
X28709949Y1496929D01*
X28710341Y1525000D01*
X28691194Y1720272D01*
X28634484Y1908106D01*
X28542370Y2081347D01*
X28480366Y2157372D01*
X28420648Y2230594D01*
X28420647Y2230595D01*
X28418361Y2233398D01*
X28407563Y2242331D01*
X28406762Y2242994D01*
X28381148Y2286654D01*
X28389590Y2336564D01*
X28428139Y2369370D01*
X28453932Y2374011D01*
X29494262Y2374011D01*
X29541828Y2356698D01*
X29567138Y2312861D01*
X29558348Y2263011D01*
X29546039Y2247142D01*
X29544420Y2245557D01*
X29541600Y2243289D01*
X29415480Y2092984D01*
X29320956Y1921046D01*
X29319864Y1917603D01*
X29319863Y1917601D01*
X29315753Y1904643D01*
X29261628Y1734022D01*
X29261225Y1730426D01*
X29261224Y1730423D01*
X29252311Y1650961D01*
X29239757Y1539037D01*
X29240060Y1535428D01*
X29240060Y1535426D01*
X29247490Y1446948D01*
X29256175Y1343517D01*
X29310258Y1154909D01*
X29311911Y1151693D01*
X29398288Y983620D01*
X29398291Y983615D01*
X29399944Y980399D01*
X29521818Y826631D01*
X29671238Y699465D01*
X29674400Y697698D01*
X29839354Y605508D01*
X29839358Y605506D01*
X29842513Y603743D01*
X29845949Y602626D01*
X29845955Y602624D01*
X29937388Y572916D01*
X30029118Y543111D01*
X30089541Y535906D01*
X30220346Y520308D01*
X30220349Y520308D01*
X30223946Y519879D01*
X30299752Y525712D01*
X30415965Y534654D01*
X30415966Y534654D01*
X30419576Y534932D01*
X30608556Y587697D01*
X30611783Y589327D01*
X30780455Y674529D01*
X30780458Y674531D01*
X30783689Y676163D01*
X30938303Y796960D01*
X31066509Y945489D01*
X31068292Y948628D01*
X31068295Y948632D01*
X31114967Y1030790D01*
X31163425Y1116091D01*
X31175269Y1151693D01*
X31224215Y1298832D01*
X31225358Y1302268D01*
X31230130Y1340038D01*
X31249691Y1494885D01*
X31249691Y1494889D01*
X31249949Y1496929D01*
X31250341Y1525000D01*
X31231194Y1720272D01*
X31174484Y1908106D01*
X31082370Y2081347D01*
X31020366Y2157372D01*
X30960648Y2230594D01*
X30960647Y2230595D01*
X30958361Y2233398D01*
X30947563Y2242331D01*
X30946762Y2242994D01*
X30921148Y2286654D01*
X30929590Y2336564D01*
X30968139Y2369370D01*
X30993932Y2374011D01*
X35471371Y2374011D01*
X35518937Y2356698D01*
X35523697Y2352337D01*
X35579511Y2296523D01*
X35629489Y2271058D01*
X35678892Y2245886D01*
X35678894Y2245885D01*
X35684082Y2243242D01*
X35800000Y2224882D01*
X35915918Y2243242D01*
X35921106Y2245885D01*
X35921108Y2245886D01*
X35970511Y2271058D01*
X36020489Y2296523D01*
X36103477Y2379511D01*
X36149575Y2469984D01*
X36154114Y2478892D01*
X36154115Y2478894D01*
X36156758Y2484082D01*
X36175118Y2600000D01*
X36156758Y2715918D01*
X36141424Y2746014D01*
X36121970Y2784194D01*
X36103477Y2820489D01*
X36020489Y2903477D01*
X35970511Y2928942D01*
X35921108Y2954114D01*
X35921106Y2954115D01*
X35915918Y2956758D01*
X35800000Y2975118D01*
X35684082Y2956758D01*
X35678894Y2954115D01*
X35678892Y2954114D01*
X35629489Y2928942D01*
X35579511Y2903477D01*
X35572719Y2896685D01*
X35526843Y2875293D01*
X35520393Y2875011D01*
X8959901Y2875011D01*
X8912335Y2892324D01*
X8907575Y2896685D01*
X8287040Y3517220D01*
X8265648Y3563096D01*
X8275023Y3606095D01*
X8303425Y3656091D01*
X8309752Y3675109D01*
X8364215Y3838832D01*
X8365358Y3842268D01*
X8370130Y3880038D01*
X8389691Y4034885D01*
X8389691Y4034889D01*
X8389949Y4036929D01*
X8390341Y4065000D01*
X8388965Y4079037D01*
X8919757Y4079037D01*
X8920060Y4075428D01*
X8920060Y4075426D01*
X8933600Y3914184D01*
X8936175Y3883517D01*
X8990258Y3694909D01*
X8997847Y3680142D01*
X9078288Y3523620D01*
X9078291Y3523615D01*
X9079944Y3520399D01*
X9201818Y3366631D01*
X9351238Y3239465D01*
X9354400Y3237698D01*
X9519354Y3145508D01*
X9519358Y3145506D01*
X9522513Y3143743D01*
X9525949Y3142626D01*
X9525955Y3142624D01*
X9644467Y3104118D01*
X9709118Y3083111D01*
X9769541Y3075906D01*
X9900346Y3060308D01*
X9900349Y3060308D01*
X9903946Y3059879D01*
X9968365Y3064836D01*
X10095965Y3074654D01*
X10095966Y3074654D01*
X10099576Y3074932D01*
X10288556Y3127697D01*
X10291783Y3129327D01*
X10460455Y3214529D01*
X10460458Y3214531D01*
X10463689Y3216163D01*
X10618303Y3336960D01*
X10746509Y3485489D01*
X10748292Y3488628D01*
X10748295Y3488632D01*
X10808418Y3594468D01*
X10843425Y3656091D01*
X10849752Y3675109D01*
X10904215Y3838832D01*
X10905358Y3842268D01*
X10910130Y3880038D01*
X10929691Y4034885D01*
X10929691Y4034889D01*
X10929949Y4036929D01*
X10930341Y4065000D01*
X10928965Y4079037D01*
X11459757Y4079037D01*
X11460060Y4075428D01*
X11460060Y4075426D01*
X11473600Y3914184D01*
X11476175Y3883517D01*
X11530258Y3694909D01*
X11537847Y3680142D01*
X11618288Y3523620D01*
X11618291Y3523615D01*
X11619944Y3520399D01*
X11741818Y3366631D01*
X11891238Y3239465D01*
X11894400Y3237698D01*
X12059354Y3145508D01*
X12059358Y3145506D01*
X12062513Y3143743D01*
X12065949Y3142626D01*
X12065955Y3142624D01*
X12184467Y3104118D01*
X12249118Y3083111D01*
X12309541Y3075906D01*
X12440346Y3060308D01*
X12440349Y3060308D01*
X12443946Y3059879D01*
X12508365Y3064836D01*
X12635965Y3074654D01*
X12635966Y3074654D01*
X12639576Y3074932D01*
X12828556Y3127697D01*
X12831783Y3129327D01*
X13000455Y3214529D01*
X13000458Y3214531D01*
X13003689Y3216163D01*
X13158303Y3336960D01*
X13286509Y3485489D01*
X13288292Y3488628D01*
X13288295Y3488632D01*
X13348418Y3594468D01*
X13383425Y3656091D01*
X13389752Y3675109D01*
X13444215Y3838832D01*
X13445358Y3842268D01*
X13450130Y3880038D01*
X13469691Y4034885D01*
X13469691Y4034889D01*
X13469949Y4036929D01*
X13470341Y4065000D01*
X13468965Y4079037D01*
X13999757Y4079037D01*
X14000060Y4075428D01*
X14000060Y4075426D01*
X14013600Y3914184D01*
X14016175Y3883517D01*
X14070258Y3694909D01*
X14077847Y3680142D01*
X14158288Y3523620D01*
X14158291Y3523615D01*
X14159944Y3520399D01*
X14281818Y3366631D01*
X14431238Y3239465D01*
X14434400Y3237698D01*
X14599354Y3145508D01*
X14599358Y3145506D01*
X14602513Y3143743D01*
X14605949Y3142626D01*
X14605955Y3142624D01*
X14724467Y3104118D01*
X14789118Y3083111D01*
X14849541Y3075906D01*
X14980346Y3060308D01*
X14980349Y3060308D01*
X14983946Y3059879D01*
X15048365Y3064836D01*
X15175965Y3074654D01*
X15175966Y3074654D01*
X15179576Y3074932D01*
X15368556Y3127697D01*
X15371783Y3129327D01*
X15540455Y3214529D01*
X15540458Y3214531D01*
X15543689Y3216163D01*
X15698303Y3336960D01*
X15826509Y3485489D01*
X15828292Y3488628D01*
X15828295Y3488632D01*
X15888418Y3594468D01*
X15923425Y3656091D01*
X15929752Y3675109D01*
X15984215Y3838832D01*
X15985358Y3842268D01*
X15990130Y3880038D01*
X16009691Y4034885D01*
X16009691Y4034889D01*
X16009949Y4036929D01*
X16010341Y4065000D01*
X16008965Y4079037D01*
X16539757Y4079037D01*
X16540060Y4075428D01*
X16540060Y4075426D01*
X16553600Y3914184D01*
X16556175Y3883517D01*
X16610258Y3694909D01*
X16617847Y3680142D01*
X16698288Y3523620D01*
X16698291Y3523615D01*
X16699944Y3520399D01*
X16821818Y3366631D01*
X16971238Y3239465D01*
X16974400Y3237698D01*
X17139354Y3145508D01*
X17139358Y3145506D01*
X17142513Y3143743D01*
X17145949Y3142626D01*
X17145955Y3142624D01*
X17264467Y3104118D01*
X17329118Y3083111D01*
X17389541Y3075906D01*
X17520346Y3060308D01*
X17520349Y3060308D01*
X17523946Y3059879D01*
X17588365Y3064836D01*
X17715965Y3074654D01*
X17715966Y3074654D01*
X17719576Y3074932D01*
X17908556Y3127697D01*
X17911783Y3129327D01*
X18080455Y3214529D01*
X18080458Y3214531D01*
X18083689Y3216163D01*
X18238303Y3336960D01*
X18366509Y3485489D01*
X18368292Y3488628D01*
X18368295Y3488632D01*
X18428418Y3594468D01*
X18463425Y3656091D01*
X18469752Y3675109D01*
X18524215Y3838832D01*
X18525358Y3842268D01*
X18530130Y3880038D01*
X18549691Y4034885D01*
X18549691Y4034889D01*
X18549949Y4036929D01*
X18550341Y4065000D01*
X18548965Y4079037D01*
X19079757Y4079037D01*
X19080060Y4075428D01*
X19080060Y4075426D01*
X19093600Y3914184D01*
X19096175Y3883517D01*
X19150258Y3694909D01*
X19157847Y3680142D01*
X19238288Y3523620D01*
X19238291Y3523615D01*
X19239944Y3520399D01*
X19361818Y3366631D01*
X19511238Y3239465D01*
X19514400Y3237698D01*
X19679354Y3145508D01*
X19679358Y3145506D01*
X19682513Y3143743D01*
X19685949Y3142626D01*
X19685955Y3142624D01*
X19804467Y3104118D01*
X19869118Y3083111D01*
X19929541Y3075906D01*
X20060346Y3060308D01*
X20060349Y3060308D01*
X20063946Y3059879D01*
X20128365Y3064836D01*
X20255965Y3074654D01*
X20255966Y3074654D01*
X20259576Y3074932D01*
X20448556Y3127697D01*
X20451783Y3129327D01*
X20620455Y3214529D01*
X20620458Y3214531D01*
X20623689Y3216163D01*
X20778303Y3336960D01*
X20906509Y3485489D01*
X20908292Y3488628D01*
X20908295Y3488632D01*
X20968418Y3594468D01*
X21003425Y3656091D01*
X21009752Y3675109D01*
X21064215Y3838832D01*
X21065358Y3842268D01*
X21070130Y3880038D01*
X21089691Y4034885D01*
X21089691Y4034889D01*
X21089949Y4036929D01*
X21090341Y4065000D01*
X21088965Y4079037D01*
X21619757Y4079037D01*
X21620060Y4075428D01*
X21620060Y4075426D01*
X21633600Y3914184D01*
X21636175Y3883517D01*
X21690258Y3694909D01*
X21697847Y3680142D01*
X21778288Y3523620D01*
X21778291Y3523615D01*
X21779944Y3520399D01*
X21901818Y3366631D01*
X22051238Y3239465D01*
X22054400Y3237698D01*
X22219354Y3145508D01*
X22219358Y3145506D01*
X22222513Y3143743D01*
X22225949Y3142626D01*
X22225955Y3142624D01*
X22344467Y3104118D01*
X22409118Y3083111D01*
X22469541Y3075906D01*
X22600346Y3060308D01*
X22600349Y3060308D01*
X22603946Y3059879D01*
X22668365Y3064836D01*
X22795965Y3074654D01*
X22795966Y3074654D01*
X22799576Y3074932D01*
X22988556Y3127697D01*
X22991783Y3129327D01*
X23160455Y3214529D01*
X23160458Y3214531D01*
X23163689Y3216163D01*
X23318303Y3336960D01*
X23446509Y3485489D01*
X23448292Y3488628D01*
X23448295Y3488632D01*
X23508418Y3594468D01*
X23543425Y3656091D01*
X23549752Y3675109D01*
X23604215Y3838832D01*
X23605358Y3842268D01*
X23610130Y3880038D01*
X23629691Y4034885D01*
X23629691Y4034889D01*
X23629949Y4036929D01*
X23630341Y4065000D01*
X23611194Y4260272D01*
X23607852Y4271343D01*
X23560101Y4429500D01*
X23554484Y4448106D01*
X23475613Y4596440D01*
X23464069Y4618152D01*
X23464068Y4618153D01*
X23462370Y4621347D01*
X23338361Y4773398D01*
X23224213Y4867829D01*
X23189975Y4896153D01*
X23189974Y4896154D01*
X23187180Y4898465D01*
X23172814Y4906233D01*
X23017768Y4990066D01*
X23014585Y4991787D01*
X23011135Y4992855D01*
X23011130Y4992857D01*
X22892718Y5029511D01*
X22827152Y5049807D01*
X22632019Y5070317D01*
X22436618Y5052534D01*
X22433145Y5051512D01*
X22433146Y5051512D01*
X22251864Y4998158D01*
X22251860Y4998156D01*
X22248393Y4997136D01*
X22181282Y4962051D01*
X22077719Y4907910D01*
X22077716Y4907908D01*
X22074512Y4906233D01*
X22071694Y4903967D01*
X22071692Y4903966D01*
X21924419Y4785556D01*
X21924416Y4785553D01*
X21921600Y4783289D01*
X21795480Y4632984D01*
X21793738Y4629816D01*
X21793737Y4629814D01*
X21776081Y4597698D01*
X21700956Y4461046D01*
X21699864Y4457603D01*
X21699863Y4457601D01*
X21651507Y4305163D01*
X21641628Y4274022D01*
X21641225Y4270426D01*
X21641224Y4270423D01*
X21638396Y4245206D01*
X21619757Y4079037D01*
X21088965Y4079037D01*
X21071194Y4260272D01*
X21067852Y4271343D01*
X21020101Y4429500D01*
X21014484Y4448106D01*
X20935613Y4596440D01*
X20924069Y4618152D01*
X20924068Y4618153D01*
X20922370Y4621347D01*
X20798361Y4773398D01*
X20684213Y4867829D01*
X20649975Y4896153D01*
X20649974Y4896154D01*
X20647180Y4898465D01*
X20632814Y4906233D01*
X20477768Y4990066D01*
X20474585Y4991787D01*
X20471135Y4992855D01*
X20471130Y4992857D01*
X20352718Y5029511D01*
X20287152Y5049807D01*
X20092019Y5070317D01*
X19896618Y5052534D01*
X19893145Y5051512D01*
X19893146Y5051512D01*
X19711864Y4998158D01*
X19711860Y4998156D01*
X19708393Y4997136D01*
X19641282Y4962051D01*
X19537719Y4907910D01*
X19537716Y4907908D01*
X19534512Y4906233D01*
X19531694Y4903967D01*
X19531692Y4903966D01*
X19384419Y4785556D01*
X19384416Y4785553D01*
X19381600Y4783289D01*
X19255480Y4632984D01*
X19253738Y4629816D01*
X19253737Y4629814D01*
X19236081Y4597698D01*
X19160956Y4461046D01*
X19159864Y4457603D01*
X19159863Y4457601D01*
X19111507Y4305163D01*
X19101628Y4274022D01*
X19101225Y4270426D01*
X19101224Y4270423D01*
X19098396Y4245206D01*
X19079757Y4079037D01*
X18548965Y4079037D01*
X18531194Y4260272D01*
X18527852Y4271343D01*
X18480101Y4429500D01*
X18474484Y4448106D01*
X18395613Y4596440D01*
X18384069Y4618152D01*
X18384068Y4618153D01*
X18382370Y4621347D01*
X18258361Y4773398D01*
X18144213Y4867829D01*
X18109975Y4896153D01*
X18109974Y4896154D01*
X18107180Y4898465D01*
X18092814Y4906233D01*
X17937768Y4990066D01*
X17934585Y4991787D01*
X17931135Y4992855D01*
X17931130Y4992857D01*
X17812718Y5029511D01*
X17747152Y5049807D01*
X17552019Y5070317D01*
X17356618Y5052534D01*
X17353145Y5051512D01*
X17353146Y5051512D01*
X17171864Y4998158D01*
X17171860Y4998156D01*
X17168393Y4997136D01*
X17101282Y4962051D01*
X16997719Y4907910D01*
X16997716Y4907908D01*
X16994512Y4906233D01*
X16991694Y4903967D01*
X16991692Y4903966D01*
X16844419Y4785556D01*
X16844416Y4785553D01*
X16841600Y4783289D01*
X16715480Y4632984D01*
X16713738Y4629816D01*
X16713737Y4629814D01*
X16696081Y4597698D01*
X16620956Y4461046D01*
X16619864Y4457603D01*
X16619863Y4457601D01*
X16571507Y4305163D01*
X16561628Y4274022D01*
X16561225Y4270426D01*
X16561224Y4270423D01*
X16558396Y4245206D01*
X16539757Y4079037D01*
X16008965Y4079037D01*
X15991194Y4260272D01*
X15987852Y4271343D01*
X15940101Y4429500D01*
X15934484Y4448106D01*
X15855613Y4596440D01*
X15844069Y4618152D01*
X15844068Y4618153D01*
X15842370Y4621347D01*
X15718361Y4773398D01*
X15604213Y4867829D01*
X15569975Y4896153D01*
X15569974Y4896154D01*
X15567180Y4898465D01*
X15552814Y4906233D01*
X15397768Y4990066D01*
X15394585Y4991787D01*
X15391135Y4992855D01*
X15391130Y4992857D01*
X15272718Y5029511D01*
X15207152Y5049807D01*
X15012019Y5070317D01*
X14816618Y5052534D01*
X14813145Y5051512D01*
X14813146Y5051512D01*
X14631864Y4998158D01*
X14631860Y4998156D01*
X14628393Y4997136D01*
X14561282Y4962051D01*
X14457719Y4907910D01*
X14457716Y4907908D01*
X14454512Y4906233D01*
X14451694Y4903967D01*
X14451692Y4903966D01*
X14304419Y4785556D01*
X14304416Y4785553D01*
X14301600Y4783289D01*
X14175480Y4632984D01*
X14173738Y4629816D01*
X14173737Y4629814D01*
X14156081Y4597698D01*
X14080956Y4461046D01*
X14079864Y4457603D01*
X14079863Y4457601D01*
X14031507Y4305163D01*
X14021628Y4274022D01*
X14021225Y4270426D01*
X14021224Y4270423D01*
X14018396Y4245206D01*
X13999757Y4079037D01*
X13468965Y4079037D01*
X13451194Y4260272D01*
X13447852Y4271343D01*
X13400101Y4429500D01*
X13394484Y4448106D01*
X13315613Y4596440D01*
X13304069Y4618152D01*
X13304068Y4618153D01*
X13302370Y4621347D01*
X13178361Y4773398D01*
X13064213Y4867829D01*
X13029975Y4896153D01*
X13029974Y4896154D01*
X13027180Y4898465D01*
X13012814Y4906233D01*
X12857768Y4990066D01*
X12854585Y4991787D01*
X12851135Y4992855D01*
X12851130Y4992857D01*
X12732718Y5029511D01*
X12667152Y5049807D01*
X12472019Y5070317D01*
X12276618Y5052534D01*
X12273145Y5051512D01*
X12273146Y5051512D01*
X12091864Y4998158D01*
X12091860Y4998156D01*
X12088393Y4997136D01*
X12021282Y4962051D01*
X11917719Y4907910D01*
X11917716Y4907908D01*
X11914512Y4906233D01*
X11911694Y4903967D01*
X11911692Y4903966D01*
X11764419Y4785556D01*
X11764416Y4785553D01*
X11761600Y4783289D01*
X11635480Y4632984D01*
X11633738Y4629816D01*
X11633737Y4629814D01*
X11616081Y4597698D01*
X11540956Y4461046D01*
X11539864Y4457603D01*
X11539863Y4457601D01*
X11491507Y4305163D01*
X11481628Y4274022D01*
X11481225Y4270426D01*
X11481224Y4270423D01*
X11478396Y4245206D01*
X11459757Y4079037D01*
X10928965Y4079037D01*
X10911194Y4260272D01*
X10907852Y4271343D01*
X10860101Y4429500D01*
X10854484Y4448106D01*
X10775613Y4596440D01*
X10764069Y4618152D01*
X10764068Y4618153D01*
X10762370Y4621347D01*
X10638361Y4773398D01*
X10524213Y4867829D01*
X10489975Y4896153D01*
X10489974Y4896154D01*
X10487180Y4898465D01*
X10472814Y4906233D01*
X10317768Y4990066D01*
X10314585Y4991787D01*
X10311135Y4992855D01*
X10311130Y4992857D01*
X10192718Y5029511D01*
X10127152Y5049807D01*
X9932019Y5070317D01*
X9736618Y5052534D01*
X9733145Y5051512D01*
X9733146Y5051512D01*
X9551864Y4998158D01*
X9551860Y4998156D01*
X9548393Y4997136D01*
X9481282Y4962051D01*
X9377719Y4907910D01*
X9377716Y4907908D01*
X9374512Y4906233D01*
X9371694Y4903967D01*
X9371692Y4903966D01*
X9224419Y4785556D01*
X9224416Y4785553D01*
X9221600Y4783289D01*
X9095480Y4632984D01*
X9093738Y4629816D01*
X9093737Y4629814D01*
X9076081Y4597698D01*
X9000956Y4461046D01*
X8999864Y4457603D01*
X8999863Y4457601D01*
X8951507Y4305163D01*
X8941628Y4274022D01*
X8941225Y4270426D01*
X8941224Y4270423D01*
X8938396Y4245206D01*
X8919757Y4079037D01*
X8388965Y4079037D01*
X8371194Y4260272D01*
X8367852Y4271343D01*
X8320101Y4429500D01*
X8314484Y4448106D01*
X8273500Y4525186D01*
X8266455Y4575311D01*
X8286512Y4612252D01*
X11702086Y8027826D01*
X11747962Y8049218D01*
X11754412Y8049500D01*
X19318038Y8049500D01*
X19332475Y8048078D01*
X19350000Y8044592D01*
X19447741Y8064034D01*
X19477536Y8083943D01*
X19530601Y8119399D01*
X19540530Y8134259D01*
X19549733Y8145473D01*
X24554031Y13149770D01*
X24565245Y13158973D01*
X24574042Y13164851D01*
X24580102Y13168900D01*
X24635467Y13251761D01*
X24643984Y13294578D01*
X24649958Y13324605D01*
X24653488Y13342352D01*
X24653488Y13342353D01*
X24654910Y13349501D01*
X24651423Y13367032D01*
X24650001Y13381467D01*
X24650001Y16897461D01*
X24663765Y16939823D01*
X24666218Y16942276D01*
X24706069Y17020489D01*
X24716855Y17041657D01*
X24716856Y17041659D01*
X24719499Y17046847D01*
X24737859Y17162765D01*
X24719499Y17278683D01*
X24704325Y17308465D01*
X24686092Y17344248D01*
X24666218Y17383254D01*
X24583230Y17466242D01*
X24533252Y17491707D01*
X24483849Y17516879D01*
X24483847Y17516880D01*
X24478659Y17519523D01*
X24362741Y17537883D01*
X24246823Y17519523D01*
X24241635Y17516880D01*
X24241633Y17516879D01*
X24192230Y17491707D01*
X24142252Y17466242D01*
X24059264Y17383254D01*
X24039390Y17344248D01*
X24021158Y17308465D01*
X24005983Y17278683D01*
X23999830Y17239836D01*
X23999009Y17234650D01*
X23974469Y17190378D01*
X23937498Y17173138D01*
X23834082Y17156758D01*
X23828894Y17154115D01*
X23828892Y17154114D01*
X23795483Y17137091D01*
X23729511Y17103477D01*
X23646523Y17020489D01*
X23593242Y16915918D01*
X23574882Y16800000D01*
X23593242Y16684082D01*
X23595885Y16678894D01*
X23595886Y16678892D01*
X23611668Y16647919D01*
X23646523Y16579511D01*
X23677826Y16548208D01*
X23699218Y16502332D01*
X23699500Y16495882D01*
X23699500Y13784413D01*
X23682187Y13736847D01*
X23677826Y13732087D01*
X19017914Y9072174D01*
X18972038Y9050782D01*
X18965588Y9050500D01*
X18483412Y9050500D01*
X18435846Y9067813D01*
X18410536Y9111650D01*
X18419326Y9161500D01*
X18431086Y9176826D01*
X22154530Y12900269D01*
X22165744Y12909472D01*
X22174541Y12915350D01*
X22180601Y12919399D01*
X22235966Y13002260D01*
X22239239Y13018712D01*
X22255409Y13100000D01*
X22251922Y13117531D01*
X22250500Y13131966D01*
X22250500Y17045882D01*
X22267813Y17093448D01*
X22272174Y17098208D01*
X22303477Y17129511D01*
X22356758Y17234082D01*
X22375118Y17350000D01*
X22356758Y17465918D01*
X22303477Y17570489D01*
X22220489Y17653477D01*
X22170511Y17678942D01*
X22121108Y17704114D01*
X22121106Y17704115D01*
X22115918Y17706758D01*
X22000000Y17725118D01*
X21884082Y17706758D01*
X21878894Y17704115D01*
X21878892Y17704114D01*
X21829489Y17678942D01*
X21779511Y17653477D01*
X21696523Y17570489D01*
X21643242Y17465918D01*
X21624882Y17350000D01*
X21643242Y17234082D01*
X21696523Y17129511D01*
X21727826Y17098208D01*
X21749218Y17052332D01*
X21749500Y17045882D01*
X21749500Y13234413D01*
X21732187Y13186847D01*
X21727826Y13182087D01*
X18117914Y9572174D01*
X18072038Y9550782D01*
X18065588Y9550500D01*
X15188343Y9550500D01*
X15140777Y9567813D01*
X15115467Y9611650D01*
X15124257Y9661500D01*
X15130020Y9669011D01*
X15130601Y9669399D01*
X15140530Y9684259D01*
X15149733Y9695473D01*
X15582086Y10127826D01*
X15627962Y10149218D01*
X15634412Y10149500D01*
X17095882Y10149500D01*
X17143448Y10132187D01*
X17148208Y10127826D01*
X17179511Y10096523D01*
X17229489Y10071058D01*
X17278892Y10045886D01*
X17278894Y10045885D01*
X17284082Y10043242D01*
X17400000Y10024882D01*
X17515918Y10043242D01*
X17521106Y10045885D01*
X17521108Y10045886D01*
X17570511Y10071058D01*
X17620489Y10096523D01*
X17703477Y10179511D01*
X17756758Y10284082D01*
X17774902Y10398635D01*
X17786462Y10428169D01*
X17831916Y10496197D01*
X17831918Y10496201D01*
X17835966Y10502260D01*
X17838683Y10515918D01*
X17855409Y10600000D01*
X17851922Y10617531D01*
X17850500Y10631966D01*
X17850500Y11168039D01*
X17851922Y11182477D01*
X17853986Y11192853D01*
X17855408Y11200000D01*
X17848254Y11235966D01*
X17842867Y11263048D01*
X17837388Y11290593D01*
X17837387Y11290595D01*
X17835966Y11297740D01*
X17830368Y11306119D01*
X17784650Y11374541D01*
X17780601Y11380601D01*
X17765742Y11390530D01*
X17754527Y11399733D01*
X17249733Y11904527D01*
X17240530Y11915741D01*
X17234651Y11924540D01*
X17234650Y11924541D01*
X17230601Y11930601D01*
X17177536Y11966057D01*
X17147741Y11985966D01*
X17050000Y12005408D01*
X17042851Y12003986D01*
X17032475Y12001922D01*
X17018038Y12000500D01*
X11884413Y12000500D01*
X11836847Y12017813D01*
X11832087Y12022174D01*
X10197174Y13657086D01*
X10175782Y13702962D01*
X10175500Y13709412D01*
X10175500Y25899962D01*
X10192813Y25947528D01*
X10229600Y25971236D01*
X10285075Y25986725D01*
X10285076Y25986725D01*
X10288556Y25987697D01*
X10291789Y25989330D01*
X10460455Y26074529D01*
X10460458Y26074531D01*
X10463689Y26076163D01*
X10618303Y26196960D01*
X10746509Y26345489D01*
X10748292Y26348628D01*
X10748295Y26348632D01*
X10838413Y26507269D01*
X10843425Y26516091D01*
X10855269Y26551693D01*
X10904215Y26698832D01*
X10905358Y26702268D01*
X10905827Y26705976D01*
X10929691Y26894885D01*
X10929691Y26894889D01*
X10929949Y26896929D01*
X10930341Y26925000D01*
X10911194Y27120272D01*
X10854484Y27308106D01*
X10762370Y27481347D01*
X10638361Y27633398D01*
X10635570Y27635707D01*
X10626762Y27642994D01*
X10601148Y27686654D01*
X10609590Y27736564D01*
X10648139Y27769370D01*
X10673932Y27774011D01*
X11714262Y27774011D01*
X11761828Y27756698D01*
X11787138Y27712861D01*
X11778348Y27663011D01*
X11766039Y27647142D01*
X11764420Y27645557D01*
X11761600Y27643289D01*
X11635480Y27492984D01*
X11633738Y27489816D01*
X11633737Y27489814D01*
X11630624Y27484151D01*
X11540956Y27321046D01*
X11539864Y27317603D01*
X11539863Y27317601D01*
X11535753Y27304643D01*
X11481628Y27134022D01*
X11481225Y27130426D01*
X11481224Y27130423D01*
X11472311Y27050961D01*
X11459757Y26939037D01*
X11460060Y26935428D01*
X11460060Y26935426D01*
X11468329Y26836952D01*
X11476175Y26743517D01*
X11530258Y26554909D01*
X11550208Y26516091D01*
X11618288Y26383620D01*
X11618291Y26383615D01*
X11619944Y26380399D01*
X11741818Y26226631D01*
X11891238Y26099465D01*
X11894400Y26097698D01*
X12059354Y26005508D01*
X12059358Y26005506D01*
X12062513Y26003743D01*
X12065949Y26002626D01*
X12065955Y26002624D01*
X12177147Y25966496D01*
X12249118Y25943111D01*
X12309541Y25935906D01*
X12440346Y25920308D01*
X12440349Y25920308D01*
X12443946Y25919879D01*
X12554387Y25928377D01*
X12635965Y25934654D01*
X12635966Y25934654D01*
X12639576Y25934932D01*
X12828556Y25987697D01*
X12831789Y25989330D01*
X13000455Y26074529D01*
X13000458Y26074531D01*
X13003689Y26076163D01*
X13158303Y26196960D01*
X13286509Y26345489D01*
X13288292Y26348628D01*
X13288295Y26348632D01*
X13378413Y26507269D01*
X13383425Y26516091D01*
X13395269Y26551693D01*
X13444215Y26698832D01*
X13445358Y26702268D01*
X13445827Y26705976D01*
X13469691Y26894885D01*
X13469691Y26894889D01*
X13469949Y26896929D01*
X13470341Y26925000D01*
X13451194Y27120272D01*
X13394484Y27308106D01*
X13302370Y27481347D01*
X13178361Y27633398D01*
X13175570Y27635707D01*
X13166762Y27642994D01*
X13141148Y27686654D01*
X13149590Y27736564D01*
X13188139Y27769370D01*
X13213932Y27774011D01*
X14254262Y27774011D01*
X14301828Y27756698D01*
X14327138Y27712861D01*
X14318348Y27663011D01*
X14306039Y27647142D01*
X14304420Y27645557D01*
X14301600Y27643289D01*
X14175480Y27492984D01*
X14173738Y27489816D01*
X14173737Y27489814D01*
X14170624Y27484151D01*
X14080956Y27321046D01*
X14079864Y27317603D01*
X14079863Y27317601D01*
X14075753Y27304643D01*
X14021628Y27134022D01*
X14021225Y27130426D01*
X14021224Y27130423D01*
X14012311Y27050961D01*
X13999757Y26939037D01*
X14000060Y26935428D01*
X14000060Y26935426D01*
X14008329Y26836952D01*
X14016175Y26743517D01*
X14070258Y26554909D01*
X14090208Y26516091D01*
X14158288Y26383620D01*
X14158291Y26383615D01*
X14159944Y26380399D01*
X14281818Y26226631D01*
X14431238Y26099465D01*
X14434400Y26097698D01*
X14599354Y26005508D01*
X14599358Y26005506D01*
X14602513Y26003743D01*
X14605949Y26002626D01*
X14605955Y26002624D01*
X14717147Y25966496D01*
X14789118Y25943111D01*
X14849541Y25935906D01*
X14980346Y25920308D01*
X14980349Y25920308D01*
X14983946Y25919879D01*
X15094387Y25928377D01*
X15175965Y25934654D01*
X15175966Y25934654D01*
X15179576Y25934932D01*
X15368556Y25987697D01*
X15371789Y25989330D01*
X15540455Y26074529D01*
X15540458Y26074531D01*
X15543689Y26076163D01*
X15698303Y26196960D01*
X15826509Y26345489D01*
X15828292Y26348628D01*
X15828295Y26348632D01*
X15918413Y26507269D01*
X15923425Y26516091D01*
X15935269Y26551693D01*
X15984215Y26698832D01*
X15985358Y26702268D01*
X15985827Y26705976D01*
X16009691Y26894885D01*
X16009691Y26894889D01*
X16009949Y26896929D01*
X16010341Y26925000D01*
X15991194Y27120272D01*
X15934484Y27308106D01*
X15842370Y27481347D01*
X15718361Y27633398D01*
X15715570Y27635707D01*
X15706762Y27642994D01*
X15681148Y27686654D01*
X15689590Y27736564D01*
X15728139Y27769370D01*
X15753932Y27774011D01*
X16794262Y27774011D01*
X16841828Y27756698D01*
X16867138Y27712861D01*
X16858348Y27663011D01*
X16846039Y27647142D01*
X16844420Y27645557D01*
X16841600Y27643289D01*
X16715480Y27492984D01*
X16713738Y27489816D01*
X16713737Y27489814D01*
X16710624Y27484151D01*
X16620956Y27321046D01*
X16619864Y27317603D01*
X16619863Y27317601D01*
X16615753Y27304643D01*
X16561628Y27134022D01*
X16561225Y27130426D01*
X16561224Y27130423D01*
X16552311Y27050961D01*
X16539757Y26939037D01*
X16540060Y26935428D01*
X16540060Y26935426D01*
X16548329Y26836952D01*
X16556175Y26743517D01*
X16610258Y26554909D01*
X16630208Y26516091D01*
X16698288Y26383620D01*
X16698291Y26383615D01*
X16699944Y26380399D01*
X16821818Y26226631D01*
X16971238Y26099465D01*
X16974400Y26097698D01*
X17139354Y26005508D01*
X17139358Y26005506D01*
X17142513Y26003743D01*
X17145949Y26002626D01*
X17145955Y26002624D01*
X17257147Y25966496D01*
X17329118Y25943111D01*
X17389541Y25935906D01*
X17520346Y25920308D01*
X17520349Y25920308D01*
X17523946Y25919879D01*
X17634387Y25928377D01*
X17715965Y25934654D01*
X17715966Y25934654D01*
X17719576Y25934932D01*
X17908556Y25987697D01*
X17911789Y25989330D01*
X18080455Y26074529D01*
X18080458Y26074531D01*
X18083689Y26076163D01*
X18238303Y26196960D01*
X18366509Y26345489D01*
X18368292Y26348628D01*
X18368295Y26348632D01*
X18458413Y26507269D01*
X18463425Y26516091D01*
X18475269Y26551693D01*
X18524215Y26698832D01*
X18525358Y26702268D01*
X18525827Y26705976D01*
X18549691Y26894885D01*
X18549691Y26894889D01*
X18549949Y26896929D01*
X18550341Y26925000D01*
X18531194Y27120272D01*
X18474484Y27308106D01*
X18382370Y27481347D01*
X18258361Y27633398D01*
X18255570Y27635707D01*
X18246762Y27642994D01*
X18221148Y27686654D01*
X18229590Y27736564D01*
X18268139Y27769370D01*
X18293932Y27774011D01*
X19334262Y27774011D01*
X19381828Y27756698D01*
X19407138Y27712861D01*
X19398348Y27663011D01*
X19386039Y27647142D01*
X19384420Y27645557D01*
X19381600Y27643289D01*
X19255480Y27492984D01*
X19253738Y27489816D01*
X19253737Y27489814D01*
X19250624Y27484151D01*
X19160956Y27321046D01*
X19159864Y27317603D01*
X19159863Y27317601D01*
X19155753Y27304643D01*
X19101628Y27134022D01*
X19101225Y27130426D01*
X19101224Y27130423D01*
X19092311Y27050961D01*
X19079757Y26939037D01*
X19080060Y26935428D01*
X19080060Y26935426D01*
X19088329Y26836952D01*
X19096175Y26743517D01*
X19150258Y26554909D01*
X19170208Y26516091D01*
X19238288Y26383620D01*
X19238291Y26383615D01*
X19239944Y26380399D01*
X19361818Y26226631D01*
X19511238Y26099465D01*
X19514400Y26097698D01*
X19679354Y26005508D01*
X19679358Y26005506D01*
X19682513Y26003743D01*
X19685949Y26002626D01*
X19685955Y26002624D01*
X19797147Y25966496D01*
X19869118Y25943111D01*
X19929541Y25935906D01*
X20060346Y25920308D01*
X20060349Y25920308D01*
X20063946Y25919879D01*
X20174387Y25928377D01*
X20255965Y25934654D01*
X20255966Y25934654D01*
X20259576Y25934932D01*
X20448556Y25987697D01*
X20451789Y25989330D01*
X20620455Y26074529D01*
X20620458Y26074531D01*
X20623689Y26076163D01*
X20778303Y26196960D01*
X20906509Y26345489D01*
X20908292Y26348628D01*
X20908295Y26348632D01*
X20998413Y26507269D01*
X21003425Y26516091D01*
X21015269Y26551693D01*
X21064215Y26698832D01*
X21065358Y26702268D01*
X21065827Y26705976D01*
X21083037Y26842208D01*
X21628389Y26842208D01*
X21636366Y26747215D01*
X21637667Y26740127D01*
X21689727Y26558573D01*
X21692377Y26551878D01*
X21778711Y26383890D01*
X21782616Y26377832D01*
X21899930Y26229818D01*
X21904935Y26224634D01*
X22048768Y26102224D01*
X22054687Y26098110D01*
X22219555Y26005968D01*
X22226156Y26003085D01*
X22405780Y25944722D01*
X22412825Y25943173D01*
X22537043Y25928360D01*
X22547400Y25930789D01*
X22550000Y25934264D01*
X22550000Y25940819D01*
X22700000Y25940819D01*
X22703638Y25930823D01*
X22707875Y25928377D01*
X22795877Y25935149D01*
X22802978Y25936401D01*
X22984891Y25987193D01*
X22991599Y25989794D01*
X23160195Y26074957D01*
X23166269Y26078812D01*
X23315104Y26195095D01*
X23320323Y26200065D01*
X23443736Y26343041D01*
X23447885Y26348921D01*
X23541180Y26513152D01*
X23544108Y26519727D01*
X23603725Y26698942D01*
X23605322Y26705976D01*
X23621882Y26837054D01*
X23619525Y26847427D01*
X23616135Y26850000D01*
X22713048Y26850000D01*
X22703052Y26846362D01*
X22700000Y26841075D01*
X22700000Y25940819D01*
X22550000Y25940819D01*
X22550000Y26836952D01*
X22546362Y26846948D01*
X22541075Y26850000D01*
X21640783Y26850000D01*
X21630787Y26846362D01*
X21628389Y26842208D01*
X21083037Y26842208D01*
X21089691Y26894885D01*
X21089691Y26894889D01*
X21089949Y26896929D01*
X21090341Y26925000D01*
X21071194Y27120272D01*
X21014484Y27308106D01*
X20922370Y27481347D01*
X20798361Y27633398D01*
X20795570Y27635707D01*
X20786762Y27642994D01*
X20761148Y27686654D01*
X20769590Y27736564D01*
X20808139Y27769370D01*
X20833932Y27774011D01*
X21874980Y27774011D01*
X21922546Y27756698D01*
X21947856Y27712861D01*
X21939066Y27663011D01*
X21926756Y27647141D01*
X21919623Y27640155D01*
X21798221Y27495475D01*
X21794152Y27489531D01*
X21703159Y27324016D01*
X21700323Y27317399D01*
X21643212Y27137365D01*
X21641716Y27130327D01*
X21628552Y27012967D01*
X21631054Y27002628D01*
X21634619Y27000000D01*
X23609437Y27000000D01*
X23619433Y27003638D01*
X23621737Y27007629D01*
X23611055Y27116571D01*
X23609656Y27123639D01*
X23555065Y27304451D01*
X23552321Y27311109D01*
X23463651Y27477874D01*
X23459665Y27483873D01*
X23340291Y27630240D01*
X23335213Y27635353D01*
X23325977Y27642994D01*
X23300363Y27686653D01*
X23308805Y27736563D01*
X23347353Y27769370D01*
X23373147Y27774011D01*
X24414262Y27774011D01*
X24461828Y27756698D01*
X24487138Y27712861D01*
X24478348Y27663011D01*
X24466039Y27647142D01*
X24464420Y27645557D01*
X24461600Y27643289D01*
X24335480Y27492984D01*
X24333738Y27489816D01*
X24333737Y27489814D01*
X24330624Y27484151D01*
X24240956Y27321046D01*
X24239864Y27317603D01*
X24239863Y27317601D01*
X24235753Y27304643D01*
X24181628Y27134022D01*
X24181225Y27130426D01*
X24181224Y27130423D01*
X24172311Y27050961D01*
X24159757Y26939037D01*
X24160060Y26935428D01*
X24160060Y26935426D01*
X24168329Y26836952D01*
X24176175Y26743517D01*
X24230258Y26554909D01*
X24250208Y26516091D01*
X24318288Y26383620D01*
X24318291Y26383615D01*
X24319944Y26380399D01*
X24441818Y26226631D01*
X24591238Y26099465D01*
X24594400Y26097698D01*
X24759354Y26005508D01*
X24759358Y26005506D01*
X24762513Y26003743D01*
X24765949Y26002626D01*
X24765955Y26002624D01*
X24877147Y25966496D01*
X24949118Y25943111D01*
X25009541Y25935906D01*
X25140346Y25920308D01*
X25140349Y25920308D01*
X25143946Y25919879D01*
X25254387Y25928377D01*
X25335965Y25934654D01*
X25335966Y25934654D01*
X25339576Y25934932D01*
X25528556Y25987697D01*
X25531783Y25989327D01*
X25531791Y25989330D01*
X25532613Y25989745D01*
X25532972Y25989788D01*
X25535164Y25990638D01*
X25535382Y25990075D01*
X25582876Y25995736D01*
X25618300Y25976018D01*
X26342492Y25251826D01*
X26363884Y25205950D01*
X26350783Y25157055D01*
X26309319Y25128021D01*
X26290166Y25125500D01*
X13588762Y25125500D01*
X13574325Y25126922D01*
X13563949Y25128986D01*
X13556800Y25130408D01*
X13459059Y25110966D01*
X13453000Y25106918D01*
X13452999Y25106917D01*
X13443938Y25100862D01*
X13443936Y25100861D01*
X13395866Y25068742D01*
X13376199Y25055601D01*
X13372150Y25049541D01*
X13366270Y25040741D01*
X13357067Y25029527D01*
X10820472Y22492932D01*
X10809257Y22483729D01*
X10794398Y22473800D01*
X10758942Y22420735D01*
X10739033Y22390940D01*
X10719591Y22293199D01*
X10721013Y22286050D01*
X10723077Y22275674D01*
X10724499Y22261237D01*
X10724499Y20834485D01*
X10707186Y20786919D01*
X10684094Y20768550D01*
X10654511Y20753477D01*
X10571523Y20670489D01*
X10568881Y20665303D01*
X10522261Y20573805D01*
X10518242Y20565918D01*
X10499882Y20450000D01*
X10518242Y20334082D01*
X10520885Y20328894D01*
X10520886Y20328892D01*
X10526998Y20316897D01*
X10571523Y20229511D01*
X10654511Y20146523D01*
X10701177Y20122746D01*
X10753892Y20095886D01*
X10753894Y20095885D01*
X10759082Y20093242D01*
X10875000Y20074882D01*
X10990918Y20093242D01*
X10996106Y20095885D01*
X10996108Y20095886D01*
X11048823Y20122746D01*
X11095489Y20146523D01*
X11147674Y20198708D01*
X11193550Y20220100D01*
X11242445Y20206999D01*
X11252326Y20198708D01*
X11304511Y20146523D01*
X11351177Y20122746D01*
X11403892Y20095886D01*
X11403894Y20095885D01*
X11409082Y20093242D01*
X11525000Y20074882D01*
X11640918Y20093242D01*
X11646106Y20095885D01*
X11646108Y20095886D01*
X11698823Y20122746D01*
X11745489Y20146523D01*
X11828477Y20229511D01*
X11873002Y20316897D01*
X11879114Y20328892D01*
X11879115Y20328894D01*
X11881758Y20334082D01*
X11900118Y20450000D01*
X11881758Y20565918D01*
X11877740Y20573805D01*
X11831119Y20665303D01*
X11828477Y20670489D01*
X11745489Y20753477D01*
X11715906Y20768550D01*
X11681384Y20805570D01*
X11675501Y20834485D01*
X11675501Y21972389D01*
X11692814Y22019955D01*
X11697175Y22024715D01*
X12257373Y22584913D01*
X21925000Y22584913D01*
X21925455Y22579131D01*
X21938461Y22497017D01*
X21942016Y22486073D01*
X21992455Y22387080D01*
X21999214Y22377778D01*
X22077778Y22299214D01*
X22087080Y22292455D01*
X22186073Y22242016D01*
X22197017Y22238461D01*
X22279131Y22225455D01*
X22284913Y22225000D01*
X22461952Y22225000D01*
X22471948Y22228638D01*
X22475000Y22233925D01*
X22475000Y22238048D01*
X22625000Y22238048D01*
X22628638Y22228052D01*
X22633925Y22225000D01*
X22815087Y22225000D01*
X22820869Y22225455D01*
X22902983Y22238461D01*
X22913927Y22242016D01*
X23012920Y22292455D01*
X23022222Y22299214D01*
X23100786Y22377778D01*
X23107545Y22387080D01*
X23157984Y22486073D01*
X23161539Y22497017D01*
X23174545Y22579131D01*
X23175000Y22584913D01*
X23175000Y22824452D01*
X23171362Y22834448D01*
X23166075Y22837500D01*
X22638048Y22837500D01*
X22628052Y22833862D01*
X22625000Y22828575D01*
X22625000Y22238048D01*
X22475000Y22238048D01*
X22475000Y22824452D01*
X22471362Y22834448D01*
X22466075Y22837500D01*
X21938048Y22837500D01*
X21928052Y22833862D01*
X21925000Y22828575D01*
X21925000Y22584913D01*
X12257373Y22584913D01*
X12673008Y23000548D01*
X21925000Y23000548D01*
X21928638Y22990552D01*
X21933925Y22987500D01*
X22461952Y22987500D01*
X22471948Y22991138D01*
X22475000Y22996425D01*
X22475000Y23000548D01*
X22625000Y23000548D01*
X22628638Y22990552D01*
X22633925Y22987500D01*
X23161952Y22987500D01*
X23171948Y22991138D01*
X23175000Y22996425D01*
X23175000Y23240087D01*
X23174545Y23245869D01*
X23161539Y23327983D01*
X23157984Y23338927D01*
X23107545Y23437920D01*
X23100786Y23447222D01*
X23022222Y23525786D01*
X23012920Y23532545D01*
X22913927Y23582984D01*
X22902983Y23586539D01*
X22820869Y23599545D01*
X22815087Y23600000D01*
X22638048Y23600000D01*
X22628052Y23596362D01*
X22625000Y23591075D01*
X22625000Y23000548D01*
X22475000Y23000548D01*
X22475000Y23586952D01*
X22471362Y23596948D01*
X22466075Y23600000D01*
X22284913Y23600000D01*
X22279131Y23599545D01*
X22197017Y23586539D01*
X22186073Y23582984D01*
X22087080Y23532545D01*
X22077778Y23525786D01*
X21999214Y23447222D01*
X21992455Y23437920D01*
X21942016Y23338927D01*
X21938461Y23327983D01*
X21925455Y23245869D01*
X21925000Y23240087D01*
X21925000Y23000548D01*
X12673008Y23000548D01*
X13825286Y24152826D01*
X13871162Y24174218D01*
X13877612Y24174500D01*
X26372389Y24174500D01*
X26419955Y24157187D01*
X26424715Y24152826D01*
X28440599Y22136942D01*
X28461991Y22091066D01*
X28461362Y22073040D01*
X28453708Y22024715D01*
X28445072Y21970190D01*
X28463432Y21854272D01*
X28466075Y21849084D01*
X28466076Y21849082D01*
X28512436Y21758095D01*
X28518604Y21707853D01*
X28491035Y21665401D01*
X28446501Y21650500D01*
X25874500Y21650500D01*
X25826934Y21667813D01*
X25801624Y21711650D01*
X25800500Y21724500D01*
X25800500Y23214820D01*
X25791767Y23258722D01*
X25758504Y23308504D01*
X25708722Y23341767D01*
X25701576Y23343188D01*
X25701575Y23343189D01*
X25668390Y23349790D01*
X25668389Y23349790D01*
X25664820Y23350500D01*
X23635180Y23350500D01*
X23631611Y23349790D01*
X23631610Y23349790D01*
X23598425Y23343189D01*
X23598424Y23343188D01*
X23591278Y23341767D01*
X23541496Y23308504D01*
X23508233Y23258722D01*
X23499500Y23214820D01*
X23499500Y21724500D01*
X23482187Y21676934D01*
X23438350Y21651624D01*
X23425500Y21650500D01*
X23185257Y21650500D01*
X23137691Y21667813D01*
X23119323Y21690905D01*
X23107957Y21713212D01*
X23107953Y21713217D01*
X23105311Y21718403D01*
X23018403Y21805311D01*
X23013220Y21807952D01*
X23013217Y21807954D01*
X22914083Y21858465D01*
X22914081Y21858466D01*
X22908893Y21861109D01*
X22818033Y21875500D01*
X22815124Y21875500D01*
X22550001Y21875499D01*
X22281968Y21875499D01*
X22279096Y21875044D01*
X22279094Y21875044D01*
X22232050Y21867593D01*
X22191107Y21861109D01*
X22167503Y21849082D01*
X22086783Y21807954D01*
X22086780Y21807952D01*
X22081597Y21805311D01*
X21994689Y21718403D01*
X21992048Y21713220D01*
X21992046Y21713217D01*
X21941535Y21614083D01*
X21938891Y21608893D01*
X21938577Y21606908D01*
X21908487Y21568394D01*
X21857696Y21558060D01*
X21750000Y21575118D01*
X21744248Y21574207D01*
X21639837Y21557670D01*
X21639834Y21557669D01*
X21634082Y21556758D01*
X21628903Y21554119D01*
X21606051Y21550500D01*
X16193949Y21550500D01*
X16171097Y21554119D01*
X16165918Y21556758D01*
X16160166Y21557669D01*
X16160163Y21557670D01*
X16055752Y21574207D01*
X16050000Y21575118D01*
X15934082Y21556758D01*
X15928894Y21554115D01*
X15928892Y21554114D01*
X15897267Y21538000D01*
X15829511Y21503477D01*
X15746523Y21420489D01*
X15743881Y21415303D01*
X15722462Y21373266D01*
X15708853Y21354535D01*
X14384184Y20029866D01*
X14371998Y20020025D01*
X14365989Y20016145D01*
X14365987Y20016143D01*
X14360848Y20012825D01*
X14357060Y20008020D01*
X14340106Y19986514D01*
X14334319Y19980001D01*
X14331572Y19977254D01*
X14329801Y19974776D01*
X14329797Y19974771D01*
X14320614Y19961920D01*
X14318540Y19959157D01*
X14288608Y19921189D01*
X14286582Y19915420D01*
X14286012Y19914383D01*
X14285570Y19913680D01*
X14285289Y19913140D01*
X14284972Y19912383D01*
X14284445Y19911307D01*
X14280889Y19906331D01*
X14275323Y19887719D01*
X14267040Y19860023D01*
X14265963Y19856707D01*
X14249945Y19811094D01*
X14249500Y19805956D01*
X14249500Y19804619D01*
X14249116Y19800088D01*
X14247456Y19794536D01*
X14247696Y19788426D01*
X14247696Y19788425D01*
X14249443Y19743963D01*
X14249500Y19741058D01*
X14249500Y19093949D01*
X14245881Y19071097D01*
X14243242Y19065918D01*
X14242331Y19060166D01*
X14242330Y19060163D01*
X14233872Y19006761D01*
X14224882Y18950000D01*
X14243242Y18834082D01*
X14245885Y18828894D01*
X14245886Y18828892D01*
X14291435Y18739497D01*
X14299500Y18705902D01*
X14299500Y15843949D01*
X14295881Y15821097D01*
X14293242Y15815918D01*
X14292331Y15810166D01*
X14292330Y15810163D01*
X14281982Y15744829D01*
X14274882Y15700000D01*
X14293242Y15584082D01*
X14346523Y15479511D01*
X14429511Y15396523D01*
X14475837Y15372919D01*
X14528892Y15345886D01*
X14528894Y15345885D01*
X14534082Y15343242D01*
X14568110Y15337852D01*
X14601819Y15332513D01*
X14642568Y15311750D01*
X17008853Y12945465D01*
X17022462Y12926734D01*
X17046523Y12879511D01*
X17129511Y12796523D01*
X17144394Y12788940D01*
X17228892Y12745886D01*
X17228894Y12745885D01*
X17234082Y12743242D01*
X17350000Y12724882D01*
X17355752Y12725793D01*
X17460163Y12742330D01*
X17460166Y12742331D01*
X17465918Y12743242D01*
X17471097Y12745881D01*
X17493949Y12749500D01*
X20406051Y12749500D01*
X20428903Y12745881D01*
X20434082Y12743242D01*
X20439834Y12742331D01*
X20439837Y12742330D01*
X20544248Y12725793D01*
X20550000Y12724882D01*
X20665918Y12743242D01*
X20671106Y12745885D01*
X20671108Y12745886D01*
X20755606Y12788940D01*
X20770489Y12796523D01*
X20853477Y12879511D01*
X20887082Y12945465D01*
X20904114Y12978892D01*
X20904115Y12978894D01*
X20906758Y12984082D01*
X20925118Y13100000D01*
X20906758Y13215918D01*
X20897335Y13234413D01*
X20878942Y13270511D01*
X20853477Y13320489D01*
X20770489Y13403477D01*
X20720511Y13428942D01*
X20671108Y13454114D01*
X20671106Y13454115D01*
X20665918Y13456758D01*
X20550000Y13475118D01*
X20544248Y13474207D01*
X20439837Y13457670D01*
X20439834Y13457669D01*
X20434082Y13456758D01*
X20428903Y13454119D01*
X20406051Y13450500D01*
X17525834Y13450500D01*
X17478268Y13467813D01*
X17473508Y13472174D01*
X17088054Y13857628D01*
X18018838Y13857628D01*
X18019716Y13854353D01*
X18019864Y13854209D01*
X18074891Y13817580D01*
X18084310Y13813088D01*
X18197281Y13777794D01*
X18207585Y13776124D01*
X18325925Y13773956D01*
X18336278Y13775245D01*
X18450464Y13806376D01*
X18460047Y13810523D01*
X18525361Y13850625D01*
X18530922Y13857628D01*
X19293838Y13857628D01*
X19294716Y13854353D01*
X19294864Y13854209D01*
X19349891Y13817580D01*
X19359310Y13813088D01*
X19472281Y13777794D01*
X19482585Y13776124D01*
X19600925Y13773956D01*
X19611278Y13775245D01*
X19725464Y13806376D01*
X19735047Y13810523D01*
X19800361Y13850625D01*
X19805922Y13857628D01*
X20568838Y13857628D01*
X20569716Y13854353D01*
X20569864Y13854209D01*
X20624891Y13817580D01*
X20634310Y13813088D01*
X20747281Y13777794D01*
X20757585Y13776124D01*
X20875925Y13773956D01*
X20886278Y13775245D01*
X21000464Y13806376D01*
X21010047Y13810523D01*
X21075361Y13850625D01*
X21081976Y13858956D01*
X21081904Y13861614D01*
X21081108Y13862826D01*
X20834226Y14109708D01*
X20824587Y14114203D01*
X20818688Y14112622D01*
X20573333Y13867267D01*
X20568838Y13857628D01*
X19805922Y13857628D01*
X19806976Y13858956D01*
X19806904Y13861614D01*
X19806108Y13862826D01*
X19559226Y14109708D01*
X19549587Y14114203D01*
X19543688Y14112622D01*
X19298333Y13867267D01*
X19293838Y13857628D01*
X18530922Y13857628D01*
X18531976Y13858956D01*
X18531904Y13861614D01*
X18531108Y13862826D01*
X18284226Y14109708D01*
X18274587Y14114203D01*
X18268688Y14112622D01*
X18023333Y13867267D01*
X18018838Y13857628D01*
X17088054Y13857628D01*
X16720354Y14225328D01*
X17821090Y14225328D01*
X17836437Y14107968D01*
X17839242Y14097919D01*
X17886912Y13989583D01*
X17892428Y13980722D01*
X17898749Y13973201D01*
X17907967Y13967890D01*
X17912655Y13968721D01*
X18159708Y14215774D01*
X18163818Y14224587D01*
X18385797Y14224587D01*
X18387378Y14218688D01*
X18634784Y13971282D01*
X18644423Y13966787D01*
X18649168Y13968059D01*
X18654204Y13975526D01*
X18705806Y14082031D01*
X18708981Y14091976D01*
X18729017Y14211072D01*
X18729526Y14216758D01*
X18729592Y14222139D01*
X18729385Y14225328D01*
X19096090Y14225328D01*
X19111437Y14107968D01*
X19114242Y14097919D01*
X19161912Y13989583D01*
X19167428Y13980722D01*
X19173749Y13973201D01*
X19182967Y13967890D01*
X19187655Y13968721D01*
X19434708Y14215774D01*
X19438818Y14224587D01*
X19660797Y14224587D01*
X19662378Y14218688D01*
X19909784Y13971282D01*
X19919423Y13966787D01*
X19924168Y13968059D01*
X19929204Y13975526D01*
X19980806Y14082031D01*
X19983981Y14091976D01*
X20004017Y14211072D01*
X20004526Y14216758D01*
X20004592Y14222139D01*
X20004385Y14225328D01*
X20371090Y14225328D01*
X20386437Y14107968D01*
X20389242Y14097919D01*
X20436912Y13989583D01*
X20442428Y13980722D01*
X20448749Y13973201D01*
X20457967Y13967890D01*
X20462655Y13968721D01*
X20709708Y14215774D01*
X20713818Y14224587D01*
X20935797Y14224587D01*
X20937378Y14218688D01*
X21184784Y13971282D01*
X21194423Y13966787D01*
X21199168Y13968059D01*
X21204204Y13975526D01*
X21255806Y14082031D01*
X21258981Y14091976D01*
X21279017Y14211072D01*
X21279526Y14216758D01*
X21279592Y14222139D01*
X21279222Y14227827D01*
X21262100Y14347383D01*
X21259171Y14357397D01*
X21210184Y14465141D01*
X21204561Y14473934D01*
X21201710Y14477243D01*
X21192430Y14482440D01*
X21187586Y14481520D01*
X20940292Y14234226D01*
X20935797Y14224587D01*
X20713818Y14224587D01*
X20714203Y14225413D01*
X20712622Y14231312D01*
X20465648Y14478286D01*
X20456009Y14482781D01*
X20451076Y14481459D01*
X20448509Y14478553D01*
X20442779Y14469829D01*
X20392479Y14362693D01*
X20389427Y14352710D01*
X20371218Y14235760D01*
X20371090Y14225328D01*
X20004385Y14225328D01*
X20004222Y14227827D01*
X19987100Y14347383D01*
X19984171Y14357397D01*
X19935184Y14465141D01*
X19929561Y14473934D01*
X19926710Y14477243D01*
X19917430Y14482440D01*
X19912586Y14481520D01*
X19665292Y14234226D01*
X19660797Y14224587D01*
X19438818Y14224587D01*
X19439203Y14225413D01*
X19437622Y14231312D01*
X19190648Y14478286D01*
X19181009Y14482781D01*
X19176076Y14481459D01*
X19173509Y14478553D01*
X19167779Y14469829D01*
X19117479Y14362693D01*
X19114427Y14352710D01*
X19096218Y14235760D01*
X19096090Y14225328D01*
X18729385Y14225328D01*
X18729222Y14227827D01*
X18712100Y14347383D01*
X18709171Y14357397D01*
X18660184Y14465141D01*
X18654561Y14473934D01*
X18651710Y14477243D01*
X18642430Y14482440D01*
X18637586Y14481520D01*
X18390292Y14234226D01*
X18385797Y14224587D01*
X18163818Y14224587D01*
X18164203Y14225413D01*
X18162622Y14231312D01*
X17915648Y14478286D01*
X17906009Y14482781D01*
X17901076Y14481459D01*
X17898509Y14478553D01*
X17892779Y14469829D01*
X17842479Y14362693D01*
X17839427Y14352710D01*
X17821218Y14235760D01*
X17821090Y14225328D01*
X16720354Y14225328D01*
X16354829Y14590853D01*
X18018288Y14590853D01*
X18018402Y14587952D01*
X18018975Y14587091D01*
X18265774Y14340292D01*
X18275413Y14335797D01*
X18281312Y14337378D01*
X18526813Y14582879D01*
X18530532Y14590853D01*
X19293288Y14590853D01*
X19293402Y14587952D01*
X19293975Y14587091D01*
X19540774Y14340292D01*
X19550413Y14335797D01*
X19556312Y14337378D01*
X19801813Y14582879D01*
X19805532Y14590853D01*
X20568288Y14590853D01*
X20568402Y14587952D01*
X20568975Y14587091D01*
X20815774Y14340292D01*
X20825413Y14335797D01*
X20831312Y14337378D01*
X21076813Y14582879D01*
X21081308Y14592518D01*
X21080493Y14595557D01*
X21080044Y14595991D01*
X21020117Y14634833D01*
X21010643Y14639210D01*
X20897251Y14673122D01*
X20886926Y14674665D01*
X20768569Y14675389D01*
X20758231Y14673972D01*
X20644432Y14641448D01*
X20634902Y14637185D01*
X20574801Y14599264D01*
X20568288Y14590853D01*
X19805532Y14590853D01*
X19806308Y14592518D01*
X19805493Y14595557D01*
X19805044Y14595991D01*
X19745117Y14634833D01*
X19735643Y14639210D01*
X19622251Y14673122D01*
X19611926Y14674665D01*
X19493569Y14675389D01*
X19483231Y14673972D01*
X19369432Y14641448D01*
X19359902Y14637185D01*
X19299801Y14599264D01*
X19293288Y14590853D01*
X18530532Y14590853D01*
X18531308Y14592518D01*
X18530493Y14595557D01*
X18530044Y14595991D01*
X18470117Y14634833D01*
X18460643Y14639210D01*
X18347251Y14673122D01*
X18336926Y14674665D01*
X18218569Y14675389D01*
X18208231Y14673972D01*
X18094432Y14641448D01*
X18084902Y14637185D01*
X18024801Y14599264D01*
X18018288Y14590853D01*
X16354829Y14590853D01*
X15813054Y15132628D01*
X18018838Y15132628D01*
X18019716Y15129353D01*
X18019864Y15129209D01*
X18074891Y15092580D01*
X18084310Y15088088D01*
X18197281Y15052794D01*
X18207585Y15051124D01*
X18325925Y15048956D01*
X18336278Y15050245D01*
X18450464Y15081376D01*
X18460047Y15085523D01*
X18525361Y15125625D01*
X18530922Y15132628D01*
X19293838Y15132628D01*
X19294716Y15129353D01*
X19294864Y15129209D01*
X19349891Y15092580D01*
X19359310Y15088088D01*
X19472281Y15052794D01*
X19482585Y15051124D01*
X19600925Y15048956D01*
X19611278Y15050245D01*
X19725464Y15081376D01*
X19735047Y15085523D01*
X19800361Y15125625D01*
X19805922Y15132628D01*
X20568838Y15132628D01*
X20569716Y15129353D01*
X20569864Y15129209D01*
X20624891Y15092580D01*
X20634310Y15088088D01*
X20747281Y15052794D01*
X20757585Y15051124D01*
X20875925Y15048956D01*
X20886278Y15050245D01*
X21000464Y15081376D01*
X21010047Y15085523D01*
X21075361Y15125625D01*
X21081976Y15133956D01*
X21081904Y15136614D01*
X21081108Y15137826D01*
X20834226Y15384708D01*
X20824587Y15389203D01*
X20818688Y15387622D01*
X20573333Y15142267D01*
X20568838Y15132628D01*
X19805922Y15132628D01*
X19806976Y15133956D01*
X19806904Y15136614D01*
X19806108Y15137826D01*
X19559226Y15384708D01*
X19549587Y15389203D01*
X19543688Y15387622D01*
X19298333Y15142267D01*
X19293838Y15132628D01*
X18530922Y15132628D01*
X18531976Y15133956D01*
X18531904Y15136614D01*
X18531108Y15137826D01*
X18284226Y15384708D01*
X18274587Y15389203D01*
X18268688Y15387622D01*
X18023333Y15142267D01*
X18018838Y15132628D01*
X15813054Y15132628D01*
X15445354Y15500328D01*
X17821090Y15500328D01*
X17836437Y15382968D01*
X17839242Y15372919D01*
X17886912Y15264583D01*
X17892428Y15255722D01*
X17898749Y15248201D01*
X17907967Y15242890D01*
X17912655Y15243721D01*
X18159708Y15490774D01*
X18163818Y15499587D01*
X18385797Y15499587D01*
X18387378Y15493688D01*
X18634784Y15246282D01*
X18644423Y15241787D01*
X18649168Y15243059D01*
X18654204Y15250526D01*
X18705806Y15357031D01*
X18708981Y15366976D01*
X18729017Y15486072D01*
X18729526Y15491758D01*
X18729592Y15497139D01*
X18729385Y15500328D01*
X19096090Y15500328D01*
X19111437Y15382968D01*
X19114242Y15372919D01*
X19161912Y15264583D01*
X19167428Y15255722D01*
X19173749Y15248201D01*
X19182967Y15242890D01*
X19187655Y15243721D01*
X19434708Y15490774D01*
X19438818Y15499587D01*
X19660797Y15499587D01*
X19662378Y15493688D01*
X19909784Y15246282D01*
X19919423Y15241787D01*
X19924168Y15243059D01*
X19929204Y15250526D01*
X19980806Y15357031D01*
X19983981Y15366976D01*
X20004017Y15486072D01*
X20004526Y15491758D01*
X20004592Y15497139D01*
X20004385Y15500328D01*
X20371090Y15500328D01*
X20386437Y15382968D01*
X20389242Y15372919D01*
X20436912Y15264583D01*
X20442428Y15255722D01*
X20448749Y15248201D01*
X20457967Y15242890D01*
X20462655Y15243721D01*
X20709708Y15490774D01*
X20713818Y15499587D01*
X20935797Y15499587D01*
X20937378Y15493688D01*
X21184784Y15246282D01*
X21194423Y15241787D01*
X21199168Y15243059D01*
X21204204Y15250526D01*
X21255806Y15357031D01*
X21258981Y15366976D01*
X21279017Y15486072D01*
X21279526Y15491758D01*
X21279592Y15497139D01*
X21279222Y15502827D01*
X21262100Y15622383D01*
X21259171Y15632397D01*
X21210184Y15740141D01*
X21204561Y15748934D01*
X21201710Y15752243D01*
X21192430Y15757440D01*
X21187586Y15756520D01*
X20940292Y15509226D01*
X20935797Y15499587D01*
X20713818Y15499587D01*
X20714203Y15500413D01*
X20712622Y15506312D01*
X20465648Y15753286D01*
X20456009Y15757781D01*
X20451076Y15756459D01*
X20448509Y15753553D01*
X20442779Y15744829D01*
X20392479Y15637693D01*
X20389427Y15627710D01*
X20371218Y15510760D01*
X20371090Y15500328D01*
X20004385Y15500328D01*
X20004222Y15502827D01*
X19987100Y15622383D01*
X19984171Y15632397D01*
X19935184Y15740141D01*
X19929561Y15748934D01*
X19926710Y15752243D01*
X19917430Y15757440D01*
X19912586Y15756520D01*
X19665292Y15509226D01*
X19660797Y15499587D01*
X19438818Y15499587D01*
X19439203Y15500413D01*
X19437622Y15506312D01*
X19190648Y15753286D01*
X19181009Y15757781D01*
X19176076Y15756459D01*
X19173509Y15753553D01*
X19167779Y15744829D01*
X19117479Y15637693D01*
X19114427Y15627710D01*
X19096218Y15510760D01*
X19096090Y15500328D01*
X18729385Y15500328D01*
X18729222Y15502827D01*
X18712100Y15622383D01*
X18709171Y15632397D01*
X18660184Y15740141D01*
X18654561Y15748934D01*
X18651710Y15752243D01*
X18642430Y15757440D01*
X18637586Y15756520D01*
X18390292Y15509226D01*
X18385797Y15499587D01*
X18163818Y15499587D01*
X18164203Y15500413D01*
X18162622Y15506312D01*
X17915648Y15753286D01*
X17906009Y15757781D01*
X17901076Y15756459D01*
X17898509Y15753553D01*
X17892779Y15744829D01*
X17842479Y15637693D01*
X17839427Y15627710D01*
X17821218Y15510760D01*
X17821090Y15500328D01*
X15445354Y15500328D01*
X15079829Y15865853D01*
X18018288Y15865853D01*
X18018402Y15862952D01*
X18018975Y15862091D01*
X18265774Y15615292D01*
X18275413Y15610797D01*
X18281312Y15612378D01*
X18526813Y15857879D01*
X18530532Y15865853D01*
X19293288Y15865853D01*
X19293402Y15862952D01*
X19293975Y15862091D01*
X19540774Y15615292D01*
X19550413Y15610797D01*
X19556312Y15612378D01*
X19801813Y15857879D01*
X19805532Y15865853D01*
X20568288Y15865853D01*
X20568402Y15862952D01*
X20568975Y15862091D01*
X20815774Y15615292D01*
X20825413Y15610797D01*
X20831312Y15612378D01*
X21076813Y15857879D01*
X21081308Y15867518D01*
X21080493Y15870557D01*
X21080044Y15870991D01*
X21020117Y15909833D01*
X21010643Y15914210D01*
X20897251Y15948122D01*
X20886926Y15949665D01*
X20768569Y15950389D01*
X20758231Y15948972D01*
X20644432Y15916448D01*
X20634902Y15912185D01*
X20574801Y15874264D01*
X20568288Y15865853D01*
X19805532Y15865853D01*
X19806308Y15867518D01*
X19805493Y15870557D01*
X19805044Y15870991D01*
X19745117Y15909833D01*
X19735643Y15914210D01*
X19622251Y15948122D01*
X19611926Y15949665D01*
X19493569Y15950389D01*
X19483231Y15948972D01*
X19369432Y15916448D01*
X19359902Y15912185D01*
X19299801Y15874264D01*
X19293288Y15865853D01*
X18530532Y15865853D01*
X18531308Y15867518D01*
X18530493Y15870557D01*
X18530044Y15870991D01*
X18470117Y15909833D01*
X18460643Y15914210D01*
X18347251Y15948122D01*
X18336926Y15949665D01*
X18218569Y15950389D01*
X18208231Y15948972D01*
X18094432Y15916448D01*
X18084902Y15912185D01*
X18024801Y15874264D01*
X18018288Y15865853D01*
X15079829Y15865853D01*
X15029866Y15915816D01*
X15020025Y15928002D01*
X15012825Y15939153D01*
X15015551Y15940913D01*
X15000500Y15979834D01*
X15000500Y16407628D01*
X18018838Y16407628D01*
X18019716Y16404353D01*
X18019864Y16404209D01*
X18074891Y16367580D01*
X18084310Y16363088D01*
X18197281Y16327794D01*
X18207585Y16326124D01*
X18325925Y16323956D01*
X18336278Y16325245D01*
X18450464Y16356376D01*
X18460047Y16360523D01*
X18525361Y16400625D01*
X18530922Y16407628D01*
X19293838Y16407628D01*
X19294716Y16404353D01*
X19294864Y16404209D01*
X19349891Y16367580D01*
X19359310Y16363088D01*
X19472281Y16327794D01*
X19482585Y16326124D01*
X19600925Y16323956D01*
X19611278Y16325245D01*
X19725464Y16356376D01*
X19735047Y16360523D01*
X19800361Y16400625D01*
X19805922Y16407628D01*
X20568838Y16407628D01*
X20569716Y16404353D01*
X20569864Y16404209D01*
X20624891Y16367580D01*
X20634310Y16363088D01*
X20747281Y16327794D01*
X20757585Y16326124D01*
X20875925Y16323956D01*
X20886278Y16325245D01*
X21000464Y16356376D01*
X21010047Y16360523D01*
X21075361Y16400625D01*
X21081976Y16408956D01*
X21081904Y16411614D01*
X21081108Y16412826D01*
X20834226Y16659708D01*
X20824587Y16664203D01*
X20818688Y16662622D01*
X20573333Y16417267D01*
X20568838Y16407628D01*
X19805922Y16407628D01*
X19806976Y16408956D01*
X19806904Y16411614D01*
X19806108Y16412826D01*
X19559226Y16659708D01*
X19549587Y16664203D01*
X19543688Y16662622D01*
X19298333Y16417267D01*
X19293838Y16407628D01*
X18530922Y16407628D01*
X18531976Y16408956D01*
X18531904Y16411614D01*
X18531108Y16412826D01*
X18284226Y16659708D01*
X18274587Y16664203D01*
X18268688Y16662622D01*
X18023333Y16417267D01*
X18018838Y16407628D01*
X15000500Y16407628D01*
X15000500Y16775328D01*
X17821090Y16775328D01*
X17836437Y16657968D01*
X17839242Y16647919D01*
X17886912Y16539583D01*
X17892428Y16530722D01*
X17898749Y16523201D01*
X17907967Y16517890D01*
X17912655Y16518721D01*
X18159708Y16765774D01*
X18163818Y16774587D01*
X18385797Y16774587D01*
X18387378Y16768688D01*
X18634784Y16521282D01*
X18644423Y16516787D01*
X18649168Y16518059D01*
X18654204Y16525526D01*
X18705806Y16632031D01*
X18708981Y16641976D01*
X18729017Y16761072D01*
X18729526Y16766758D01*
X18729592Y16772139D01*
X18729385Y16775328D01*
X19096090Y16775328D01*
X19111437Y16657968D01*
X19114242Y16647919D01*
X19161912Y16539583D01*
X19167428Y16530722D01*
X19173749Y16523201D01*
X19182967Y16517890D01*
X19187655Y16518721D01*
X19434708Y16765774D01*
X19438818Y16774587D01*
X19660797Y16774587D01*
X19662378Y16768688D01*
X19909784Y16521282D01*
X19919423Y16516787D01*
X19924168Y16518059D01*
X19929204Y16525526D01*
X19980806Y16632031D01*
X19983981Y16641976D01*
X20004017Y16761072D01*
X20004526Y16766758D01*
X20004592Y16772139D01*
X20004385Y16775328D01*
X20371090Y16775328D01*
X20386437Y16657968D01*
X20389242Y16647919D01*
X20436912Y16539583D01*
X20442428Y16530722D01*
X20448749Y16523201D01*
X20457967Y16517890D01*
X20462655Y16518721D01*
X20709708Y16765774D01*
X20713818Y16774587D01*
X20935797Y16774587D01*
X20937378Y16768688D01*
X21184784Y16521282D01*
X21194423Y16516787D01*
X21199168Y16518059D01*
X21204204Y16525526D01*
X21255806Y16632031D01*
X21258981Y16641976D01*
X21279017Y16761072D01*
X21279526Y16766758D01*
X21279592Y16772139D01*
X21279222Y16777827D01*
X21262100Y16897383D01*
X21259171Y16907397D01*
X21210184Y17015141D01*
X21204561Y17023934D01*
X21201710Y17027243D01*
X21192430Y17032440D01*
X21187586Y17031520D01*
X20940292Y16784226D01*
X20935797Y16774587D01*
X20713818Y16774587D01*
X20714203Y16775413D01*
X20712622Y16781312D01*
X20465648Y17028286D01*
X20456009Y17032781D01*
X20451076Y17031459D01*
X20448509Y17028553D01*
X20442779Y17019829D01*
X20392479Y16912693D01*
X20389427Y16902710D01*
X20371218Y16785760D01*
X20371090Y16775328D01*
X20004385Y16775328D01*
X20004222Y16777827D01*
X19987100Y16897383D01*
X19984171Y16907397D01*
X19935184Y17015141D01*
X19929561Y17023934D01*
X19926710Y17027243D01*
X19917430Y17032440D01*
X19912586Y17031520D01*
X19665292Y16784226D01*
X19660797Y16774587D01*
X19438818Y16774587D01*
X19439203Y16775413D01*
X19437622Y16781312D01*
X19190648Y17028286D01*
X19181009Y17032781D01*
X19176076Y17031459D01*
X19173509Y17028553D01*
X19167779Y17019829D01*
X19117479Y16912693D01*
X19114427Y16902710D01*
X19096218Y16785760D01*
X19096090Y16775328D01*
X18729385Y16775328D01*
X18729222Y16777827D01*
X18712100Y16897383D01*
X18709171Y16907397D01*
X18660184Y17015141D01*
X18654561Y17023934D01*
X18651710Y17027243D01*
X18642430Y17032440D01*
X18637586Y17031520D01*
X18390292Y16784226D01*
X18385797Y16774587D01*
X18163818Y16774587D01*
X18164203Y16775413D01*
X18162622Y16781312D01*
X17915648Y17028286D01*
X17906009Y17032781D01*
X17901076Y17031459D01*
X17898509Y17028553D01*
X17892779Y17019829D01*
X17842479Y16912693D01*
X17839427Y16902710D01*
X17821218Y16785760D01*
X17821090Y16775328D01*
X15000500Y16775328D01*
X15000500Y17140853D01*
X18018288Y17140853D01*
X18018402Y17137952D01*
X18018975Y17137091D01*
X18265774Y16890292D01*
X18275413Y16885797D01*
X18281312Y16887378D01*
X18526813Y17132879D01*
X18530532Y17140853D01*
X19293288Y17140853D01*
X19293402Y17137952D01*
X19293975Y17137091D01*
X19540774Y16890292D01*
X19550413Y16885797D01*
X19556312Y16887378D01*
X19801813Y17132879D01*
X19805532Y17140853D01*
X20568288Y17140853D01*
X20568402Y17137952D01*
X20568975Y17137091D01*
X20815774Y16890292D01*
X20825413Y16885797D01*
X20831312Y16887378D01*
X21076813Y17132879D01*
X21081308Y17142518D01*
X21080493Y17145557D01*
X21080044Y17145991D01*
X21020117Y17184833D01*
X21010643Y17189210D01*
X20897251Y17223122D01*
X20886926Y17224665D01*
X20768569Y17225389D01*
X20758231Y17223972D01*
X20644432Y17191448D01*
X20634902Y17187185D01*
X20574801Y17149264D01*
X20568288Y17140853D01*
X19805532Y17140853D01*
X19806308Y17142518D01*
X19805493Y17145557D01*
X19805044Y17145991D01*
X19745117Y17184833D01*
X19735643Y17189210D01*
X19622251Y17223122D01*
X19611926Y17224665D01*
X19493569Y17225389D01*
X19483231Y17223972D01*
X19369432Y17191448D01*
X19359902Y17187185D01*
X19299801Y17149264D01*
X19293288Y17140853D01*
X18530532Y17140853D01*
X18531308Y17142518D01*
X18530493Y17145557D01*
X18530044Y17145991D01*
X18470117Y17184833D01*
X18460643Y17189210D01*
X18347251Y17223122D01*
X18336926Y17224665D01*
X18218569Y17225389D01*
X18208231Y17223972D01*
X18094432Y17191448D01*
X18084902Y17187185D01*
X18024801Y17149264D01*
X18018288Y17140853D01*
X15000500Y17140853D01*
X15000500Y18854708D01*
X15002158Y18870284D01*
X15002511Y18871924D01*
X15004952Y18883260D01*
X15001013Y18916541D01*
X15000500Y18925239D01*
X15000500Y18929115D01*
X14997409Y18947685D01*
X14996918Y18951137D01*
X14991956Y18993062D01*
X14991237Y18999138D01*
X14988589Y19004652D01*
X14988257Y19005794D01*
X14988075Y19006592D01*
X14987885Y19007192D01*
X14987574Y19007952D01*
X14987192Y19009067D01*
X14986188Y19015103D01*
X14963236Y19057639D01*
X14961653Y19060746D01*
X14957792Y19068787D01*
X14950500Y19100818D01*
X14950500Y19574166D01*
X14967813Y19621732D01*
X14972174Y19626492D01*
X16173508Y20827826D01*
X16219384Y20849218D01*
X16225834Y20849500D01*
X21606051Y20849500D01*
X21628903Y20845881D01*
X21634082Y20843242D01*
X21639834Y20842331D01*
X21639837Y20842330D01*
X21744248Y20825793D01*
X21750000Y20824882D01*
X21820758Y20836089D01*
X21832332Y20837000D01*
X21864461Y20837000D01*
X21912027Y20819687D01*
X21935988Y20777334D01*
X21936181Y20777397D01*
X21936489Y20776448D01*
X21937550Y20774573D01*
X21937979Y20771862D01*
X21937980Y20771859D01*
X21938891Y20766107D01*
X21941534Y20760919D01*
X21941535Y20760917D01*
X21992046Y20661783D01*
X21992048Y20661780D01*
X21994689Y20656597D01*
X22081597Y20569689D01*
X22086780Y20567048D01*
X22086783Y20567046D01*
X22185917Y20516535D01*
X22185919Y20516534D01*
X22191107Y20513891D01*
X22281967Y20499500D01*
X22550000Y20499500D01*
X22818032Y20499501D01*
X22820904Y20499956D01*
X22820906Y20499956D01*
X22867950Y20507407D01*
X22908893Y20513891D01*
X22962859Y20541388D01*
X23013217Y20567046D01*
X23013220Y20567048D01*
X23018403Y20569689D01*
X23105311Y20656597D01*
X23107952Y20661780D01*
X23107954Y20661783D01*
X23158465Y20760917D01*
X23158466Y20760919D01*
X23161109Y20766107D01*
X23175500Y20856967D01*
X23175500Y20875500D01*
X23192813Y20923066D01*
X23236650Y20948376D01*
X23249500Y20949500D01*
X23425500Y20949500D01*
X23473066Y20932187D01*
X23498376Y20888350D01*
X23499500Y20875500D01*
X23499500Y19385180D01*
X23500210Y19381611D01*
X23500210Y19381610D01*
X23501323Y19376018D01*
X23508233Y19341278D01*
X23541496Y19291496D01*
X23591278Y19258233D01*
X23598424Y19256812D01*
X23598425Y19256811D01*
X23631610Y19250210D01*
X23631611Y19250210D01*
X23635180Y19249500D01*
X25258000Y19249500D01*
X25305566Y19232187D01*
X25330876Y19188350D01*
X25332000Y19175500D01*
X25332000Y16676449D01*
X25328381Y16653597D01*
X25325742Y16648418D01*
X25324831Y16642666D01*
X25324830Y16642663D01*
X25308504Y16539583D01*
X25307382Y16532500D01*
X25308293Y16526748D01*
X25324612Y16423717D01*
X25325742Y16416582D01*
X25328381Y16411403D01*
X25332000Y16388551D01*
X25332000Y7658334D01*
X25314687Y7610768D01*
X25310326Y7606008D01*
X24949184Y7244866D01*
X24936998Y7235025D01*
X24930989Y7231145D01*
X24930987Y7231143D01*
X24925848Y7227825D01*
X24922060Y7223020D01*
X24905106Y7201514D01*
X24899319Y7195001D01*
X24896572Y7192254D01*
X24894801Y7189776D01*
X24894797Y7189771D01*
X24885614Y7176920D01*
X24883540Y7174157D01*
X24853608Y7136189D01*
X24851582Y7130420D01*
X24851012Y7129383D01*
X24850570Y7128680D01*
X24850289Y7128140D01*
X24849972Y7127383D01*
X24849445Y7126307D01*
X24845889Y7121331D01*
X24844136Y7115469D01*
X24832040Y7075023D01*
X24830963Y7071707D01*
X24814945Y7026094D01*
X24814500Y7020956D01*
X24814500Y7019619D01*
X24814116Y7015088D01*
X24812456Y7009536D01*
X24812696Y7003426D01*
X24812696Y7003425D01*
X24814443Y6958963D01*
X24814500Y6956058D01*
X24814500Y5055600D01*
X24797187Y5008034D01*
X24774785Y4990022D01*
X24721282Y4962051D01*
X24617719Y4907910D01*
X24617716Y4907908D01*
X24614512Y4906233D01*
X24611694Y4903967D01*
X24611692Y4903966D01*
X24464419Y4785556D01*
X24464416Y4785553D01*
X24461600Y4783289D01*
X24335480Y4632984D01*
X24333738Y4629816D01*
X24333737Y4629814D01*
X24316081Y4597698D01*
X24240956Y4461046D01*
X24239864Y4457603D01*
X24239863Y4457601D01*
X24191507Y4305163D01*
X24181628Y4274022D01*
X24181225Y4270426D01*
X24181224Y4270423D01*
X24178396Y4245206D01*
X24159757Y4079037D01*
X24160060Y4075428D01*
X24160060Y4075426D01*
X24173600Y3914184D01*
X24176175Y3883517D01*
X24230258Y3694909D01*
X24237847Y3680142D01*
X24318288Y3523620D01*
X24318291Y3523615D01*
X24319944Y3520399D01*
X24441818Y3366631D01*
X24591238Y3239465D01*
X24594400Y3237698D01*
X24759354Y3145508D01*
X24759358Y3145506D01*
X24762513Y3143743D01*
X24765949Y3142626D01*
X24765955Y3142624D01*
X24884467Y3104118D01*
X24949118Y3083111D01*
X25009541Y3075906D01*
X25140346Y3060308D01*
X25140349Y3060308D01*
X25143946Y3059879D01*
X25208365Y3064836D01*
X25335965Y3074654D01*
X25335966Y3074654D01*
X25339576Y3074932D01*
X25528556Y3127697D01*
X25531783Y3129327D01*
X25700455Y3214529D01*
X25700458Y3214531D01*
X25703689Y3216163D01*
X25858303Y3336960D01*
X25986509Y3485489D01*
X25988292Y3488628D01*
X25988295Y3488632D01*
X26048418Y3594468D01*
X26083425Y3656091D01*
X26089752Y3675109D01*
X26144215Y3838832D01*
X26145358Y3842268D01*
X26150130Y3880038D01*
X26169691Y4034885D01*
X26169691Y4034889D01*
X26169949Y4036929D01*
X26170341Y4065000D01*
X26151194Y4260272D01*
X26147852Y4271343D01*
X26100101Y4429500D01*
X26094484Y4448106D01*
X26053500Y4525186D01*
X26046455Y4575311D01*
X26066512Y4612252D01*
X26432086Y4977826D01*
X26477962Y4999218D01*
X26484412Y4999500D01*
X27060378Y4999500D01*
X27107944Y4982187D01*
X27133254Y4938350D01*
X27124464Y4888500D01*
X27106747Y4867829D01*
X27004419Y4785556D01*
X27004416Y4785553D01*
X27001600Y4783289D01*
X26875480Y4632984D01*
X26873738Y4629816D01*
X26873737Y4629814D01*
X26856081Y4597698D01*
X26780956Y4461046D01*
X26779864Y4457603D01*
X26779863Y4457601D01*
X26731507Y4305163D01*
X26721628Y4274022D01*
X26721225Y4270426D01*
X26721224Y4270423D01*
X26718396Y4245206D01*
X26699757Y4079037D01*
X26700060Y4075428D01*
X26700060Y4075426D01*
X26713600Y3914184D01*
X26716175Y3883517D01*
X26770258Y3694909D01*
X26777847Y3680142D01*
X26858288Y3523620D01*
X26858291Y3523615D01*
X26859944Y3520399D01*
X26981818Y3366631D01*
X27131238Y3239465D01*
X27134400Y3237698D01*
X27299354Y3145508D01*
X27299358Y3145506D01*
X27302513Y3143743D01*
X27305949Y3142626D01*
X27305955Y3142624D01*
X27424467Y3104118D01*
X27489118Y3083111D01*
X27549541Y3075906D01*
X27680346Y3060308D01*
X27680349Y3060308D01*
X27683946Y3059879D01*
X27748365Y3064836D01*
X27875965Y3074654D01*
X27875966Y3074654D01*
X27879576Y3074932D01*
X28068556Y3127697D01*
X28071783Y3129327D01*
X28240455Y3214529D01*
X28240458Y3214531D01*
X28243689Y3216163D01*
X28398303Y3336960D01*
X28526509Y3485489D01*
X28528292Y3488628D01*
X28528295Y3488632D01*
X28588418Y3594468D01*
X28623425Y3656091D01*
X28629752Y3675109D01*
X28684215Y3838832D01*
X28685358Y3842268D01*
X28690130Y3880038D01*
X28709691Y4034885D01*
X28709691Y4034889D01*
X28709949Y4036929D01*
X28710341Y4065000D01*
X28691194Y4260272D01*
X28687852Y4271343D01*
X28640101Y4429500D01*
X28634484Y4448106D01*
X28555613Y4596440D01*
X28544069Y4618152D01*
X28544068Y4618153D01*
X28542370Y4621347D01*
X28418361Y4773398D01*
X28303423Y4868483D01*
X28277808Y4912141D01*
X28286249Y4962051D01*
X28324797Y4994859D01*
X28350592Y4999500D01*
X29600378Y4999500D01*
X29647944Y4982187D01*
X29673254Y4938350D01*
X29664464Y4888500D01*
X29646747Y4867829D01*
X29544419Y4785556D01*
X29544416Y4785553D01*
X29541600Y4783289D01*
X29415480Y4632984D01*
X29413738Y4629816D01*
X29413737Y4629814D01*
X29396081Y4597698D01*
X29320956Y4461046D01*
X29319864Y4457603D01*
X29319863Y4457601D01*
X29271507Y4305163D01*
X29261628Y4274022D01*
X29261225Y4270426D01*
X29261224Y4270423D01*
X29258396Y4245206D01*
X29239757Y4079037D01*
X29240060Y4075428D01*
X29240060Y4075426D01*
X29253600Y3914184D01*
X29256175Y3883517D01*
X29310258Y3694909D01*
X29317847Y3680142D01*
X29398288Y3523620D01*
X29398291Y3523615D01*
X29399944Y3520399D01*
X29521818Y3366631D01*
X29671238Y3239465D01*
X29674400Y3237698D01*
X29839354Y3145508D01*
X29839358Y3145506D01*
X29842513Y3143743D01*
X29845949Y3142626D01*
X29845955Y3142624D01*
X29964467Y3104118D01*
X30029118Y3083111D01*
X30089541Y3075906D01*
X30220346Y3060308D01*
X30220349Y3060308D01*
X30223946Y3059879D01*
X30288365Y3064836D01*
X30415965Y3074654D01*
X30415966Y3074654D01*
X30419576Y3074932D01*
X30608556Y3127697D01*
X30611783Y3129327D01*
X30780455Y3214529D01*
X30780458Y3214531D01*
X30783689Y3216163D01*
X30938303Y3336960D01*
X31066509Y3485489D01*
X31068292Y3488628D01*
X31068295Y3488632D01*
X31128418Y3594468D01*
X31163425Y3656091D01*
X31169752Y3675109D01*
X31224215Y3838832D01*
X31225358Y3842268D01*
X31230130Y3880038D01*
X31249691Y4034885D01*
X31249691Y4034889D01*
X31249949Y4036929D01*
X31250341Y4065000D01*
X31231194Y4260272D01*
X31227852Y4271343D01*
X31180101Y4429500D01*
X31174484Y4448106D01*
X31095613Y4596440D01*
X31084069Y4618152D01*
X31084068Y4618153D01*
X31082370Y4621347D01*
X30958361Y4773398D01*
X30843423Y4868483D01*
X30817808Y4912141D01*
X30826249Y4962051D01*
X30864797Y4994859D01*
X30890592Y4999500D01*
X35495882Y4999500D01*
X35543448Y4982187D01*
X35548208Y4977826D01*
X35579511Y4946523D01*
X35629489Y4921058D01*
X35678892Y4895886D01*
X35678894Y4895885D01*
X35684082Y4893242D01*
X35800000Y4874882D01*
X35915918Y4893242D01*
X35921106Y4895885D01*
X35921108Y4895886D01*
X35970511Y4921058D01*
X36020489Y4946523D01*
X36103477Y5029511D01*
X36156758Y5134082D01*
X36175118Y5250000D01*
X36156758Y5365918D01*
X36103477Y5470489D01*
X36020489Y5553477D01*
X35953695Y5587510D01*
X35921108Y5604114D01*
X35921106Y5604115D01*
X35915918Y5606758D01*
X35800000Y5625118D01*
X35684082Y5606758D01*
X35678894Y5604115D01*
X35678892Y5604114D01*
X35646305Y5587510D01*
X35579511Y5553477D01*
X35548208Y5522174D01*
X35502332Y5500782D01*
X35495882Y5500500D01*
X26381962Y5500500D01*
X26367525Y5501922D01*
X26357149Y5503986D01*
X26350000Y5505408D01*
X26252259Y5485966D01*
X26246197Y5481915D01*
X26246196Y5481915D01*
X26229097Y5470489D01*
X26222464Y5466057D01*
X26169399Y5430601D01*
X26165350Y5424541D01*
X26165349Y5424540D01*
X26159470Y5415741D01*
X26150267Y5404527D01*
X25712327Y4966587D01*
X25666451Y4945195D01*
X25624806Y4953819D01*
X25554585Y4991787D01*
X25555587Y4993640D01*
X25523696Y5023150D01*
X25515500Y5056999D01*
X25515500Y6789166D01*
X25532813Y6836732D01*
X25537174Y6841492D01*
X25898316Y7202634D01*
X25910502Y7212475D01*
X25916511Y7216355D01*
X25916513Y7216357D01*
X25921652Y7219675D01*
X25942394Y7245986D01*
X25948181Y7252499D01*
X25950929Y7255247D01*
X25952700Y7257725D01*
X25952704Y7257730D01*
X25961887Y7270581D01*
X25963982Y7273371D01*
X25990103Y7306505D01*
X25993892Y7311311D01*
X25995920Y7317085D01*
X25996494Y7318129D01*
X25996933Y7318827D01*
X25997214Y7319367D01*
X25997530Y7320122D01*
X25998055Y7321194D01*
X26001611Y7326170D01*
X26010871Y7357131D01*
X26015459Y7372474D01*
X26016536Y7375790D01*
X26024940Y7399721D01*
X26032555Y7421406D01*
X26033000Y7426544D01*
X26033000Y7427881D01*
X26033384Y7432412D01*
X26035044Y7437964D01*
X26033056Y7488566D01*
X26033000Y7491442D01*
X26033000Y11096952D01*
X32698940Y11096952D01*
X32701147Y11061880D01*
X32702878Y11052806D01*
X32750749Y10905474D01*
X32754684Y10897111D01*
X32837691Y10766312D01*
X32843580Y10759194D01*
X32956512Y10653144D01*
X32963978Y10647720D01*
X33099741Y10573083D01*
X33108324Y10569685D01*
X33258379Y10531157D01*
X33267538Y10530000D01*
X33806952Y10530000D01*
X33816948Y10533638D01*
X33820000Y10538925D01*
X33820000Y10543048D01*
X33970000Y10543048D01*
X33973638Y10533052D01*
X33978925Y10530000D01*
X34483563Y10530000D01*
X34488211Y10530293D01*
X34603312Y10544833D01*
X34612264Y10547132D01*
X34756298Y10604159D01*
X34764397Y10608612D01*
X34889724Y10699668D01*
X34896460Y10705993D01*
X34995206Y10825356D01*
X35000158Y10833159D01*
X35066119Y10973333D01*
X35068972Y10982114D01*
X35089969Y11092183D01*
X35089196Y11096952D01*
X37128940Y11096952D01*
X37131147Y11061880D01*
X37132878Y11052806D01*
X37180749Y10905474D01*
X37184684Y10897111D01*
X37267691Y10766312D01*
X37273580Y10759194D01*
X37386512Y10653144D01*
X37393978Y10647720D01*
X37529741Y10573083D01*
X37538324Y10569685D01*
X37688379Y10531157D01*
X37697538Y10530000D01*
X37986952Y10530000D01*
X37996948Y10533638D01*
X38000000Y10538925D01*
X38000000Y11091952D01*
X37996362Y11101948D01*
X37991075Y11105000D01*
X37141482Y11105000D01*
X37131486Y11101362D01*
X37128940Y11096952D01*
X35089196Y11096952D01*
X35088268Y11102683D01*
X35085584Y11105000D01*
X33983048Y11105000D01*
X33973052Y11101362D01*
X33970000Y11096075D01*
X33970000Y10543048D01*
X33820000Y10543048D01*
X33820000Y11091952D01*
X33816362Y11101948D01*
X33811075Y11105000D01*
X32711482Y11105000D01*
X32701486Y11101362D01*
X32698940Y11096952D01*
X26033000Y11096952D01*
X26033000Y11267817D01*
X32700031Y11267817D01*
X32701732Y11257317D01*
X32704416Y11255000D01*
X33806952Y11255000D01*
X33816948Y11258638D01*
X33820000Y11263925D01*
X33820000Y11268048D01*
X33970000Y11268048D01*
X33973638Y11258052D01*
X33978925Y11255000D01*
X35078518Y11255000D01*
X35088514Y11258638D01*
X35091060Y11263048D01*
X35090760Y11267817D01*
X37130031Y11267817D01*
X37131732Y11257317D01*
X37134416Y11255000D01*
X37986952Y11255000D01*
X37996948Y11258638D01*
X38000000Y11263925D01*
X38000000Y11816952D01*
X37996362Y11826948D01*
X37991075Y11830000D01*
X37736437Y11830000D01*
X37731789Y11829707D01*
X37616688Y11815167D01*
X37607736Y11812868D01*
X37463702Y11755841D01*
X37455603Y11751388D01*
X37330276Y11660332D01*
X37323540Y11654007D01*
X37224794Y11534644D01*
X37219842Y11526841D01*
X37153881Y11386667D01*
X37151028Y11377886D01*
X37130031Y11267817D01*
X35090760Y11267817D01*
X35088853Y11298120D01*
X35087122Y11307194D01*
X35039251Y11454526D01*
X35035316Y11462889D01*
X34952309Y11593688D01*
X34946420Y11600806D01*
X34833488Y11706856D01*
X34826022Y11712280D01*
X34690259Y11786917D01*
X34681676Y11790315D01*
X34531621Y11828843D01*
X34522462Y11830000D01*
X33983048Y11830000D01*
X33973052Y11826362D01*
X33970000Y11821075D01*
X33970000Y11268048D01*
X33820000Y11268048D01*
X33820000Y11816952D01*
X33816362Y11826948D01*
X33811075Y11830000D01*
X33306437Y11830000D01*
X33301789Y11829707D01*
X33186688Y11815167D01*
X33177736Y11812868D01*
X33033702Y11755841D01*
X33025603Y11751388D01*
X32900276Y11660332D01*
X32893540Y11654007D01*
X32794794Y11534644D01*
X32789842Y11526841D01*
X32723881Y11386667D01*
X32721028Y11377886D01*
X32700031Y11267817D01*
X26033000Y11267817D01*
X26033000Y12576693D01*
X33865606Y12576693D01*
X33894064Y12435556D01*
X33959429Y12307270D01*
X34056884Y12201288D01*
X34061170Y12198631D01*
X34061173Y12198628D01*
X34124268Y12159508D01*
X34179250Y12125418D01*
X34184093Y12124011D01*
X34313787Y12086331D01*
X34313789Y12086331D01*
X34317512Y12085249D01*
X34323055Y12084842D01*
X34326357Y12084599D01*
X34326371Y12084599D01*
X34327712Y12084500D01*
X34431070Y12084500D01*
X34537646Y12099099D01*
X34542275Y12101102D01*
X34542278Y12101103D01*
X34665154Y12154277D01*
X34669783Y12156280D01*
X34729951Y12205003D01*
X34777756Y12243714D01*
X34777758Y12243716D01*
X34781675Y12246888D01*
X34824586Y12307270D01*
X34862158Y12360138D01*
X34862159Y12360141D01*
X34865079Y12364249D01*
X34913850Y12499715D01*
X34924394Y12643307D01*
X34895936Y12784444D01*
X34830571Y12912730D01*
X34733116Y13018712D01*
X34728830Y13021369D01*
X34728827Y13021372D01*
X34657295Y13065723D01*
X34610750Y13094582D01*
X34520160Y13120901D01*
X34476213Y13133669D01*
X34476211Y13133669D01*
X34472488Y13134751D01*
X34466945Y13135158D01*
X34463643Y13135401D01*
X34463629Y13135401D01*
X34462288Y13135500D01*
X34358930Y13135500D01*
X34252354Y13120901D01*
X34247725Y13118898D01*
X34247722Y13118897D01*
X34185392Y13091924D01*
X34120217Y13063720D01*
X34067921Y13021372D01*
X34012244Y12976286D01*
X34012242Y12976284D01*
X34008325Y12973112D01*
X34005403Y12969000D01*
X33927842Y12859862D01*
X33927841Y12859859D01*
X33924921Y12855751D01*
X33876150Y12720285D01*
X33865606Y12576693D01*
X26033000Y12576693D01*
X26033000Y16388551D01*
X26036619Y16411403D01*
X26039258Y16416582D01*
X26040389Y16423717D01*
X26042162Y16434913D01*
X29000000Y16434913D01*
X29000455Y16429131D01*
X29013461Y16347017D01*
X29017016Y16336073D01*
X29067455Y16237080D01*
X29074214Y16227778D01*
X29152778Y16149214D01*
X29162080Y16142455D01*
X29261073Y16092016D01*
X29272017Y16088461D01*
X29354131Y16075455D01*
X29359913Y16075000D01*
X29599452Y16075000D01*
X29609448Y16078638D01*
X29612500Y16083925D01*
X29612500Y16088048D01*
X29762500Y16088048D01*
X29766138Y16078052D01*
X29771425Y16075000D01*
X30015087Y16075000D01*
X30020869Y16075455D01*
X30102983Y16088461D01*
X30113927Y16092016D01*
X30212920Y16142455D01*
X30222222Y16149214D01*
X30300786Y16227778D01*
X30307545Y16237080D01*
X30357984Y16336073D01*
X30361539Y16347017D01*
X30374545Y16429131D01*
X30375000Y16434913D01*
X30375000Y16611952D01*
X30371362Y16621948D01*
X30366075Y16625000D01*
X29775548Y16625000D01*
X29765552Y16621362D01*
X29762500Y16616075D01*
X29762500Y16088048D01*
X29612500Y16088048D01*
X29612500Y16611952D01*
X29608862Y16621948D01*
X29603575Y16625000D01*
X29013048Y16625000D01*
X29003052Y16621362D01*
X29000000Y16616075D01*
X29000000Y16434913D01*
X26042162Y16434913D01*
X26056707Y16526748D01*
X26057618Y16532500D01*
X26056496Y16539583D01*
X26040170Y16642663D01*
X26040169Y16642666D01*
X26039258Y16648418D01*
X26036619Y16653597D01*
X26033000Y16676449D01*
X26033000Y16788048D01*
X29000000Y16788048D01*
X29003638Y16778052D01*
X29008925Y16775000D01*
X29599452Y16775000D01*
X29609448Y16778638D01*
X29612500Y16783925D01*
X29612500Y16788048D01*
X29762500Y16788048D01*
X29766138Y16778052D01*
X29771425Y16775000D01*
X30361952Y16775000D01*
X30371948Y16778638D01*
X30375000Y16783925D01*
X30375000Y16965087D01*
X30374545Y16970869D01*
X30361539Y17052983D01*
X30357984Y17063927D01*
X30307545Y17162920D01*
X30300786Y17172222D01*
X30222222Y17250786D01*
X30212920Y17257545D01*
X30113927Y17307984D01*
X30102983Y17311539D01*
X30020869Y17324545D01*
X30015087Y17325000D01*
X29775548Y17325000D01*
X29765552Y17321362D01*
X29762500Y17316075D01*
X29762500Y16788048D01*
X29612500Y16788048D01*
X29612500Y17311952D01*
X29608862Y17321948D01*
X29603575Y17325000D01*
X29359913Y17325000D01*
X29354131Y17324545D01*
X29272017Y17311539D01*
X29261073Y17307984D01*
X29162080Y17257545D01*
X29152778Y17250786D01*
X29074214Y17172222D01*
X29067455Y17162920D01*
X29017016Y17063927D01*
X29013461Y17052983D01*
X29000455Y16970869D01*
X29000000Y16965087D01*
X29000000Y16788048D01*
X26033000Y16788048D01*
X26033000Y20222208D01*
X26034658Y20237784D01*
X26035309Y20240806D01*
X26037452Y20250760D01*
X26033513Y20284041D01*
X26033000Y20292739D01*
X26033000Y20296615D01*
X26029909Y20315185D01*
X26029418Y20318637D01*
X26024456Y20360562D01*
X26023737Y20366638D01*
X26021089Y20372152D01*
X26020757Y20373294D01*
X26020575Y20374092D01*
X26020386Y20374690D01*
X26020074Y20375452D01*
X26019692Y20376567D01*
X26018688Y20382603D01*
X26004859Y20408233D01*
X25995734Y20425144D01*
X25994151Y20428251D01*
X25993160Y20430315D01*
X25973227Y20471826D01*
X25969908Y20475774D01*
X25968963Y20476719D01*
X25966030Y20480193D01*
X25963278Y20485294D01*
X25926123Y20519640D01*
X25924028Y20521654D01*
X25822174Y20623508D01*
X25800782Y20669384D01*
X25800500Y20675834D01*
X25800500Y20875500D01*
X25817813Y20923066D01*
X25861650Y20948376D01*
X25874500Y20949500D01*
X29725500Y20949500D01*
X29773066Y20932187D01*
X29798376Y20888350D01*
X29799500Y20875500D01*
X29799500Y20535180D01*
X29800210Y20531611D01*
X29800210Y20531610D01*
X29806507Y20499956D01*
X29808233Y20491278D01*
X29841496Y20441496D01*
X29891278Y20408233D01*
X29898424Y20406812D01*
X29898425Y20406811D01*
X29931610Y20400210D01*
X29931611Y20400210D01*
X29935180Y20399500D01*
X31964820Y20399500D01*
X31968389Y20400210D01*
X31968390Y20400210D01*
X32001573Y20406811D01*
X32008722Y20408233D01*
X32014783Y20412283D01*
X32015602Y20412622D01*
X32066173Y20414830D01*
X32106332Y20384015D01*
X32117288Y20334596D01*
X32096247Y20291929D01*
X31726492Y19922174D01*
X31680616Y19900782D01*
X31674166Y19900500D01*
X29935180Y19900500D01*
X29931611Y19899790D01*
X29931610Y19899790D01*
X29898425Y19893189D01*
X29898424Y19893188D01*
X29891278Y19891767D01*
X29841496Y19858504D01*
X29808233Y19808722D01*
X29806812Y19801576D01*
X29806811Y19801575D01*
X29802027Y19777525D01*
X29799500Y19764820D01*
X29799500Y18235180D01*
X29800210Y18231613D01*
X29800210Y18231610D01*
X29803404Y18215556D01*
X29808233Y18191278D01*
X29841496Y18141496D01*
X29891278Y18108233D01*
X29898424Y18106812D01*
X29898425Y18106811D01*
X29931610Y18100210D01*
X29931611Y18100210D01*
X29935180Y18099500D01*
X30988000Y18099500D01*
X31035566Y18082187D01*
X31060876Y18038350D01*
X31062000Y18025500D01*
X31062000Y17385539D01*
X31044687Y17337973D01*
X31002334Y17314012D01*
X31002397Y17313819D01*
X31001448Y17313511D01*
X30999573Y17312450D01*
X30996862Y17312021D01*
X30996859Y17312020D01*
X30991107Y17311109D01*
X30985919Y17308466D01*
X30985917Y17308465D01*
X30886783Y17257954D01*
X30886780Y17257952D01*
X30881597Y17255311D01*
X30794689Y17168403D01*
X30792048Y17163220D01*
X30792046Y17163217D01*
X30741535Y17064083D01*
X30738891Y17058893D01*
X30724500Y16968033D01*
X30724501Y16431968D01*
X30724956Y16429096D01*
X30724956Y16429094D01*
X30727755Y16411420D01*
X30738891Y16341107D01*
X30766388Y16287141D01*
X30792046Y16236783D01*
X30792048Y16236780D01*
X30794689Y16231597D01*
X30881597Y16144689D01*
X30886780Y16142048D01*
X30886783Y16142046D01*
X30985917Y16091535D01*
X30985919Y16091534D01*
X30991107Y16088891D01*
X31037077Y16081610D01*
X31081349Y16057069D01*
X31099500Y16008521D01*
X31099500Y14093949D01*
X31095881Y14071097D01*
X31093242Y14065918D01*
X31092331Y14060166D01*
X31092330Y14060163D01*
X31077541Y13966787D01*
X31074882Y13950000D01*
X31093242Y13834082D01*
X31146523Y13729511D01*
X31229511Y13646523D01*
X31279489Y13621058D01*
X31328892Y13595886D01*
X31328894Y13595885D01*
X31334082Y13593242D01*
X31450000Y13574882D01*
X31565918Y13593242D01*
X31571106Y13595885D01*
X31571108Y13595886D01*
X31620511Y13621058D01*
X31670489Y13646523D01*
X31753477Y13729511D01*
X31806758Y13834082D01*
X31825118Y13950000D01*
X31822459Y13966787D01*
X31807670Y14060163D01*
X31807669Y14060166D01*
X31806758Y14065918D01*
X31804119Y14071097D01*
X31800500Y14093949D01*
X31800500Y16026529D01*
X31817813Y16074095D01*
X31840905Y16092464D01*
X31938217Y16142046D01*
X31938220Y16142048D01*
X31943403Y16144689D01*
X32030311Y16231597D01*
X32032953Y16236783D01*
X32032957Y16236788D01*
X32067986Y16305536D01*
X32105006Y16340058D01*
X32133089Y16345086D01*
X32133261Y16345049D01*
X32139336Y16345768D01*
X32166533Y16348987D01*
X32175231Y16349500D01*
X32179115Y16349500D01*
X32182129Y16350002D01*
X32182133Y16350002D01*
X32197701Y16352593D01*
X32201151Y16353084D01*
X32243065Y16358045D01*
X32243066Y16358045D01*
X32249138Y16358764D01*
X32254650Y16361411D01*
X32255787Y16361741D01*
X32256595Y16361925D01*
X32257180Y16362110D01*
X32257932Y16362418D01*
X32259071Y16362808D01*
X32265103Y16363812D01*
X32288324Y16376341D01*
X32307645Y16386766D01*
X32310751Y16388348D01*
X32350125Y16407255D01*
X32350135Y16407262D01*
X32354326Y16409274D01*
X32358274Y16412592D01*
X32359227Y16413545D01*
X32362690Y16416468D01*
X32367794Y16419222D01*
X32402140Y16456377D01*
X32404154Y16458472D01*
X32465816Y16520134D01*
X32478002Y16529975D01*
X32484011Y16533855D01*
X32484013Y16533857D01*
X32489152Y16537175D01*
X32509894Y16563486D01*
X32515681Y16569999D01*
X32518428Y16572746D01*
X32520199Y16575224D01*
X32520203Y16575229D01*
X32529386Y16588080D01*
X32531460Y16590843D01*
X32561392Y16628811D01*
X32563418Y16634580D01*
X32563988Y16635617D01*
X32564429Y16636318D01*
X32564713Y16636865D01*
X32565028Y16637616D01*
X32565557Y16638695D01*
X32569111Y16643669D01*
X32570863Y16649529D01*
X32570865Y16649532D01*
X32582963Y16689985D01*
X32584040Y16693301D01*
X32587862Y16704185D01*
X32600055Y16738906D01*
X32600500Y16744044D01*
X32600500Y16745384D01*
X32600883Y16749911D01*
X32602543Y16755463D01*
X32601020Y16794248D01*
X32600557Y16806022D01*
X32600500Y16808927D01*
X32600500Y17606051D01*
X32604119Y17628903D01*
X32606758Y17634082D01*
X32610249Y17656119D01*
X32624207Y17744248D01*
X32625118Y17750000D01*
X32606758Y17865918D01*
X32600484Y17878233D01*
X32556119Y17965303D01*
X32553477Y17970489D01*
X32470489Y18053477D01*
X32380163Y18099500D01*
X32371108Y18104114D01*
X32371106Y18104115D01*
X32365918Y18106758D01*
X32250000Y18125118D01*
X32177899Y18113698D01*
X32128210Y18123356D01*
X32096355Y18162695D01*
X32093745Y18201223D01*
X32100500Y18235180D01*
X32100500Y18356693D01*
X33865606Y18356693D01*
X33894064Y18215556D01*
X33896355Y18211060D01*
X33953198Y18099500D01*
X33959429Y18087270D01*
X34056884Y17981288D01*
X34061170Y17978631D01*
X34061173Y17978628D01*
X34124268Y17939508D01*
X34179250Y17905418D01*
X34184093Y17904011D01*
X34313787Y17866331D01*
X34313789Y17866331D01*
X34317512Y17865249D01*
X34323055Y17864842D01*
X34326357Y17864599D01*
X34326371Y17864599D01*
X34327712Y17864500D01*
X34431070Y17864500D01*
X34537646Y17879099D01*
X34542275Y17881102D01*
X34542278Y17881103D01*
X34665154Y17934277D01*
X34669783Y17936280D01*
X34734270Y17988500D01*
X34777756Y18023714D01*
X34777758Y18023716D01*
X34781675Y18026888D01*
X34824586Y18087270D01*
X34862158Y18140138D01*
X34862159Y18140141D01*
X34865079Y18144249D01*
X34913850Y18279715D01*
X34924394Y18423307D01*
X34895936Y18564444D01*
X34830571Y18692730D01*
X34733116Y18798712D01*
X34728830Y18801369D01*
X34728827Y18801372D01*
X34657295Y18845723D01*
X34610750Y18874582D01*
X34520160Y18900901D01*
X34476213Y18913669D01*
X34476211Y18913669D01*
X34472488Y18914751D01*
X34466945Y18915158D01*
X34463643Y18915401D01*
X34463629Y18915401D01*
X34462288Y18915500D01*
X34358930Y18915500D01*
X34252354Y18900901D01*
X34247725Y18898898D01*
X34247722Y18898897D01*
X34163804Y18862582D01*
X34120217Y18843720D01*
X34101906Y18828892D01*
X34012244Y18756286D01*
X34012242Y18756284D01*
X34008325Y18753112D01*
X33991553Y18729511D01*
X33927842Y18639862D01*
X33927841Y18639859D01*
X33924921Y18635751D01*
X33876150Y18500285D01*
X33865606Y18356693D01*
X32100500Y18356693D01*
X32100500Y19274166D01*
X32117813Y19321732D01*
X32122174Y19326492D01*
X32573207Y19777525D01*
X32619083Y19798917D01*
X32667978Y19785816D01*
X32697012Y19744352D01*
X32699387Y19729846D01*
X32701147Y19701881D01*
X32702878Y19692804D01*
X32750749Y19545474D01*
X32754684Y19537111D01*
X32837691Y19406312D01*
X32843580Y19399194D01*
X32956512Y19293144D01*
X32963978Y19287720D01*
X33099741Y19213083D01*
X33108324Y19209685D01*
X33258379Y19171157D01*
X33267538Y19170000D01*
X33806952Y19170000D01*
X33816948Y19173638D01*
X33820000Y19178925D01*
X33820000Y19183048D01*
X33970000Y19183048D01*
X33973638Y19173052D01*
X33978925Y19170000D01*
X34483563Y19170000D01*
X34488211Y19170293D01*
X34603312Y19184833D01*
X34612264Y19187132D01*
X34756298Y19244159D01*
X34764397Y19248612D01*
X34889724Y19339668D01*
X34896460Y19345993D01*
X34995206Y19465356D01*
X35000158Y19473159D01*
X35066119Y19613333D01*
X35068972Y19622114D01*
X35089969Y19732183D01*
X35089196Y19736952D01*
X37128940Y19736952D01*
X37131147Y19701880D01*
X37132878Y19692806D01*
X37180749Y19545474D01*
X37184684Y19537111D01*
X37267691Y19406312D01*
X37273580Y19399194D01*
X37386512Y19293144D01*
X37393978Y19287720D01*
X37529741Y19213083D01*
X37538324Y19209685D01*
X37688379Y19171157D01*
X37697538Y19170000D01*
X37986952Y19170000D01*
X37996948Y19173638D01*
X38000000Y19178925D01*
X38000000Y19731952D01*
X37996362Y19741948D01*
X37991075Y19745000D01*
X37141482Y19745000D01*
X37131486Y19741362D01*
X37128940Y19736952D01*
X35089196Y19736952D01*
X35088268Y19742683D01*
X35085584Y19745000D01*
X33983048Y19745000D01*
X33973052Y19741362D01*
X33970000Y19736075D01*
X33970000Y19183048D01*
X33820000Y19183048D01*
X33820000Y19908048D01*
X33970000Y19908048D01*
X33973638Y19898052D01*
X33978925Y19895000D01*
X35078518Y19895000D01*
X35088514Y19898638D01*
X35091060Y19903048D01*
X35090760Y19907817D01*
X37130031Y19907817D01*
X37131732Y19897317D01*
X37134416Y19895000D01*
X37986952Y19895000D01*
X37996948Y19898638D01*
X38000000Y19903925D01*
X38000000Y20456952D01*
X37996362Y20466948D01*
X37991075Y20470000D01*
X37736437Y20470000D01*
X37731789Y20469707D01*
X37616688Y20455167D01*
X37607736Y20452868D01*
X37463702Y20395841D01*
X37455603Y20391388D01*
X37330276Y20300332D01*
X37323540Y20294007D01*
X37224794Y20174644D01*
X37219842Y20166841D01*
X37153881Y20026667D01*
X37151028Y20017886D01*
X37130031Y19907817D01*
X35090760Y19907817D01*
X35088853Y19938120D01*
X35087122Y19947194D01*
X35039251Y20094526D01*
X35035316Y20102889D01*
X34952309Y20233688D01*
X34946420Y20240806D01*
X34833488Y20346856D01*
X34826022Y20352280D01*
X34690259Y20426917D01*
X34681676Y20430315D01*
X34531621Y20468843D01*
X34522462Y20470000D01*
X33983048Y20470000D01*
X33973052Y20466362D01*
X33970000Y20461075D01*
X33970000Y19908048D01*
X33820000Y19908048D01*
X33820000Y20456952D01*
X33816362Y20466948D01*
X33811075Y20470000D01*
X33306437Y20470000D01*
X33301789Y20469707D01*
X33186688Y20455167D01*
X33177739Y20452869D01*
X33101742Y20422779D01*
X33051142Y20421365D01*
X33011472Y20452807D01*
X33000500Y20491582D01*
X33000500Y24654713D01*
X33002158Y24670288D01*
X33003663Y24677278D01*
X33003663Y24677279D01*
X33004951Y24683261D01*
X33001013Y24716533D01*
X33000500Y24725231D01*
X33000500Y24729115D01*
X32997407Y24747701D01*
X32996916Y24751151D01*
X32991955Y24793065D01*
X32991955Y24793066D01*
X32991236Y24799138D01*
X32988589Y24804650D01*
X32988259Y24805787D01*
X32988075Y24806595D01*
X32987890Y24807180D01*
X32987582Y24807932D01*
X32987192Y24809071D01*
X32986188Y24815103D01*
X32968602Y24847696D01*
X32963234Y24857645D01*
X32961652Y24860751D01*
X32942745Y24900125D01*
X32942738Y24900135D01*
X32940726Y24904326D01*
X32937408Y24908274D01*
X32936455Y24909227D01*
X32933532Y24912690D01*
X32930778Y24917794D01*
X32893623Y24952140D01*
X32891528Y24954154D01*
X32429866Y25415816D01*
X32420025Y25428002D01*
X32416145Y25434011D01*
X32416143Y25434013D01*
X32412825Y25439152D01*
X32386514Y25459894D01*
X32380001Y25465681D01*
X32377254Y25468428D01*
X32374776Y25470199D01*
X32374771Y25470203D01*
X32361920Y25479386D01*
X32359157Y25481460D01*
X32321189Y25511392D01*
X32315420Y25513418D01*
X32314383Y25513988D01*
X32313680Y25514430D01*
X32313140Y25514711D01*
X32312383Y25515028D01*
X32311307Y25515555D01*
X32306331Y25519111D01*
X32260023Y25532960D01*
X32256707Y25534037D01*
X32249374Y25536612D01*
X32211094Y25550055D01*
X32205956Y25550500D01*
X32204619Y25550500D01*
X32200088Y25550884D01*
X32194536Y25552544D01*
X32188426Y25552304D01*
X32188425Y25552304D01*
X32143963Y25550557D01*
X32141058Y25550500D01*
X27911721Y25550500D01*
X27864155Y25567813D01*
X27852493Y25581029D01*
X27849776Y25584014D01*
X27846459Y25589152D01*
X27820148Y25609894D01*
X27813635Y25615681D01*
X27810888Y25618428D01*
X27808410Y25620199D01*
X27808405Y25620203D01*
X27795554Y25629386D01*
X27792791Y25631460D01*
X27754823Y25661392D01*
X27749054Y25663418D01*
X27748017Y25663988D01*
X27747314Y25664430D01*
X27746774Y25664711D01*
X27746017Y25665028D01*
X27744941Y25665555D01*
X27739965Y25669111D01*
X27693657Y25682960D01*
X27690341Y25684037D01*
X27683008Y25686612D01*
X27644728Y25700055D01*
X27639590Y25700500D01*
X27638253Y25700500D01*
X27633722Y25700884D01*
X27628170Y25702544D01*
X27622060Y25702304D01*
X27622059Y25702304D01*
X27577597Y25700557D01*
X27574692Y25700500D01*
X26915834Y25700500D01*
X26868268Y25717813D01*
X26863508Y25722174D01*
X26112289Y26473393D01*
X26090897Y26519269D01*
X26094398Y26549077D01*
X26144215Y26698832D01*
X26145358Y26702268D01*
X26145827Y26705976D01*
X26169691Y26894885D01*
X26169691Y26894889D01*
X26169949Y26896929D01*
X26170341Y26925000D01*
X26151194Y27120272D01*
X26094484Y27308106D01*
X26002370Y27481347D01*
X25878361Y27633398D01*
X25875570Y27635707D01*
X25866762Y27642994D01*
X25841148Y27686654D01*
X25849590Y27736564D01*
X25888139Y27769370D01*
X25913932Y27774011D01*
X26954262Y27774011D01*
X27001828Y27756698D01*
X27027138Y27712861D01*
X27018348Y27663011D01*
X27006039Y27647142D01*
X27004420Y27645557D01*
X27001600Y27643289D01*
X26875480Y27492984D01*
X26873738Y27489816D01*
X26873737Y27489814D01*
X26870624Y27484151D01*
X26780956Y27321046D01*
X26779864Y27317603D01*
X26779863Y27317601D01*
X26775753Y27304643D01*
X26721628Y27134022D01*
X26721225Y27130426D01*
X26721224Y27130423D01*
X26712311Y27050961D01*
X26699757Y26939037D01*
X26700060Y26935428D01*
X26700060Y26935426D01*
X26708329Y26836952D01*
X26716175Y26743517D01*
X26770258Y26554909D01*
X26790208Y26516091D01*
X26858288Y26383620D01*
X26858291Y26383615D01*
X26859944Y26380399D01*
X26981818Y26226631D01*
X27131238Y26099465D01*
X27134400Y26097698D01*
X27299354Y26005508D01*
X27299358Y26005506D01*
X27302513Y26003743D01*
X27305949Y26002626D01*
X27305955Y26002624D01*
X27417147Y25966496D01*
X27489118Y25943111D01*
X27549541Y25935906D01*
X27680346Y25920308D01*
X27680349Y25920308D01*
X27683946Y25919879D01*
X27794387Y25928377D01*
X27875965Y25934654D01*
X27875966Y25934654D01*
X27879576Y25934932D01*
X28068556Y25987697D01*
X28071789Y25989330D01*
X28240455Y26074529D01*
X28240458Y26074531D01*
X28243689Y26076163D01*
X28398303Y26196960D01*
X28526509Y26345489D01*
X28528292Y26348628D01*
X28528295Y26348632D01*
X28618413Y26507269D01*
X28623425Y26516091D01*
X28635269Y26551693D01*
X28684215Y26698832D01*
X28685358Y26702268D01*
X28685827Y26705976D01*
X28709691Y26894885D01*
X28709691Y26894889D01*
X28709949Y26896929D01*
X28710341Y26925000D01*
X28691194Y27120272D01*
X28634484Y27308106D01*
X28542370Y27481347D01*
X28418361Y27633398D01*
X28415570Y27635707D01*
X28406762Y27642994D01*
X28381148Y27686654D01*
X28389590Y27736564D01*
X28428139Y27769370D01*
X28453932Y27774011D01*
X29494262Y27774011D01*
X29541828Y27756698D01*
X29567138Y27712861D01*
X29558348Y27663011D01*
X29546039Y27647142D01*
X29544420Y27645557D01*
X29541600Y27643289D01*
X29415480Y27492984D01*
X29413738Y27489816D01*
X29413737Y27489814D01*
X29410624Y27484151D01*
X29320956Y27321046D01*
X29319864Y27317603D01*
X29319863Y27317601D01*
X29315753Y27304643D01*
X29261628Y27134022D01*
X29261225Y27130426D01*
X29261224Y27130423D01*
X29252311Y27050961D01*
X29239757Y26939037D01*
X29240060Y26935428D01*
X29240060Y26935426D01*
X29248329Y26836952D01*
X29256175Y26743517D01*
X29310258Y26554909D01*
X29330208Y26516091D01*
X29398288Y26383620D01*
X29398291Y26383615D01*
X29399944Y26380399D01*
X29521818Y26226631D01*
X29671238Y26099465D01*
X29674400Y26097698D01*
X29839354Y26005508D01*
X29839358Y26005506D01*
X29842513Y26003743D01*
X29845949Y26002626D01*
X29845955Y26002624D01*
X29957147Y25966496D01*
X30029118Y25943111D01*
X30089541Y25935906D01*
X30220346Y25920308D01*
X30220349Y25920308D01*
X30223946Y25919879D01*
X30334387Y25928377D01*
X30415965Y25934654D01*
X30415966Y25934654D01*
X30419576Y25934932D01*
X30608556Y25987697D01*
X30611789Y25989330D01*
X30780455Y26074529D01*
X30780458Y26074531D01*
X30783689Y26076163D01*
X30938303Y26196960D01*
X31066509Y26345489D01*
X31068292Y26348628D01*
X31068295Y26348632D01*
X31158413Y26507269D01*
X31163425Y26516091D01*
X31175269Y26551693D01*
X31224215Y26698832D01*
X31225358Y26702268D01*
X31225827Y26705976D01*
X31249691Y26894885D01*
X31249691Y26894889D01*
X31249949Y26896929D01*
X31250341Y26925000D01*
X31231194Y27120272D01*
X31174484Y27308106D01*
X31082370Y27481347D01*
X30958361Y27633398D01*
X30955570Y27635707D01*
X30946762Y27642994D01*
X30921148Y27686654D01*
X30929590Y27736564D01*
X30968139Y27769370D01*
X30993932Y27774011D01*
X32041077Y27774011D01*
X32088643Y27756698D01*
X32093403Y27752337D01*
X34255423Y25590317D01*
X34300268Y25545471D01*
X34309470Y25534258D01*
X34315348Y25525461D01*
X34319399Y25519399D01*
X34327497Y25513988D01*
X34340316Y25505423D01*
X34340317Y25505422D01*
X34379284Y25479386D01*
X34402260Y25464034D01*
X34409406Y25462613D01*
X34409407Y25462612D01*
X34492852Y25446013D01*
X34500000Y25444591D01*
X34517531Y25448078D01*
X34531966Y25449500D01*
X35395882Y25449500D01*
X35443448Y25432187D01*
X35448208Y25427826D01*
X35479511Y25396523D01*
X35529489Y25371058D01*
X35578892Y25345886D01*
X35578894Y25345885D01*
X35584082Y25343242D01*
X35700000Y25324882D01*
X35815918Y25343242D01*
X35821106Y25345885D01*
X35821108Y25345886D01*
X35870511Y25371058D01*
X35920489Y25396523D01*
X36003477Y25479511D01*
X36039647Y25550500D01*
X36054114Y25578892D01*
X36054115Y25578894D01*
X36056758Y25584082D01*
X36075118Y25700000D01*
X36056758Y25815918D01*
X36032591Y25863350D01*
X36013613Y25900595D01*
X36003477Y25920489D01*
X35920489Y26003477D01*
X35870511Y26028942D01*
X35821108Y26054114D01*
X35821106Y26054115D01*
X35815918Y26056758D01*
X35700000Y26075118D01*
X35584082Y26056758D01*
X35578894Y26054115D01*
X35578892Y26054114D01*
X35529489Y26028942D01*
X35479511Y26003477D01*
X35448208Y25972174D01*
X35402332Y25950782D01*
X35395882Y25950500D01*
X34634412Y25950500D01*
X34586846Y25967813D01*
X34582086Y25972174D01*
X32375222Y28179038D01*
X32366019Y28190252D01*
X32360140Y28199051D01*
X32360139Y28199052D01*
X32356090Y28205112D01*
X32303025Y28240568D01*
X32296392Y28245000D01*
X32279293Y28256426D01*
X32279292Y28256426D01*
X32273230Y28260477D01*
X32175489Y28279919D01*
X32168340Y28278497D01*
X32157964Y28276433D01*
X32143527Y28275011D01*
X2579607Y28275011D01*
X2532041Y28292324D01*
X2527281Y28296685D01*
X2495978Y28327988D01*
X2434049Y28359542D01*
X2396597Y28378625D01*
X2396595Y28378626D01*
X2391407Y28381269D01*
X2275489Y28399629D01*
X2159571Y28381269D01*
X2154383Y28378626D01*
X2154381Y28378625D01*
X2116929Y28359542D01*
X2055000Y28327988D01*
X1972012Y28245000D01*
X1918731Y28140429D01*
X1900371Y28024511D01*
X1918731Y27908593D01*
X1972012Y27804022D01*
X2055000Y27721034D01*
X2104978Y27695569D01*
X2154381Y27670397D01*
X2154383Y27670396D01*
X2159571Y27667753D01*
X2275489Y27649393D01*
X2391407Y27667753D01*
X2396595Y27670396D01*
X2396597Y27670397D01*
X2446000Y27695569D01*
X2495978Y27721034D01*
X2527281Y27752337D01*
X2573157Y27773729D01*
X2579607Y27774011D01*
X6310500Y27774011D01*
X6358066Y27756698D01*
X6383376Y27712861D01*
X6384500Y27700011D01*
X6384500Y26060180D01*
X6385210Y26056611D01*
X6385210Y26056610D01*
X6385707Y26054114D01*
X6393233Y26016278D01*
X6426496Y25966496D01*
X6476278Y25933233D01*
X6483424Y25931812D01*
X6483425Y25931811D01*
X6516610Y25925210D01*
X6516611Y25925210D01*
X6520180Y25924500D01*
X7060500Y25924500D01*
X7108066Y25907187D01*
X7133376Y25863350D01*
X7134500Y25850500D01*
X7134500Y14246962D01*
X7133078Y14232525D01*
X7129592Y14215000D01*
X7149034Y14117259D01*
X7168943Y14087464D01*
X7200348Y14040461D01*
X7200350Y14040459D01*
X7204399Y14034399D01*
X7210459Y14030350D01*
X7210460Y14030349D01*
X7219259Y14024470D01*
X7230473Y14015267D01*
X9818413Y11427326D01*
X9839805Y11381450D01*
X9826704Y11332555D01*
X9818413Y11322674D01*
X8191621Y9695881D01*
X8149800Y9676380D01*
X8150000Y9675118D01*
X8034082Y9656758D01*
X8028894Y9654115D01*
X8028892Y9654114D01*
X7979489Y9628942D01*
X7929511Y9603477D01*
X7846523Y9520489D01*
X7843881Y9515303D01*
X7812916Y9454530D01*
X7793242Y9415918D01*
X7774882Y9300000D01*
X7793242Y9184082D01*
X7795885Y9178894D01*
X7795886Y9178892D01*
X7831959Y9108095D01*
X7838127Y9057853D01*
X7810558Y9015401D01*
X7766024Y9000500D01*
X6954118Y9000500D01*
X6906552Y9017813D01*
X6901792Y9022174D01*
X6870489Y9053477D01*
X6796035Y9091413D01*
X6771108Y9104114D01*
X6771106Y9104115D01*
X6765918Y9106758D01*
X6650000Y9125118D01*
X6534082Y9106758D01*
X6528894Y9104115D01*
X6528892Y9104114D01*
X6503965Y9091413D01*
X6429511Y9053477D01*
X6346523Y8970489D01*
X6293242Y8865918D01*
X6274882Y8750000D01*
X6293242Y8634082D01*
X6295885Y8628894D01*
X6295886Y8628892D01*
X6300723Y8619399D01*
X6346523Y8529511D01*
X6350639Y8525395D01*
X6352382Y8522996D01*
X6366335Y8474338D01*
X6345746Y8428095D01*
X6300250Y8405905D01*
X6292515Y8405500D01*
X3570326Y8405500D01*
X3566759Y8404791D01*
X3566754Y8404790D01*
X3504662Y8392439D01*
X3454633Y8400139D01*
X3421257Y8438197D01*
X3420153Y8488804D01*
X3429907Y8507884D01*
X3444521Y8528447D01*
X3444523Y8528450D01*
X3447442Y8532558D01*
X3498533Y8674468D01*
X3499087Y8681999D01*
X3509210Y8819858D01*
X3509580Y8824891D01*
X3501308Y8865918D01*
X3480764Y8967800D01*
X3480763Y8967802D01*
X3479767Y8972743D01*
X3411293Y9107132D01*
X3347206Y9176826D01*
X3312618Y9214441D01*
X3312614Y9214444D01*
X3309201Y9218156D01*
X3304915Y9220813D01*
X3304912Y9220816D01*
X3223572Y9271248D01*
X3181014Y9297635D01*
X3086115Y9325206D01*
X3039897Y9338634D01*
X3039894Y9338635D01*
X3036175Y9339715D01*
X3031303Y9340073D01*
X3026840Y9340401D01*
X3026826Y9340401D01*
X3025485Y9340500D01*
X2917215Y9340500D01*
X2805568Y9325206D01*
X2667145Y9265305D01*
X2612206Y9220816D01*
X2553849Y9173560D01*
X2553847Y9173558D01*
X2549930Y9170386D01*
X2521015Y9129699D01*
X2465479Y9051553D01*
X2465477Y9051550D01*
X2462558Y9047442D01*
X2411467Y8905532D01*
X2411098Y8900503D01*
X2411097Y8900500D01*
X2405175Y8819858D01*
X2400420Y8755109D01*
X2399882Y8755149D01*
X2386593Y8710008D01*
X2344429Y8681999D01*
X2306390Y8682863D01*
X2268037Y8694005D01*
X2234897Y8703634D01*
X2234894Y8703635D01*
X2231175Y8704715D01*
X2226303Y8705073D01*
X2221840Y8705401D01*
X2221826Y8705401D01*
X2220485Y8705500D01*
X1412215Y8705500D01*
X1300568Y8690206D01*
X1162145Y8630305D01*
X1105283Y8584259D01*
X1048849Y8538560D01*
X1048847Y8538558D01*
X1044930Y8535386D01*
X1029756Y8514034D01*
X960479Y8416553D01*
X960477Y8416550D01*
X957558Y8412442D01*
X955850Y8407698D01*
X955160Y8405782D01*
X906467Y8270532D01*
X895420Y8120109D01*
X896417Y8115165D01*
X896417Y8115163D01*
X923579Y7980459D01*
X925233Y7972257D01*
X993707Y7837868D01*
X1018081Y7811362D01*
X1092382Y7730559D01*
X1092386Y7730556D01*
X1095799Y7726844D01*
X1100085Y7724187D01*
X1100088Y7724184D01*
X1142642Y7697800D01*
X1223986Y7647365D01*
X1291735Y7627682D01*
X1365103Y7606366D01*
X1365106Y7606365D01*
X1368825Y7605285D01*
X1373697Y7604927D01*
X1378160Y7604599D01*
X1378174Y7604599D01*
X1379515Y7604500D01*
X2187785Y7604500D01*
X2299432Y7619794D01*
X2304064Y7621799D01*
X2308923Y7623155D01*
X2309448Y7621274D01*
X2352328Y7623830D01*
X2392971Y7593657D01*
X2405001Y7547490D01*
X2400420Y7485109D01*
X2399882Y7485149D01*
X2386593Y7440008D01*
X2344429Y7411999D01*
X2306390Y7412863D01*
X2255634Y7427609D01*
X2234897Y7433634D01*
X2234894Y7433635D01*
X2231175Y7434715D01*
X2226303Y7435073D01*
X2221840Y7435401D01*
X2221826Y7435401D01*
X2220485Y7435500D01*
X1412215Y7435500D01*
X1300568Y7420206D01*
X1162145Y7360305D01*
X1119992Y7326170D01*
X1048849Y7268560D01*
X1048847Y7268558D01*
X1044930Y7265386D01*
X1020596Y7231145D01*
X960479Y7146553D01*
X960477Y7146550D01*
X957558Y7142442D01*
X955850Y7137698D01*
X949826Y7120966D01*
X906467Y7000532D01*
X906098Y6995503D01*
X906097Y6995500D01*
X903201Y6956058D01*
X895420Y6850109D01*
X896417Y6845165D01*
X896417Y6845163D01*
X923579Y6710459D01*
X925233Y6702257D01*
X993707Y6567868D01*
X1020116Y6539149D01*
X1092382Y6460559D01*
X1092386Y6460556D01*
X1095799Y6456844D01*
X1100085Y6454187D01*
X1100088Y6454184D01*
X1142642Y6427800D01*
X1223986Y6377365D01*
X1294352Y6356921D01*
X1365103Y6336366D01*
X1365106Y6336365D01*
X1368825Y6335285D01*
X1373697Y6334927D01*
X1378160Y6334599D01*
X1378174Y6334599D01*
X1379515Y6334500D01*
X2187785Y6334500D01*
X2299432Y6349794D01*
X2304064Y6351799D01*
X2308923Y6353155D01*
X2309448Y6351274D01*
X2352328Y6353830D01*
X2392971Y6323657D01*
X2405001Y6277490D01*
X2400420Y6215109D01*
X2399882Y6215149D01*
X2386593Y6170008D01*
X2344429Y6141999D01*
X2306390Y6142863D01*
X2268037Y6154005D01*
X2234897Y6163634D01*
X2234894Y6163635D01*
X2231175Y6164715D01*
X2226303Y6165073D01*
X2221840Y6165401D01*
X2221826Y6165401D01*
X2220485Y6165500D01*
X1412215Y6165500D01*
X1300568Y6150206D01*
X1162145Y6090305D01*
X1103537Y6042845D01*
X1048849Y5998560D01*
X1048847Y5998558D01*
X1044930Y5995386D01*
X1042008Y5991274D01*
X960479Y5876553D01*
X960477Y5876550D01*
X957558Y5872442D01*
X906467Y5730532D01*
X906098Y5725503D01*
X906097Y5725500D01*
X904225Y5700001D01*
X895420Y5580109D01*
X896417Y5575165D01*
X896417Y5575163D01*
X924236Y5437200D01*
X925233Y5432257D01*
X993707Y5297868D01*
X1032435Y5255752D01*
X1092382Y5190559D01*
X1092386Y5190556D01*
X1095799Y5186844D01*
X1100085Y5184187D01*
X1100088Y5184184D01*
X1142642Y5157800D01*
X1223986Y5107365D01*
X1294352Y5086921D01*
X1365103Y5066366D01*
X1365106Y5066365D01*
X1368825Y5065285D01*
X1373697Y5064927D01*
X1378160Y5064599D01*
X1378174Y5064599D01*
X1379515Y5064500D01*
X2187785Y5064500D01*
X2299432Y5079794D01*
X2304064Y5081799D01*
X2308923Y5083155D01*
X2309448Y5081274D01*
X2352328Y5083830D01*
X2392971Y5053657D01*
X2405001Y5007490D01*
X2401060Y4953819D01*
X2400420Y4945109D01*
X2399882Y4945149D01*
X2386593Y4900008D01*
X2344429Y4871999D01*
X2306390Y4872863D01*
X2268037Y4884005D01*
X2234897Y4893634D01*
X2234894Y4893635D01*
X2231175Y4894715D01*
X2226303Y4895073D01*
X2221840Y4895401D01*
X2221826Y4895401D01*
X2220485Y4895500D01*
X1412215Y4895500D01*
X1300568Y4880206D01*
X1162145Y4820305D01*
X1119234Y4785556D01*
X1048849Y4728560D01*
X1048847Y4728558D01*
X1044930Y4725386D01*
X1042008Y4721274D01*
X960479Y4606553D01*
X960477Y4606550D01*
X957558Y4602442D01*
X906467Y4460532D01*
X906098Y4455503D01*
X906097Y4455500D01*
X904225Y4430001D01*
X895420Y4310109D01*
X300000Y4310109D01*
X300000Y28307216D01*
X317313Y28354782D01*
X321674Y28359542D01*
X1344340Y29382208D01*
X6388389Y29382208D01*
X6396366Y29287215D01*
X6397667Y29280127D01*
X6449727Y29098573D01*
X6452377Y29091878D01*
X6538711Y28923890D01*
X6542616Y28917832D01*
X6659930Y28769818D01*
X6664935Y28764634D01*
X6808768Y28642224D01*
X6814687Y28638110D01*
X6979555Y28545968D01*
X6986156Y28543085D01*
X7165780Y28484722D01*
X7172825Y28483173D01*
X7297043Y28468360D01*
X7307400Y28470789D01*
X7310000Y28474264D01*
X7310000Y28480819D01*
X7460000Y28480819D01*
X7463638Y28470823D01*
X7467875Y28468377D01*
X7555877Y28475149D01*
X7562978Y28476401D01*
X7744891Y28527193D01*
X7751599Y28529794D01*
X7920195Y28614957D01*
X7926269Y28618812D01*
X8075104Y28735095D01*
X8080323Y28740065D01*
X8203736Y28883041D01*
X8207885Y28888921D01*
X8301180Y29053152D01*
X8304108Y29059727D01*
X8363725Y29238942D01*
X8365322Y29245976D01*
X8381882Y29377054D01*
X8379525Y29387427D01*
X8376135Y29390000D01*
X7473048Y29390000D01*
X7463052Y29386362D01*
X7460000Y29381075D01*
X7460000Y28480819D01*
X7310000Y28480819D01*
X7310000Y29376952D01*
X7306362Y29386948D01*
X7301075Y29390000D01*
X6400783Y29390000D01*
X6390787Y29386362D01*
X6388389Y29382208D01*
X1344340Y29382208D01*
X1441169Y29479037D01*
X8919757Y29479037D01*
X8920060Y29475428D01*
X8920060Y29475426D01*
X8928329Y29376952D01*
X8936175Y29283517D01*
X8990258Y29094909D01*
X8991911Y29091693D01*
X9078288Y28923620D01*
X9078291Y28923615D01*
X9079944Y28920399D01*
X9201818Y28766631D01*
X9351238Y28639465D01*
X9354400Y28637698D01*
X9519354Y28545508D01*
X9519358Y28545506D01*
X9522513Y28543743D01*
X9525949Y28542626D01*
X9525955Y28542624D01*
X9644467Y28504118D01*
X9709118Y28483111D01*
X9769541Y28475906D01*
X9900346Y28460308D01*
X9900349Y28460308D01*
X9903946Y28459879D01*
X10014387Y28468377D01*
X10095965Y28474654D01*
X10095966Y28474654D01*
X10099576Y28474932D01*
X10288556Y28527697D01*
X10291783Y28529327D01*
X10460455Y28614529D01*
X10460458Y28614531D01*
X10463689Y28616163D01*
X10618303Y28736960D01*
X10746509Y28885489D01*
X10748292Y28888628D01*
X10748295Y28888632D01*
X10794967Y28970790D01*
X10843425Y29056091D01*
X10855269Y29091693D01*
X10904215Y29238832D01*
X10905358Y29242268D01*
X10905827Y29245976D01*
X10929691Y29434885D01*
X10929691Y29434889D01*
X10929949Y29436929D01*
X10930341Y29465000D01*
X10928965Y29479037D01*
X11459757Y29479037D01*
X11460060Y29475428D01*
X11460060Y29475426D01*
X11468329Y29376952D01*
X11476175Y29283517D01*
X11530258Y29094909D01*
X11531911Y29091693D01*
X11618288Y28923620D01*
X11618291Y28923615D01*
X11619944Y28920399D01*
X11741818Y28766631D01*
X11891238Y28639465D01*
X11894400Y28637698D01*
X12059354Y28545508D01*
X12059358Y28545506D01*
X12062513Y28543743D01*
X12065949Y28542626D01*
X12065955Y28542624D01*
X12184467Y28504118D01*
X12249118Y28483111D01*
X12309541Y28475906D01*
X12440346Y28460308D01*
X12440349Y28460308D01*
X12443946Y28459879D01*
X12554387Y28468377D01*
X12635965Y28474654D01*
X12635966Y28474654D01*
X12639576Y28474932D01*
X12828556Y28527697D01*
X12831783Y28529327D01*
X13000455Y28614529D01*
X13000458Y28614531D01*
X13003689Y28616163D01*
X13158303Y28736960D01*
X13286509Y28885489D01*
X13288292Y28888628D01*
X13288295Y28888632D01*
X13334967Y28970790D01*
X13383425Y29056091D01*
X13395269Y29091693D01*
X13444215Y29238832D01*
X13445358Y29242268D01*
X13445827Y29245976D01*
X13469691Y29434885D01*
X13469691Y29434889D01*
X13469949Y29436929D01*
X13470341Y29465000D01*
X13468965Y29479037D01*
X13999757Y29479037D01*
X14000060Y29475428D01*
X14000060Y29475426D01*
X14008329Y29376952D01*
X14016175Y29283517D01*
X14070258Y29094909D01*
X14071911Y29091693D01*
X14158288Y28923620D01*
X14158291Y28923615D01*
X14159944Y28920399D01*
X14281818Y28766631D01*
X14431238Y28639465D01*
X14434400Y28637698D01*
X14599354Y28545508D01*
X14599358Y28545506D01*
X14602513Y28543743D01*
X14605949Y28542626D01*
X14605955Y28542624D01*
X14724467Y28504118D01*
X14789118Y28483111D01*
X14849541Y28475906D01*
X14980346Y28460308D01*
X14980349Y28460308D01*
X14983946Y28459879D01*
X15094387Y28468377D01*
X15175965Y28474654D01*
X15175966Y28474654D01*
X15179576Y28474932D01*
X15368556Y28527697D01*
X15371783Y28529327D01*
X15540455Y28614529D01*
X15540458Y28614531D01*
X15543689Y28616163D01*
X15698303Y28736960D01*
X15826509Y28885489D01*
X15828292Y28888628D01*
X15828295Y28888632D01*
X15874967Y28970790D01*
X15923425Y29056091D01*
X15935269Y29091693D01*
X15984215Y29238832D01*
X15985358Y29242268D01*
X15985827Y29245976D01*
X16009691Y29434885D01*
X16009691Y29434889D01*
X16009949Y29436929D01*
X16010341Y29465000D01*
X16008965Y29479037D01*
X16539757Y29479037D01*
X16540060Y29475428D01*
X16540060Y29475426D01*
X16548329Y29376952D01*
X16556175Y29283517D01*
X16610258Y29094909D01*
X16611911Y29091693D01*
X16698288Y28923620D01*
X16698291Y28923615D01*
X16699944Y28920399D01*
X16821818Y28766631D01*
X16971238Y28639465D01*
X16974400Y28637698D01*
X17139354Y28545508D01*
X17139358Y28545506D01*
X17142513Y28543743D01*
X17145949Y28542626D01*
X17145955Y28542624D01*
X17264467Y28504118D01*
X17329118Y28483111D01*
X17389541Y28475906D01*
X17520346Y28460308D01*
X17520349Y28460308D01*
X17523946Y28459879D01*
X17634387Y28468377D01*
X17715965Y28474654D01*
X17715966Y28474654D01*
X17719576Y28474932D01*
X17908556Y28527697D01*
X17911783Y28529327D01*
X18080455Y28614529D01*
X18080458Y28614531D01*
X18083689Y28616163D01*
X18238303Y28736960D01*
X18366509Y28885489D01*
X18368292Y28888628D01*
X18368295Y28888632D01*
X18414967Y28970790D01*
X18463425Y29056091D01*
X18475269Y29091693D01*
X18524215Y29238832D01*
X18525358Y29242268D01*
X18525827Y29245976D01*
X18549691Y29434885D01*
X18549691Y29434889D01*
X18549949Y29436929D01*
X18550341Y29465000D01*
X18548965Y29479037D01*
X19079757Y29479037D01*
X19080060Y29475428D01*
X19080060Y29475426D01*
X19088329Y29376952D01*
X19096175Y29283517D01*
X19150258Y29094909D01*
X19151911Y29091693D01*
X19238288Y28923620D01*
X19238291Y28923615D01*
X19239944Y28920399D01*
X19361818Y28766631D01*
X19511238Y28639465D01*
X19514400Y28637698D01*
X19679354Y28545508D01*
X19679358Y28545506D01*
X19682513Y28543743D01*
X19685949Y28542626D01*
X19685955Y28542624D01*
X19804467Y28504118D01*
X19869118Y28483111D01*
X19929541Y28475906D01*
X20060346Y28460308D01*
X20060349Y28460308D01*
X20063946Y28459879D01*
X20174387Y28468377D01*
X20255965Y28474654D01*
X20255966Y28474654D01*
X20259576Y28474932D01*
X20448556Y28527697D01*
X20451783Y28529327D01*
X20620455Y28614529D01*
X20620458Y28614531D01*
X20623689Y28616163D01*
X20778303Y28736960D01*
X20906509Y28885489D01*
X20908292Y28888628D01*
X20908295Y28888632D01*
X20954967Y28970790D01*
X21003425Y29056091D01*
X21015269Y29091693D01*
X21064215Y29238832D01*
X21065358Y29242268D01*
X21065827Y29245976D01*
X21089691Y29434885D01*
X21089691Y29434889D01*
X21089949Y29436929D01*
X21090341Y29465000D01*
X21088965Y29479037D01*
X21619757Y29479037D01*
X21620060Y29475428D01*
X21620060Y29475426D01*
X21628329Y29376952D01*
X21636175Y29283517D01*
X21690258Y29094909D01*
X21691911Y29091693D01*
X21778288Y28923620D01*
X21778291Y28923615D01*
X21779944Y28920399D01*
X21901818Y28766631D01*
X22051238Y28639465D01*
X22054400Y28637698D01*
X22219354Y28545508D01*
X22219358Y28545506D01*
X22222513Y28543743D01*
X22225949Y28542626D01*
X22225955Y28542624D01*
X22344467Y28504118D01*
X22409118Y28483111D01*
X22469541Y28475906D01*
X22600346Y28460308D01*
X22600349Y28460308D01*
X22603946Y28459879D01*
X22714387Y28468377D01*
X22795965Y28474654D01*
X22795966Y28474654D01*
X22799576Y28474932D01*
X22988556Y28527697D01*
X22991783Y28529327D01*
X23160455Y28614529D01*
X23160458Y28614531D01*
X23163689Y28616163D01*
X23318303Y28736960D01*
X23446509Y28885489D01*
X23448292Y28888628D01*
X23448295Y28888632D01*
X23494967Y28970790D01*
X23543425Y29056091D01*
X23555269Y29091693D01*
X23604215Y29238832D01*
X23605358Y29242268D01*
X23605827Y29245976D01*
X23629691Y29434885D01*
X23629691Y29434889D01*
X23629949Y29436929D01*
X23630341Y29465000D01*
X23628965Y29479037D01*
X24159757Y29479037D01*
X24160060Y29475428D01*
X24160060Y29475426D01*
X24168329Y29376952D01*
X24176175Y29283517D01*
X24230258Y29094909D01*
X24231911Y29091693D01*
X24318288Y28923620D01*
X24318291Y28923615D01*
X24319944Y28920399D01*
X24441818Y28766631D01*
X24591238Y28639465D01*
X24594400Y28637698D01*
X24759354Y28545508D01*
X24759358Y28545506D01*
X24762513Y28543743D01*
X24765949Y28542626D01*
X24765955Y28542624D01*
X24884467Y28504118D01*
X24949118Y28483111D01*
X25009541Y28475906D01*
X25140346Y28460308D01*
X25140349Y28460308D01*
X25143946Y28459879D01*
X25254387Y28468377D01*
X25335965Y28474654D01*
X25335966Y28474654D01*
X25339576Y28474932D01*
X25528556Y28527697D01*
X25531783Y28529327D01*
X25700455Y28614529D01*
X25700458Y28614531D01*
X25703689Y28616163D01*
X25858303Y28736960D01*
X25986509Y28885489D01*
X25988292Y28888628D01*
X25988295Y28888632D01*
X26034967Y28970790D01*
X26083425Y29056091D01*
X26095269Y29091693D01*
X26144215Y29238832D01*
X26145358Y29242268D01*
X26145827Y29245976D01*
X26169691Y29434885D01*
X26169691Y29434889D01*
X26169949Y29436929D01*
X26170341Y29465000D01*
X26168965Y29479037D01*
X26699757Y29479037D01*
X26700060Y29475428D01*
X26700060Y29475426D01*
X26708329Y29376952D01*
X26716175Y29283517D01*
X26770258Y29094909D01*
X26771911Y29091693D01*
X26858288Y28923620D01*
X26858291Y28923615D01*
X26859944Y28920399D01*
X26981818Y28766631D01*
X27131238Y28639465D01*
X27134400Y28637698D01*
X27299354Y28545508D01*
X27299358Y28545506D01*
X27302513Y28543743D01*
X27305949Y28542626D01*
X27305955Y28542624D01*
X27424467Y28504118D01*
X27489118Y28483111D01*
X27549541Y28475906D01*
X27680346Y28460308D01*
X27680349Y28460308D01*
X27683946Y28459879D01*
X27794387Y28468377D01*
X27875965Y28474654D01*
X27875966Y28474654D01*
X27879576Y28474932D01*
X28068556Y28527697D01*
X28071783Y28529327D01*
X28240455Y28614529D01*
X28240458Y28614531D01*
X28243689Y28616163D01*
X28398303Y28736960D01*
X28526509Y28885489D01*
X28528292Y28888628D01*
X28528295Y28888632D01*
X28574967Y28970790D01*
X28623425Y29056091D01*
X28635269Y29091693D01*
X28684215Y29238832D01*
X28685358Y29242268D01*
X28685827Y29245976D01*
X28709691Y29434885D01*
X28709691Y29434889D01*
X28709949Y29436929D01*
X28710341Y29465000D01*
X28708965Y29479037D01*
X29239757Y29479037D01*
X29240060Y29475428D01*
X29240060Y29475426D01*
X29248329Y29376952D01*
X29256175Y29283517D01*
X29310258Y29094909D01*
X29311911Y29091693D01*
X29398288Y28923620D01*
X29398291Y28923615D01*
X29399944Y28920399D01*
X29521818Y28766631D01*
X29671238Y28639465D01*
X29674400Y28637698D01*
X29839354Y28545508D01*
X29839358Y28545506D01*
X29842513Y28543743D01*
X29845949Y28542626D01*
X29845955Y28542624D01*
X29964467Y28504118D01*
X30029118Y28483111D01*
X30089541Y28475906D01*
X30220346Y28460308D01*
X30220349Y28460308D01*
X30223946Y28459879D01*
X30334387Y28468377D01*
X30415965Y28474654D01*
X30415966Y28474654D01*
X30419576Y28474932D01*
X30608556Y28527697D01*
X30611783Y28529327D01*
X30780455Y28614529D01*
X30780458Y28614531D01*
X30783689Y28616163D01*
X30938303Y28736960D01*
X31066509Y28885489D01*
X31068292Y28888628D01*
X31068295Y28888632D01*
X31114967Y28970790D01*
X31163425Y29056091D01*
X31175269Y29091693D01*
X31224215Y29238832D01*
X31225358Y29242268D01*
X31225827Y29245976D01*
X31249691Y29434885D01*
X31249691Y29434889D01*
X31249949Y29436929D01*
X31250341Y29465000D01*
X31231194Y29660272D01*
X31174484Y29848106D01*
X31082370Y30021347D01*
X30958361Y30173398D01*
X30807180Y30298465D01*
X30792814Y30306233D01*
X30637768Y30390066D01*
X30634585Y30391787D01*
X30631135Y30392855D01*
X30631130Y30392857D01*
X30512841Y30429473D01*
X30447152Y30449807D01*
X30252019Y30470317D01*
X30056618Y30452534D01*
X30045640Y30449303D01*
X29871864Y30398158D01*
X29871860Y30398156D01*
X29868393Y30397136D01*
X29777115Y30349417D01*
X29697719Y30307910D01*
X29697716Y30307908D01*
X29694512Y30306233D01*
X29691694Y30303967D01*
X29691692Y30303966D01*
X29544419Y30185556D01*
X29544416Y30185553D01*
X29541600Y30183289D01*
X29415480Y30032984D01*
X29413738Y30029816D01*
X29413737Y30029814D01*
X29410624Y30024151D01*
X29320956Y29861046D01*
X29319864Y29857603D01*
X29319863Y29857601D01*
X29315753Y29844643D01*
X29261628Y29674022D01*
X29261225Y29670426D01*
X29261224Y29670423D01*
X29252311Y29590961D01*
X29239757Y29479037D01*
X28708965Y29479037D01*
X28691194Y29660272D01*
X28634484Y29848106D01*
X28542370Y30021347D01*
X28418361Y30173398D01*
X28267180Y30298465D01*
X28252814Y30306233D01*
X28097768Y30390066D01*
X28094585Y30391787D01*
X28091135Y30392855D01*
X28091130Y30392857D01*
X27972841Y30429473D01*
X27907152Y30449807D01*
X27712019Y30470317D01*
X27516618Y30452534D01*
X27505640Y30449303D01*
X27331864Y30398158D01*
X27331860Y30398156D01*
X27328393Y30397136D01*
X27237115Y30349417D01*
X27157719Y30307910D01*
X27157716Y30307908D01*
X27154512Y30306233D01*
X27151694Y30303967D01*
X27151692Y30303966D01*
X27004419Y30185556D01*
X27004416Y30185553D01*
X27001600Y30183289D01*
X26875480Y30032984D01*
X26873738Y30029816D01*
X26873737Y30029814D01*
X26870624Y30024151D01*
X26780956Y29861046D01*
X26779864Y29857603D01*
X26779863Y29857601D01*
X26775753Y29844643D01*
X26721628Y29674022D01*
X26721225Y29670426D01*
X26721224Y29670423D01*
X26712311Y29590961D01*
X26699757Y29479037D01*
X26168965Y29479037D01*
X26151194Y29660272D01*
X26094484Y29848106D01*
X26002370Y30021347D01*
X25878361Y30173398D01*
X25727180Y30298465D01*
X25712814Y30306233D01*
X25557768Y30390066D01*
X25554585Y30391787D01*
X25551135Y30392855D01*
X25551130Y30392857D01*
X25432841Y30429473D01*
X25367152Y30449807D01*
X25172019Y30470317D01*
X24976618Y30452534D01*
X24965640Y30449303D01*
X24791864Y30398158D01*
X24791860Y30398156D01*
X24788393Y30397136D01*
X24697115Y30349417D01*
X24617719Y30307910D01*
X24617716Y30307908D01*
X24614512Y30306233D01*
X24611694Y30303967D01*
X24611692Y30303966D01*
X24464419Y30185556D01*
X24464416Y30185553D01*
X24461600Y30183289D01*
X24335480Y30032984D01*
X24333738Y30029816D01*
X24333737Y30029814D01*
X24330624Y30024151D01*
X24240956Y29861046D01*
X24239864Y29857603D01*
X24239863Y29857601D01*
X24235753Y29844643D01*
X24181628Y29674022D01*
X24181225Y29670426D01*
X24181224Y29670423D01*
X24172311Y29590961D01*
X24159757Y29479037D01*
X23628965Y29479037D01*
X23611194Y29660272D01*
X23554484Y29848106D01*
X23462370Y30021347D01*
X23338361Y30173398D01*
X23187180Y30298465D01*
X23172814Y30306233D01*
X23017768Y30390066D01*
X23014585Y30391787D01*
X23011135Y30392855D01*
X23011130Y30392857D01*
X22892841Y30429473D01*
X22827152Y30449807D01*
X22632019Y30470317D01*
X22436618Y30452534D01*
X22425640Y30449303D01*
X22251864Y30398158D01*
X22251860Y30398156D01*
X22248393Y30397136D01*
X22157115Y30349417D01*
X22077719Y30307910D01*
X22077716Y30307908D01*
X22074512Y30306233D01*
X22071694Y30303967D01*
X22071692Y30303966D01*
X21924419Y30185556D01*
X21924416Y30185553D01*
X21921600Y30183289D01*
X21795480Y30032984D01*
X21793738Y30029816D01*
X21793737Y30029814D01*
X21790624Y30024151D01*
X21700956Y29861046D01*
X21699864Y29857603D01*
X21699863Y29857601D01*
X21695753Y29844643D01*
X21641628Y29674022D01*
X21641225Y29670426D01*
X21641224Y29670423D01*
X21632311Y29590961D01*
X21619757Y29479037D01*
X21088965Y29479037D01*
X21071194Y29660272D01*
X21014484Y29848106D01*
X20922370Y30021347D01*
X20798361Y30173398D01*
X20647180Y30298465D01*
X20632814Y30306233D01*
X20477768Y30390066D01*
X20474585Y30391787D01*
X20471135Y30392855D01*
X20471130Y30392857D01*
X20352841Y30429473D01*
X20287152Y30449807D01*
X20092019Y30470317D01*
X19896618Y30452534D01*
X19885640Y30449303D01*
X19711864Y30398158D01*
X19711860Y30398156D01*
X19708393Y30397136D01*
X19617115Y30349417D01*
X19537719Y30307910D01*
X19537716Y30307908D01*
X19534512Y30306233D01*
X19531694Y30303967D01*
X19531692Y30303966D01*
X19384419Y30185556D01*
X19384416Y30185553D01*
X19381600Y30183289D01*
X19255480Y30032984D01*
X19253738Y30029816D01*
X19253737Y30029814D01*
X19250624Y30024151D01*
X19160956Y29861046D01*
X19159864Y29857603D01*
X19159863Y29857601D01*
X19155753Y29844643D01*
X19101628Y29674022D01*
X19101225Y29670426D01*
X19101224Y29670423D01*
X19092311Y29590961D01*
X19079757Y29479037D01*
X18548965Y29479037D01*
X18531194Y29660272D01*
X18474484Y29848106D01*
X18382370Y30021347D01*
X18258361Y30173398D01*
X18107180Y30298465D01*
X18092814Y30306233D01*
X17937768Y30390066D01*
X17934585Y30391787D01*
X17931135Y30392855D01*
X17931130Y30392857D01*
X17812841Y30429473D01*
X17747152Y30449807D01*
X17552019Y30470317D01*
X17356618Y30452534D01*
X17345640Y30449303D01*
X17171864Y30398158D01*
X17171860Y30398156D01*
X17168393Y30397136D01*
X17077115Y30349417D01*
X16997719Y30307910D01*
X16997716Y30307908D01*
X16994512Y30306233D01*
X16991694Y30303967D01*
X16991692Y30303966D01*
X16844419Y30185556D01*
X16844416Y30185553D01*
X16841600Y30183289D01*
X16715480Y30032984D01*
X16713738Y30029816D01*
X16713737Y30029814D01*
X16710624Y30024151D01*
X16620956Y29861046D01*
X16619864Y29857603D01*
X16619863Y29857601D01*
X16615753Y29844643D01*
X16561628Y29674022D01*
X16561225Y29670426D01*
X16561224Y29670423D01*
X16552311Y29590961D01*
X16539757Y29479037D01*
X16008965Y29479037D01*
X15991194Y29660272D01*
X15934484Y29848106D01*
X15842370Y30021347D01*
X15718361Y30173398D01*
X15567180Y30298465D01*
X15552814Y30306233D01*
X15397768Y30390066D01*
X15394585Y30391787D01*
X15391135Y30392855D01*
X15391130Y30392857D01*
X15272841Y30429473D01*
X15207152Y30449807D01*
X15012019Y30470317D01*
X14816618Y30452534D01*
X14805640Y30449303D01*
X14631864Y30398158D01*
X14631860Y30398156D01*
X14628393Y30397136D01*
X14537115Y30349417D01*
X14457719Y30307910D01*
X14457716Y30307908D01*
X14454512Y30306233D01*
X14451694Y30303967D01*
X14451692Y30303966D01*
X14304419Y30185556D01*
X14304416Y30185553D01*
X14301600Y30183289D01*
X14175480Y30032984D01*
X14173738Y30029816D01*
X14173737Y30029814D01*
X14170624Y30024151D01*
X14080956Y29861046D01*
X14079864Y29857603D01*
X14079863Y29857601D01*
X14075753Y29844643D01*
X14021628Y29674022D01*
X14021225Y29670426D01*
X14021224Y29670423D01*
X14012311Y29590961D01*
X13999757Y29479037D01*
X13468965Y29479037D01*
X13451194Y29660272D01*
X13394484Y29848106D01*
X13302370Y30021347D01*
X13178361Y30173398D01*
X13027180Y30298465D01*
X13012814Y30306233D01*
X12857768Y30390066D01*
X12854585Y30391787D01*
X12851135Y30392855D01*
X12851130Y30392857D01*
X12732841Y30429473D01*
X12667152Y30449807D01*
X12472019Y30470317D01*
X12276618Y30452534D01*
X12265640Y30449303D01*
X12091864Y30398158D01*
X12091860Y30398156D01*
X12088393Y30397136D01*
X11997115Y30349417D01*
X11917719Y30307910D01*
X11917716Y30307908D01*
X11914512Y30306233D01*
X11911694Y30303967D01*
X11911692Y30303966D01*
X11764419Y30185556D01*
X11764416Y30185553D01*
X11761600Y30183289D01*
X11635480Y30032984D01*
X11633738Y30029816D01*
X11633737Y30029814D01*
X11630624Y30024151D01*
X11540956Y29861046D01*
X11539864Y29857603D01*
X11539863Y29857601D01*
X11535753Y29844643D01*
X11481628Y29674022D01*
X11481225Y29670426D01*
X11481224Y29670423D01*
X11472311Y29590961D01*
X11459757Y29479037D01*
X10928965Y29479037D01*
X10911194Y29660272D01*
X10854484Y29848106D01*
X10762370Y30021347D01*
X10638361Y30173398D01*
X10487180Y30298465D01*
X10472814Y30306233D01*
X10317768Y30390066D01*
X10314585Y30391787D01*
X10311135Y30392855D01*
X10311130Y30392857D01*
X10192841Y30429473D01*
X10127152Y30449807D01*
X9932019Y30470317D01*
X9736618Y30452534D01*
X9725640Y30449303D01*
X9551864Y30398158D01*
X9551860Y30398156D01*
X9548393Y30397136D01*
X9457115Y30349417D01*
X9377719Y30307910D01*
X9377716Y30307908D01*
X9374512Y30306233D01*
X9371694Y30303967D01*
X9371692Y30303966D01*
X9224419Y30185556D01*
X9224416Y30185553D01*
X9221600Y30183289D01*
X9095480Y30032984D01*
X9093738Y30029816D01*
X9093737Y30029814D01*
X9090624Y30024151D01*
X9000956Y29861046D01*
X8999864Y29857603D01*
X8999863Y29857601D01*
X8995753Y29844643D01*
X8941628Y29674022D01*
X8941225Y29670426D01*
X8941224Y29670423D01*
X8932311Y29590961D01*
X8919757Y29479037D01*
X1441169Y29479037D01*
X1515099Y29552967D01*
X6388552Y29552967D01*
X6391054Y29542628D01*
X6394619Y29540000D01*
X7296952Y29540000D01*
X7306948Y29543638D01*
X7310000Y29548925D01*
X7310000Y29553048D01*
X7460000Y29553048D01*
X7463638Y29543052D01*
X7468925Y29540000D01*
X8369437Y29540000D01*
X8379433Y29543638D01*
X8381737Y29547629D01*
X8371055Y29656571D01*
X8369656Y29663639D01*
X8315065Y29844451D01*
X8312321Y29851109D01*
X8223651Y30017874D01*
X8219665Y30023873D01*
X8100291Y30170240D01*
X8095215Y30175351D01*
X7949694Y30295737D01*
X7943709Y30299774D01*
X7777574Y30389603D01*
X7770936Y30392393D01*
X7590510Y30448244D01*
X7583450Y30449693D01*
X7472977Y30461305D01*
X7462657Y30458732D01*
X7460000Y30455075D01*
X7460000Y29553048D01*
X7310000Y29553048D01*
X7310000Y30449303D01*
X7306362Y30459299D01*
X7302290Y30461649D01*
X7200325Y30452370D01*
X7193234Y30451017D01*
X7012048Y30397690D01*
X7005378Y30394996D01*
X6837994Y30307490D01*
X6831967Y30303546D01*
X6684770Y30185197D01*
X6679623Y30180156D01*
X6558221Y30035475D01*
X6554152Y30029531D01*
X6463159Y29864016D01*
X6460323Y29857399D01*
X6403212Y29677365D01*
X6401716Y29670327D01*
X6388552Y29552967D01*
X1515099Y29552967D01*
X2790458Y30828326D01*
X2836334Y30849718D01*
X2842784Y30850000D01*
X38926000Y30850000D01*
X38973566Y30832687D01*
G37*
%TD.AperFunction*%
%TA.AperFunction,Conductor*%
G36*
X11384154Y8532187D02*
G01*
X11409464Y8488350D01*
X11400674Y8438500D01*
X11388914Y8423174D01*
X7932327Y4966587D01*
X7886451Y4945195D01*
X7844806Y4953819D01*
X7774585Y4991787D01*
X7771135Y4992855D01*
X7771130Y4992857D01*
X7652718Y5029511D01*
X7587152Y5049807D01*
X7392019Y5070317D01*
X7196618Y5052534D01*
X7193145Y5051512D01*
X7193146Y5051512D01*
X7011864Y4998158D01*
X7011860Y4998156D01*
X7008393Y4997136D01*
X6941282Y4962051D01*
X6837719Y4907910D01*
X6837716Y4907908D01*
X6834512Y4906233D01*
X6831694Y4903967D01*
X6831692Y4903966D01*
X6684419Y4785556D01*
X6684416Y4785553D01*
X6681600Y4783289D01*
X6555480Y4632984D01*
X6553738Y4629816D01*
X6553737Y4629814D01*
X6536081Y4597698D01*
X6460956Y4461046D01*
X6459864Y4457603D01*
X6459863Y4457601D01*
X6411507Y4305163D01*
X6401628Y4274022D01*
X6401225Y4270426D01*
X6401224Y4270423D01*
X6398396Y4245206D01*
X6379757Y4079037D01*
X6380060Y4075428D01*
X6380060Y4075426D01*
X6393600Y3914184D01*
X6396175Y3883517D01*
X6450258Y3694909D01*
X6451910Y3691695D01*
X6451911Y3691692D01*
X6497013Y3603933D01*
X6503357Y3553713D01*
X6483522Y3517782D01*
X6237914Y3272174D01*
X6192038Y3250782D01*
X6185588Y3250500D01*
X3447219Y3250500D01*
X3399653Y3267813D01*
X3374343Y3311650D01*
X3383133Y3361500D01*
X3386900Y3367367D01*
X3444521Y3448447D01*
X3444523Y3448450D01*
X3447442Y3452558D01*
X3452831Y3467525D01*
X3496824Y3589721D01*
X3498533Y3594468D01*
X3499229Y3603933D01*
X3506165Y3698388D01*
X3509580Y3744891D01*
X3501764Y3783657D01*
X3480764Y3887800D01*
X3480763Y3887802D01*
X3479767Y3892743D01*
X3411293Y4027132D01*
X3360255Y4082635D01*
X3312618Y4134441D01*
X3312614Y4134444D01*
X3309201Y4138156D01*
X3304915Y4140813D01*
X3304912Y4140816D01*
X3223572Y4191248D01*
X3181014Y4217635D01*
X3100007Y4241170D01*
X3039897Y4258634D01*
X3039894Y4258635D01*
X3036175Y4259715D01*
X3031303Y4260073D01*
X3026840Y4260401D01*
X3026826Y4260401D01*
X3025485Y4260500D01*
X2917215Y4260500D01*
X2805568Y4245206D01*
X2800936Y4243201D01*
X2796077Y4241845D01*
X2795552Y4243726D01*
X2752672Y4241170D01*
X2712029Y4271343D01*
X2699999Y4317510D01*
X2704211Y4374863D01*
X2704211Y4374865D01*
X2704580Y4379891D01*
X2705118Y4379851D01*
X2718407Y4424992D01*
X2760571Y4453001D01*
X2798610Y4452137D01*
X2824405Y4444643D01*
X2870103Y4431366D01*
X2870106Y4431365D01*
X2873825Y4430285D01*
X2878697Y4429927D01*
X2883160Y4429599D01*
X2883174Y4429599D01*
X2884515Y4429500D01*
X2992785Y4429500D01*
X3104432Y4444794D01*
X3242855Y4504695D01*
X3327863Y4573533D01*
X3356151Y4596440D01*
X3356153Y4596442D01*
X3360070Y4599614D01*
X3388985Y4640301D01*
X3444521Y4718447D01*
X3444523Y4718450D01*
X3447442Y4722558D01*
X3498533Y4864468D01*
X3499087Y4871999D01*
X3505699Y4962051D01*
X3509580Y5014891D01*
X3505587Y5034697D01*
X3480764Y5157800D01*
X3480763Y5157802D01*
X3479767Y5162743D01*
X3411293Y5297132D01*
X3348041Y5365918D01*
X3312618Y5404441D01*
X3312614Y5404444D01*
X3309201Y5408156D01*
X3304915Y5410813D01*
X3304912Y5410816D01*
X3190239Y5481915D01*
X3181014Y5487635D01*
X3100007Y5511170D01*
X3039897Y5528634D01*
X3039894Y5528635D01*
X3036175Y5529715D01*
X3031303Y5530073D01*
X3026840Y5530401D01*
X3026826Y5530401D01*
X3025485Y5530500D01*
X2917215Y5530500D01*
X2805568Y5515206D01*
X2800936Y5513201D01*
X2796077Y5511845D01*
X2795552Y5513726D01*
X2752672Y5511170D01*
X2712029Y5541343D01*
X2699999Y5587510D01*
X2704211Y5644863D01*
X2704211Y5644865D01*
X2704580Y5649891D01*
X2705118Y5649851D01*
X2718407Y5694992D01*
X2760571Y5723001D01*
X2798610Y5722137D01*
X2826243Y5714109D01*
X2870103Y5701366D01*
X2870106Y5701365D01*
X2873825Y5700285D01*
X2878697Y5699927D01*
X2883160Y5699599D01*
X2883174Y5699599D01*
X2884515Y5699500D01*
X2992785Y5699500D01*
X3104432Y5714794D01*
X3242855Y5774695D01*
X3301462Y5822154D01*
X3356151Y5866440D01*
X3356153Y5866442D01*
X3360070Y5869614D01*
X3388985Y5910301D01*
X3444521Y5988447D01*
X3444523Y5988450D01*
X3447442Y5992558D01*
X3498533Y6134468D01*
X3499087Y6141999D01*
X3509210Y6279858D01*
X3509580Y6284891D01*
X3501764Y6323657D01*
X3480764Y6427800D01*
X3480763Y6427802D01*
X3479767Y6432743D01*
X3425551Y6539149D01*
X3419383Y6589391D01*
X3446952Y6631843D01*
X3495359Y6646643D01*
X3505918Y6645323D01*
X3543523Y6637842D01*
X3556756Y6635210D01*
X3556757Y6635210D01*
X3560326Y6634500D01*
X8803038Y6634500D01*
X8817475Y6633078D01*
X8835000Y6629592D01*
X8846317Y6631843D01*
X8925592Y6647612D01*
X8932741Y6649034D01*
X8973074Y6675984D01*
X9015601Y6704399D01*
X9025530Y6719259D01*
X9034733Y6730473D01*
X10832086Y8527826D01*
X10877962Y8549218D01*
X10884412Y8549500D01*
X11336588Y8549500D01*
X11384154Y8532187D01*
G37*
%TD.AperFunction*%
%TA.AperFunction,Conductor*%
G36*
X9221828Y27756698D02*
G01*
X9247138Y27712861D01*
X9238348Y27663011D01*
X9226039Y27647142D01*
X9224420Y27645557D01*
X9221600Y27643289D01*
X9095480Y27492984D01*
X9093738Y27489816D01*
X9093737Y27489814D01*
X9090624Y27484151D01*
X9000956Y27321046D01*
X8999864Y27317603D01*
X8999863Y27317601D01*
X8995753Y27304643D01*
X8941628Y27134022D01*
X8941225Y27130426D01*
X8941224Y27130423D01*
X8932311Y27050961D01*
X8919757Y26939037D01*
X8920060Y26935428D01*
X8920060Y26935426D01*
X8928329Y26836952D01*
X8936175Y26743517D01*
X8990258Y26554909D01*
X9010208Y26516091D01*
X9078288Y26383620D01*
X9078291Y26383615D01*
X9079944Y26380399D01*
X9201818Y26226631D01*
X9351238Y26099465D01*
X9354400Y26097698D01*
X9519354Y26005508D01*
X9519358Y26005506D01*
X9522513Y26003743D01*
X9623368Y25970973D01*
X9663256Y25939809D01*
X9674500Y25900595D01*
X9674500Y13606962D01*
X9673078Y13592525D01*
X9669592Y13575000D01*
X9689034Y13477259D01*
X9690465Y13475118D01*
X9693086Y13471196D01*
X9693086Y13471195D01*
X9706914Y13450500D01*
X9744399Y13394399D01*
X9750459Y13390350D01*
X9759259Y13384470D01*
X9770473Y13375267D01*
X11550269Y11595470D01*
X11559471Y11584257D01*
X11569399Y11569399D01*
X11575459Y11565350D01*
X11590316Y11555423D01*
X11590317Y11555422D01*
X11633093Y11526841D01*
X11652260Y11514034D01*
X11659406Y11512613D01*
X11659407Y11512612D01*
X11742852Y11496013D01*
X11750000Y11494591D01*
X11767531Y11498078D01*
X11781966Y11499500D01*
X16909127Y11499500D01*
X16956693Y11482187D01*
X16982003Y11438350D01*
X16973213Y11388500D01*
X16934062Y11356797D01*
X16934082Y11356758D01*
X16829511Y11303477D01*
X16798208Y11272174D01*
X16752332Y11250782D01*
X16745882Y11250500D01*
X10734413Y11250500D01*
X10686847Y11267813D01*
X10682087Y11272174D01*
X10449733Y11504527D01*
X10440530Y11515741D01*
X10434650Y11524541D01*
X10430601Y11530601D01*
X10415743Y11540529D01*
X10404530Y11549731D01*
X9034862Y12919399D01*
X7657174Y14297086D01*
X7635782Y14342962D01*
X7635500Y14349412D01*
X7635500Y25850500D01*
X7652813Y25898066D01*
X7696650Y25923376D01*
X7709500Y25924500D01*
X8249820Y25924500D01*
X8253389Y25925210D01*
X8253390Y25925210D01*
X8286575Y25931811D01*
X8286576Y25931812D01*
X8293722Y25933233D01*
X8343504Y25966496D01*
X8376767Y26016278D01*
X8384294Y26054114D01*
X8384790Y26056610D01*
X8384790Y26056611D01*
X8385500Y26060180D01*
X8385500Y27700011D01*
X8402813Y27747577D01*
X8446650Y27772887D01*
X8459500Y27774011D01*
X9174262Y27774011D01*
X9221828Y27756698D01*
G37*
%TD.AperFunction*%
%TA.AperFunction,Conductor*%
G36*
X27453113Y24982187D02*
G01*
X27464775Y24968971D01*
X27467492Y24965986D01*
X27470809Y24960848D01*
X27475614Y24957060D01*
X27497120Y24940106D01*
X27503633Y24934319D01*
X27506380Y24931572D01*
X27508858Y24929801D01*
X27508863Y24929797D01*
X27521714Y24920614D01*
X27524477Y24918540D01*
X27562445Y24888608D01*
X27568214Y24886582D01*
X27569251Y24886012D01*
X27569954Y24885570D01*
X27570494Y24885289D01*
X27571251Y24884972D01*
X27572327Y24884445D01*
X27577303Y24880889D01*
X27583165Y24879136D01*
X27623611Y24867040D01*
X27626927Y24865963D01*
X27672540Y24849945D01*
X27677678Y24849500D01*
X27679015Y24849500D01*
X27683546Y24849116D01*
X27689098Y24847456D01*
X27695208Y24847696D01*
X27695209Y24847696D01*
X27739671Y24849443D01*
X27742576Y24849500D01*
X31974166Y24849500D01*
X32021732Y24832187D01*
X32026492Y24827826D01*
X32277826Y24576493D01*
X32299218Y24530617D01*
X32299500Y24524167D01*
X32299500Y20525834D01*
X32282187Y20478268D01*
X32277826Y20473508D01*
X32208071Y20403753D01*
X32162195Y20382361D01*
X32113300Y20395462D01*
X32084266Y20436926D01*
X32087378Y20484398D01*
X32087717Y20485217D01*
X32091767Y20491278D01*
X32100500Y20535180D01*
X32100500Y22064820D01*
X32098865Y22073040D01*
X32093189Y22101575D01*
X32093188Y22101576D01*
X32091767Y22108722D01*
X32058504Y22158504D01*
X32008722Y22191767D01*
X32001576Y22193188D01*
X32001575Y22193189D01*
X31968390Y22199790D01*
X31968389Y22199790D01*
X31964820Y22200500D01*
X29935180Y22200500D01*
X29931611Y22199790D01*
X29931610Y22199790D01*
X29898425Y22193189D01*
X29898424Y22193188D01*
X29891278Y22191767D01*
X29841496Y22158504D01*
X29808233Y22108722D01*
X29806812Y22101576D01*
X29806811Y22101575D01*
X29801135Y22073040D01*
X29799500Y22064820D01*
X29799500Y21724500D01*
X29782187Y21676934D01*
X29738350Y21651624D01*
X29725500Y21650500D01*
X29193879Y21650500D01*
X29146313Y21667813D01*
X29121003Y21711650D01*
X29127944Y21758095D01*
X29174304Y21849082D01*
X29174305Y21849084D01*
X29176948Y21854272D01*
X29195308Y21970190D01*
X29194397Y21975942D01*
X29194397Y21981603D01*
X29211710Y22029169D01*
X29255547Y22054479D01*
X29268397Y22055603D01*
X29274058Y22055603D01*
X29279810Y22054692D01*
X29395728Y22073052D01*
X29400916Y22075695D01*
X29400918Y22075696D01*
X29465735Y22108722D01*
X29500299Y22126333D01*
X29583287Y22209321D01*
X29622382Y22286050D01*
X29633924Y22308702D01*
X29633925Y22308704D01*
X29636568Y22313892D01*
X29654928Y22429810D01*
X29636568Y22545728D01*
X29616603Y22584913D01*
X29585929Y22645113D01*
X29583287Y22650299D01*
X29500299Y22733287D01*
X29414277Y22777117D01*
X29400918Y22783924D01*
X29400916Y22783925D01*
X29395728Y22786568D01*
X29279810Y22804928D01*
X29274058Y22804017D01*
X29176960Y22788638D01*
X29127271Y22798297D01*
X29113058Y22809401D01*
X29083592Y22838867D01*
X29800001Y22838867D01*
X29800712Y22831653D01*
X29807281Y22798622D01*
X29812752Y22785413D01*
X29837807Y22747916D01*
X29847916Y22737807D01*
X29885415Y22712751D01*
X29898620Y22707281D01*
X29931655Y22700710D01*
X29938865Y22700000D01*
X30861952Y22700000D01*
X30871948Y22703638D01*
X30875000Y22708925D01*
X30875000Y22713049D01*
X31025000Y22713049D01*
X31028638Y22703053D01*
X31033925Y22700001D01*
X31961133Y22700001D01*
X31968347Y22700712D01*
X32001378Y22707281D01*
X32014587Y22712752D01*
X32052084Y22737807D01*
X32062193Y22747916D01*
X32087249Y22785415D01*
X32092719Y22798620D01*
X32099290Y22831655D01*
X32100000Y22838865D01*
X32100000Y23511952D01*
X32096362Y23521948D01*
X32091075Y23525000D01*
X31038048Y23525000D01*
X31028052Y23521362D01*
X31025000Y23516075D01*
X31025000Y22713049D01*
X30875000Y22713049D01*
X30875000Y23511952D01*
X30871362Y23521948D01*
X30866075Y23525000D01*
X29813049Y23525000D01*
X29803053Y23521362D01*
X29800001Y23516075D01*
X29800001Y22838867D01*
X29083592Y22838867D01*
X28234411Y23688048D01*
X29800000Y23688048D01*
X29803638Y23678052D01*
X29808925Y23675000D01*
X30861952Y23675000D01*
X30871948Y23678638D01*
X30875000Y23683925D01*
X30875000Y23688048D01*
X31025000Y23688048D01*
X31028638Y23678052D01*
X31033925Y23675000D01*
X32086951Y23675000D01*
X32096947Y23678638D01*
X32099999Y23683925D01*
X32099999Y24361133D01*
X32099288Y24368347D01*
X32092719Y24401378D01*
X32087248Y24414587D01*
X32062193Y24452084D01*
X32052084Y24462193D01*
X32014585Y24487249D01*
X32001380Y24492719D01*
X31968345Y24499290D01*
X31961135Y24500000D01*
X31038048Y24500000D01*
X31028052Y24496362D01*
X31025000Y24491075D01*
X31025000Y23688048D01*
X30875000Y23688048D01*
X30875000Y24486951D01*
X30871362Y24496947D01*
X30866075Y24499999D01*
X29938867Y24499999D01*
X29931653Y24499288D01*
X29898622Y24492719D01*
X29885413Y24487248D01*
X29847916Y24462193D01*
X29837807Y24452084D01*
X29812751Y24414585D01*
X29807281Y24401380D01*
X29800710Y24368345D01*
X29800000Y24361135D01*
X29800000Y23688048D01*
X28234411Y23688048D01*
X27049285Y24873174D01*
X27027893Y24919050D01*
X27040994Y24967945D01*
X27082458Y24996979D01*
X27101611Y24999500D01*
X27405547Y24999500D01*
X27453113Y24982187D01*
G37*
%TD.AperFunction*%
%TD*%
M02*
