M48
; DRILL file {KiCad (6.0.1)} date Thu Feb 10 21:58:14 2022
; FORMAT={-:-/ absolute / metric / decimal}
; #@! TF.CreationDate,2022-02-10T21:58:14+01:00
; #@! TF.GenerationSoftware,Kicad,Pcbnew,(6.0.1)
; #@! TF.FileFunction,MixedPlating,1,2
FMAT,2
METRIC
; #@! TA.AperFunction,Plated,PTH,ViaDrill
T1C0.300
; #@! TA.AperFunction,Plated,PTH,ComponentDrill
T2C0.350
; #@! TA.AperFunction,Plated,PTH,ComponentDrill
T3C0.600
; #@! TA.AperFunction,Plated,PTH,ComponentDrill
T4C1.000
; #@! TA.AperFunction,NonPlated,NPTH,ComponentDrill
T5C0.650
; #@! TA.AperFunction,NonPlated,NPTH,ComponentDrill
T6C0.700
%
G90
G05
T1
X0.75Y27.75
X0.75Y22.75
X0.75Y17.75
X0.75Y12.75
X0.75Y7.75
X0.75Y2.75
X2.275Y28.025
X3.75Y30.5
X3.75Y0.5
X4.64Y21.82
X4.85Y23.55
X5.1Y3.95
X6.25Y29.55
X6.65Y8.75
X6.85Y11.95
X8.15Y9.3
X8.65Y17.75
X8.65Y14.15
X8.7Y23.55
X8.75Y30.5
X8.75Y0.5
X10.875Y20.45
X11.2Y16.05
X11.525Y20.45
X12.45Y20.3
X13.65Y23.55
X13.75Y30.5
X13.75Y0.5
X14.6Y18.95
X14.65Y15.7
X15.85Y21.95
X16.05Y21.2
X16.05Y19.95
X17.0Y9.85
X17.05Y11.0
X17.35Y13.1
X17.51Y10.51
X18.75Y30.5
X18.75Y0.5
X20.45Y7.4
X20.55Y13.1
X21.05Y23.6
X21.75Y21.2
X22.0Y17.35
X23.25Y25.95
X23.35Y8.6
X23.75Y30.5
X23.75Y0.5
X23.95Y16.8
X24.28Y17.3
X24.95Y23.8
X25.682Y16.532
X25.83Y6.47
X26.65Y15.35
X28.25Y8.55
X28.75Y30.5
X28.75Y0.5
X28.82Y21.97
X29.05Y11.15
X29.28Y22.43
X30.25Y12.75
X30.25Y6.75
X30.95Y22.45
X31.45Y13.95
X32.05Y8.55
X32.25Y17.75
X33.75Y30.5
X33.75Y0.5
X35.39Y15.99
X35.7Y25.7
X35.8Y5.25
X35.8Y2.6
X37.08Y17.91
X37.09Y14.03
X38.75Y30.5
X38.75Y25.5
X38.75Y21.0
X38.75Y16.0
X38.75Y10.5
X38.75Y5.5
X38.75Y0.5
T2
X18.275Y16.775
X18.275Y15.5
X18.275Y14.225
X19.55Y16.775
X19.55Y15.5
X19.55Y14.225
X20.825Y16.775
X20.825Y15.5
X20.825Y14.225
T4
X7.385Y29.465
X7.385Y26.925
X7.385Y4.065
X7.385Y1.525
X9.925Y29.465
X9.925Y26.925
X9.925Y4.065
X9.925Y1.525
X12.465Y29.465
X12.465Y26.925
X12.465Y4.065
X12.465Y1.525
X15.005Y29.465
X15.005Y26.925
X15.005Y4.065
X15.005Y1.525
X17.545Y29.465
X17.545Y26.925
X17.545Y4.065
X17.545Y1.525
X20.085Y29.465
X20.085Y26.925
X20.085Y4.065
X20.085Y1.525
X22.625Y29.465
X22.625Y26.925
X22.625Y4.065
X22.625Y1.525
X25.165Y29.465
X25.165Y26.925
X25.165Y4.065
X25.165Y1.525
X27.705Y29.465
X27.705Y26.925
X27.705Y4.065
X27.705Y1.525
X30.245Y29.465
X30.245Y26.925
X30.245Y4.065
X30.245Y1.525
T5
X34.395Y18.39
X34.395Y12.61
T6
X2.955Y8.79
X2.955Y7.52
X2.955Y6.25
X2.955Y4.98
X2.955Y3.71
T3
X33.345Y19.82G85X34.445Y19.82
G05
X33.345Y11.18G85X34.445Y11.18
G05
X37.775Y19.82G85X38.375Y19.82
G05
X37.775Y11.18G85X38.375Y11.18
G05
T0
M30
