%TF.GenerationSoftware,KiCad,Pcbnew,(6.0.1)*%
%TF.CreationDate,2022-02-16T12:37:22+01:00*%
%TF.ProjectId,rp2040,72703230-3430-42e6-9b69-6361645f7063,rev?*%
%TF.SameCoordinates,PX8917370PY699e930*%
%TF.FileFunction,Legend,Top*%
%TF.FilePolarity,Positive*%
%FSLAX46Y46*%
G04 Gerber Fmt 4.6, Leading zero omitted, Abs format (unit mm)*
G04 Created by KiCad (PCBNEW (6.0.1)) date 2022-02-16 12:37:22*
%MOMM*%
%LPD*%
G01*
G04 APERTURE LIST*
G04 Aperture macros list*
%AMRoundRect*
0 Rectangle with rounded corners*
0 $1 Rounding radius*
0 $2 $3 $4 $5 $6 $7 $8 $9 X,Y pos of 4 corners*
0 Add a 4 corners polygon primitive as box body*
4,1,4,$2,$3,$4,$5,$6,$7,$8,$9,$2,$3,0*
0 Add four circle primitives for the rounded corners*
1,1,$1+$1,$2,$3*
1,1,$1+$1,$4,$5*
1,1,$1+$1,$6,$7*
1,1,$1+$1,$8,$9*
0 Add four rect primitives between the rounded corners*
20,1,$1+$1,$2,$3,$4,$5,0*
20,1,$1+$1,$4,$5,$6,$7,0*
20,1,$1+$1,$6,$7,$8,$9,0*
20,1,$1+$1,$8,$9,$2,$3,0*%
G04 Aperture macros list end*
%ADD10C,0.200000*%
%ADD11C,0.150000*%
%ADD12C,0.125000*%
%ADD13C,0.120000*%
%ADD14C,0.100000*%
%ADD15RoundRect,0.155000X-0.212500X-0.155000X0.212500X-0.155000X0.212500X0.155000X-0.212500X0.155000X0*%
%ADD16RoundRect,0.050000X0.050000X-0.387500X0.050000X0.387500X-0.050000X0.387500X-0.050000X-0.387500X0*%
%ADD17RoundRect,0.050000X0.387500X-0.050000X0.387500X0.050000X-0.387500X0.050000X-0.387500X-0.050000X0*%
%ADD18RoundRect,0.144000X1.456000X-1.456000X1.456000X1.456000X-1.456000X1.456000X-1.456000X-1.456000X0*%
%ADD19RoundRect,0.155000X0.212500X0.155000X-0.212500X0.155000X-0.212500X-0.155000X0.212500X-0.155000X0*%
%ADD20R,1.000000X2.000000*%
%ADD21RoundRect,0.160000X0.197500X0.160000X-0.197500X0.160000X-0.197500X-0.160000X0.197500X-0.160000X0*%
%ADD22RoundRect,0.155000X0.155000X-0.212500X0.155000X0.212500X-0.155000X0.212500X-0.155000X-0.212500X0*%
%ADD23RoundRect,0.155000X-0.155000X0.212500X-0.155000X-0.212500X0.155000X-0.212500X0.155000X0.212500X0*%
%ADD24C,0.650000*%
%ADD25R,1.150000X0.300000*%
%ADD26O,1.600000X1.000000*%
%ADD27O,2.100000X1.000000*%
%ADD28R,0.250000X0.600000*%
%ADD29RoundRect,0.150000X0.150000X-0.650000X0.150000X0.650000X-0.150000X0.650000X-0.150000X-0.650000X0*%
%ADD30R,1.600000X0.400000*%
%ADD31R,1.700000X1.700000*%
%ADD32O,1.700000X1.700000*%
%ADD33R,1.150000X1.000000*%
%ADD34C,0.700000*%
%ADD35O,1.500000X0.800000*%
%ADD36RoundRect,0.160000X-0.197500X-0.160000X0.197500X-0.160000X0.197500X0.160000X-0.197500X0.160000X0*%
G04 APERTURE END LIST*
D10*
X35751904Y11804762D02*
X36323333Y11804762D01*
X36437619Y11766667D01*
X36513809Y11690477D01*
X36551904Y11576191D01*
X36551904Y11500000D01*
X36551904Y12566667D02*
X36551904Y12185715D01*
X35751904Y12185715D01*
X36475714Y13290477D02*
X36513809Y13252381D01*
X36551904Y13138096D01*
X36551904Y13061905D01*
X36513809Y12947620D01*
X36437619Y12871429D01*
X36361428Y12833334D01*
X36209047Y12795239D01*
X36094761Y12795239D01*
X35942380Y12833334D01*
X35866190Y12871429D01*
X35790000Y12947620D01*
X35751904Y13061905D01*
X35751904Y13138096D01*
X35790000Y13252381D01*
X35828095Y13290477D01*
X35751904Y13861905D02*
X36323333Y13861905D01*
X36437619Y13823810D01*
X36513809Y13747620D01*
X36551904Y13633334D01*
X36551904Y13557143D01*
X36551904Y14623810D02*
X36551904Y14242858D01*
X35751904Y14242858D01*
X36475714Y15347620D02*
X36513809Y15309524D01*
X36551904Y15195239D01*
X36551904Y15119048D01*
X36513809Y15004762D01*
X36437619Y14928572D01*
X36361428Y14890477D01*
X36209047Y14852381D01*
X36094761Y14852381D01*
X35942380Y14890477D01*
X35866190Y14928572D01*
X35790000Y15004762D01*
X35751904Y15119048D01*
X35751904Y15195239D01*
X35790000Y15309524D01*
X35828095Y15347620D01*
X35751904Y15919048D02*
X36323333Y15919048D01*
X36437619Y15880953D01*
X36513809Y15804762D01*
X36551904Y15690477D01*
X36551904Y15614286D01*
X36551904Y16680953D02*
X36551904Y16300000D01*
X35751904Y16300000D01*
X36475714Y17404762D02*
X36513809Y17366667D01*
X36551904Y17252381D01*
X36551904Y17176191D01*
X36513809Y17061905D01*
X36437619Y16985715D01*
X36361428Y16947620D01*
X36209047Y16909524D01*
X36094761Y16909524D01*
X35942380Y16947620D01*
X35866190Y16985715D01*
X35790000Y17061905D01*
X35751904Y17176191D01*
X35751904Y17252381D01*
X35790000Y17366667D01*
X35828095Y17404762D01*
X35751904Y17976191D02*
X36323333Y17976191D01*
X36437619Y17938096D01*
X36513809Y17861905D01*
X36551904Y17747620D01*
X36551904Y17671429D01*
X36551904Y18738096D02*
X36551904Y18357143D01*
X35751904Y18357143D01*
X36475714Y19461905D02*
X36513809Y19423810D01*
X36551904Y19309524D01*
X36551904Y19233334D01*
X36513809Y19119048D01*
X36437619Y19042858D01*
X36361428Y19004762D01*
X36209047Y18966667D01*
X36094761Y18966667D01*
X35942380Y19004762D01*
X35866190Y19042858D01*
X35790000Y19119048D01*
X35751904Y19233334D01*
X35751904Y19309524D01*
X35790000Y19423810D01*
X35828095Y19461905D01*
D11*
%TO.C,C7*%
X27966666Y18014286D02*
X27928571Y17976191D01*
X27814285Y17938096D01*
X27738095Y17938096D01*
X27623809Y17976191D01*
X27547619Y18052381D01*
X27509523Y18128572D01*
X27471428Y18280953D01*
X27471428Y18395239D01*
X27509523Y18547620D01*
X27547619Y18623810D01*
X27623809Y18700000D01*
X27738095Y18738096D01*
X27814285Y18738096D01*
X27928571Y18700000D01*
X27966666Y18661905D01*
X28233333Y18738096D02*
X28766666Y18738096D01*
X28423809Y17938096D01*
%TO.C,U3*%
X13730476Y12508096D02*
X13730476Y11860477D01*
X13768571Y11784286D01*
X13806666Y11746191D01*
X13882857Y11708096D01*
X14035238Y11708096D01*
X14111428Y11746191D01*
X14149523Y11784286D01*
X14187619Y11860477D01*
X14187619Y12508096D01*
X14492380Y12508096D02*
X14987619Y12508096D01*
X14720952Y12203334D01*
X14835238Y12203334D01*
X14911428Y12165239D01*
X14949523Y12127143D01*
X14987619Y12050953D01*
X14987619Y11860477D01*
X14949523Y11784286D01*
X14911428Y11746191D01*
X14835238Y11708096D01*
X14606666Y11708096D01*
X14530476Y11746191D01*
X14492380Y11784286D01*
%TO.C,C9*%
X10213544Y14799641D02*
X10175449Y14761546D01*
X10061163Y14723451D01*
X9984973Y14723451D01*
X9870687Y14761546D01*
X9794497Y14837736D01*
X9756401Y14913927D01*
X9718306Y15066308D01*
X9718306Y15180594D01*
X9756401Y15332975D01*
X9794497Y15409165D01*
X9870687Y15485355D01*
X9984973Y15523451D01*
X10061163Y15523451D01*
X10175449Y15485355D01*
X10213544Y15447260D01*
X10594497Y14723451D02*
X10746878Y14723451D01*
X10823068Y14761546D01*
X10861163Y14799641D01*
X10937354Y14913927D01*
X10975449Y15066308D01*
X10975449Y15371070D01*
X10937354Y15447260D01*
X10899258Y15485355D01*
X10823068Y15523451D01*
X10670687Y15523451D01*
X10594497Y15485355D01*
X10556401Y15447260D01*
X10518306Y15371070D01*
X10518306Y15180594D01*
X10556401Y15104403D01*
X10594497Y15066308D01*
X10670687Y15028213D01*
X10823068Y15028213D01*
X10899258Y15066308D01*
X10937354Y15104403D01*
X10975449Y15180594D01*
%TO.C,C1*%
X4636666Y21084286D02*
X4598571Y21046191D01*
X4484285Y21008096D01*
X4408095Y21008096D01*
X4293809Y21046191D01*
X4217619Y21122381D01*
X4179523Y21198572D01*
X4141428Y21350953D01*
X4141428Y21465239D01*
X4179523Y21617620D01*
X4217619Y21693810D01*
X4293809Y21770000D01*
X4408095Y21808096D01*
X4484285Y21808096D01*
X4598571Y21770000D01*
X4636666Y21731905D01*
X5398571Y21008096D02*
X4941428Y21008096D01*
X5170000Y21008096D02*
X5170000Y21808096D01*
X5093809Y21693810D01*
X5017619Y21617620D01*
X4941428Y21579524D01*
%TO.C,R3*%
X36866666Y8018096D02*
X36600000Y8399048D01*
X36409523Y8018096D02*
X36409523Y8818096D01*
X36714285Y8818096D01*
X36790476Y8780000D01*
X36828571Y8741905D01*
X36866666Y8665715D01*
X36866666Y8551429D01*
X36828571Y8475239D01*
X36790476Y8437143D01*
X36714285Y8399048D01*
X36409523Y8399048D01*
X37133333Y8818096D02*
X37628571Y8818096D01*
X37361904Y8513334D01*
X37476190Y8513334D01*
X37552380Y8475239D01*
X37590476Y8437143D01*
X37628571Y8360953D01*
X37628571Y8170477D01*
X37590476Y8094286D01*
X37552380Y8056191D01*
X37476190Y8018096D01*
X37247619Y8018096D01*
X37171428Y8056191D01*
X37133333Y8094286D01*
%TO.C,C12*%
X20225714Y21525715D02*
X20263809Y21487620D01*
X20301904Y21373334D01*
X20301904Y21297143D01*
X20263809Y21182858D01*
X20187619Y21106667D01*
X20111428Y21068572D01*
X19959047Y21030477D01*
X19844761Y21030477D01*
X19692380Y21068572D01*
X19616190Y21106667D01*
X19540000Y21182858D01*
X19501904Y21297143D01*
X19501904Y21373334D01*
X19540000Y21487620D01*
X19578095Y21525715D01*
X20301904Y22287620D02*
X20301904Y21830477D01*
X20301904Y22059048D02*
X19501904Y22059048D01*
X19616190Y21982858D01*
X19692380Y21906667D01*
X19730476Y21830477D01*
X19578095Y22592381D02*
X19540000Y22630477D01*
X19501904Y22706667D01*
X19501904Y22897143D01*
X19540000Y22973334D01*
X19578095Y23011429D01*
X19654285Y23049524D01*
X19730476Y23049524D01*
X19844761Y23011429D01*
X20301904Y22554286D01*
X20301904Y23049524D01*
%TO.C,C14*%
X27985714Y16964286D02*
X27947619Y16926191D01*
X27833333Y16888096D01*
X27757142Y16888096D01*
X27642857Y16926191D01*
X27566666Y17002381D01*
X27528571Y17078572D01*
X27490476Y17230953D01*
X27490476Y17345239D01*
X27528571Y17497620D01*
X27566666Y17573810D01*
X27642857Y17650000D01*
X27757142Y17688096D01*
X27833333Y17688096D01*
X27947619Y17650000D01*
X27985714Y17611905D01*
X28747619Y16888096D02*
X28290476Y16888096D01*
X28519047Y16888096D02*
X28519047Y17688096D01*
X28442857Y17573810D01*
X28366666Y17497620D01*
X28290476Y17459524D01*
X29433333Y17421429D02*
X29433333Y16888096D01*
X29242857Y17726191D02*
X29052380Y17154762D01*
X29547619Y17154762D01*
%TO.C,C13*%
X21995714Y8435715D02*
X22033809Y8397620D01*
X22071904Y8283334D01*
X22071904Y8207143D01*
X22033809Y8092858D01*
X21957619Y8016667D01*
X21881428Y7978572D01*
X21729047Y7940477D01*
X21614761Y7940477D01*
X21462380Y7978572D01*
X21386190Y8016667D01*
X21310000Y8092858D01*
X21271904Y8207143D01*
X21271904Y8283334D01*
X21310000Y8397620D01*
X21348095Y8435715D01*
X22071904Y9197620D02*
X22071904Y8740477D01*
X22071904Y8969048D02*
X21271904Y8969048D01*
X21386190Y8892858D01*
X21462380Y8816667D01*
X21500476Y8740477D01*
X21271904Y9464286D02*
X21271904Y9959524D01*
X21576666Y9692858D01*
X21576666Y9807143D01*
X21614761Y9883334D01*
X21652857Y9921429D01*
X21729047Y9959524D01*
X21919523Y9959524D01*
X21995714Y9921429D01*
X22033809Y9883334D01*
X22071904Y9807143D01*
X22071904Y9578572D01*
X22033809Y9502381D01*
X21995714Y9464286D01*
%TO.C,C11*%
X17435714Y8825715D02*
X17473809Y8787620D01*
X17511904Y8673334D01*
X17511904Y8597143D01*
X17473809Y8482858D01*
X17397619Y8406667D01*
X17321428Y8368572D01*
X17169047Y8330477D01*
X17054761Y8330477D01*
X16902380Y8368572D01*
X16826190Y8406667D01*
X16750000Y8482858D01*
X16711904Y8597143D01*
X16711904Y8673334D01*
X16750000Y8787620D01*
X16788095Y8825715D01*
X17511904Y9587620D02*
X17511904Y9130477D01*
X17511904Y9359048D02*
X16711904Y9359048D01*
X16826190Y9282858D01*
X16902380Y9206667D01*
X16940476Y9130477D01*
X17511904Y10349524D02*
X17511904Y9892381D01*
X17511904Y10120953D02*
X16711904Y10120953D01*
X16826190Y10044762D01*
X16902380Y9968572D01*
X16940476Y9892381D01*
%TO.C,C10*%
X10214394Y18764286D02*
X10176299Y18726191D01*
X10062013Y18688096D01*
X9985822Y18688096D01*
X9871537Y18726191D01*
X9795346Y18802381D01*
X9757251Y18878572D01*
X9719156Y19030953D01*
X9719156Y19145239D01*
X9757251Y19297620D01*
X9795346Y19373810D01*
X9871537Y19450000D01*
X9985822Y19488096D01*
X10062013Y19488096D01*
X10176299Y19450000D01*
X10214394Y19411905D01*
X10976299Y18688096D02*
X10519156Y18688096D01*
X10747727Y18688096D02*
X10747727Y19488096D01*
X10671537Y19373810D01*
X10595346Y19297620D01*
X10519156Y19259524D01*
X11471537Y19488096D02*
X11547727Y19488096D01*
X11623918Y19450000D01*
X11662013Y19411905D01*
X11700108Y19335715D01*
X11738203Y19183334D01*
X11738203Y18992858D01*
X11700108Y18840477D01*
X11662013Y18764286D01*
X11623918Y18726191D01*
X11547727Y18688096D01*
X11471537Y18688096D01*
X11395346Y18726191D01*
X11357251Y18764286D01*
X11319156Y18840477D01*
X11281060Y18992858D01*
X11281060Y19183334D01*
X11319156Y19335715D01*
X11357251Y19411905D01*
X11395346Y19450000D01*
X11471537Y19488096D01*
%TO.C,R2*%
X4636666Y22058096D02*
X4370000Y22439048D01*
X4179523Y22058096D02*
X4179523Y22858096D01*
X4484285Y22858096D01*
X4560476Y22820000D01*
X4598571Y22781905D01*
X4636666Y22705715D01*
X4636666Y22591429D01*
X4598571Y22515239D01*
X4560476Y22477143D01*
X4484285Y22439048D01*
X4179523Y22439048D01*
X4941428Y22781905D02*
X4979523Y22820000D01*
X5055714Y22858096D01*
X5246190Y22858096D01*
X5322380Y22820000D01*
X5360476Y22781905D01*
X5398571Y22705715D01*
X5398571Y22629524D01*
X5360476Y22515239D01*
X4903333Y22058096D01*
X5398571Y22058096D01*
%TO.C,J1*%
X31573333Y10788096D02*
X31573333Y10216667D01*
X31535238Y10102381D01*
X31459047Y10026191D01*
X31344761Y9988096D01*
X31268571Y9988096D01*
X32373333Y9988096D02*
X31916190Y9988096D01*
X32144761Y9988096D02*
X32144761Y10788096D01*
X32068571Y10673810D01*
X31992380Y10597620D01*
X31916190Y10559524D01*
%TO.C,R7*%
X10913544Y16723451D02*
X10646878Y17104403D01*
X10456401Y16723451D02*
X10456401Y17523451D01*
X10761163Y17523451D01*
X10837354Y17485355D01*
X10875449Y17447260D01*
X10913544Y17371070D01*
X10913544Y17256784D01*
X10875449Y17180594D01*
X10837354Y17142498D01*
X10761163Y17104403D01*
X10456401Y17104403D01*
X11180211Y17523451D02*
X11713544Y17523451D01*
X11370687Y16723451D01*
D12*
%TO.C,U1*%
X5801904Y14910477D02*
X6449523Y14910477D01*
X6525714Y14948572D01*
X6563809Y14986667D01*
X6601904Y15062858D01*
X6601904Y15215239D01*
X6563809Y15291429D01*
X6525714Y15329524D01*
X6449523Y15367620D01*
X5801904Y15367620D01*
X6601904Y16167620D02*
X6601904Y15710477D01*
X6601904Y15939048D02*
X5801904Y15939048D01*
X5916190Y15862858D01*
X5992380Y15786667D01*
X6030476Y15710477D01*
D11*
%TO.C,C5*%
X30216666Y15764286D02*
X30178571Y15726191D01*
X30064285Y15688096D01*
X29988095Y15688096D01*
X29873809Y15726191D01*
X29797619Y15802381D01*
X29759523Y15878572D01*
X29721428Y16030953D01*
X29721428Y16145239D01*
X29759523Y16297620D01*
X29797619Y16373810D01*
X29873809Y16450000D01*
X29988095Y16488096D01*
X30064285Y16488096D01*
X30178571Y16450000D01*
X30216666Y16411905D01*
X30940476Y16488096D02*
X30559523Y16488096D01*
X30521428Y16107143D01*
X30559523Y16145239D01*
X30635714Y16183334D01*
X30826190Y16183334D01*
X30902380Y16145239D01*
X30940476Y16107143D01*
X30978571Y16030953D01*
X30978571Y15840477D01*
X30940476Y15764286D01*
X30902380Y15726191D01*
X30826190Y15688096D01*
X30635714Y15688096D01*
X30559523Y15726191D01*
X30521428Y15764286D01*
%TO.C,C8*%
X10913544Y17799641D02*
X10875449Y17761546D01*
X10761163Y17723451D01*
X10684973Y17723451D01*
X10570687Y17761546D01*
X10494497Y17837736D01*
X10456401Y17913927D01*
X10418306Y18066308D01*
X10418306Y18180594D01*
X10456401Y18332975D01*
X10494497Y18409165D01*
X10570687Y18485355D01*
X10684973Y18523451D01*
X10761163Y18523451D01*
X10875449Y18485355D01*
X10913544Y18447260D01*
X11370687Y18180594D02*
X11294497Y18218689D01*
X11256401Y18256784D01*
X11218306Y18332975D01*
X11218306Y18371070D01*
X11256401Y18447260D01*
X11294497Y18485355D01*
X11370687Y18523451D01*
X11523068Y18523451D01*
X11599258Y18485355D01*
X11637354Y18447260D01*
X11675449Y18371070D01*
X11675449Y18332975D01*
X11637354Y18256784D01*
X11599258Y18218689D01*
X11523068Y18180594D01*
X11370687Y18180594D01*
X11294497Y18142498D01*
X11256401Y18104403D01*
X11218306Y18028213D01*
X11218306Y17875832D01*
X11256401Y17799641D01*
X11294497Y17761546D01*
X11370687Y17723451D01*
X11523068Y17723451D01*
X11599258Y17761546D01*
X11637354Y17799641D01*
X11675449Y17875832D01*
X11675449Y18028213D01*
X11637354Y18104403D01*
X11599258Y18142498D01*
X11523068Y18180594D01*
%TO.C,J3*%
X4616904Y27928334D02*
X5188333Y27928334D01*
X5302619Y27890239D01*
X5378809Y27814048D01*
X5416904Y27699762D01*
X5416904Y27623572D01*
X4616904Y28233096D02*
X4616904Y28728334D01*
X4921666Y28461667D01*
X4921666Y28575953D01*
X4959761Y28652143D01*
X4997857Y28690239D01*
X5074047Y28728334D01*
X5264523Y28728334D01*
X5340714Y28690239D01*
X5378809Y28652143D01*
X5416904Y28575953D01*
X5416904Y28347381D01*
X5378809Y28271191D01*
X5340714Y28233096D01*
%TO.C,Y1*%
X30869047Y13969048D02*
X30869047Y13588096D01*
X30602380Y14388096D02*
X30869047Y13969048D01*
X31135714Y14388096D01*
X31821428Y13588096D02*
X31364285Y13588096D01*
X31592857Y13588096D02*
X31592857Y14388096D01*
X31516666Y14273810D01*
X31440476Y14197620D01*
X31364285Y14159524D01*
%TO.C,J4*%
X3913904Y5983334D02*
X4485333Y5983334D01*
X4599619Y5945239D01*
X4675809Y5869048D01*
X4713904Y5754762D01*
X4713904Y5678572D01*
X4180571Y6707143D02*
X4713904Y6707143D01*
X3875809Y6516667D02*
X4447238Y6326191D01*
X4447238Y6821429D01*
%TO.C,R5*%
X37216666Y6058096D02*
X36950000Y6439048D01*
X36759523Y6058096D02*
X36759523Y6858096D01*
X37064285Y6858096D01*
X37140476Y6820000D01*
X37178571Y6781905D01*
X37216666Y6705715D01*
X37216666Y6591429D01*
X37178571Y6515239D01*
X37140476Y6477143D01*
X37064285Y6439048D01*
X36759523Y6439048D01*
X37940476Y6858096D02*
X37559523Y6858096D01*
X37521428Y6477143D01*
X37559523Y6515239D01*
X37635714Y6553334D01*
X37826190Y6553334D01*
X37902380Y6515239D01*
X37940476Y6477143D01*
X37978571Y6400953D01*
X37978571Y6210477D01*
X37940476Y6134286D01*
X37902380Y6096191D01*
X37826190Y6058096D01*
X37635714Y6058096D01*
X37559523Y6096191D01*
X37521428Y6134286D01*
%TO.C,R1*%
X37266666Y24218096D02*
X37000000Y24599048D01*
X36809523Y24218096D02*
X36809523Y25018096D01*
X37114285Y25018096D01*
X37190476Y24980000D01*
X37228571Y24941905D01*
X37266666Y24865715D01*
X37266666Y24751429D01*
X37228571Y24675239D01*
X37190476Y24637143D01*
X37114285Y24599048D01*
X36809523Y24599048D01*
X38028571Y24218096D02*
X37571428Y24218096D01*
X37800000Y24218096D02*
X37800000Y25018096D01*
X37723809Y24903810D01*
X37647619Y24827620D01*
X37571428Y24789524D01*
%TO.C,R6*%
X10913544Y15723451D02*
X10646878Y16104403D01*
X10456401Y15723451D02*
X10456401Y16523451D01*
X10761163Y16523451D01*
X10837354Y16485355D01*
X10875449Y16447260D01*
X10913544Y16371070D01*
X10913544Y16256784D01*
X10875449Y16180594D01*
X10837354Y16142498D01*
X10761163Y16104403D01*
X10456401Y16104403D01*
X11599258Y16523451D02*
X11446878Y16523451D01*
X11370687Y16485355D01*
X11332592Y16447260D01*
X11256401Y16332975D01*
X11218306Y16180594D01*
X11218306Y15875832D01*
X11256401Y15799641D01*
X11294497Y15761546D01*
X11370687Y15723451D01*
X11523068Y15723451D01*
X11599258Y15761546D01*
X11637354Y15799641D01*
X11675449Y15875832D01*
X11675449Y16066308D01*
X11637354Y16142498D01*
X11599258Y16180594D01*
X11523068Y16218689D01*
X11370687Y16218689D01*
X11294497Y16180594D01*
X11256401Y16142498D01*
X11218306Y16066308D01*
%TO.C,J2*%
X4616904Y2528334D02*
X5188333Y2528334D01*
X5302619Y2490239D01*
X5378809Y2414048D01*
X5416904Y2299762D01*
X5416904Y2223572D01*
X4693095Y2871191D02*
X4655000Y2909286D01*
X4616904Y2985477D01*
X4616904Y3175953D01*
X4655000Y3252143D01*
X4693095Y3290239D01*
X4769285Y3328334D01*
X4845476Y3328334D01*
X4959761Y3290239D01*
X5416904Y2833096D01*
X5416904Y3328334D01*
%TO.C,C4*%
X30216666Y11464286D02*
X30178571Y11426191D01*
X30064285Y11388096D01*
X29988095Y11388096D01*
X29873809Y11426191D01*
X29797619Y11502381D01*
X29759523Y11578572D01*
X29721428Y11730953D01*
X29721428Y11845239D01*
X29759523Y11997620D01*
X29797619Y12073810D01*
X29873809Y12150000D01*
X29988095Y12188096D01*
X30064285Y12188096D01*
X30178571Y12150000D01*
X30216666Y12111905D01*
X30902380Y11921429D02*
X30902380Y11388096D01*
X30711904Y12226191D02*
X30521428Y11654762D01*
X31016666Y11654762D01*
%TO.C,C16*%
X16705714Y21335715D02*
X16743809Y21297620D01*
X16781904Y21183334D01*
X16781904Y21107143D01*
X16743809Y20992858D01*
X16667619Y20916667D01*
X16591428Y20878572D01*
X16439047Y20840477D01*
X16324761Y20840477D01*
X16172380Y20878572D01*
X16096190Y20916667D01*
X16020000Y20992858D01*
X15981904Y21107143D01*
X15981904Y21183334D01*
X16020000Y21297620D01*
X16058095Y21335715D01*
X16781904Y22097620D02*
X16781904Y21640477D01*
X16781904Y21869048D02*
X15981904Y21869048D01*
X16096190Y21792858D01*
X16172380Y21716667D01*
X16210476Y21640477D01*
X15981904Y22783334D02*
X15981904Y22630953D01*
X16020000Y22554762D01*
X16058095Y22516667D01*
X16172380Y22440477D01*
X16324761Y22402381D01*
X16629523Y22402381D01*
X16705714Y22440477D01*
X16743809Y22478572D01*
X16781904Y22554762D01*
X16781904Y22707143D01*
X16743809Y22783334D01*
X16705714Y22821429D01*
X16629523Y22859524D01*
X16439047Y22859524D01*
X16362857Y22821429D01*
X16324761Y22783334D01*
X16286666Y22707143D01*
X16286666Y22554762D01*
X16324761Y22478572D01*
X16362857Y22440477D01*
X16439047Y22402381D01*
%TO.C,R4*%
X36866666Y22258096D02*
X36600000Y22639048D01*
X36409523Y22258096D02*
X36409523Y23058096D01*
X36714285Y23058096D01*
X36790476Y23020000D01*
X36828571Y22981905D01*
X36866666Y22905715D01*
X36866666Y22791429D01*
X36828571Y22715239D01*
X36790476Y22677143D01*
X36714285Y22639048D01*
X36409523Y22639048D01*
X37552380Y22791429D02*
X37552380Y22258096D01*
X37361904Y23096191D02*
X37171428Y22524762D01*
X37666666Y22524762D01*
%TO.C,C15*%
X13255714Y21325715D02*
X13293809Y21287620D01*
X13331904Y21173334D01*
X13331904Y21097143D01*
X13293809Y20982858D01*
X13217619Y20906667D01*
X13141428Y20868572D01*
X12989047Y20830477D01*
X12874761Y20830477D01*
X12722380Y20868572D01*
X12646190Y20906667D01*
X12570000Y20982858D01*
X12531904Y21097143D01*
X12531904Y21173334D01*
X12570000Y21287620D01*
X12608095Y21325715D01*
X13331904Y22087620D02*
X13331904Y21630477D01*
X13331904Y21859048D02*
X12531904Y21859048D01*
X12646190Y21782858D01*
X12722380Y21706667D01*
X12760476Y21630477D01*
X12531904Y22811429D02*
X12531904Y22430477D01*
X12912857Y22392381D01*
X12874761Y22430477D01*
X12836666Y22506667D01*
X12836666Y22697143D01*
X12874761Y22773334D01*
X12912857Y22811429D01*
X12989047Y22849524D01*
X13179523Y22849524D01*
X13255714Y22811429D01*
X13293809Y22773334D01*
X13331904Y22697143D01*
X13331904Y22506667D01*
X13293809Y22430477D01*
X13255714Y22392381D01*
%TO.C,C6*%
X10178188Y13834997D02*
X10140093Y13796902D01*
X10025807Y13758807D01*
X9949617Y13758807D01*
X9835331Y13796902D01*
X9759141Y13873092D01*
X9721045Y13949283D01*
X9682950Y14101664D01*
X9682950Y14215950D01*
X9721045Y14368331D01*
X9759141Y14444521D01*
X9835331Y14520711D01*
X9949617Y14558807D01*
X10025807Y14558807D01*
X10140093Y14520711D01*
X10178188Y14482616D01*
X10863902Y14558807D02*
X10711522Y14558807D01*
X10635331Y14520711D01*
X10597236Y14482616D01*
X10521045Y14368331D01*
X10482950Y14215950D01*
X10482950Y13911188D01*
X10521045Y13834997D01*
X10559141Y13796902D01*
X10635331Y13758807D01*
X10787712Y13758807D01*
X10863902Y13796902D01*
X10901998Y13834997D01*
X10940093Y13911188D01*
X10940093Y14101664D01*
X10901998Y14177854D01*
X10863902Y14215950D01*
X10787712Y14254045D01*
X10635331Y14254045D01*
X10559141Y14215950D01*
X10521045Y14177854D01*
X10482950Y14101664D01*
%TO.C,R8*%
X25016666Y13418096D02*
X24750000Y13799048D01*
X24559523Y13418096D02*
X24559523Y14218096D01*
X24864285Y14218096D01*
X24940476Y14180000D01*
X24978571Y14141905D01*
X25016666Y14065715D01*
X25016666Y13951429D01*
X24978571Y13875239D01*
X24940476Y13837143D01*
X24864285Y13799048D01*
X24559523Y13799048D01*
X25473809Y13875239D02*
X25397619Y13913334D01*
X25359523Y13951429D01*
X25321428Y14027620D01*
X25321428Y14065715D01*
X25359523Y14141905D01*
X25397619Y14180000D01*
X25473809Y14218096D01*
X25626190Y14218096D01*
X25702380Y14180000D01*
X25740476Y14141905D01*
X25778571Y14065715D01*
X25778571Y14027620D01*
X25740476Y13951429D01*
X25702380Y13913334D01*
X25626190Y13875239D01*
X25473809Y13875239D01*
X25397619Y13837143D01*
X25359523Y13799048D01*
X25321428Y13722858D01*
X25321428Y13570477D01*
X25359523Y13494286D01*
X25397619Y13456191D01*
X25473809Y13418096D01*
X25626190Y13418096D01*
X25702380Y13456191D01*
X25740476Y13494286D01*
X25778571Y13570477D01*
X25778571Y13722858D01*
X25740476Y13799048D01*
X25702380Y13837143D01*
X25626190Y13875239D01*
D13*
%TO.C,C7*%
X26134165Y18660000D02*
X26365835Y18660000D01*
X26134165Y17940000D02*
X26365835Y17940000D01*
%TO.C,U3*%
X23160000Y19110000D02*
X22510000Y19110000D01*
X23160000Y11890000D02*
X22510000Y11890000D01*
X23160000Y18460000D02*
X23160000Y19110000D01*
X15940000Y12540000D02*
X15940000Y11890000D01*
X15940000Y18460000D02*
X15940000Y19110000D01*
X23160000Y12540000D02*
X23160000Y11890000D01*
X15940000Y19110000D02*
X16590000Y19110000D01*
%TO.C,C9*%
X12265835Y15410000D02*
X12034165Y15410000D01*
X12265835Y14690000D02*
X12034165Y14690000D01*
%TO.C,C1*%
X2804165Y21010000D02*
X3035835Y21010000D01*
X2804165Y21730000D02*
X3035835Y21730000D01*
%TO.C,SW1*%
X33850000Y27250000D02*
X37850000Y27250000D01*
X33850000Y30250000D02*
X37850000Y30250000D01*
%TO.C,R3*%
X37167621Y9170000D02*
X36832379Y9170000D01*
X37167621Y9930000D02*
X36832379Y9930000D01*
%TO.C,C12*%
X21410000Y21934165D02*
X21410000Y22165835D01*
X20690000Y21934165D02*
X20690000Y22165835D01*
%TO.C,C14*%
X26134165Y17610000D02*
X26365835Y17610000D01*
X26134165Y16890000D02*
X26365835Y16890000D01*
%TO.C,C13*%
X20910000Y9065835D02*
X20910000Y8834165D01*
X20190000Y9065835D02*
X20190000Y8834165D01*
%TO.C,C11*%
X16410000Y9465835D02*
X16410000Y9234165D01*
X15690000Y9465835D02*
X15690000Y9234165D01*
%TO.C,C10*%
X12965835Y18690000D02*
X12734165Y18690000D01*
X12965835Y19410000D02*
X12734165Y19410000D01*
%TO.C,R2*%
X3087621Y22850000D02*
X2752379Y22850000D01*
X3087621Y22090000D02*
X2752379Y22090000D01*
%TO.C,J1*%
X40785000Y10920000D02*
X39080000Y10920000D01*
X39080000Y20080000D02*
X40785000Y20080000D01*
X40785000Y20080000D02*
X40785000Y10920000D01*
X37070000Y20080000D02*
X35150000Y20080000D01*
X35150000Y10920000D02*
X37070000Y10920000D01*
%TO.C,R7*%
X13017621Y16670000D02*
X12682379Y16670000D01*
X13017621Y17430000D02*
X12682379Y17430000D01*
%TO.C,U1*%
X7020000Y18245000D02*
X6760000Y18245000D01*
D11*
X5480000Y13820000D02*
X4005000Y13820000D01*
D13*
X1570000Y15520000D02*
X1570000Y12795000D01*
D11*
X3080000Y17220000D02*
X5480000Y17220000D01*
D13*
X1830000Y12795000D02*
X1830000Y11120000D01*
X7020000Y15520000D02*
X7020000Y18245000D01*
D11*
X3080000Y14770000D02*
X3080000Y17220000D01*
D13*
X1570000Y12795000D02*
X1830000Y12795000D01*
X7020000Y15520000D02*
X7020000Y12795000D01*
X1570000Y15520000D02*
X1570000Y18245000D01*
X7020000Y12795000D02*
X6760000Y12795000D01*
X1570000Y18245000D02*
X1830000Y18245000D01*
D11*
X5480000Y17220000D02*
X5480000Y13820000D01*
D13*
%TO.C,C5*%
X28565835Y15690000D02*
X28334165Y15690000D01*
X28565835Y16410000D02*
X28334165Y16410000D01*
%TO.C,C8*%
X12965835Y18410000D02*
X12734165Y18410000D01*
X12965835Y17690000D02*
X12734165Y17690000D01*
%TO.C,J3*%
X8655000Y25595000D02*
X8655000Y28195000D01*
X6055000Y25595000D02*
X6055000Y26925000D01*
X6055000Y28195000D02*
X6055000Y30795000D01*
X31575000Y25595000D02*
X31575000Y30795000D01*
X8655000Y28195000D02*
X6055000Y28195000D01*
X6055000Y30795000D02*
X31575000Y30795000D01*
X8655000Y25595000D02*
X31575000Y25595000D01*
X7385000Y25595000D02*
X6055000Y25595000D01*
%TO.C,Y1*%
X30100000Y15350000D02*
X26800000Y15350000D01*
X30100000Y12550000D02*
X30100000Y15350000D01*
D14*
%TO.C,J4*%
X1431000Y3710000D02*
X2320000Y3710000D01*
X1431000Y4980000D02*
X2320000Y4980000D01*
X1431000Y4980000D02*
G75*
G03*
X1431000Y3710000I0J-635000D01*
G01*
D13*
%TO.C,R5*%
X37182379Y5630000D02*
X37517621Y5630000D01*
X37182379Y4870000D02*
X37517621Y4870000D01*
%TO.C,R1*%
X37567621Y25370000D02*
X37232379Y25370000D01*
X37567621Y26130000D02*
X37232379Y26130000D01*
%TO.C,kibuzzard-6203A47E*%
G36*
X35375393Y9334299D02*
G01*
X35375393Y3850465D01*
X33324607Y4465701D01*
X33324607Y5232331D01*
X33848350Y5232331D01*
X33849938Y5176769D01*
X33853906Y5110094D01*
X33861844Y5041037D01*
X33873750Y4978331D01*
X34842125Y4978331D01*
X34842125Y5173594D01*
X34480175Y5173594D01*
X34480175Y5275194D01*
X34570067Y5328970D01*
X34658769Y5379175D01*
X34748661Y5424617D01*
X34842125Y5464106D01*
X34842125Y5668894D01*
X34738144Y5623650D01*
X34628606Y5568881D01*
X34523831Y5510144D01*
X34432550Y5452994D01*
X34387703Y5522447D01*
X34326187Y5568881D01*
X34252369Y5595075D01*
X34170612Y5603806D01*
X34093420Y5597258D01*
X34026944Y5577612D01*
X33926137Y5502206D01*
X33891609Y5448231D01*
X33867400Y5384731D01*
X33853112Y5312500D01*
X33848350Y5232331D01*
X33324607Y5232331D01*
X33324607Y5786369D01*
X33859462Y5786369D01*
X34842125Y5786369D01*
X34842125Y6416606D01*
X34680200Y6416606D01*
X34680200Y5981631D01*
X34403975Y5981631D01*
X34403975Y6329294D01*
X34242050Y6329294D01*
X34242050Y5981631D01*
X34021387Y5981631D01*
X34021387Y6381681D01*
X33859462Y6381681D01*
X33859462Y5786369D01*
X33324607Y5786369D01*
X33324607Y6894444D01*
X33837237Y6894444D01*
X33845881Y6797165D01*
X33871810Y6714880D01*
X33915025Y6647588D01*
X34007894Y6580317D01*
X34130925Y6557894D01*
X34247606Y6583294D01*
X34326187Y6647588D01*
X34378575Y6734106D01*
X34415088Y6826181D01*
X34442869Y6892856D01*
X34476206Y6953181D01*
X34518275Y6997631D01*
X34572250Y7015094D01*
X34619081Y7007950D01*
X34660356Y6981756D01*
X34688931Y6930163D01*
X34699250Y6848406D01*
X34693694Y6769230D01*
X34677025Y6703150D01*
X34629400Y6600756D01*
X34788150Y6543606D01*
X34836569Y6653144D01*
X34856214Y6738472D01*
X34862763Y6848406D01*
X34854384Y6959796D01*
X34829249Y7050548D01*
X34787356Y7120663D01*
X34696273Y7187933D01*
X34573838Y7210356D01*
X34499820Y7203609D01*
X34439694Y7183369D01*
X34350794Y7114313D01*
X34293644Y7022238D01*
X34254750Y6926194D01*
X34230937Y6865075D01*
X34201569Y6809512D01*
X34163469Y6769031D01*
X34113462Y6753156D01*
X34050844Y6770442D01*
X34013274Y6822301D01*
X34000750Y6908731D01*
X34016625Y7020650D01*
X34054725Y7108756D01*
X33903912Y7165906D01*
X33857875Y7052400D01*
X33842397Y6979177D01*
X33837237Y6894444D01*
X33324607Y6894444D01*
X33324607Y7373869D01*
X33859462Y7373869D01*
X34842125Y7373869D01*
X34842125Y8004106D01*
X34680200Y8004106D01*
X34680200Y7569131D01*
X34403975Y7569131D01*
X34403975Y7916794D01*
X34242050Y7916794D01*
X34242050Y7569131D01*
X34021387Y7569131D01*
X34021387Y7969181D01*
X33859462Y7969181D01*
X33859462Y7373869D01*
X33324607Y7373869D01*
X33324607Y8821669D01*
X33859462Y8821669D01*
X33859462Y8107294D01*
X34021387Y8107294D01*
X34021387Y8366056D01*
X34842125Y8366056D01*
X34842125Y8562906D01*
X34021387Y8562906D01*
X34021387Y8821669D01*
X33859462Y8821669D01*
X33324607Y8821669D01*
X33324607Y9949535D01*
X35375393Y9334299D01*
G37*
G36*
X34279356Y5360919D02*
G01*
X34308527Y5302578D01*
X34318250Y5216456D01*
X34318250Y5173594D01*
X34022975Y5173594D01*
X34019006Y5205344D01*
X34018212Y5232331D01*
X34027341Y5302578D01*
X34054725Y5357744D01*
X34101556Y5393462D01*
X34169025Y5405369D01*
X34279356Y5360919D01*
G37*
%TO.C,R6*%
X13017621Y15670000D02*
X12682379Y15670000D01*
X13017621Y16430000D02*
X12682379Y16430000D01*
%TO.C,SW2*%
X33850000Y3750000D02*
X37850000Y3750000D01*
X33850000Y750000D02*
X37850000Y750000D01*
%TO.C,J2*%
X6055000Y5395000D02*
X31575000Y5395000D01*
X8655000Y2795000D02*
X6055000Y2795000D01*
X8655000Y195000D02*
X31575000Y195000D01*
X31575000Y195000D02*
X31575000Y5395000D01*
X7385000Y195000D02*
X6055000Y195000D01*
X8655000Y195000D02*
X8655000Y2795000D01*
X6055000Y2795000D02*
X6055000Y5395000D01*
X6055000Y195000D02*
X6055000Y1525000D01*
%TO.C,C4*%
X28565835Y12110000D02*
X28334165Y12110000D01*
X28565835Y11390000D02*
X28334165Y11390000D01*
%TO.C,C16*%
X15510000Y21734165D02*
X15510000Y21965835D01*
X14790000Y21734165D02*
X14790000Y21965835D01*
%TO.C,R4*%
X36832379Y21070000D02*
X37167621Y21070000D01*
X36832379Y21830000D02*
X37167621Y21830000D01*
%TO.C,C15*%
X14360000Y21734165D02*
X14360000Y21965835D01*
X13640000Y21734165D02*
X13640000Y21965835D01*
%TO.C,C6*%
X12265835Y13690000D02*
X12034165Y13690000D01*
X12265835Y14410000D02*
X12034165Y14410000D01*
%TO.C,R8*%
X25317621Y15330000D02*
X24982379Y15330000D01*
X25317621Y14570000D02*
X24982379Y14570000D01*
%TO.C,kibuzzard-6203A46A*%
G36*
X34369056Y24234292D02*
G01*
X34433350Y24230125D01*
X34542094Y24207900D01*
X34615913Y24160275D01*
X34642900Y24080106D01*
X34615913Y23999144D01*
X34542888Y23952312D01*
X34434144Y23930087D01*
X34369255Y23925920D01*
X34300000Y23924531D01*
X34230944Y23925920D01*
X34166650Y23930087D01*
X34057906Y23952312D01*
X33984087Y23999144D01*
X33957100Y24080106D01*
X33984087Y24161069D01*
X34057112Y24207900D01*
X34165856Y24230125D01*
X34230745Y24234292D01*
X34300000Y24235681D01*
X34369056Y24234292D01*
G37*
G36*
X34167444Y23359381D02*
G01*
X34199987Y23246669D01*
X34199987Y23170469D01*
X33974562Y23170469D01*
X33969800Y23213331D01*
X33968212Y23259369D01*
X33972181Y23311756D01*
X33988056Y23356206D01*
X34021394Y23386369D01*
X34077750Y23397481D01*
X34167444Y23359381D01*
G37*
G36*
X35325393Y26537424D02*
G01*
X35325393Y21847340D01*
X33274607Y22462576D01*
X33274607Y23229206D01*
X33798350Y23229206D01*
X33805494Y23097444D01*
X33822162Y22975206D01*
X34776250Y22975206D01*
X34788752Y23043866D01*
X34797681Y23113319D01*
X34803039Y23181978D01*
X34804825Y23248256D01*
X34801055Y23326639D01*
X34789744Y23399862D01*
X34769503Y23465744D01*
X34738944Y23522100D01*
X34643694Y23603856D01*
X34576820Y23626478D01*
X34495263Y23634019D01*
X34428588Y23625089D01*
X34365088Y23598300D01*
X34309525Y23546508D01*
X34266662Y23462569D01*
X34180937Y23553850D01*
X34122994Y23579448D01*
X34057112Y23587981D01*
X33965037Y23573694D01*
X33881694Y23519719D01*
X33821369Y23410181D01*
X33804105Y23330012D01*
X33798350Y23229206D01*
X33274607Y23229206D01*
X33274607Y24080106D01*
X33787237Y24080106D01*
X33801613Y23977095D01*
X33844740Y23890312D01*
X33916619Y23819756D01*
X33989098Y23778779D01*
X34077155Y23749509D01*
X34180789Y23731948D01*
X34300000Y23726094D01*
X34419211Y23731799D01*
X34522845Y23748914D01*
X34610902Y23777439D01*
X34683381Y23817375D01*
X34755260Y23887313D01*
X34798387Y23975419D01*
X34812763Y24081694D01*
X34798387Y24185410D01*
X34755260Y24272194D01*
X34683381Y24342044D01*
X34610902Y24382327D01*
X34522845Y24411100D01*
X34419211Y24428364D01*
X34300000Y24434119D01*
X34180789Y24428463D01*
X34077155Y24411497D01*
X33989098Y24383220D01*
X33916619Y24343631D01*
X33844740Y24274134D01*
X33801613Y24186292D01*
X33787237Y24080106D01*
X33274607Y24080106D01*
X33274607Y24873856D01*
X33787237Y24873856D01*
X33801613Y24770845D01*
X33844740Y24684062D01*
X33916619Y24613506D01*
X33989098Y24572529D01*
X34077155Y24543259D01*
X34180789Y24525698D01*
X34300000Y24519844D01*
X34419211Y24525549D01*
X34522845Y24542664D01*
X34610902Y24571189D01*
X34683381Y24611125D01*
X34755260Y24681063D01*
X34798387Y24769169D01*
X34812763Y24875444D01*
X34798387Y24979160D01*
X34755260Y25065944D01*
X34683381Y25135794D01*
X34610902Y25176077D01*
X34522845Y25204850D01*
X34419211Y25222114D01*
X34300000Y25227869D01*
X34180789Y25222213D01*
X34077155Y25205247D01*
X33989098Y25176970D01*
X33916619Y25137381D01*
X33844740Y25067884D01*
X33801613Y24980042D01*
X33787237Y24873856D01*
X33274607Y24873856D01*
X33274607Y25310419D01*
X33809462Y25310419D01*
X33971387Y25310419D01*
X33971387Y25569181D01*
X34792125Y25569181D01*
X34792125Y25766031D01*
X33971387Y25766031D01*
X33971387Y26024794D01*
X33809462Y26024794D01*
X33809462Y25310419D01*
X33274607Y25310419D01*
X33274607Y27152660D01*
X35325393Y26537424D01*
G37*
G36*
X34369056Y25028042D02*
G01*
X34433350Y25023875D01*
X34542094Y25001650D01*
X34615913Y24954025D01*
X34642900Y24873856D01*
X34615913Y24792894D01*
X34542888Y24746063D01*
X34434144Y24723838D01*
X34369255Y24719670D01*
X34300000Y24718281D01*
X34230944Y24719670D01*
X34166650Y24723838D01*
X34057906Y24746063D01*
X33984087Y24792894D01*
X33957100Y24873856D01*
X33984087Y24954819D01*
X34057112Y25001650D01*
X34165856Y25023875D01*
X34230745Y25028042D01*
X34300000Y25029431D01*
X34369056Y25028042D01*
G37*
G36*
X34565906Y23426056D02*
G01*
X34608769Y23385575D01*
X34629406Y23329219D01*
X34634963Y23264131D01*
X34633375Y23215712D01*
X34628613Y23170469D01*
X34361913Y23170469D01*
X34361913Y23275244D01*
X34392869Y23396687D01*
X34495263Y23441931D01*
X34565906Y23426056D01*
G37*
%TD*%
%LPC*%
D15*
%TO.C,C7*%
X25682500Y18300000D03*
X26817500Y18300000D03*
%TD*%
D16*
%TO.C,U3*%
X16950000Y12062500D03*
X17350000Y12062500D03*
X17750000Y12062500D03*
X18150000Y12062500D03*
X18550000Y12062500D03*
X18950000Y12062500D03*
X19350000Y12062500D03*
X19750000Y12062500D03*
X20150000Y12062500D03*
X20550000Y12062500D03*
X20950000Y12062500D03*
X21350000Y12062500D03*
X21750000Y12062500D03*
X22150000Y12062500D03*
D17*
X22987500Y12900000D03*
X22987500Y13300000D03*
X22987500Y13700000D03*
X22987500Y14100000D03*
X22987500Y14500000D03*
X22987500Y14900000D03*
X22987500Y15300000D03*
X22987500Y15700000D03*
X22987500Y16100000D03*
X22987500Y16500000D03*
X22987500Y16900000D03*
X22987500Y17300000D03*
X22987500Y17700000D03*
X22987500Y18100000D03*
D16*
X22150000Y18937500D03*
X21750000Y18937500D03*
X21350000Y18937500D03*
X20950000Y18937500D03*
X20550000Y18937500D03*
X20150000Y18937500D03*
X19750000Y18937500D03*
X19350000Y18937500D03*
X18950000Y18937500D03*
X18550000Y18937500D03*
X18150000Y18937500D03*
X17750000Y18937500D03*
X17350000Y18937500D03*
X16950000Y18937500D03*
D17*
X16112500Y18100000D03*
X16112500Y17700000D03*
X16112500Y17300000D03*
X16112500Y16900000D03*
X16112500Y16500000D03*
X16112500Y16100000D03*
X16112500Y15700000D03*
X16112500Y15300000D03*
X16112500Y14900000D03*
X16112500Y14500000D03*
X16112500Y14100000D03*
X16112500Y13700000D03*
X16112500Y13300000D03*
X16112500Y12900000D03*
D18*
X19550000Y15500000D03*
%TD*%
D19*
%TO.C,C9*%
X12717500Y15050000D03*
X11582500Y15050000D03*
%TD*%
D15*
%TO.C,C1*%
X2352500Y21370000D03*
X3487500Y21370000D03*
%TD*%
D20*
%TO.C,SW1*%
X33800000Y28750000D03*
X37900000Y28750000D03*
%TD*%
D21*
%TO.C,R3*%
X37597500Y9550000D03*
X36402500Y9550000D03*
%TD*%
D22*
%TO.C,C12*%
X21050000Y21482500D03*
X21050000Y22617500D03*
%TD*%
D15*
%TO.C,C14*%
X25682500Y17250000D03*
X26817500Y17250000D03*
%TD*%
D23*
%TO.C,C13*%
X20550000Y9517500D03*
X20550000Y8382500D03*
%TD*%
%TO.C,C11*%
X16050000Y9917500D03*
X16050000Y8782500D03*
%TD*%
D19*
%TO.C,C10*%
X13417500Y19050000D03*
X12282500Y19050000D03*
%TD*%
D21*
%TO.C,R2*%
X3517500Y22470000D03*
X2322500Y22470000D03*
%TD*%
D24*
%TO.C,J1*%
X34395000Y12610000D03*
X34395000Y18390000D03*
D25*
X33330000Y12150000D03*
X33330000Y12950000D03*
X33330000Y14250000D03*
X33330000Y15250000D03*
X33330000Y15750000D03*
X33330000Y16750000D03*
X33330000Y18050000D03*
X33330000Y18850000D03*
X33330000Y18550000D03*
X33330000Y17750000D03*
X33330000Y17250000D03*
X33330000Y16250000D03*
X33330000Y14750000D03*
X33330000Y13750000D03*
X33330000Y13250000D03*
X33330000Y12450000D03*
D26*
X38075000Y11180000D03*
X38075000Y19820000D03*
D27*
X33895000Y11180000D03*
X33895000Y19820000D03*
%TD*%
D21*
%TO.C,R7*%
X13447500Y17050000D03*
X12252500Y17050000D03*
%TD*%
D28*
%TO.C,U1*%
X3530000Y14320000D03*
D29*
X2390000Y11920000D03*
D28*
X4030000Y14320000D03*
D29*
X3660000Y11920000D03*
X4930000Y11920000D03*
D28*
X4530000Y14320000D03*
X5030000Y14320000D03*
D29*
X6200000Y11920000D03*
D28*
X5030000Y16720000D03*
D29*
X6200000Y19120000D03*
X4930000Y19120000D03*
D28*
X4530000Y16720000D03*
D29*
X3660000Y19120000D03*
D28*
X4030000Y16720000D03*
D29*
X2390000Y19120000D03*
D28*
X3530000Y16720000D03*
D30*
X4280000Y15520000D03*
%TD*%
D19*
%TO.C,C5*%
X29017500Y16050000D03*
X27882500Y16050000D03*
%TD*%
%TO.C,C8*%
X13417500Y18050000D03*
X12282500Y18050000D03*
%TD*%
D31*
%TO.C,J3*%
X7385000Y26925000D03*
D32*
X7385000Y29465000D03*
X9925000Y26925000D03*
X9925000Y29465000D03*
X12465000Y26925000D03*
X12465000Y29465000D03*
X15005000Y26925000D03*
X15005000Y29465000D03*
X17545000Y26925000D03*
X17545000Y29465000D03*
X20085000Y26925000D03*
X20085000Y29465000D03*
X22625000Y26925000D03*
X22625000Y29465000D03*
X25165000Y26925000D03*
X25165000Y29465000D03*
X27705000Y26925000D03*
X27705000Y29465000D03*
X30245000Y26925000D03*
X30245000Y29465000D03*
%TD*%
D33*
%TO.C,Y1*%
X29325000Y14650000D03*
X27575000Y14650000D03*
X27575000Y13250000D03*
X29325000Y13250000D03*
%TD*%
D34*
%TO.C,J4*%
X2955000Y8790000D03*
X2955000Y7520000D03*
X2955000Y6250000D03*
X2955000Y3710000D03*
X2955000Y4980000D03*
D35*
X1800000Y4345000D03*
X1800000Y5615000D03*
X1800000Y6885000D03*
X1800000Y8155000D03*
%TD*%
D36*
%TO.C,R5*%
X36752500Y5250000D03*
X37947500Y5250000D03*
%TD*%
D21*
%TO.C,R1*%
X37997500Y25750000D03*
X36802500Y25750000D03*
%TD*%
%TO.C,R6*%
X13447500Y16050000D03*
X12252500Y16050000D03*
%TD*%
D20*
%TO.C,SW2*%
X33800000Y2250000D03*
X37900000Y2250000D03*
%TD*%
D31*
%TO.C,J2*%
X7385000Y1525000D03*
D32*
X7385000Y4065000D03*
X9925000Y1525000D03*
X9925000Y4065000D03*
X12465000Y1525000D03*
X12465000Y4065000D03*
X15005000Y1525000D03*
X15005000Y4065000D03*
X17545000Y1525000D03*
X17545000Y4065000D03*
X20085000Y1525000D03*
X20085000Y4065000D03*
X22625000Y1525000D03*
X22625000Y4065000D03*
X25165000Y1525000D03*
X25165000Y4065000D03*
X27705000Y1525000D03*
X27705000Y4065000D03*
X30245000Y1525000D03*
X30245000Y4065000D03*
%TD*%
D19*
%TO.C,C4*%
X29017500Y11750000D03*
X27882500Y11750000D03*
%TD*%
D22*
%TO.C,C16*%
X15150000Y21282500D03*
X15150000Y22417500D03*
%TD*%
D36*
%TO.C,R4*%
X36402500Y21450000D03*
X37597500Y21450000D03*
%TD*%
D22*
%TO.C,C15*%
X14000000Y21282500D03*
X14000000Y22417500D03*
%TD*%
D19*
%TO.C,C6*%
X12717500Y14050000D03*
X11582500Y14050000D03*
%TD*%
D21*
%TO.C,R8*%
X25747500Y14950000D03*
X24552500Y14950000D03*
%TD*%
M02*
