%TF.GenerationSoftware,KiCad,Pcbnew,(6.0.1)*%
%TF.CreationDate,2022-02-16T12:37:22+01:00*%
%TF.ProjectId,rp2040,72703230-3430-42e6-9b69-6361645f7063,rev?*%
%TF.SameCoordinates,PX8917370PY699e930*%
%TF.FileFunction,Soldermask,Bot*%
%TF.FilePolarity,Negative*%
%FSLAX46Y46*%
G04 Gerber Fmt 4.6, Leading zero omitted, Abs format (unit mm)*
G04 Created by KiCad (PCBNEW (6.0.1)) date 2022-02-16 12:37:22*
%MOMM*%
%LPD*%
G01*
G04 APERTURE LIST*
G04 Aperture macros list*
%AMRoundRect*
0 Rectangle with rounded corners*
0 $1 Rounding radius*
0 $2 $3 $4 $5 $6 $7 $8 $9 X,Y pos of 4 corners*
0 Add a 4 corners polygon primitive as box body*
4,1,4,$2,$3,$4,$5,$6,$7,$8,$9,$2,$3,0*
0 Add four circle primitives for the rounded corners*
1,1,$1+$1,$2,$3*
1,1,$1+$1,$4,$5*
1,1,$1+$1,$6,$7*
1,1,$1+$1,$8,$9*
0 Add four rect primitives between the rounded corners*
20,1,$1+$1,$2,$3,$4,$5,0*
20,1,$1+$1,$4,$5,$6,$7,0*
20,1,$1+$1,$6,$7,$8,$9,0*
20,1,$1+$1,$8,$9,$2,$3,0*%
%AMFreePoly0*
4,1,9,3.862500,-0.866500,0.737500,-0.866500,0.737500,-0.450000,-0.737500,-0.450000,-0.737500,0.450000,0.737500,0.450000,0.737500,0.866500,3.862500,0.866500,3.862500,-0.866500,3.862500,-0.866500,$1*%
G04 Aperture macros list end*
%ADD10C,0.650000*%
%ADD11O,1.600000X1.000000*%
%ADD12O,2.100000X1.000000*%
%ADD13R,1.700000X1.700000*%
%ADD14O,1.700000X1.700000*%
%ADD15C,0.700000*%
%ADD16O,1.500000X0.800000*%
%ADD17RoundRect,0.237500X0.237500X-0.300000X0.237500X0.300000X-0.237500X0.300000X-0.237500X-0.300000X0*%
%ADD18RoundRect,0.237500X0.300000X0.237500X-0.300000X0.237500X-0.300000X-0.237500X0.300000X-0.237500X0*%
%ADD19R,1.300000X0.900000*%
%ADD20FreePoly0,180.000000*%
G04 APERTURE END LIST*
D10*
%TO.C,J1*%
X34395000Y12610000D03*
X34395000Y18390000D03*
D11*
X38075000Y11180000D03*
X38075000Y19820000D03*
D12*
X33895000Y11180000D03*
X33895000Y19820000D03*
%TD*%
D13*
%TO.C,J3*%
X7385000Y26925000D03*
D14*
X7385000Y29465000D03*
X9925000Y26925000D03*
X9925000Y29465000D03*
X12465000Y26925000D03*
X12465000Y29465000D03*
X15005000Y26925000D03*
X15005000Y29465000D03*
X17545000Y26925000D03*
X17545000Y29465000D03*
X20085000Y26925000D03*
X20085000Y29465000D03*
X22625000Y26925000D03*
X22625000Y29465000D03*
X25165000Y26925000D03*
X25165000Y29465000D03*
X27705000Y26925000D03*
X27705000Y29465000D03*
X30245000Y26925000D03*
X30245000Y29465000D03*
%TD*%
D15*
%TO.C,J4*%
X2955000Y8790000D03*
X2955000Y7520000D03*
X2955000Y6250000D03*
X2955000Y3710000D03*
X2955000Y4980000D03*
D16*
X1800000Y8155000D03*
X1800000Y6885000D03*
X1800000Y5615000D03*
X1800000Y4345000D03*
%TD*%
D13*
%TO.C,J2*%
X7385000Y1525000D03*
D14*
X7385000Y4065000D03*
X9925000Y1525000D03*
X9925000Y4065000D03*
X12465000Y1525000D03*
X12465000Y4065000D03*
X15005000Y1525000D03*
X15005000Y4065000D03*
X17545000Y1525000D03*
X17545000Y4065000D03*
X20085000Y1525000D03*
X20085000Y4065000D03*
X22625000Y1525000D03*
X22625000Y4065000D03*
X25165000Y1525000D03*
X25165000Y4065000D03*
X27705000Y1525000D03*
X27705000Y4065000D03*
X30245000Y1525000D03*
X30245000Y4065000D03*
%TD*%
D17*
%TO.C,C3*%
X25620000Y20395000D03*
X25620000Y22120000D03*
%TD*%
D18*
%TO.C,C2*%
X31412500Y16700000D03*
X29687500Y16700000D03*
%TD*%
D19*
%TO.C,U2*%
X31380000Y21880000D03*
D20*
X31292500Y20380000D03*
D19*
X31380000Y18880000D03*
%TD*%
M02*
