%TF.GenerationSoftware,KiCad,Pcbnew,(6.0.1)*%
%TF.CreationDate,2022-02-09T15:48:38+01:00*%
%TF.ProjectId,rp2040,72703230-3430-42e6-9b69-6361645f7063,rev?*%
%TF.SameCoordinates,PX8917370PY699e930*%
%TF.FileFunction,Legend,Bot*%
%TF.FilePolarity,Positive*%
%FSLAX46Y46*%
G04 Gerber Fmt 4.6, Leading zero omitted, Abs format (unit mm)*
G04 Created by KiCad (PCBNEW (6.0.1)) date 2022-02-09 15:48:38*
%MOMM*%
%LPD*%
G01*
G04 APERTURE LIST*
G04 Aperture macros list*
%AMRoundRect*
0 Rectangle with rounded corners*
0 $1 Rounding radius*
0 $2 $3 $4 $5 $6 $7 $8 $9 X,Y pos of 4 corners*
0 Add a 4 corners polygon primitive as box body*
4,1,4,$2,$3,$4,$5,$6,$7,$8,$9,$2,$3,0*
0 Add four circle primitives for the rounded corners*
1,1,$1+$1,$2,$3*
1,1,$1+$1,$4,$5*
1,1,$1+$1,$6,$7*
1,1,$1+$1,$8,$9*
0 Add four rect primitives between the rounded corners*
20,1,$1+$1,$2,$3,$4,$5,0*
20,1,$1+$1,$4,$5,$6,$7,0*
20,1,$1+$1,$6,$7,$8,$9,0*
20,1,$1+$1,$8,$9,$2,$3,0*%
G04 Aperture macros list end*
%ADD10C,0.150000*%
%ADD11C,0.120000*%
%ADD12C,0.650000*%
%ADD13O,1.600000X1.000000*%
%ADD14O,2.100000X1.000000*%
%ADD15R,1.700000X1.700000*%
%ADD16O,1.700000X1.700000*%
%ADD17C,0.700000*%
%ADD18O,1.500000X0.800000*%
%ADD19RoundRect,0.237500X0.237500X-0.300000X0.237500X0.300000X-0.237500X0.300000X-0.237500X-0.300000X0*%
%ADD20RoundRect,0.237500X0.300000X0.237500X-0.300000X0.237500X-0.300000X-0.237500X0.300000X-0.237500X0*%
%ADD21R,2.000000X1.500000*%
%ADD22R,2.000000X3.800000*%
G04 APERTURE END LIST*
D10*
%TO.C,C3*%
X22835714Y24683334D02*
X22873809Y24721429D01*
X22911904Y24835715D01*
X22911904Y24911905D01*
X22873809Y25026191D01*
X22797619Y25102381D01*
X22721428Y25140477D01*
X22569047Y25178572D01*
X22454761Y25178572D01*
X22302380Y25140477D01*
X22226190Y25102381D01*
X22150000Y25026191D01*
X22111904Y24911905D01*
X22111904Y24835715D01*
X22150000Y24721429D01*
X22188095Y24683334D01*
X22111904Y24416667D02*
X22111904Y23921429D01*
X22416666Y24188096D01*
X22416666Y24073810D01*
X22454761Y23997620D01*
X22492857Y23959524D01*
X22569047Y23921429D01*
X22759523Y23921429D01*
X22835714Y23959524D01*
X22873809Y23997620D01*
X22911904Y24073810D01*
X22911904Y24302381D01*
X22873809Y24378572D01*
X22835714Y24416667D01*
%TO.C,C2*%
X28433333Y16414286D02*
X28471428Y16376191D01*
X28585714Y16338096D01*
X28661904Y16338096D01*
X28776190Y16376191D01*
X28852380Y16452381D01*
X28890476Y16528572D01*
X28928571Y16680953D01*
X28928571Y16795239D01*
X28890476Y16947620D01*
X28852380Y17023810D01*
X28776190Y17100000D01*
X28661904Y17138096D01*
X28585714Y17138096D01*
X28471428Y17100000D01*
X28433333Y17061905D01*
X28128571Y17061905D02*
X28090476Y17100000D01*
X28014285Y17138096D01*
X27823809Y17138096D01*
X27747619Y17100000D01*
X27709523Y17061905D01*
X27671428Y16985715D01*
X27671428Y16909524D01*
X27709523Y16795239D01*
X28166666Y16338096D01*
X27671428Y16338096D01*
%TO.C,U2*%
X33659523Y21738096D02*
X33659523Y21090477D01*
X33621428Y21014286D01*
X33583333Y20976191D01*
X33507142Y20938096D01*
X33354761Y20938096D01*
X33278571Y20976191D01*
X33240476Y21014286D01*
X33202380Y21090477D01*
X33202380Y21738096D01*
X32859523Y21661905D02*
X32821428Y21700000D01*
X32745238Y21738096D01*
X32554761Y21738096D01*
X32478571Y21700000D01*
X32440476Y21661905D01*
X32402380Y21585715D01*
X32402380Y21509524D01*
X32440476Y21395239D01*
X32897619Y20938096D01*
X32402380Y20938096D01*
D11*
%TO.C,C3*%
X23060000Y21903733D02*
X23060000Y22196267D01*
X22040000Y21903733D02*
X22040000Y22196267D01*
%TO.C,C2*%
X30696267Y17210000D02*
X30403733Y17210000D01*
X30696267Y16190000D02*
X30403733Y16190000D01*
%TO.C,U2*%
X25890000Y24710000D02*
X25890000Y23450000D01*
X25890000Y17890000D02*
X25890000Y19150000D01*
X31900000Y24710000D02*
X25890000Y24710000D01*
X29650000Y17890000D02*
X25890000Y17890000D01*
%TD*%
%LPC*%
D12*
%TO.C,J1*%
X34395000Y12610000D03*
X34395000Y18390000D03*
D13*
X38075000Y11180000D03*
X38075000Y19820000D03*
D14*
X33895000Y11180000D03*
X33895000Y19820000D03*
%TD*%
D15*
%TO.C,J3*%
X7385000Y26925000D03*
D16*
X7385000Y29465000D03*
X9925000Y26925000D03*
X9925000Y29465000D03*
X12465000Y26925000D03*
X12465000Y29465000D03*
X15005000Y26925000D03*
X15005000Y29465000D03*
X17545000Y26925000D03*
X17545000Y29465000D03*
X20085000Y26925000D03*
X20085000Y29465000D03*
X22625000Y26925000D03*
X22625000Y29465000D03*
X25165000Y26925000D03*
X25165000Y29465000D03*
X27705000Y26925000D03*
X27705000Y29465000D03*
X30245000Y26925000D03*
X30245000Y29465000D03*
%TD*%
D17*
%TO.C,J4*%
X2955000Y8790000D03*
X2955000Y7520000D03*
X2955000Y6250000D03*
X2955000Y3710000D03*
X2955000Y4980000D03*
D18*
X1800000Y8155000D03*
X1800000Y6885000D03*
X1800000Y5615000D03*
X1800000Y4345000D03*
%TD*%
D15*
%TO.C,J2*%
X7385000Y1525000D03*
D16*
X7385000Y4065000D03*
X9925000Y1525000D03*
X9925000Y4065000D03*
X12465000Y1525000D03*
X12465000Y4065000D03*
X15005000Y1525000D03*
X15005000Y4065000D03*
X17545000Y1525000D03*
X17545000Y4065000D03*
X20085000Y1525000D03*
X20085000Y4065000D03*
X22625000Y1525000D03*
X22625000Y4065000D03*
X25165000Y1525000D03*
X25165000Y4065000D03*
X27705000Y1525000D03*
X27705000Y4065000D03*
X30245000Y1525000D03*
X30245000Y4065000D03*
%TD*%
D19*
%TO.C,C3*%
X22550000Y21187500D03*
X22550000Y22912500D03*
%TD*%
D20*
%TO.C,C2*%
X31412500Y16700000D03*
X29687500Y16700000D03*
%TD*%
D21*
%TO.C,U2*%
X30950000Y23600000D03*
X30950000Y21300000D03*
D22*
X24650000Y21300000D03*
D21*
X30950000Y19000000D03*
%TD*%
M02*
