%TF.GenerationSoftware,KiCad,Pcbnew,(6.0.1)*%
%TF.CreationDate,2022-02-16T12:37:22+01:00*%
%TF.ProjectId,rp2040,72703230-3430-42e6-9b69-6361645f7063,rev?*%
%TF.SameCoordinates,PX8917370PY699e930*%
%TF.FileFunction,Copper,L2,Bot*%
%TF.FilePolarity,Positive*%
%FSLAX46Y46*%
G04 Gerber Fmt 4.6, Leading zero omitted, Abs format (unit mm)*
G04 Created by KiCad (PCBNEW (6.0.1)) date 2022-02-16 12:37:22*
%MOMM*%
%LPD*%
G01*
G04 APERTURE LIST*
G04 Aperture macros list*
%AMRoundRect*
0 Rectangle with rounded corners*
0 $1 Rounding radius*
0 $2 $3 $4 $5 $6 $7 $8 $9 X,Y pos of 4 corners*
0 Add a 4 corners polygon primitive as box body*
4,1,4,$2,$3,$4,$5,$6,$7,$8,$9,$2,$3,0*
0 Add four circle primitives for the rounded corners*
1,1,$1+$1,$2,$3*
1,1,$1+$1,$4,$5*
1,1,$1+$1,$6,$7*
1,1,$1+$1,$8,$9*
0 Add four rect primitives between the rounded corners*
20,1,$1+$1,$2,$3,$4,$5,0*
20,1,$1+$1,$4,$5,$6,$7,0*
20,1,$1+$1,$6,$7,$8,$9,0*
20,1,$1+$1,$8,$9,$2,$3,0*%
%AMFreePoly0*
4,1,9,3.862500,-0.866500,0.737500,-0.866500,0.737500,-0.450000,-0.737500,-0.450000,-0.737500,0.450000,0.737500,0.450000,0.737500,0.866500,3.862500,0.866500,3.862500,-0.866500,3.862500,-0.866500,$1*%
G04 Aperture macros list end*
%TA.AperFunction,ComponentPad*%
%ADD10C,0.600000*%
%TD*%
%TA.AperFunction,ComponentPad*%
%ADD11O,1.600000X1.000000*%
%TD*%
%TA.AperFunction,ComponentPad*%
%ADD12O,2.100000X1.000000*%
%TD*%
%TA.AperFunction,ComponentPad*%
%ADD13R,1.700000X1.700000*%
%TD*%
%TA.AperFunction,ComponentPad*%
%ADD14O,1.700000X1.700000*%
%TD*%
%TA.AperFunction,SMDPad,CuDef*%
%ADD15O,1.500000X0.800000*%
%TD*%
%TA.AperFunction,SMDPad,CuDef*%
%ADD16RoundRect,0.237500X0.237500X-0.300000X0.237500X0.300000X-0.237500X0.300000X-0.237500X-0.300000X0*%
%TD*%
%TA.AperFunction,SMDPad,CuDef*%
%ADD17RoundRect,0.237500X0.300000X0.237500X-0.300000X0.237500X-0.300000X-0.237500X0.300000X-0.237500X0*%
%TD*%
%TA.AperFunction,SMDPad,CuDef*%
%ADD18R,1.300000X0.900000*%
%TD*%
%TA.AperFunction,SMDPad,CuDef*%
%ADD19FreePoly0,180.000000*%
%TD*%
%TA.AperFunction,ViaPad*%
%ADD20C,0.400000*%
%TD*%
%TA.AperFunction,Conductor*%
%ADD21C,0.400000*%
%TD*%
%TA.AperFunction,Conductor*%
%ADD22C,0.200000*%
%TD*%
%TA.AperFunction,Conductor*%
%ADD23C,0.150000*%
%TD*%
G04 APERTURE END LIST*
D10*
%TO.P,U3,57,GND*%
%TO.N,GND*%
X19550000Y14225000D03*
X18275000Y14225000D03*
X18275000Y15500000D03*
X20825000Y15500000D03*
X19550000Y16775000D03*
X18275000Y16775000D03*
X19550000Y15500000D03*
X20825000Y14225000D03*
X20825000Y16775000D03*
%TD*%
D11*
%TO.P,J1,S1,SHIELD*%
%TO.N,GND*%
X38075000Y11180000D03*
X38075000Y19820000D03*
D12*
X33895000Y11180000D03*
X33895000Y19820000D03*
%TD*%
D13*
%TO.P,J3,1,Pin_1*%
%TO.N,/GPIO0*%
X7385000Y26925000D03*
D14*
%TO.P,J3,2,Pin_2*%
%TO.N,GND*%
X7385000Y29465000D03*
%TO.P,J3,3,Pin_3*%
%TO.N,/GPIO1*%
X9925000Y26925000D03*
%TO.P,J3,4,Pin_4*%
%TO.N,/GPIO29*%
X9925000Y29465000D03*
%TO.P,J3,5,Pin_5*%
%TO.N,/GPIO28*%
X12465000Y26925000D03*
%TO.P,J3,6,Pin_6*%
%TO.N,/GPIO27*%
X12465000Y29465000D03*
%TO.P,J3,7,Pin_7*%
%TO.N,/GPIO26*%
X15005000Y26925000D03*
%TO.P,J3,8,Pin_8*%
%TO.N,/GPIO25*%
X15005000Y29465000D03*
%TO.P,J3,9,Pin_9*%
%TO.N,/GPIO24*%
X17545000Y26925000D03*
%TO.P,J3,10,Pin_10*%
%TO.N,/GPIO23*%
X17545000Y29465000D03*
%TO.P,J3,11,Pin_11*%
%TO.N,/GPIO22*%
X20085000Y26925000D03*
%TO.P,J3,12,Pin_12*%
%TO.N,/GPIO21*%
X20085000Y29465000D03*
%TO.P,J3,13,Pin_13*%
%TO.N,GND*%
X22625000Y26925000D03*
%TO.P,J3,14,Pin_14*%
%TO.N,/GPIO20*%
X22625000Y29465000D03*
%TO.P,J3,15,Pin_15*%
%TO.N,VBUS*%
X25165000Y26925000D03*
%TO.P,J3,16,Pin_16*%
%TO.N,/GPIO19*%
X25165000Y29465000D03*
%TO.P,J3,17,Pin_17*%
%TO.N,VBUS*%
X27705000Y26925000D03*
%TO.P,J3,18,Pin_18*%
%TO.N,/GPIO18*%
X27705000Y29465000D03*
%TO.P,J3,19,Pin_19*%
%TO.N,/GPIO17*%
X30245000Y26925000D03*
%TO.P,J3,20,Pin_20*%
%TO.N,/GPIO16*%
X30245000Y29465000D03*
%TD*%
D15*
%TO.P,J4,5,Pin_5*%
%TO.N,/SWD*%
X1800000Y8155000D03*
%TO.P,J4,6,Pin_6*%
%TO.N,/SWCLK*%
X1800000Y6885000D03*
%TO.P,J4,7,Pin_7*%
%TO.N,unconnected-(J4-Pad7)*%
X1800000Y5615000D03*
%TO.P,J4,8,Pin_8*%
%TO.N,/RUN*%
X1800000Y4345000D03*
%TD*%
D13*
%TO.P,J2,1,Pin_1*%
%TO.N,GND*%
X7385000Y1525000D03*
D14*
%TO.P,J2,2,Pin_2*%
%TO.N,/RUN*%
X7385000Y4065000D03*
%TO.P,J2,3,Pin_3*%
%TO.N,/GPIO2*%
X9925000Y1525000D03*
%TO.P,J2,4,Pin_4*%
%TO.N,/GPIO3*%
X9925000Y4065000D03*
%TO.P,J2,5,Pin_5*%
%TO.N,/GPIO4*%
X12465000Y1525000D03*
%TO.P,J2,6,Pin_6*%
%TO.N,/GPIO5*%
X12465000Y4065000D03*
%TO.P,J2,7,Pin_7*%
%TO.N,/GPIO6*%
X15005000Y1525000D03*
%TO.P,J2,8,Pin_8*%
%TO.N,/GPIO7*%
X15005000Y4065000D03*
%TO.P,J2,9,Pin_9*%
%TO.N,/GPIO8*%
X17545000Y1525000D03*
%TO.P,J2,10,Pin_10*%
%TO.N,/GPIO9*%
X17545000Y4065000D03*
%TO.P,J2,11,Pin_11*%
%TO.N,/GPIO10*%
X20085000Y1525000D03*
%TO.P,J2,12,Pin_12*%
%TO.N,/GPIO11*%
X20085000Y4065000D03*
%TO.P,J2,13,Pin_13*%
%TO.N,/GPIO12*%
X22625000Y1525000D03*
%TO.P,J2,14,Pin_14*%
%TO.N,/GPIO13*%
X22625000Y4065000D03*
%TO.P,J2,15,Pin_15*%
%TO.N,/GPIO14*%
X25165000Y1525000D03*
%TO.P,J2,16,Pin_16*%
%TO.N,+3V3*%
X25165000Y4065000D03*
%TO.P,J2,17,Pin_17*%
%TO.N,/GPIO15*%
X27705000Y1525000D03*
%TO.P,J2,18,Pin_18*%
%TO.N,+3V3*%
X27705000Y4065000D03*
%TO.P,J2,19,Pin_19*%
%TO.N,GND*%
X30245000Y1525000D03*
%TO.P,J2,20,Pin_20*%
X30245000Y4065000D03*
%TD*%
D16*
%TO.P,C3,1*%
%TO.N,+3V3*%
X25620000Y20395000D03*
%TO.P,C3,2*%
%TO.N,GND*%
X25620000Y22120000D03*
%TD*%
D17*
%TO.P,C2,1*%
%TO.N,VBUS*%
X31412500Y16700000D03*
%TO.P,C2,2*%
%TO.N,GND*%
X29687500Y16700000D03*
%TD*%
D18*
%TO.P,U2,1,GND*%
%TO.N,GND*%
X31380000Y21880000D03*
D19*
%TO.P,U2,2,VO*%
%TO.N,+3V3*%
X31292500Y20380000D03*
D18*
%TO.P,U2,3,VI*%
%TO.N,VBUS*%
X31380000Y18880000D03*
%TD*%
D20*
%TO.N,+3V3*%
X21750000Y21200000D03*
X25682500Y16532500D03*
X16050000Y21200000D03*
X17350000Y13100000D03*
X20550000Y13100000D03*
X35800000Y5250000D03*
X14600000Y18950000D03*
X14650000Y15700000D03*
%TO.N,GND*%
X28750000Y30500000D03*
X750000Y7750000D03*
X4850000Y23550000D03*
X38750000Y25500000D03*
X750000Y27750000D03*
X24950000Y23800000D03*
X15850000Y21950000D03*
X8650000Y17750000D03*
X8750000Y500000D03*
X33750000Y30500000D03*
X6250000Y29550000D03*
X28250000Y8550000D03*
X29050000Y11150000D03*
X23250000Y25950000D03*
X38750000Y21000000D03*
X13750000Y30500000D03*
X8700000Y23550000D03*
X6850000Y11950000D03*
X12450000Y20300000D03*
X38750000Y500000D03*
X37090000Y14030000D03*
X35390000Y15990000D03*
X3750000Y30500000D03*
X30250000Y6750000D03*
X23350000Y8600000D03*
X750000Y22750000D03*
X26650000Y15350000D03*
X28750000Y500000D03*
X8750000Y30500000D03*
X20450000Y7400000D03*
X33750000Y500000D03*
X23750000Y500000D03*
X17000000Y9850000D03*
X13650000Y23550000D03*
X38750000Y10500000D03*
X38750000Y5500000D03*
X23750000Y30500000D03*
X30950000Y22450000D03*
X750000Y17750000D03*
X16050000Y19950000D03*
X8650000Y14150000D03*
X18750000Y500000D03*
X21050000Y23600000D03*
X750000Y12750000D03*
X750000Y2750000D03*
X38750000Y16000000D03*
X30250000Y12750000D03*
X13750000Y500000D03*
X11200000Y16050000D03*
X4640000Y21820000D03*
X32050000Y8550000D03*
X37080000Y17910000D03*
X5100000Y3950000D03*
X38750000Y30500000D03*
X3750000Y500000D03*
X18750000Y30500000D03*
X25830000Y6470000D03*
%TO.N,VBUS*%
X31450000Y13950000D03*
X32250000Y17750000D03*
%TO.N,/USB_D+*%
X10875000Y20450000D03*
X29279810Y22429810D03*
%TO.N,/USB_D-*%
X28820190Y21970190D03*
X11525000Y20450000D03*
%TO.N,/GPIO0*%
X8150000Y9300000D03*
X17050000Y11000000D03*
%TO.N,/GPIO1*%
X6650000Y8750000D03*
X17510000Y10510000D03*
%TO.N,/QSPI_SS*%
X2275489Y28024511D03*
X35700000Y25700000D03*
%TO.N,/SWD*%
X22000000Y17350000D03*
%TO.N,/RUN*%
X24280000Y17300000D03*
X35800000Y2600000D03*
%TO.N,/SWCLK*%
X23950000Y16800000D03*
%TD*%
D21*
%TO.N,+3V3*%
X14600000Y19750000D02*
X14600000Y18950000D01*
X25682500Y7482500D02*
X25165000Y6965000D01*
X21762500Y21187500D02*
X21750000Y21200000D01*
X21750000Y21200000D02*
X16050000Y21200000D01*
X25682500Y16532500D02*
X25682500Y7482500D01*
X16050000Y21200000D02*
X14600000Y19750000D01*
X31292500Y20380000D02*
X25635000Y20380000D01*
X25165000Y6965000D02*
X25165000Y4065000D01*
X14650000Y18900000D02*
X14600000Y18950000D01*
X20550000Y13100000D02*
X17350000Y13100000D01*
X25620000Y20395000D02*
X24345000Y20395000D01*
D22*
X35800000Y5250000D02*
X28890000Y5250000D01*
D21*
X25682500Y16532500D02*
X25682500Y20332500D01*
D22*
X28890000Y5250000D02*
X27705000Y4065000D01*
D21*
X14650000Y15700000D02*
X14750000Y15700000D01*
X25682500Y20332500D02*
X25620000Y20395000D01*
X14750000Y15700000D02*
X17350000Y13100000D01*
X25165000Y4065000D02*
X27705000Y4065000D01*
X23552500Y21187500D02*
X21762500Y21187500D01*
X24345000Y20395000D02*
X23552500Y21187500D01*
X14650000Y15700000D02*
X14650000Y18900000D01*
X25635000Y20380000D02*
X25620000Y20395000D01*
%TO.N,VBUS*%
X31450000Y13950000D02*
X31450000Y16662500D01*
X29430000Y25200000D02*
X27705000Y26925000D01*
X31450000Y16662500D02*
X31412500Y16700000D01*
X31380000Y18880000D02*
X31699022Y18880000D01*
X32485480Y20185480D02*
X32650000Y20350000D01*
X32250000Y16800000D02*
X32150000Y16700000D01*
X31412500Y18847500D02*
X31380000Y18880000D01*
X32150000Y25200000D02*
X29430000Y25200000D01*
X32650000Y20350000D02*
X32650000Y24700000D01*
X27705000Y26925000D02*
X25165000Y26925000D01*
X32650000Y24700000D02*
X32150000Y25200000D01*
X31412500Y16700000D02*
X31412500Y18847500D01*
X32250000Y17750000D02*
X32250000Y16800000D01*
X32485480Y19666458D02*
X32485480Y20185480D01*
X32150000Y16700000D02*
X31412500Y16700000D01*
X31699022Y18880000D02*
X32485480Y19666458D01*
D22*
%TO.N,/USB_D+*%
X29138389Y22429810D02*
X29279810Y22429810D01*
X10875000Y20450000D02*
X10974999Y20549999D01*
X13556800Y24875000D02*
X26693199Y24875000D01*
X26693199Y24875000D02*
X29138389Y22429810D01*
X10974999Y20549999D02*
X10974999Y22293199D01*
X10974999Y22293199D02*
X13556800Y24875000D01*
%TO.N,/USB_D-*%
X28820190Y22111611D02*
X28820190Y21970190D01*
X13743200Y24425000D02*
X26506801Y24425000D01*
X26506801Y24425000D02*
X28820190Y22111611D01*
X11525000Y20450000D02*
X11425001Y20549999D01*
X11425001Y20549999D02*
X11425001Y22106801D01*
X11425001Y22106801D02*
X13743200Y24425000D01*
%TO.N,/GPIO0*%
X17050000Y11000000D02*
X10600000Y11000000D01*
X7385000Y14215000D02*
X7385000Y26925000D01*
X10200000Y11350000D02*
X10250000Y11350000D01*
X10250000Y11350000D02*
X7385000Y14215000D01*
X10600000Y11000000D02*
X10250000Y11350000D01*
X8150000Y9300000D02*
X10200000Y11350000D01*
%TO.N,/GPIO1*%
X8700000Y8750000D02*
X9800000Y9850000D01*
X17400000Y10400000D02*
X17510000Y10510000D01*
X11750000Y11750000D02*
X9925000Y13575000D01*
X9800000Y9850000D02*
X14950000Y9850000D01*
X14950000Y9850000D02*
X15500000Y10400000D01*
X9925000Y13575000D02*
X9925000Y26925000D01*
X15500000Y10400000D02*
X17400000Y10400000D01*
X17600000Y10600000D02*
X17600000Y11200000D01*
X17600000Y11200000D02*
X17050000Y11750000D01*
X17510000Y10510000D02*
X17600000Y10600000D01*
X17050000Y11750000D02*
X11750000Y11750000D01*
X6650000Y8750000D02*
X8700000Y8750000D01*
%TO.N,/QSPI_SS*%
X2275489Y28024511D02*
X2440978Y28190000D01*
X2440978Y28190000D02*
X33210000Y28190000D01*
X33210000Y28190000D02*
X35700000Y25700000D01*
%TO.N,/SWD*%
X22000000Y17350000D02*
X22000000Y13100000D01*
X10200000Y9300000D02*
X9055000Y8155000D01*
X9055000Y8155000D02*
X3595000Y8155000D01*
X22000000Y13100000D02*
X18200000Y9300000D01*
D23*
X1800000Y8155000D02*
X3595000Y8155000D01*
D22*
X18200000Y9300000D02*
X10200000Y9300000D01*
%TO.N,/RUN*%
X19350000Y8300000D02*
X11620000Y8300000D01*
X35590000Y2810000D02*
X35800000Y2600000D01*
X1800000Y3450000D02*
X2250000Y3000000D01*
X11620000Y8300000D02*
X7385000Y4065000D01*
X24490000Y17090000D02*
X24490000Y13440000D01*
X1800000Y4345000D02*
X1800000Y3450000D01*
X7385000Y4065000D02*
X8640000Y2810000D01*
X8640000Y2810000D02*
X35590000Y2810000D01*
X2250000Y3000000D02*
X6320000Y3000000D01*
X24490000Y13440000D02*
X19350000Y8300000D01*
X24280000Y17300000D02*
X24490000Y17090000D01*
X6320000Y3000000D02*
X7385000Y4065000D01*
%TO.N,/SWCLK*%
X8835000Y6885000D02*
X3585000Y6885000D01*
X10750000Y8800000D02*
X8835000Y6885000D01*
D23*
X1800000Y6885000D02*
X3585000Y6885000D01*
D22*
X19100000Y8800000D02*
X10750000Y8800000D01*
X23950000Y16800000D02*
X23950000Y13650000D01*
X23950000Y13650000D02*
X19100000Y8800000D01*
%TD*%
%TA.AperFunction,Conductor*%
%TO.N,GND*%
G36*
X38973566Y30832687D02*
G01*
X38998876Y30788850D01*
X39000000Y30776000D01*
X39000000Y20295761D01*
X38982687Y20248195D01*
X38938850Y20222885D01*
X38889000Y20231675D01*
X38875344Y20241817D01*
X38763488Y20346856D01*
X38756022Y20352280D01*
X38620259Y20426917D01*
X38611676Y20430315D01*
X38461621Y20468843D01*
X38452462Y20470000D01*
X38163048Y20470000D01*
X38153052Y20466362D01*
X38150000Y20461075D01*
X38150000Y19183048D01*
X38153638Y19173052D01*
X38158925Y19170000D01*
X38413563Y19170000D01*
X38418211Y19170293D01*
X38533312Y19184833D01*
X38542264Y19187132D01*
X38686298Y19244159D01*
X38694397Y19248612D01*
X38819724Y19339668D01*
X38826460Y19345993D01*
X38868982Y19397393D01*
X38912642Y19423008D01*
X38962552Y19414567D01*
X38995359Y19376018D01*
X39000000Y19350224D01*
X39000000Y11655761D01*
X38982687Y11608195D01*
X38938850Y11582885D01*
X38889000Y11591675D01*
X38875344Y11601817D01*
X38763488Y11706856D01*
X38756022Y11712280D01*
X38620259Y11786917D01*
X38611676Y11790315D01*
X38461621Y11828843D01*
X38452462Y11830000D01*
X38163048Y11830000D01*
X38153052Y11826362D01*
X38150000Y11821075D01*
X38150000Y10543048D01*
X38153638Y10533052D01*
X38158925Y10530000D01*
X38413563Y10530000D01*
X38418211Y10530293D01*
X38533312Y10544833D01*
X38542264Y10547132D01*
X38686298Y10604159D01*
X38694397Y10608612D01*
X38819724Y10699668D01*
X38826460Y10705993D01*
X38868982Y10757393D01*
X38912642Y10783008D01*
X38962552Y10774567D01*
X38995359Y10736018D01*
X39000000Y10710224D01*
X39000000Y224000D01*
X38982687Y176434D01*
X38938850Y151124D01*
X38926000Y150000D01*
X2842784Y150000D01*
X2795218Y167313D01*
X2790458Y171674D01*
X2298265Y663867D01*
X6385001Y663867D01*
X6385712Y656653D01*
X6392281Y623622D01*
X6397752Y610413D01*
X6422807Y572916D01*
X6432916Y562807D01*
X6470415Y537751D01*
X6483620Y532281D01*
X6516655Y525710D01*
X6523865Y525000D01*
X7296952Y525000D01*
X7306948Y528638D01*
X7310000Y533925D01*
X7310000Y538049D01*
X7460000Y538049D01*
X7463638Y528053D01*
X7468925Y525001D01*
X8246133Y525001D01*
X8253347Y525712D01*
X8286378Y532281D01*
X8299587Y537752D01*
X8337084Y562807D01*
X8347193Y572916D01*
X8372249Y610415D01*
X8377719Y623620D01*
X8384290Y656655D01*
X8385000Y663865D01*
X8385000Y1436952D01*
X8381362Y1446948D01*
X8376075Y1450000D01*
X7473048Y1450000D01*
X7463052Y1446362D01*
X7460000Y1441075D01*
X7460000Y538049D01*
X7310000Y538049D01*
X7310000Y1436952D01*
X7306362Y1446948D01*
X7301075Y1450000D01*
X6398049Y1450000D01*
X6388053Y1446362D01*
X6385001Y1441075D01*
X6385001Y663867D01*
X2298265Y663867D01*
X1349084Y1613048D01*
X6385000Y1613048D01*
X6388638Y1603052D01*
X6393925Y1600000D01*
X7296952Y1600000D01*
X7306948Y1603638D01*
X7310000Y1608925D01*
X7310000Y1613048D01*
X7460000Y1613048D01*
X7463638Y1603052D01*
X7468925Y1600000D01*
X8371951Y1600000D01*
X8381947Y1603638D01*
X8384999Y1608925D01*
X8384999Y2386133D01*
X8384288Y2393347D01*
X8377719Y2426378D01*
X8372248Y2439587D01*
X8347193Y2477084D01*
X8337084Y2487193D01*
X8299585Y2512249D01*
X8286380Y2517719D01*
X8253345Y2524290D01*
X8246135Y2525000D01*
X7473048Y2525000D01*
X7463052Y2521362D01*
X7460000Y2516075D01*
X7460000Y1613048D01*
X7310000Y1613048D01*
X7310000Y2511951D01*
X7306362Y2521947D01*
X7301075Y2524999D01*
X6523867Y2524999D01*
X6516653Y2524288D01*
X6483622Y2517719D01*
X6470413Y2512248D01*
X6432916Y2487193D01*
X6422807Y2477084D01*
X6397751Y2439585D01*
X6392281Y2426380D01*
X6385710Y2393345D01*
X6385000Y2386135D01*
X6385000Y1613048D01*
X1349084Y1613048D01*
X321674Y2640458D01*
X300282Y2686334D01*
X300000Y2692784D01*
X300000Y4345000D01*
X884663Y4345000D01*
X885296Y4340192D01*
X901781Y4214976D01*
X903926Y4198680D01*
X960404Y4062332D01*
X963354Y4058487D01*
X963356Y4058484D01*
X1017880Y3987427D01*
X1050246Y3945246D01*
X1054097Y3942291D01*
X1163484Y3858356D01*
X1163487Y3858354D01*
X1167332Y3855404D01*
X1303680Y3798926D01*
X1308482Y3798294D01*
X1308485Y3798293D01*
X1388299Y3787786D01*
X1413259Y3784500D01*
X1465500Y3784500D01*
X1513066Y3767187D01*
X1538376Y3723350D01*
X1539500Y3710500D01*
X1539500Y3482942D01*
X1538078Y3468506D01*
X1534397Y3450000D01*
X1535819Y3442851D01*
X1539500Y3424346D01*
X1550012Y3371500D01*
X1554615Y3348358D01*
X1612190Y3262190D01*
X1618250Y3258141D01*
X1627882Y3251705D01*
X1639096Y3242502D01*
X2042502Y2839096D01*
X2051705Y2827882D01*
X2062190Y2812190D01*
X2131228Y2766061D01*
X2148358Y2754615D01*
X2155503Y2753194D01*
X2155505Y2753193D01*
X2242851Y2735819D01*
X2250000Y2734397D01*
X2268506Y2738078D01*
X2282942Y2739500D01*
X6287058Y2739500D01*
X6301494Y2738078D01*
X6320000Y2734397D01*
X6345654Y2739500D01*
X6414495Y2753193D01*
X6414497Y2753194D01*
X6421642Y2754615D01*
X6507810Y2812190D01*
X6518295Y2827882D01*
X6527498Y2839096D01*
X6839131Y3150729D01*
X6885007Y3172121D01*
X6927558Y3162999D01*
X6975327Y3136302D01*
X6975333Y3136299D01*
X6978490Y3134535D01*
X7166960Y3073298D01*
X7228071Y3066011D01*
X7360135Y3050263D01*
X7360138Y3050263D01*
X7363735Y3049834D01*
X7415235Y3053797D01*
X7557710Y3064759D01*
X7557712Y3064759D01*
X7561320Y3065037D01*
X7752190Y3118329D01*
X7844617Y3165017D01*
X7894877Y3171011D01*
X7930306Y3151292D01*
X8432502Y2649096D01*
X8441705Y2637882D01*
X8452190Y2622190D01*
X8538358Y2564615D01*
X8545503Y2563194D01*
X8545505Y2563193D01*
X8632851Y2545819D01*
X8640000Y2544397D01*
X8658506Y2548078D01*
X8672942Y2549500D01*
X9402211Y2549500D01*
X9449777Y2532187D01*
X9475087Y2488350D01*
X9466297Y2438500D01*
X9436495Y2409921D01*
X9369010Y2374641D01*
X9366192Y2372375D01*
X9366190Y2372374D01*
X9350519Y2359774D01*
X9214570Y2250468D01*
X9212244Y2247696D01*
X9212242Y2247694D01*
X9193865Y2225793D01*
X9087189Y2098661D01*
X9085447Y2095493D01*
X9085446Y2095491D01*
X9079059Y2083873D01*
X8991720Y1925004D01*
X8931800Y1736111D01*
X8909710Y1539177D01*
X8910013Y1535568D01*
X8910013Y1535566D01*
X8917948Y1441075D01*
X8926292Y1341703D01*
X8980915Y1151210D01*
X9071498Y974955D01*
X9101613Y936960D01*
X9192340Y822490D01*
X9192343Y822486D01*
X9194590Y819652D01*
X9197344Y817309D01*
X9197346Y817306D01*
X9229802Y789684D01*
X9345504Y691214D01*
X9383625Y669909D01*
X9515331Y596300D01*
X9515335Y596298D01*
X9518490Y594535D01*
X9706960Y533298D01*
X9750946Y528053D01*
X9900135Y510263D01*
X9900138Y510263D01*
X9903735Y509834D01*
X9955235Y513797D01*
X10097710Y524759D01*
X10097712Y524759D01*
X10101320Y525037D01*
X10292190Y578329D01*
X10322059Y593417D01*
X10465839Y666045D01*
X10465842Y666047D01*
X10469073Y667679D01*
X10625232Y789684D01*
X10754720Y939697D01*
X10756503Y942836D01*
X10756506Y942840D01*
X10803662Y1025850D01*
X10852604Y1112004D01*
X10855173Y1119727D01*
X10914013Y1296605D01*
X10914014Y1296608D01*
X10915156Y1300042D01*
X10939993Y1496649D01*
X10940389Y1525000D01*
X10932778Y1602628D01*
X10921404Y1718620D01*
X10921051Y1722223D01*
X10917943Y1732519D01*
X10908708Y1763107D01*
X10863774Y1911935D01*
X10817256Y1999422D01*
X10772438Y2083713D01*
X10772437Y2083714D01*
X10770739Y2086908D01*
X10653840Y2230240D01*
X10647777Y2237674D01*
X10647776Y2237675D01*
X10645490Y2240478D01*
X10492798Y2366796D01*
X10476895Y2375395D01*
X10412143Y2410406D01*
X10378536Y2448259D01*
X10377122Y2498858D01*
X10408564Y2538528D01*
X10447339Y2549500D01*
X11942211Y2549500D01*
X11989777Y2532187D01*
X12015087Y2488350D01*
X12006297Y2438500D01*
X11976495Y2409921D01*
X11909010Y2374641D01*
X11906192Y2372375D01*
X11906190Y2372374D01*
X11890519Y2359774D01*
X11754570Y2250468D01*
X11752244Y2247696D01*
X11752242Y2247694D01*
X11733865Y2225793D01*
X11627189Y2098661D01*
X11625447Y2095493D01*
X11625446Y2095491D01*
X11619059Y2083873D01*
X11531720Y1925004D01*
X11471800Y1736111D01*
X11449710Y1539177D01*
X11450013Y1535568D01*
X11450013Y1535566D01*
X11457948Y1441075D01*
X11466292Y1341703D01*
X11520915Y1151210D01*
X11611498Y974955D01*
X11641613Y936960D01*
X11732340Y822490D01*
X11732343Y822486D01*
X11734590Y819652D01*
X11737344Y817309D01*
X11737346Y817306D01*
X11769802Y789684D01*
X11885504Y691214D01*
X11923625Y669909D01*
X12055331Y596300D01*
X12055335Y596298D01*
X12058490Y594535D01*
X12246960Y533298D01*
X12290946Y528053D01*
X12440135Y510263D01*
X12440138Y510263D01*
X12443735Y509834D01*
X12495235Y513797D01*
X12637710Y524759D01*
X12637712Y524759D01*
X12641320Y525037D01*
X12832190Y578329D01*
X12862059Y593417D01*
X13005839Y666045D01*
X13005842Y666047D01*
X13009073Y667679D01*
X13165232Y789684D01*
X13294720Y939697D01*
X13296503Y942836D01*
X13296506Y942840D01*
X13343662Y1025850D01*
X13392604Y1112004D01*
X13395173Y1119727D01*
X13454013Y1296605D01*
X13454014Y1296608D01*
X13455156Y1300042D01*
X13479993Y1496649D01*
X13480389Y1525000D01*
X13472778Y1602628D01*
X13461404Y1718620D01*
X13461051Y1722223D01*
X13457943Y1732519D01*
X13448708Y1763107D01*
X13403774Y1911935D01*
X13357256Y1999422D01*
X13312438Y2083713D01*
X13312437Y2083714D01*
X13310739Y2086908D01*
X13193840Y2230240D01*
X13187777Y2237674D01*
X13187776Y2237675D01*
X13185490Y2240478D01*
X13032798Y2366796D01*
X13016895Y2375395D01*
X12952143Y2410406D01*
X12918536Y2448259D01*
X12917122Y2498858D01*
X12948564Y2538528D01*
X12987339Y2549500D01*
X14482211Y2549500D01*
X14529777Y2532187D01*
X14555087Y2488350D01*
X14546297Y2438500D01*
X14516495Y2409921D01*
X14449010Y2374641D01*
X14446192Y2372375D01*
X14446190Y2372374D01*
X14430519Y2359774D01*
X14294570Y2250468D01*
X14292244Y2247696D01*
X14292242Y2247694D01*
X14273865Y2225793D01*
X14167189Y2098661D01*
X14165447Y2095493D01*
X14165446Y2095491D01*
X14159059Y2083873D01*
X14071720Y1925004D01*
X14011800Y1736111D01*
X13989710Y1539177D01*
X13990013Y1535568D01*
X13990013Y1535566D01*
X13997948Y1441075D01*
X14006292Y1341703D01*
X14060915Y1151210D01*
X14151498Y974955D01*
X14181613Y936960D01*
X14272340Y822490D01*
X14272343Y822486D01*
X14274590Y819652D01*
X14277344Y817309D01*
X14277346Y817306D01*
X14309802Y789684D01*
X14425504Y691214D01*
X14463625Y669909D01*
X14595331Y596300D01*
X14595335Y596298D01*
X14598490Y594535D01*
X14786960Y533298D01*
X14830946Y528053D01*
X14980135Y510263D01*
X14980138Y510263D01*
X14983735Y509834D01*
X15035235Y513797D01*
X15177710Y524759D01*
X15177712Y524759D01*
X15181320Y525037D01*
X15372190Y578329D01*
X15402059Y593417D01*
X15545839Y666045D01*
X15545842Y666047D01*
X15549073Y667679D01*
X15705232Y789684D01*
X15834720Y939697D01*
X15836503Y942836D01*
X15836506Y942840D01*
X15883662Y1025850D01*
X15932604Y1112004D01*
X15935173Y1119727D01*
X15994013Y1296605D01*
X15994014Y1296608D01*
X15995156Y1300042D01*
X16019993Y1496649D01*
X16020389Y1525000D01*
X16012778Y1602628D01*
X16001404Y1718620D01*
X16001051Y1722223D01*
X15997943Y1732519D01*
X15988708Y1763107D01*
X15943774Y1911935D01*
X15897256Y1999422D01*
X15852438Y2083713D01*
X15852437Y2083714D01*
X15850739Y2086908D01*
X15733840Y2230240D01*
X15727777Y2237674D01*
X15727776Y2237675D01*
X15725490Y2240478D01*
X15572798Y2366796D01*
X15556895Y2375395D01*
X15492143Y2410406D01*
X15458536Y2448259D01*
X15457122Y2498858D01*
X15488564Y2538528D01*
X15527339Y2549500D01*
X17022211Y2549500D01*
X17069777Y2532187D01*
X17095087Y2488350D01*
X17086297Y2438500D01*
X17056495Y2409921D01*
X16989010Y2374641D01*
X16986192Y2372375D01*
X16986190Y2372374D01*
X16970519Y2359774D01*
X16834570Y2250468D01*
X16832244Y2247696D01*
X16832242Y2247694D01*
X16813865Y2225793D01*
X16707189Y2098661D01*
X16705447Y2095493D01*
X16705446Y2095491D01*
X16699059Y2083873D01*
X16611720Y1925004D01*
X16551800Y1736111D01*
X16529710Y1539177D01*
X16530013Y1535568D01*
X16530013Y1535566D01*
X16537948Y1441075D01*
X16546292Y1341703D01*
X16600915Y1151210D01*
X16691498Y974955D01*
X16721613Y936960D01*
X16812340Y822490D01*
X16812343Y822486D01*
X16814590Y819652D01*
X16817344Y817309D01*
X16817346Y817306D01*
X16849802Y789684D01*
X16965504Y691214D01*
X17003625Y669909D01*
X17135331Y596300D01*
X17135335Y596298D01*
X17138490Y594535D01*
X17326960Y533298D01*
X17370946Y528053D01*
X17520135Y510263D01*
X17520138Y510263D01*
X17523735Y509834D01*
X17575235Y513797D01*
X17717710Y524759D01*
X17717712Y524759D01*
X17721320Y525037D01*
X17912190Y578329D01*
X17942059Y593417D01*
X18085839Y666045D01*
X18085842Y666047D01*
X18089073Y667679D01*
X18245232Y789684D01*
X18374720Y939697D01*
X18376503Y942836D01*
X18376506Y942840D01*
X18423662Y1025850D01*
X18472604Y1112004D01*
X18475173Y1119727D01*
X18534013Y1296605D01*
X18534014Y1296608D01*
X18535156Y1300042D01*
X18559993Y1496649D01*
X18560389Y1525000D01*
X18552778Y1602628D01*
X18541404Y1718620D01*
X18541051Y1722223D01*
X18537943Y1732519D01*
X18528708Y1763107D01*
X18483774Y1911935D01*
X18437256Y1999422D01*
X18392438Y2083713D01*
X18392437Y2083714D01*
X18390739Y2086908D01*
X18273840Y2230240D01*
X18267777Y2237674D01*
X18267776Y2237675D01*
X18265490Y2240478D01*
X18112798Y2366796D01*
X18096895Y2375395D01*
X18032143Y2410406D01*
X17998536Y2448259D01*
X17997122Y2498858D01*
X18028564Y2538528D01*
X18067339Y2549500D01*
X19562211Y2549500D01*
X19609777Y2532187D01*
X19635087Y2488350D01*
X19626297Y2438500D01*
X19596495Y2409921D01*
X19529010Y2374641D01*
X19526192Y2372375D01*
X19526190Y2372374D01*
X19510519Y2359774D01*
X19374570Y2250468D01*
X19372244Y2247696D01*
X19372242Y2247694D01*
X19353865Y2225793D01*
X19247189Y2098661D01*
X19245447Y2095493D01*
X19245446Y2095491D01*
X19239059Y2083873D01*
X19151720Y1925004D01*
X19091800Y1736111D01*
X19069710Y1539177D01*
X19070013Y1535568D01*
X19070013Y1535566D01*
X19077948Y1441075D01*
X19086292Y1341703D01*
X19140915Y1151210D01*
X19231498Y974955D01*
X19261613Y936960D01*
X19352340Y822490D01*
X19352343Y822486D01*
X19354590Y819652D01*
X19357344Y817309D01*
X19357346Y817306D01*
X19389802Y789684D01*
X19505504Y691214D01*
X19543625Y669909D01*
X19675331Y596300D01*
X19675335Y596298D01*
X19678490Y594535D01*
X19866960Y533298D01*
X19910946Y528053D01*
X20060135Y510263D01*
X20060138Y510263D01*
X20063735Y509834D01*
X20115235Y513797D01*
X20257710Y524759D01*
X20257712Y524759D01*
X20261320Y525037D01*
X20452190Y578329D01*
X20482059Y593417D01*
X20625839Y666045D01*
X20625842Y666047D01*
X20629073Y667679D01*
X20785232Y789684D01*
X20914720Y939697D01*
X20916503Y942836D01*
X20916506Y942840D01*
X20963662Y1025850D01*
X21012604Y1112004D01*
X21015173Y1119727D01*
X21074013Y1296605D01*
X21074014Y1296608D01*
X21075156Y1300042D01*
X21099993Y1496649D01*
X21100389Y1525000D01*
X21092778Y1602628D01*
X21081404Y1718620D01*
X21081051Y1722223D01*
X21077943Y1732519D01*
X21068708Y1763107D01*
X21023774Y1911935D01*
X20977256Y1999422D01*
X20932438Y2083713D01*
X20932437Y2083714D01*
X20930739Y2086908D01*
X20813840Y2230240D01*
X20807777Y2237674D01*
X20807776Y2237675D01*
X20805490Y2240478D01*
X20652798Y2366796D01*
X20636895Y2375395D01*
X20572143Y2410406D01*
X20538536Y2448259D01*
X20537122Y2498858D01*
X20568564Y2538528D01*
X20607339Y2549500D01*
X22102211Y2549500D01*
X22149777Y2532187D01*
X22175087Y2488350D01*
X22166297Y2438500D01*
X22136495Y2409921D01*
X22069010Y2374641D01*
X22066192Y2372375D01*
X22066190Y2372374D01*
X22050519Y2359774D01*
X21914570Y2250468D01*
X21912244Y2247696D01*
X21912242Y2247694D01*
X21893865Y2225793D01*
X21787189Y2098661D01*
X21785447Y2095493D01*
X21785446Y2095491D01*
X21779059Y2083873D01*
X21691720Y1925004D01*
X21631800Y1736111D01*
X21609710Y1539177D01*
X21610013Y1535568D01*
X21610013Y1535566D01*
X21617948Y1441075D01*
X21626292Y1341703D01*
X21680915Y1151210D01*
X21771498Y974955D01*
X21801613Y936960D01*
X21892340Y822490D01*
X21892343Y822486D01*
X21894590Y819652D01*
X21897344Y817309D01*
X21897346Y817306D01*
X21929802Y789684D01*
X22045504Y691214D01*
X22083625Y669909D01*
X22215331Y596300D01*
X22215335Y596298D01*
X22218490Y594535D01*
X22406960Y533298D01*
X22450946Y528053D01*
X22600135Y510263D01*
X22600138Y510263D01*
X22603735Y509834D01*
X22655235Y513797D01*
X22797710Y524759D01*
X22797712Y524759D01*
X22801320Y525037D01*
X22992190Y578329D01*
X23022059Y593417D01*
X23165839Y666045D01*
X23165842Y666047D01*
X23169073Y667679D01*
X23325232Y789684D01*
X23454720Y939697D01*
X23456503Y942836D01*
X23456506Y942840D01*
X23503662Y1025850D01*
X23552604Y1112004D01*
X23555173Y1119727D01*
X23614013Y1296605D01*
X23614014Y1296608D01*
X23615156Y1300042D01*
X23639993Y1496649D01*
X23640389Y1525000D01*
X23632778Y1602628D01*
X23621404Y1718620D01*
X23621051Y1722223D01*
X23617943Y1732519D01*
X23608708Y1763107D01*
X23563774Y1911935D01*
X23517256Y1999422D01*
X23472438Y2083713D01*
X23472437Y2083714D01*
X23470739Y2086908D01*
X23353840Y2230240D01*
X23347777Y2237674D01*
X23347776Y2237675D01*
X23345490Y2240478D01*
X23192798Y2366796D01*
X23176895Y2375395D01*
X23112143Y2410406D01*
X23078536Y2448259D01*
X23077122Y2498858D01*
X23108564Y2538528D01*
X23147339Y2549500D01*
X24642211Y2549500D01*
X24689777Y2532187D01*
X24715087Y2488350D01*
X24706297Y2438500D01*
X24676495Y2409921D01*
X24609010Y2374641D01*
X24606192Y2372375D01*
X24606190Y2372374D01*
X24590519Y2359774D01*
X24454570Y2250468D01*
X24452244Y2247696D01*
X24452242Y2247694D01*
X24433865Y2225793D01*
X24327189Y2098661D01*
X24325447Y2095493D01*
X24325446Y2095491D01*
X24319059Y2083873D01*
X24231720Y1925004D01*
X24171800Y1736111D01*
X24149710Y1539177D01*
X24150013Y1535568D01*
X24150013Y1535566D01*
X24157948Y1441075D01*
X24166292Y1341703D01*
X24220915Y1151210D01*
X24311498Y974955D01*
X24341613Y936960D01*
X24432340Y822490D01*
X24432343Y822486D01*
X24434590Y819652D01*
X24437344Y817309D01*
X24437346Y817306D01*
X24469802Y789684D01*
X24585504Y691214D01*
X24623625Y669909D01*
X24755331Y596300D01*
X24755335Y596298D01*
X24758490Y594535D01*
X24946960Y533298D01*
X24990946Y528053D01*
X25140135Y510263D01*
X25140138Y510263D01*
X25143735Y509834D01*
X25195235Y513797D01*
X25337710Y524759D01*
X25337712Y524759D01*
X25341320Y525037D01*
X25532190Y578329D01*
X25562059Y593417D01*
X25705839Y666045D01*
X25705842Y666047D01*
X25709073Y667679D01*
X25865232Y789684D01*
X25994720Y939697D01*
X25996503Y942836D01*
X25996506Y942840D01*
X26043662Y1025850D01*
X26092604Y1112004D01*
X26095173Y1119727D01*
X26154013Y1296605D01*
X26154014Y1296608D01*
X26155156Y1300042D01*
X26179993Y1496649D01*
X26180389Y1525000D01*
X26172778Y1602628D01*
X26161404Y1718620D01*
X26161051Y1722223D01*
X26157943Y1732519D01*
X26148708Y1763107D01*
X26103774Y1911935D01*
X26057256Y1999422D01*
X26012438Y2083713D01*
X26012437Y2083714D01*
X26010739Y2086908D01*
X25893840Y2230240D01*
X25887777Y2237674D01*
X25887776Y2237675D01*
X25885490Y2240478D01*
X25732798Y2366796D01*
X25716895Y2375395D01*
X25652143Y2410406D01*
X25618536Y2448259D01*
X25617122Y2498858D01*
X25648564Y2538528D01*
X25687339Y2549500D01*
X27182211Y2549500D01*
X27229777Y2532187D01*
X27255087Y2488350D01*
X27246297Y2438500D01*
X27216495Y2409921D01*
X27149010Y2374641D01*
X27146192Y2372375D01*
X27146190Y2372374D01*
X27130519Y2359774D01*
X26994570Y2250468D01*
X26992244Y2247696D01*
X26992242Y2247694D01*
X26973865Y2225793D01*
X26867189Y2098661D01*
X26865447Y2095493D01*
X26865446Y2095491D01*
X26859059Y2083873D01*
X26771720Y1925004D01*
X26711800Y1736111D01*
X26689710Y1539177D01*
X26690013Y1535568D01*
X26690013Y1535566D01*
X26697948Y1441075D01*
X26706292Y1341703D01*
X26760915Y1151210D01*
X26851498Y974955D01*
X26881613Y936960D01*
X26972340Y822490D01*
X26972343Y822486D01*
X26974590Y819652D01*
X26977344Y817309D01*
X26977346Y817306D01*
X27009802Y789684D01*
X27125504Y691214D01*
X27163625Y669909D01*
X27295331Y596300D01*
X27295335Y596298D01*
X27298490Y594535D01*
X27486960Y533298D01*
X27530946Y528053D01*
X27680135Y510263D01*
X27680138Y510263D01*
X27683735Y509834D01*
X27735235Y513797D01*
X27877710Y524759D01*
X27877712Y524759D01*
X27881320Y525037D01*
X28072190Y578329D01*
X28102059Y593417D01*
X28245839Y666045D01*
X28245842Y666047D01*
X28249073Y667679D01*
X28405232Y789684D01*
X28534720Y939697D01*
X28536503Y942836D01*
X28536506Y942840D01*
X28583662Y1025850D01*
X28632604Y1112004D01*
X28635173Y1119727D01*
X28694013Y1296605D01*
X28694014Y1296608D01*
X28695156Y1300042D01*
X28713116Y1442208D01*
X29248389Y1442208D01*
X29256366Y1347215D01*
X29257667Y1340127D01*
X29309727Y1158573D01*
X29312377Y1151878D01*
X29398711Y983890D01*
X29402616Y977832D01*
X29519930Y829818D01*
X29524935Y824634D01*
X29668768Y702224D01*
X29674687Y698110D01*
X29839555Y605968D01*
X29846156Y603085D01*
X30025780Y544722D01*
X30032825Y543173D01*
X30157043Y528360D01*
X30167400Y530789D01*
X30170000Y534264D01*
X30170000Y540819D01*
X30320000Y540819D01*
X30323638Y530823D01*
X30327875Y528377D01*
X30415877Y535149D01*
X30422978Y536401D01*
X30604891Y587193D01*
X30611599Y589794D01*
X30780195Y674957D01*
X30786269Y678812D01*
X30935104Y795095D01*
X30940323Y800065D01*
X31063736Y943041D01*
X31067885Y948921D01*
X31161180Y1113152D01*
X31164108Y1119727D01*
X31223725Y1298942D01*
X31225322Y1305976D01*
X31241882Y1437054D01*
X31239525Y1447427D01*
X31236135Y1450000D01*
X30333048Y1450000D01*
X30323052Y1446362D01*
X30320000Y1441075D01*
X30320000Y540819D01*
X30170000Y540819D01*
X30170000Y1436952D01*
X30166362Y1446948D01*
X30161075Y1450000D01*
X29260783Y1450000D01*
X29250787Y1446362D01*
X29248389Y1442208D01*
X28713116Y1442208D01*
X28719993Y1496649D01*
X28720389Y1525000D01*
X28712778Y1602628D01*
X28701404Y1718620D01*
X28701051Y1722223D01*
X28697943Y1732519D01*
X28688708Y1763107D01*
X28643774Y1911935D01*
X28597256Y1999422D01*
X28552438Y2083713D01*
X28552437Y2083714D01*
X28550739Y2086908D01*
X28433840Y2230240D01*
X28427777Y2237674D01*
X28427776Y2237675D01*
X28425490Y2240478D01*
X28272798Y2366796D01*
X28256895Y2375395D01*
X28192143Y2410406D01*
X28158536Y2448259D01*
X28157122Y2498858D01*
X28188564Y2538528D01*
X28227339Y2549500D01*
X29744874Y2549500D01*
X29792440Y2532187D01*
X29817750Y2488350D01*
X29808960Y2438500D01*
X29779158Y2409921D01*
X29697994Y2367490D01*
X29691967Y2363546D01*
X29544770Y2245197D01*
X29539623Y2240156D01*
X29418221Y2095475D01*
X29414152Y2089531D01*
X29323159Y1924016D01*
X29320323Y1917399D01*
X29263212Y1737365D01*
X29261716Y1730327D01*
X29248552Y1612967D01*
X29251054Y1602628D01*
X29254619Y1600000D01*
X31229437Y1600000D01*
X31239433Y1603638D01*
X31241737Y1607629D01*
X31231055Y1716571D01*
X31229656Y1723639D01*
X31175065Y1904451D01*
X31172321Y1911109D01*
X31083651Y2077874D01*
X31079665Y2083873D01*
X30960291Y2230240D01*
X30955215Y2235351D01*
X30809694Y2355737D01*
X30803709Y2359774D01*
X30710067Y2410406D01*
X30676460Y2448259D01*
X30675046Y2498858D01*
X30706488Y2538528D01*
X30745263Y2549500D01*
X35369679Y2549500D01*
X35417245Y2532187D01*
X35438455Y2494697D01*
X35440532Y2495372D01*
X35442331Y2489836D01*
X35443242Y2484082D01*
X35445885Y2478894D01*
X35445886Y2478892D01*
X35465913Y2439587D01*
X35496523Y2379511D01*
X35579511Y2296523D01*
X35629489Y2271058D01*
X35678892Y2245886D01*
X35678894Y2245885D01*
X35684082Y2243242D01*
X35800000Y2224882D01*
X35915918Y2243242D01*
X35921106Y2245885D01*
X35921108Y2245886D01*
X35970511Y2271058D01*
X36020489Y2296523D01*
X36103477Y2379511D01*
X36134087Y2439587D01*
X36154114Y2478892D01*
X36154115Y2478894D01*
X36156758Y2484082D01*
X36175118Y2600000D01*
X36156758Y2715918D01*
X36103477Y2820489D01*
X36020489Y2903477D01*
X35970511Y2928942D01*
X35921108Y2954114D01*
X35921106Y2954115D01*
X35915918Y2956758D01*
X35870081Y2964018D01*
X35821954Y2971641D01*
X35781534Y2992236D01*
X35777810Y2997810D01*
X35691642Y3055385D01*
X35684497Y3056806D01*
X35684495Y3056807D01*
X35615654Y3070500D01*
X35597149Y3074181D01*
X35590000Y3075603D01*
X35582851Y3074181D01*
X35571495Y3071922D01*
X35557058Y3070500D01*
X30804840Y3070500D01*
X30757274Y3087813D01*
X30731964Y3131650D01*
X30740754Y3181500D01*
X30771474Y3210551D01*
X30780191Y3214954D01*
X30786269Y3218812D01*
X30935104Y3335095D01*
X30940323Y3340065D01*
X31063736Y3483041D01*
X31067885Y3488921D01*
X31161180Y3653152D01*
X31164108Y3659727D01*
X31223725Y3838942D01*
X31225322Y3845976D01*
X31241882Y3977054D01*
X31239525Y3987427D01*
X31236135Y3990000D01*
X29260783Y3990000D01*
X29250787Y3986362D01*
X29248389Y3982208D01*
X29256366Y3887215D01*
X29257667Y3880127D01*
X29309727Y3698573D01*
X29312377Y3691878D01*
X29398711Y3523890D01*
X29402616Y3517832D01*
X29519930Y3369818D01*
X29524935Y3364634D01*
X29668768Y3242224D01*
X29674687Y3238110D01*
X29726601Y3209096D01*
X29759676Y3170778D01*
X29760383Y3120164D01*
X29728390Y3080937D01*
X29690499Y3070500D01*
X28286964Y3070500D01*
X28239398Y3087813D01*
X28214088Y3131650D01*
X28222878Y3181500D01*
X28246960Y3206611D01*
X28249073Y3207679D01*
X28251921Y3209904D01*
X28251924Y3209906D01*
X28402379Y3327455D01*
X28405232Y3329684D01*
X28534720Y3479697D01*
X28536503Y3482836D01*
X28536506Y3482840D01*
X28599919Y3594468D01*
X28632604Y3652004D01*
X28644576Y3687993D01*
X28694013Y3836605D01*
X28694014Y3836608D01*
X28695156Y3840042D01*
X28719993Y4036649D01*
X28720389Y4065000D01*
X28712778Y4142628D01*
X28710467Y4166188D01*
X28701051Y4262223D01*
X28697943Y4272519D01*
X28688708Y4303107D01*
X28643774Y4451935D01*
X28614034Y4507869D01*
X28605804Y4523347D01*
X28598759Y4573474D01*
X28618816Y4610414D01*
X28976228Y4967826D01*
X29022104Y4989218D01*
X29028554Y4989500D01*
X29588738Y4989500D01*
X29636304Y4972187D01*
X29661614Y4928350D01*
X29652824Y4878500D01*
X29635107Y4857829D01*
X29544770Y4785197D01*
X29539623Y4780156D01*
X29418221Y4635475D01*
X29414152Y4629531D01*
X29323159Y4464016D01*
X29320323Y4457399D01*
X29263212Y4277365D01*
X29261716Y4270327D01*
X29248552Y4152967D01*
X29251054Y4142628D01*
X29254619Y4140000D01*
X31229437Y4140000D01*
X31239433Y4143638D01*
X31241737Y4147629D01*
X31231055Y4256571D01*
X31229656Y4263639D01*
X31175065Y4444451D01*
X31172321Y4451109D01*
X31083651Y4617874D01*
X31079665Y4623873D01*
X30960291Y4770240D01*
X30955215Y4775351D01*
X30854727Y4858482D01*
X30829112Y4902142D01*
X30837553Y4952052D01*
X30876102Y4984859D01*
X30901896Y4989500D01*
X35505882Y4989500D01*
X35553448Y4972187D01*
X35558208Y4967826D01*
X35579511Y4946523D01*
X35615178Y4928350D01*
X35678892Y4895886D01*
X35678894Y4895885D01*
X35684082Y4893242D01*
X35800000Y4874882D01*
X35915918Y4893242D01*
X35921106Y4895885D01*
X35921108Y4895886D01*
X35984822Y4928350D01*
X36020489Y4946523D01*
X36103477Y5029511D01*
X36137116Y5095532D01*
X36154114Y5128892D01*
X36154115Y5128894D01*
X36156758Y5134082D01*
X36175118Y5250000D01*
X36156758Y5365918D01*
X36103477Y5470489D01*
X36020489Y5553477D01*
X35937896Y5595560D01*
X35921108Y5604114D01*
X35921106Y5604115D01*
X35915918Y5606758D01*
X35800000Y5625118D01*
X35684082Y5606758D01*
X35678894Y5604115D01*
X35678892Y5604114D01*
X35662104Y5595560D01*
X35579511Y5553477D01*
X35558208Y5532174D01*
X35512332Y5510782D01*
X35505882Y5510500D01*
X28922942Y5510500D01*
X28908505Y5511922D01*
X28897149Y5514181D01*
X28890000Y5515603D01*
X28882851Y5514181D01*
X28864346Y5510500D01*
X28795505Y5496807D01*
X28795503Y5496806D01*
X28788358Y5495385D01*
X28702190Y5437810D01*
X28698141Y5431750D01*
X28691705Y5422118D01*
X28682502Y5410904D01*
X28250527Y4978929D01*
X28204651Y4957537D01*
X28163004Y4966161D01*
X28101660Y4999330D01*
X28101658Y4999331D01*
X28098479Y5001050D01*
X28095026Y5002119D01*
X28095024Y5002120D01*
X27963806Y5042738D01*
X27909172Y5059650D01*
X27712089Y5080364D01*
X27708485Y5080036D01*
X27708484Y5080036D01*
X27518348Y5062733D01*
X27518346Y5062733D01*
X27514735Y5062404D01*
X27324629Y5006452D01*
X27321430Y5004780D01*
X27321426Y5004778D01*
X27152217Y4916318D01*
X27152214Y4916316D01*
X27149010Y4914641D01*
X27146192Y4912375D01*
X27146190Y4912374D01*
X27100693Y4875793D01*
X26994570Y4790468D01*
X26992244Y4787696D01*
X26992242Y4787694D01*
X26937587Y4722558D01*
X26867189Y4638661D01*
X26865447Y4635493D01*
X26865446Y4635491D01*
X26843978Y4596440D01*
X26771720Y4465004D01*
X26770179Y4465851D01*
X26739724Y4433439D01*
X26706378Y4425500D01*
X26162293Y4425500D01*
X26114727Y4442813D01*
X26096955Y4464759D01*
X26096375Y4465851D01*
X26040096Y4571695D01*
X26012438Y4623713D01*
X26012437Y4623714D01*
X26010739Y4626908D01*
X25893840Y4770240D01*
X25887777Y4777674D01*
X25887776Y4777675D01*
X25885490Y4780478D01*
X25751803Y4891074D01*
X25735593Y4904484D01*
X25735592Y4904485D01*
X25732798Y4906796D01*
X25715190Y4916317D01*
X25671525Y4939926D01*
X25564303Y4997901D01*
X25530697Y5035753D01*
X25525500Y5062994D01*
X25525500Y6785024D01*
X25542813Y6832590D01*
X25547174Y6837350D01*
X25904629Y7194805D01*
X25916815Y7204646D01*
X25923335Y7208856D01*
X25923337Y7208858D01*
X25928476Y7212176D01*
X25942937Y7230519D01*
X25949892Y7239342D01*
X25955679Y7245855D01*
X25958590Y7248766D01*
X25961398Y7252695D01*
X25969880Y7264564D01*
X25971974Y7267353D01*
X25985692Y7284754D01*
X26002777Y7306426D01*
X26004805Y7312199D01*
X26005654Y7313744D01*
X26006043Y7314361D01*
X26006100Y7314473D01*
X26006382Y7315145D01*
X26007159Y7316731D01*
X26010716Y7321709D01*
X26024972Y7369377D01*
X26026049Y7372693D01*
X26038974Y7409500D01*
X26042543Y7419662D01*
X26043000Y7424939D01*
X26043000Y7426177D01*
X26043411Y7431036D01*
X26045103Y7436693D01*
X26044770Y7445183D01*
X26043057Y7488776D01*
X26043000Y7491681D01*
X26043000Y11096952D01*
X32698940Y11096952D01*
X32701147Y11061880D01*
X32702878Y11052806D01*
X32750749Y10905474D01*
X32754684Y10897111D01*
X32837691Y10766312D01*
X32843580Y10759194D01*
X32956512Y10653144D01*
X32963978Y10647720D01*
X33099741Y10573083D01*
X33108324Y10569685D01*
X33258379Y10531157D01*
X33267538Y10530000D01*
X33806952Y10530000D01*
X33816948Y10533638D01*
X33820000Y10538925D01*
X33820000Y10543048D01*
X33970000Y10543048D01*
X33973638Y10533052D01*
X33978925Y10530000D01*
X34483563Y10530000D01*
X34488211Y10530293D01*
X34603312Y10544833D01*
X34612264Y10547132D01*
X34756298Y10604159D01*
X34764397Y10608612D01*
X34889724Y10699668D01*
X34896460Y10705993D01*
X34995206Y10825356D01*
X35000158Y10833159D01*
X35066119Y10973333D01*
X35068972Y10982114D01*
X35089969Y11092183D01*
X35089196Y11096952D01*
X37128940Y11096952D01*
X37131147Y11061880D01*
X37132878Y11052806D01*
X37180749Y10905474D01*
X37184684Y10897111D01*
X37267691Y10766312D01*
X37273580Y10759194D01*
X37386512Y10653144D01*
X37393978Y10647720D01*
X37529741Y10573083D01*
X37538324Y10569685D01*
X37688379Y10531157D01*
X37697538Y10530000D01*
X37986952Y10530000D01*
X37996948Y10533638D01*
X38000000Y10538925D01*
X38000000Y11091952D01*
X37996362Y11101948D01*
X37991075Y11105000D01*
X37141482Y11105000D01*
X37131486Y11101362D01*
X37128940Y11096952D01*
X35089196Y11096952D01*
X35088268Y11102683D01*
X35085584Y11105000D01*
X33983048Y11105000D01*
X33973052Y11101362D01*
X33970000Y11096075D01*
X33970000Y10543048D01*
X33820000Y10543048D01*
X33820000Y11091952D01*
X33816362Y11101948D01*
X33811075Y11105000D01*
X32711482Y11105000D01*
X32701486Y11101362D01*
X32698940Y11096952D01*
X26043000Y11096952D01*
X26043000Y11267817D01*
X32700031Y11267817D01*
X32701732Y11257317D01*
X32704416Y11255000D01*
X33806952Y11255000D01*
X33816948Y11258638D01*
X33820000Y11263925D01*
X33820000Y11268048D01*
X33970000Y11268048D01*
X33973638Y11258052D01*
X33978925Y11255000D01*
X35078518Y11255000D01*
X35088514Y11258638D01*
X35091060Y11263048D01*
X35090760Y11267817D01*
X37130031Y11267817D01*
X37131732Y11257317D01*
X37134416Y11255000D01*
X37986952Y11255000D01*
X37996948Y11258638D01*
X38000000Y11263925D01*
X38000000Y11816952D01*
X37996362Y11826948D01*
X37991075Y11830000D01*
X37736437Y11830000D01*
X37731789Y11829707D01*
X37616688Y11815167D01*
X37607736Y11812868D01*
X37463702Y11755841D01*
X37455603Y11751388D01*
X37330276Y11660332D01*
X37323540Y11654007D01*
X37224794Y11534644D01*
X37219842Y11526841D01*
X37153881Y11386667D01*
X37151028Y11377886D01*
X37130031Y11267817D01*
X35090760Y11267817D01*
X35088853Y11298120D01*
X35087122Y11307194D01*
X35039251Y11454526D01*
X35035316Y11462889D01*
X34952309Y11593688D01*
X34946420Y11600806D01*
X34833488Y11706856D01*
X34826022Y11712280D01*
X34690259Y11786917D01*
X34681676Y11790315D01*
X34531621Y11828843D01*
X34522462Y11830000D01*
X33983048Y11830000D01*
X33973052Y11826362D01*
X33970000Y11821075D01*
X33970000Y11268048D01*
X33820000Y11268048D01*
X33820000Y11816952D01*
X33816362Y11826948D01*
X33811075Y11830000D01*
X33306437Y11830000D01*
X33301789Y11829707D01*
X33186688Y11815167D01*
X33177736Y11812868D01*
X33033702Y11755841D01*
X33025603Y11751388D01*
X32900276Y11660332D01*
X32893540Y11654007D01*
X32794794Y11534644D01*
X32789842Y11526841D01*
X32723881Y11386667D01*
X32721028Y11377886D01*
X32700031Y11267817D01*
X26043000Y11267817D01*
X26043000Y12576693D01*
X33865606Y12576693D01*
X33894064Y12435556D01*
X33959429Y12307270D01*
X34056884Y12201288D01*
X34061170Y12198631D01*
X34061173Y12198628D01*
X34124268Y12159508D01*
X34179250Y12125418D01*
X34184093Y12124011D01*
X34313787Y12086331D01*
X34313789Y12086331D01*
X34317512Y12085249D01*
X34323055Y12084842D01*
X34326357Y12084599D01*
X34326371Y12084599D01*
X34327712Y12084500D01*
X34431070Y12084500D01*
X34537646Y12099099D01*
X34542275Y12101102D01*
X34542278Y12101103D01*
X34665154Y12154277D01*
X34669783Y12156280D01*
X34729951Y12205003D01*
X34777756Y12243714D01*
X34777758Y12243716D01*
X34781675Y12246888D01*
X34824586Y12307270D01*
X34862158Y12360138D01*
X34862159Y12360141D01*
X34865079Y12364249D01*
X34913850Y12499715D01*
X34924394Y12643307D01*
X34895936Y12784444D01*
X34830571Y12912730D01*
X34733116Y13018712D01*
X34728830Y13021369D01*
X34728827Y13021372D01*
X34657295Y13065723D01*
X34610750Y13094582D01*
X34567491Y13107150D01*
X34476213Y13133669D01*
X34476211Y13133669D01*
X34472488Y13134751D01*
X34466945Y13135158D01*
X34463643Y13135401D01*
X34463629Y13135401D01*
X34462288Y13135500D01*
X34358930Y13135500D01*
X34252354Y13120901D01*
X34247725Y13118898D01*
X34247722Y13118897D01*
X34185392Y13091924D01*
X34120217Y13063720D01*
X34070200Y13023217D01*
X34012244Y12976286D01*
X34012242Y12976284D01*
X34008325Y12973112D01*
X34005403Y12969000D01*
X33927842Y12859862D01*
X33927841Y12859859D01*
X33924921Y12855751D01*
X33876150Y12720285D01*
X33865606Y12576693D01*
X26043000Y12576693D01*
X26043000Y16434384D01*
X26043042Y16434913D01*
X29000000Y16434913D01*
X29000455Y16429131D01*
X29013461Y16347017D01*
X29017016Y16336073D01*
X29067455Y16237080D01*
X29074214Y16227778D01*
X29152778Y16149214D01*
X29162080Y16142455D01*
X29261073Y16092016D01*
X29272017Y16088461D01*
X29354131Y16075455D01*
X29359913Y16075000D01*
X29599452Y16075000D01*
X29609448Y16078638D01*
X29612500Y16083925D01*
X29612500Y16088048D01*
X29762500Y16088048D01*
X29766138Y16078052D01*
X29771425Y16075000D01*
X30015087Y16075000D01*
X30020869Y16075455D01*
X30102983Y16088461D01*
X30113927Y16092016D01*
X30212920Y16142455D01*
X30222222Y16149214D01*
X30300786Y16227778D01*
X30307545Y16237080D01*
X30357984Y16336073D01*
X30361539Y16347017D01*
X30374545Y16429131D01*
X30375000Y16434913D01*
X30375000Y16611952D01*
X30371362Y16621948D01*
X30366075Y16625000D01*
X29775548Y16625000D01*
X29765552Y16621362D01*
X29762500Y16616075D01*
X29762500Y16088048D01*
X29612500Y16088048D01*
X29612500Y16611952D01*
X29608862Y16621948D01*
X29603575Y16625000D01*
X29013048Y16625000D01*
X29003052Y16621362D01*
X29000000Y16616075D01*
X29000000Y16434913D01*
X26043042Y16434913D01*
X26043911Y16445960D01*
X26056707Y16526748D01*
X26057618Y16532500D01*
X26043911Y16619041D01*
X26043000Y16630616D01*
X26043000Y16788048D01*
X29000000Y16788048D01*
X29003638Y16778052D01*
X29008925Y16775000D01*
X29599452Y16775000D01*
X29609448Y16778638D01*
X29612500Y16783925D01*
X29612500Y16788048D01*
X29762500Y16788048D01*
X29766138Y16778052D01*
X29771425Y16775000D01*
X30361952Y16775000D01*
X30371948Y16778638D01*
X30375000Y16783925D01*
X30375000Y16965087D01*
X30374545Y16970869D01*
X30361539Y17052983D01*
X30357984Y17063927D01*
X30307545Y17162920D01*
X30300786Y17172222D01*
X30222222Y17250786D01*
X30212920Y17257545D01*
X30113927Y17307984D01*
X30102983Y17311539D01*
X30020869Y17324545D01*
X30015087Y17325000D01*
X29775548Y17325000D01*
X29765552Y17321362D01*
X29762500Y17316075D01*
X29762500Y16788048D01*
X29612500Y16788048D01*
X29612500Y17311952D01*
X29608862Y17321948D01*
X29603575Y17325000D01*
X29359913Y17325000D01*
X29354131Y17324545D01*
X29272017Y17311539D01*
X29261073Y17307984D01*
X29162080Y17257545D01*
X29152778Y17250786D01*
X29074214Y17172222D01*
X29067455Y17162920D01*
X29017016Y17063927D01*
X29013461Y17052983D01*
X29000455Y16970869D01*
X29000000Y16965087D01*
X29000000Y16788048D01*
X26043000Y16788048D01*
X26043000Y19697484D01*
X26060313Y19745050D01*
X26083404Y19763418D01*
X26084604Y19764030D01*
X26094355Y19768998D01*
X26183502Y19858145D01*
X26240728Y19970456D01*
X26240730Y19970459D01*
X26240739Y19970478D01*
X26240743Y19970476D01*
X26270258Y20008255D01*
X26309473Y20019500D01*
X27192356Y20019500D01*
X27239922Y20002187D01*
X27265232Y19958350D01*
X27266356Y19945500D01*
X27266356Y19513500D01*
X27267066Y19509931D01*
X27267066Y19509930D01*
X27275933Y19465356D01*
X27278813Y19450876D01*
X27282860Y19444819D01*
X27282861Y19444817D01*
X27297150Y19423432D01*
X27314286Y19397786D01*
X27320346Y19393737D01*
X27361317Y19366361D01*
X27361319Y19366360D01*
X27367376Y19362313D01*
X27374521Y19360892D01*
X27374523Y19360891D01*
X27426430Y19350566D01*
X27426431Y19350566D01*
X27430000Y19349856D01*
X30495500Y19349856D01*
X30543066Y19332543D01*
X30568376Y19288706D01*
X30569500Y19275856D01*
X30569500Y18414194D01*
X30578813Y18367376D01*
X30582860Y18361319D01*
X30582861Y18361317D01*
X30605300Y18327735D01*
X30614286Y18314286D01*
X30620346Y18310237D01*
X30661317Y18282861D01*
X30661319Y18282860D01*
X30667376Y18278813D01*
X30674521Y18277392D01*
X30674523Y18277391D01*
X30710624Y18270210D01*
X30710625Y18270210D01*
X30714194Y18269500D01*
X30978000Y18269500D01*
X31025566Y18252187D01*
X31050876Y18208350D01*
X31052000Y18195500D01*
X31052000Y17394081D01*
X31034687Y17346515D01*
X30998440Y17326006D01*
X30999270Y17323450D01*
X30993730Y17321650D01*
X30987978Y17320739D01*
X30875645Y17263502D01*
X30786498Y17174355D01*
X30783855Y17169168D01*
X30780584Y17162748D01*
X30729261Y17062022D01*
X30714500Y16968823D01*
X30714501Y16431178D01*
X30714956Y16428306D01*
X30714956Y16428304D01*
X30728350Y16343730D01*
X30729261Y16337978D01*
X30731905Y16332789D01*
X30780672Y16237080D01*
X30786498Y16225645D01*
X30875645Y16136498D01*
X30987978Y16079261D01*
X31027076Y16073069D01*
X31071348Y16048529D01*
X31089500Y15999980D01*
X31089500Y14048116D01*
X31088589Y14036541D01*
X31074882Y13950000D01*
X31093242Y13834082D01*
X31146523Y13729511D01*
X31229511Y13646523D01*
X31279489Y13621058D01*
X31328892Y13595886D01*
X31328894Y13595885D01*
X31334082Y13593242D01*
X31450000Y13574882D01*
X31565918Y13593242D01*
X31571106Y13595885D01*
X31571108Y13595886D01*
X31620511Y13621058D01*
X31670489Y13646523D01*
X31753477Y13729511D01*
X31806758Y13834082D01*
X31825118Y13950000D01*
X31811411Y14036541D01*
X31810500Y14048116D01*
X31810500Y16020400D01*
X31827813Y16067966D01*
X31850904Y16086334D01*
X31944168Y16133855D01*
X31949355Y16136498D01*
X32038502Y16225645D01*
X32073896Y16295109D01*
X32110915Y16329629D01*
X32132943Y16333572D01*
X32132783Y16334921D01*
X32142517Y16336073D01*
X32167138Y16338987D01*
X32175835Y16339500D01*
X32179950Y16339500D01*
X32199102Y16342688D01*
X32202552Y16343179D01*
X32251967Y16349027D01*
X32257483Y16351676D01*
X32259171Y16352166D01*
X32259883Y16352328D01*
X32260007Y16352367D01*
X32260682Y16352644D01*
X32262350Y16353215D01*
X32268387Y16354220D01*
X32312186Y16377853D01*
X32315288Y16379433D01*
X32360156Y16400978D01*
X32364210Y16404386D01*
X32365087Y16405263D01*
X32368812Y16408407D01*
X32374008Y16411210D01*
X32378158Y16415700D01*
X32378160Y16415701D01*
X32409380Y16449475D01*
X32411394Y16451570D01*
X32472129Y16512305D01*
X32484315Y16522146D01*
X32490835Y16526356D01*
X32490837Y16526358D01*
X32495976Y16529676D01*
X32517392Y16556842D01*
X32523179Y16563355D01*
X32526090Y16566266D01*
X32537371Y16582052D01*
X32539463Y16584838D01*
X32560837Y16611952D01*
X32570277Y16623926D01*
X32572304Y16629696D01*
X32573155Y16631245D01*
X32573536Y16631851D01*
X32573601Y16631976D01*
X32573883Y16632649D01*
X32574659Y16634232D01*
X32578215Y16639209D01*
X32592471Y16686876D01*
X32593546Y16690185D01*
X32596207Y16697763D01*
X32610043Y16737162D01*
X32610500Y16742439D01*
X32610500Y16743677D01*
X32610911Y16748536D01*
X32612603Y16754192D01*
X32611643Y16778638D01*
X32610557Y16806264D01*
X32610500Y16809169D01*
X32610500Y17651884D01*
X32611411Y17663460D01*
X32624207Y17744248D01*
X32625118Y17750000D01*
X32606758Y17865918D01*
X32590484Y17897859D01*
X32556119Y17965303D01*
X32553477Y17970489D01*
X32470489Y18053477D01*
X32395342Y18091766D01*
X32371108Y18104114D01*
X32371106Y18104115D01*
X32365918Y18106758D01*
X32250000Y18125118D01*
X32134082Y18106758D01*
X32128894Y18104115D01*
X32128892Y18104114D01*
X32104658Y18091766D01*
X32029511Y18053477D01*
X31946523Y17970489D01*
X31943881Y17965303D01*
X31912935Y17904568D01*
X31875914Y17870046D01*
X31825365Y17867396D01*
X31784939Y17897859D01*
X31773000Y17938163D01*
X31773000Y18195500D01*
X31790313Y18243066D01*
X31834150Y18268376D01*
X31847000Y18269500D01*
X32045806Y18269500D01*
X32049375Y18270210D01*
X32049376Y18270210D01*
X32085477Y18277391D01*
X32085479Y18277392D01*
X32092624Y18278813D01*
X32098681Y18282860D01*
X32098683Y18282861D01*
X32139654Y18310237D01*
X32145714Y18314286D01*
X32154700Y18327735D01*
X32174049Y18356693D01*
X33865606Y18356693D01*
X33894064Y18215556D01*
X33896355Y18211060D01*
X33950847Y18104114D01*
X33959429Y18087270D01*
X34056884Y17981288D01*
X34061170Y17978631D01*
X34061173Y17978628D01*
X34124268Y17939508D01*
X34179250Y17905418D01*
X34184093Y17904011D01*
X34313787Y17866331D01*
X34313789Y17866331D01*
X34317512Y17865249D01*
X34323055Y17864842D01*
X34326357Y17864599D01*
X34326371Y17864599D01*
X34327712Y17864500D01*
X34431070Y17864500D01*
X34537646Y17879099D01*
X34542275Y17881102D01*
X34542278Y17881103D01*
X34665154Y17934277D01*
X34669783Y17936280D01*
X34729951Y17985003D01*
X34777756Y18023714D01*
X34777758Y18023716D01*
X34781675Y18026888D01*
X34824586Y18087270D01*
X34862158Y18140138D01*
X34862159Y18140141D01*
X34865079Y18144249D01*
X34913850Y18279715D01*
X34924394Y18423307D01*
X34895936Y18564444D01*
X34830571Y18692730D01*
X34733116Y18798712D01*
X34728830Y18801369D01*
X34728827Y18801372D01*
X34644526Y18853640D01*
X34610750Y18874582D01*
X34580646Y18883328D01*
X34476213Y18913669D01*
X34476211Y18913669D01*
X34472488Y18914751D01*
X34466945Y18915158D01*
X34463643Y18915401D01*
X34463629Y18915401D01*
X34462288Y18915500D01*
X34358930Y18915500D01*
X34252354Y18900901D01*
X34247725Y18898898D01*
X34247722Y18898897D01*
X34185392Y18871924D01*
X34120217Y18843720D01*
X34104512Y18831002D01*
X34012244Y18756286D01*
X34012242Y18756284D01*
X34008325Y18753112D01*
X33988723Y18725529D01*
X33927842Y18639862D01*
X33927841Y18639859D01*
X33924921Y18635751D01*
X33876150Y18500285D01*
X33865606Y18356693D01*
X32174049Y18356693D01*
X32177139Y18361317D01*
X32177140Y18361319D01*
X32181187Y18367376D01*
X32190500Y18414194D01*
X32190500Y18831002D01*
X32207813Y18878568D01*
X32212174Y18883328D01*
X32707609Y19378763D01*
X32719795Y19388604D01*
X32726315Y19392814D01*
X32726317Y19392816D01*
X32731456Y19396134D01*
X32735244Y19400939D01*
X32738854Y19404224D01*
X32785687Y19423432D01*
X32833910Y19408044D01*
X32839984Y19402166D01*
X32840186Y19402381D01*
X32956512Y19293144D01*
X32963978Y19287720D01*
X33099741Y19213083D01*
X33108324Y19209685D01*
X33258379Y19171157D01*
X33267538Y19170000D01*
X33806952Y19170000D01*
X33816948Y19173638D01*
X33820000Y19178925D01*
X33820000Y19183048D01*
X33970000Y19183048D01*
X33973638Y19173052D01*
X33978925Y19170000D01*
X34483563Y19170000D01*
X34488211Y19170293D01*
X34603312Y19184833D01*
X34612264Y19187132D01*
X34756298Y19244159D01*
X34764397Y19248612D01*
X34889724Y19339668D01*
X34896460Y19345993D01*
X34995206Y19465356D01*
X35000158Y19473159D01*
X35066119Y19613333D01*
X35068972Y19622114D01*
X35089969Y19732183D01*
X35089196Y19736952D01*
X37128940Y19736952D01*
X37131147Y19701880D01*
X37132878Y19692806D01*
X37180749Y19545474D01*
X37184684Y19537111D01*
X37267691Y19406312D01*
X37273580Y19399194D01*
X37386512Y19293144D01*
X37393978Y19287720D01*
X37529741Y19213083D01*
X37538324Y19209685D01*
X37688379Y19171157D01*
X37697538Y19170000D01*
X37986952Y19170000D01*
X37996948Y19173638D01*
X38000000Y19178925D01*
X38000000Y19731952D01*
X37996362Y19741948D01*
X37991075Y19745000D01*
X37141482Y19745000D01*
X37131486Y19741362D01*
X37128940Y19736952D01*
X35089196Y19736952D01*
X35088268Y19742683D01*
X35085584Y19745000D01*
X33983048Y19745000D01*
X33973052Y19741362D01*
X33970000Y19736075D01*
X33970000Y19183048D01*
X33820000Y19183048D01*
X33820000Y19908048D01*
X33970000Y19908048D01*
X33973638Y19898052D01*
X33978925Y19895000D01*
X35078518Y19895000D01*
X35088514Y19898638D01*
X35091060Y19903048D01*
X35090760Y19907817D01*
X37130031Y19907817D01*
X37131732Y19897317D01*
X37134416Y19895000D01*
X37986952Y19895000D01*
X37996948Y19898638D01*
X38000000Y19903925D01*
X38000000Y20456952D01*
X37996362Y20466948D01*
X37991075Y20470000D01*
X37736437Y20470000D01*
X37731789Y20469707D01*
X37616688Y20455167D01*
X37607736Y20452868D01*
X37463702Y20395841D01*
X37455603Y20391388D01*
X37330276Y20300332D01*
X37323540Y20294007D01*
X37224794Y20174644D01*
X37219842Y20166841D01*
X37153881Y20026667D01*
X37151028Y20017886D01*
X37130031Y19907817D01*
X35090760Y19907817D01*
X35088853Y19938120D01*
X35087122Y19947194D01*
X35039251Y20094526D01*
X35035316Y20102889D01*
X34952309Y20233688D01*
X34946420Y20240806D01*
X34833488Y20346856D01*
X34826022Y20352280D01*
X34690259Y20426917D01*
X34681676Y20430315D01*
X34531621Y20468843D01*
X34522462Y20470000D01*
X33983048Y20470000D01*
X33973052Y20466362D01*
X33970000Y20461075D01*
X33970000Y19908048D01*
X33820000Y19908048D01*
X33820000Y20456952D01*
X33816362Y20466948D01*
X33811075Y20470000D01*
X33306437Y20470000D01*
X33301789Y20469707D01*
X33186688Y20455167D01*
X33177736Y20452868D01*
X33111741Y20426739D01*
X33061142Y20425325D01*
X33021472Y20456767D01*
X33010500Y20495542D01*
X33010500Y24653640D01*
X33012156Y24669207D01*
X33015079Y24682783D01*
X33011013Y24717138D01*
X33010500Y24725835D01*
X33010500Y24729950D01*
X33007312Y24749103D01*
X33006821Y24752555D01*
X33001692Y24795891D01*
X33000973Y24801967D01*
X32998324Y24807483D01*
X32997834Y24809171D01*
X32997672Y24809883D01*
X32997633Y24810007D01*
X32997356Y24810682D01*
X32996785Y24812350D01*
X32995780Y24818387D01*
X32972147Y24862186D01*
X32970567Y24865288D01*
X32965232Y24876399D01*
X32949022Y24910156D01*
X32945614Y24914210D01*
X32944737Y24915087D01*
X32941593Y24918812D01*
X32938790Y24924008D01*
X32934300Y24928158D01*
X32934299Y24928160D01*
X32900525Y24959380D01*
X32898430Y24961394D01*
X32437695Y25422129D01*
X32427854Y25434315D01*
X32423644Y25440835D01*
X32423642Y25440837D01*
X32420324Y25445976D01*
X32393158Y25467392D01*
X32386645Y25473179D01*
X32383734Y25476090D01*
X32381252Y25477864D01*
X32381248Y25477867D01*
X32367936Y25487380D01*
X32365147Y25489474D01*
X32326074Y25520277D01*
X32320301Y25522305D01*
X32318756Y25523154D01*
X32318139Y25523543D01*
X32318027Y25523600D01*
X32317355Y25523882D01*
X32315769Y25524659D01*
X32310791Y25528216D01*
X32263120Y25542473D01*
X32259804Y25543550D01*
X32252136Y25546243D01*
X32212838Y25560043D01*
X32207561Y25560500D01*
X32206323Y25560500D01*
X32201464Y25560911D01*
X32195808Y25562603D01*
X32189698Y25562363D01*
X32143736Y25560557D01*
X32140831Y25560500D01*
X29609976Y25560500D01*
X29562410Y25577813D01*
X29557650Y25582174D01*
X28663727Y26476097D01*
X28642335Y26521973D01*
X28645836Y26551781D01*
X28694013Y26696605D01*
X28694014Y26696608D01*
X28695156Y26700042D01*
X28719993Y26896649D01*
X28720389Y26925000D01*
X28712778Y27002628D01*
X28701404Y27118620D01*
X28701051Y27122223D01*
X28697943Y27132519D01*
X28646528Y27302813D01*
X28643774Y27311935D01*
X28597257Y27399421D01*
X28552438Y27483713D01*
X28552437Y27483714D01*
X28550739Y27486908D01*
X28433840Y27630240D01*
X28427777Y27637674D01*
X28427776Y27637675D01*
X28425490Y27640478D01*
X28272798Y27766796D01*
X28255188Y27776318D01*
X28246938Y27780779D01*
X28229132Y27790406D01*
X28195525Y27828259D01*
X28194111Y27878858D01*
X28225553Y27918528D01*
X28264328Y27929500D01*
X29683954Y27929500D01*
X29731520Y27912187D01*
X29756830Y27868350D01*
X29748040Y27818500D01*
X29718238Y27789921D01*
X29692217Y27776318D01*
X29692214Y27776316D01*
X29689010Y27774641D01*
X29686192Y27772375D01*
X29686190Y27772374D01*
X29670519Y27759774D01*
X29534570Y27650468D01*
X29532244Y27647696D01*
X29532242Y27647694D01*
X29470879Y27574564D01*
X29407189Y27498661D01*
X29405447Y27495493D01*
X29405446Y27495491D01*
X29399059Y27483873D01*
X29311720Y27325004D01*
X29251800Y27136111D01*
X29229710Y26939177D01*
X29230013Y26935568D01*
X29230013Y26935566D01*
X29237948Y26841075D01*
X29246292Y26741703D01*
X29300915Y26551210D01*
X29391498Y26374955D01*
X29421613Y26336960D01*
X29512340Y26222490D01*
X29512343Y26222486D01*
X29514590Y26219652D01*
X29517344Y26217309D01*
X29517346Y26217306D01*
X29549802Y26189684D01*
X29665504Y26091214D01*
X29695947Y26074200D01*
X29835331Y25996300D01*
X29835335Y25996298D01*
X29838490Y25994535D01*
X30026960Y25933298D01*
X30088071Y25926011D01*
X30220135Y25910263D01*
X30220138Y25910263D01*
X30223735Y25909834D01*
X30275235Y25913797D01*
X30417710Y25924759D01*
X30417712Y25924759D01*
X30421320Y25925037D01*
X30612190Y25978329D01*
X30642059Y25993417D01*
X30785839Y26066045D01*
X30785842Y26066047D01*
X30789073Y26067679D01*
X30945232Y26189684D01*
X31074720Y26339697D01*
X31076503Y26342836D01*
X31076506Y26342840D01*
X31152206Y26476097D01*
X31172604Y26512004D01*
X31175173Y26519727D01*
X31234013Y26696605D01*
X31234014Y26696608D01*
X31235156Y26700042D01*
X31259993Y26896649D01*
X31260389Y26925000D01*
X31252778Y27002628D01*
X31241404Y27118620D01*
X31241051Y27122223D01*
X31237943Y27132519D01*
X31186528Y27302813D01*
X31183774Y27311935D01*
X31137257Y27399421D01*
X31092438Y27483713D01*
X31092437Y27483714D01*
X31090739Y27486908D01*
X30973840Y27630240D01*
X30967777Y27637674D01*
X30967776Y27637675D01*
X30965490Y27640478D01*
X30812798Y27766796D01*
X30795188Y27776318D01*
X30786938Y27780779D01*
X30769132Y27790406D01*
X30735525Y27828259D01*
X30734111Y27878858D01*
X30765553Y27918528D01*
X30804328Y27929500D01*
X33071446Y27929500D01*
X33119012Y27912187D01*
X33123772Y27907826D01*
X35306617Y25724980D01*
X35327380Y25684231D01*
X35343242Y25584082D01*
X35396523Y25479511D01*
X35479511Y25396523D01*
X35529489Y25371058D01*
X35578892Y25345886D01*
X35578894Y25345885D01*
X35584082Y25343242D01*
X35700000Y25324882D01*
X35815918Y25343242D01*
X35821106Y25345885D01*
X35821108Y25345886D01*
X35870511Y25371058D01*
X35920489Y25396523D01*
X36003477Y25479511D01*
X36056758Y25584082D01*
X36075118Y25700000D01*
X36056758Y25815918D01*
X36003477Y25920489D01*
X35920489Y26003477D01*
X35870511Y26028942D01*
X35821108Y26054114D01*
X35821106Y26054115D01*
X35815918Y26056758D01*
X35715769Y26072620D01*
X35675020Y26093383D01*
X33417498Y28350904D01*
X33408295Y28362118D01*
X33401859Y28371750D01*
X33397810Y28377810D01*
X33311642Y28435385D01*
X33304497Y28436806D01*
X33304495Y28436807D01*
X33287471Y28440193D01*
X33217149Y28454181D01*
X33210000Y28455603D01*
X33202851Y28454181D01*
X33191495Y28451922D01*
X33177058Y28450500D01*
X30788530Y28450500D01*
X30740964Y28467813D01*
X30715654Y28511650D01*
X30724444Y28561500D01*
X30755165Y28590551D01*
X30785839Y28606045D01*
X30785842Y28606047D01*
X30789073Y28607679D01*
X30945232Y28729684D01*
X31074720Y28879697D01*
X31076503Y28882836D01*
X31076506Y28882840D01*
X31123662Y28965851D01*
X31172604Y29052004D01*
X31175173Y29059727D01*
X31234013Y29236605D01*
X31234014Y29236608D01*
X31235156Y29240042D01*
X31259993Y29436649D01*
X31260389Y29465000D01*
X31252778Y29542628D01*
X31241404Y29658620D01*
X31241051Y29662223D01*
X31237943Y29672519D01*
X31228708Y29703107D01*
X31183774Y29851935D01*
X31137257Y29939421D01*
X31092438Y30023713D01*
X31092437Y30023714D01*
X31090739Y30026908D01*
X30973840Y30170240D01*
X30967777Y30177674D01*
X30967776Y30177675D01*
X30965490Y30180478D01*
X30812798Y30306796D01*
X30795188Y30316318D01*
X30641662Y30399329D01*
X30638479Y30401050D01*
X30449172Y30459650D01*
X30252089Y30480364D01*
X30248485Y30480036D01*
X30248484Y30480036D01*
X30058348Y30462733D01*
X30058346Y30462733D01*
X30054735Y30462404D01*
X29864629Y30406452D01*
X29861430Y30404780D01*
X29861426Y30404778D01*
X29692217Y30316318D01*
X29692214Y30316316D01*
X29689010Y30314641D01*
X29686192Y30312375D01*
X29686190Y30312374D01*
X29670519Y30299774D01*
X29534570Y30190468D01*
X29532244Y30187696D01*
X29532242Y30187694D01*
X29470879Y30114564D01*
X29407189Y30038661D01*
X29405447Y30035493D01*
X29405446Y30035491D01*
X29399059Y30023873D01*
X29311720Y29865004D01*
X29251800Y29676111D01*
X29229710Y29479177D01*
X29230013Y29475568D01*
X29230013Y29475566D01*
X29238285Y29377054D01*
X29246292Y29281703D01*
X29300915Y29091210D01*
X29391498Y28914955D01*
X29421613Y28876960D01*
X29512340Y28762490D01*
X29512343Y28762486D01*
X29514590Y28759652D01*
X29517344Y28757309D01*
X29517346Y28757306D01*
X29549802Y28729684D01*
X29665504Y28631214D01*
X29738262Y28590551D01*
X29740865Y28589096D01*
X29773940Y28550778D01*
X29774647Y28500164D01*
X29742654Y28460937D01*
X29704763Y28450500D01*
X28248530Y28450500D01*
X28200964Y28467813D01*
X28175654Y28511650D01*
X28184444Y28561500D01*
X28215165Y28590551D01*
X28245839Y28606045D01*
X28245842Y28606047D01*
X28249073Y28607679D01*
X28405232Y28729684D01*
X28534720Y28879697D01*
X28536503Y28882836D01*
X28536506Y28882840D01*
X28583662Y28965851D01*
X28632604Y29052004D01*
X28635173Y29059727D01*
X28694013Y29236605D01*
X28694014Y29236608D01*
X28695156Y29240042D01*
X28719993Y29436649D01*
X28720389Y29465000D01*
X28712778Y29542628D01*
X28701404Y29658620D01*
X28701051Y29662223D01*
X28697943Y29672519D01*
X28688708Y29703107D01*
X28643774Y29851935D01*
X28597257Y29939421D01*
X28552438Y30023713D01*
X28552437Y30023714D01*
X28550739Y30026908D01*
X28433840Y30170240D01*
X28427777Y30177674D01*
X28427776Y30177675D01*
X28425490Y30180478D01*
X28272798Y30306796D01*
X28255188Y30316318D01*
X28101662Y30399329D01*
X28098479Y30401050D01*
X27909172Y30459650D01*
X27712089Y30480364D01*
X27708485Y30480036D01*
X27708484Y30480036D01*
X27518348Y30462733D01*
X27518346Y30462733D01*
X27514735Y30462404D01*
X27324629Y30406452D01*
X27321430Y30404780D01*
X27321426Y30404778D01*
X27152217Y30316318D01*
X27152214Y30316316D01*
X27149010Y30314641D01*
X27146192Y30312375D01*
X27146190Y30312374D01*
X27130519Y30299774D01*
X26994570Y30190468D01*
X26992244Y30187696D01*
X26992242Y30187694D01*
X26930879Y30114564D01*
X26867189Y30038661D01*
X26865447Y30035493D01*
X26865446Y30035491D01*
X26859059Y30023873D01*
X26771720Y29865004D01*
X26711800Y29676111D01*
X26689710Y29479177D01*
X26690013Y29475568D01*
X26690013Y29475566D01*
X26698285Y29377054D01*
X26706292Y29281703D01*
X26760915Y29091210D01*
X26851498Y28914955D01*
X26881613Y28876960D01*
X26972340Y28762490D01*
X26972343Y28762486D01*
X26974590Y28759652D01*
X26977344Y28757309D01*
X26977346Y28757306D01*
X27009802Y28729684D01*
X27125504Y28631214D01*
X27198262Y28590551D01*
X27200865Y28589096D01*
X27233940Y28550778D01*
X27234647Y28500164D01*
X27202654Y28460937D01*
X27164763Y28450500D01*
X25708530Y28450500D01*
X25660964Y28467813D01*
X25635654Y28511650D01*
X25644444Y28561500D01*
X25675165Y28590551D01*
X25705839Y28606045D01*
X25705842Y28606047D01*
X25709073Y28607679D01*
X25865232Y28729684D01*
X25994720Y28879697D01*
X25996503Y28882836D01*
X25996506Y28882840D01*
X26043662Y28965851D01*
X26092604Y29052004D01*
X26095173Y29059727D01*
X26154013Y29236605D01*
X26154014Y29236608D01*
X26155156Y29240042D01*
X26179993Y29436649D01*
X26180389Y29465000D01*
X26172778Y29542628D01*
X26161404Y29658620D01*
X26161051Y29662223D01*
X26157943Y29672519D01*
X26148708Y29703107D01*
X26103774Y29851935D01*
X26057257Y29939421D01*
X26012438Y30023713D01*
X26012437Y30023714D01*
X26010739Y30026908D01*
X25893840Y30170240D01*
X25887777Y30177674D01*
X25887776Y30177675D01*
X25885490Y30180478D01*
X25732798Y30306796D01*
X25715188Y30316318D01*
X25561662Y30399329D01*
X25558479Y30401050D01*
X25369172Y30459650D01*
X25172089Y30480364D01*
X25168485Y30480036D01*
X25168484Y30480036D01*
X24978348Y30462733D01*
X24978346Y30462733D01*
X24974735Y30462404D01*
X24784629Y30406452D01*
X24781430Y30404780D01*
X24781426Y30404778D01*
X24612217Y30316318D01*
X24612214Y30316316D01*
X24609010Y30314641D01*
X24606192Y30312375D01*
X24606190Y30312374D01*
X24590519Y30299774D01*
X24454570Y30190468D01*
X24452244Y30187696D01*
X24452242Y30187694D01*
X24390879Y30114564D01*
X24327189Y30038661D01*
X24325447Y30035493D01*
X24325446Y30035491D01*
X24319059Y30023873D01*
X24231720Y29865004D01*
X24171800Y29676111D01*
X24149710Y29479177D01*
X24150013Y29475568D01*
X24150013Y29475566D01*
X24158285Y29377054D01*
X24166292Y29281703D01*
X24220915Y29091210D01*
X24311498Y28914955D01*
X24341613Y28876960D01*
X24432340Y28762490D01*
X24432343Y28762486D01*
X24434590Y28759652D01*
X24437344Y28757309D01*
X24437346Y28757306D01*
X24469802Y28729684D01*
X24585504Y28631214D01*
X24658262Y28590551D01*
X24660865Y28589096D01*
X24693940Y28550778D01*
X24694647Y28500164D01*
X24662654Y28460937D01*
X24624763Y28450500D01*
X23168530Y28450500D01*
X23120964Y28467813D01*
X23095654Y28511650D01*
X23104444Y28561500D01*
X23135165Y28590551D01*
X23165839Y28606045D01*
X23165842Y28606047D01*
X23169073Y28607679D01*
X23325232Y28729684D01*
X23454720Y28879697D01*
X23456503Y28882836D01*
X23456506Y28882840D01*
X23503662Y28965851D01*
X23552604Y29052004D01*
X23555173Y29059727D01*
X23614013Y29236605D01*
X23614014Y29236608D01*
X23615156Y29240042D01*
X23639993Y29436649D01*
X23640389Y29465000D01*
X23632778Y29542628D01*
X23621404Y29658620D01*
X23621051Y29662223D01*
X23617943Y29672519D01*
X23608708Y29703107D01*
X23563774Y29851935D01*
X23517257Y29939421D01*
X23472438Y30023713D01*
X23472437Y30023714D01*
X23470739Y30026908D01*
X23353840Y30170240D01*
X23347777Y30177674D01*
X23347776Y30177675D01*
X23345490Y30180478D01*
X23192798Y30306796D01*
X23175188Y30316318D01*
X23021662Y30399329D01*
X23018479Y30401050D01*
X22829172Y30459650D01*
X22632089Y30480364D01*
X22628485Y30480036D01*
X22628484Y30480036D01*
X22438348Y30462733D01*
X22438346Y30462733D01*
X22434735Y30462404D01*
X22244629Y30406452D01*
X22241430Y30404780D01*
X22241426Y30404778D01*
X22072217Y30316318D01*
X22072214Y30316316D01*
X22069010Y30314641D01*
X22066192Y30312375D01*
X22066190Y30312374D01*
X22050519Y30299774D01*
X21914570Y30190468D01*
X21912244Y30187696D01*
X21912242Y30187694D01*
X21850879Y30114564D01*
X21787189Y30038661D01*
X21785447Y30035493D01*
X21785446Y30035491D01*
X21779059Y30023873D01*
X21691720Y29865004D01*
X21631800Y29676111D01*
X21609710Y29479177D01*
X21610013Y29475568D01*
X21610013Y29475566D01*
X21618285Y29377054D01*
X21626292Y29281703D01*
X21680915Y29091210D01*
X21771498Y28914955D01*
X21801613Y28876960D01*
X21892340Y28762490D01*
X21892343Y28762486D01*
X21894590Y28759652D01*
X21897344Y28757309D01*
X21897346Y28757306D01*
X21929802Y28729684D01*
X22045504Y28631214D01*
X22118262Y28590551D01*
X22120865Y28589096D01*
X22153940Y28550778D01*
X22154647Y28500164D01*
X22122654Y28460937D01*
X22084763Y28450500D01*
X20628530Y28450500D01*
X20580964Y28467813D01*
X20555654Y28511650D01*
X20564444Y28561500D01*
X20595165Y28590551D01*
X20625839Y28606045D01*
X20625842Y28606047D01*
X20629073Y28607679D01*
X20785232Y28729684D01*
X20914720Y28879697D01*
X20916503Y28882836D01*
X20916506Y28882840D01*
X20963662Y28965851D01*
X21012604Y29052004D01*
X21015173Y29059727D01*
X21074013Y29236605D01*
X21074014Y29236608D01*
X21075156Y29240042D01*
X21099993Y29436649D01*
X21100389Y29465000D01*
X21092778Y29542628D01*
X21081404Y29658620D01*
X21081051Y29662223D01*
X21077943Y29672519D01*
X21068708Y29703107D01*
X21023774Y29851935D01*
X20977257Y29939421D01*
X20932438Y30023713D01*
X20932437Y30023714D01*
X20930739Y30026908D01*
X20813840Y30170240D01*
X20807777Y30177674D01*
X20807776Y30177675D01*
X20805490Y30180478D01*
X20652798Y30306796D01*
X20635188Y30316318D01*
X20481662Y30399329D01*
X20478479Y30401050D01*
X20289172Y30459650D01*
X20092089Y30480364D01*
X20088485Y30480036D01*
X20088484Y30480036D01*
X19898348Y30462733D01*
X19898346Y30462733D01*
X19894735Y30462404D01*
X19704629Y30406452D01*
X19701430Y30404780D01*
X19701426Y30404778D01*
X19532217Y30316318D01*
X19532214Y30316316D01*
X19529010Y30314641D01*
X19526192Y30312375D01*
X19526190Y30312374D01*
X19510519Y30299774D01*
X19374570Y30190468D01*
X19372244Y30187696D01*
X19372242Y30187694D01*
X19310879Y30114564D01*
X19247189Y30038661D01*
X19245447Y30035493D01*
X19245446Y30035491D01*
X19239059Y30023873D01*
X19151720Y29865004D01*
X19091800Y29676111D01*
X19069710Y29479177D01*
X19070013Y29475568D01*
X19070013Y29475566D01*
X19078285Y29377054D01*
X19086292Y29281703D01*
X19140915Y29091210D01*
X19231498Y28914955D01*
X19261613Y28876960D01*
X19352340Y28762490D01*
X19352343Y28762486D01*
X19354590Y28759652D01*
X19357344Y28757309D01*
X19357346Y28757306D01*
X19389802Y28729684D01*
X19505504Y28631214D01*
X19578262Y28590551D01*
X19580865Y28589096D01*
X19613940Y28550778D01*
X19614647Y28500164D01*
X19582654Y28460937D01*
X19544763Y28450500D01*
X18088530Y28450500D01*
X18040964Y28467813D01*
X18015654Y28511650D01*
X18024444Y28561500D01*
X18055165Y28590551D01*
X18085839Y28606045D01*
X18085842Y28606047D01*
X18089073Y28607679D01*
X18245232Y28729684D01*
X18374720Y28879697D01*
X18376503Y28882836D01*
X18376506Y28882840D01*
X18423662Y28965851D01*
X18472604Y29052004D01*
X18475173Y29059727D01*
X18534013Y29236605D01*
X18534014Y29236608D01*
X18535156Y29240042D01*
X18559993Y29436649D01*
X18560389Y29465000D01*
X18552778Y29542628D01*
X18541404Y29658620D01*
X18541051Y29662223D01*
X18537943Y29672519D01*
X18528708Y29703107D01*
X18483774Y29851935D01*
X18437257Y29939421D01*
X18392438Y30023713D01*
X18392437Y30023714D01*
X18390739Y30026908D01*
X18273840Y30170240D01*
X18267777Y30177674D01*
X18267776Y30177675D01*
X18265490Y30180478D01*
X18112798Y30306796D01*
X18095188Y30316318D01*
X17941662Y30399329D01*
X17938479Y30401050D01*
X17749172Y30459650D01*
X17552089Y30480364D01*
X17548485Y30480036D01*
X17548484Y30480036D01*
X17358348Y30462733D01*
X17358346Y30462733D01*
X17354735Y30462404D01*
X17164629Y30406452D01*
X17161430Y30404780D01*
X17161426Y30404778D01*
X16992217Y30316318D01*
X16992214Y30316316D01*
X16989010Y30314641D01*
X16986192Y30312375D01*
X16986190Y30312374D01*
X16970519Y30299774D01*
X16834570Y30190468D01*
X16832244Y30187696D01*
X16832242Y30187694D01*
X16770879Y30114564D01*
X16707189Y30038661D01*
X16705447Y30035493D01*
X16705446Y30035491D01*
X16699059Y30023873D01*
X16611720Y29865004D01*
X16551800Y29676111D01*
X16529710Y29479177D01*
X16530013Y29475568D01*
X16530013Y29475566D01*
X16538285Y29377054D01*
X16546292Y29281703D01*
X16600915Y29091210D01*
X16691498Y28914955D01*
X16721613Y28876960D01*
X16812340Y28762490D01*
X16812343Y28762486D01*
X16814590Y28759652D01*
X16817344Y28757309D01*
X16817346Y28757306D01*
X16849802Y28729684D01*
X16965504Y28631214D01*
X17038262Y28590551D01*
X17040865Y28589096D01*
X17073940Y28550778D01*
X17074647Y28500164D01*
X17042654Y28460937D01*
X17004763Y28450500D01*
X15548530Y28450500D01*
X15500964Y28467813D01*
X15475654Y28511650D01*
X15484444Y28561500D01*
X15515165Y28590551D01*
X15545839Y28606045D01*
X15545842Y28606047D01*
X15549073Y28607679D01*
X15705232Y28729684D01*
X15834720Y28879697D01*
X15836503Y28882836D01*
X15836506Y28882840D01*
X15883662Y28965851D01*
X15932604Y29052004D01*
X15935173Y29059727D01*
X15994013Y29236605D01*
X15994014Y29236608D01*
X15995156Y29240042D01*
X16019993Y29436649D01*
X16020389Y29465000D01*
X16012778Y29542628D01*
X16001404Y29658620D01*
X16001051Y29662223D01*
X15997943Y29672519D01*
X15988708Y29703107D01*
X15943774Y29851935D01*
X15897257Y29939421D01*
X15852438Y30023713D01*
X15852437Y30023714D01*
X15850739Y30026908D01*
X15733840Y30170240D01*
X15727777Y30177674D01*
X15727776Y30177675D01*
X15725490Y30180478D01*
X15572798Y30306796D01*
X15555188Y30316318D01*
X15401662Y30399329D01*
X15398479Y30401050D01*
X15209172Y30459650D01*
X15012089Y30480364D01*
X15008485Y30480036D01*
X15008484Y30480036D01*
X14818348Y30462733D01*
X14818346Y30462733D01*
X14814735Y30462404D01*
X14624629Y30406452D01*
X14621430Y30404780D01*
X14621426Y30404778D01*
X14452217Y30316318D01*
X14452214Y30316316D01*
X14449010Y30314641D01*
X14446192Y30312375D01*
X14446190Y30312374D01*
X14430519Y30299774D01*
X14294570Y30190468D01*
X14292244Y30187696D01*
X14292242Y30187694D01*
X14230879Y30114564D01*
X14167189Y30038661D01*
X14165447Y30035493D01*
X14165446Y30035491D01*
X14159059Y30023873D01*
X14071720Y29865004D01*
X14011800Y29676111D01*
X13989710Y29479177D01*
X13990013Y29475568D01*
X13990013Y29475566D01*
X13998285Y29377054D01*
X14006292Y29281703D01*
X14060915Y29091210D01*
X14151498Y28914955D01*
X14181613Y28876960D01*
X14272340Y28762490D01*
X14272343Y28762486D01*
X14274590Y28759652D01*
X14277344Y28757309D01*
X14277346Y28757306D01*
X14309802Y28729684D01*
X14425504Y28631214D01*
X14498262Y28590551D01*
X14500865Y28589096D01*
X14533940Y28550778D01*
X14534647Y28500164D01*
X14502654Y28460937D01*
X14464763Y28450500D01*
X13008530Y28450500D01*
X12960964Y28467813D01*
X12935654Y28511650D01*
X12944444Y28561500D01*
X12975165Y28590551D01*
X13005839Y28606045D01*
X13005842Y28606047D01*
X13009073Y28607679D01*
X13165232Y28729684D01*
X13294720Y28879697D01*
X13296503Y28882836D01*
X13296506Y28882840D01*
X13343662Y28965851D01*
X13392604Y29052004D01*
X13395173Y29059727D01*
X13454013Y29236605D01*
X13454014Y29236608D01*
X13455156Y29240042D01*
X13479993Y29436649D01*
X13480389Y29465000D01*
X13472778Y29542628D01*
X13461404Y29658620D01*
X13461051Y29662223D01*
X13457943Y29672519D01*
X13448708Y29703107D01*
X13403774Y29851935D01*
X13357257Y29939421D01*
X13312438Y30023713D01*
X13312437Y30023714D01*
X13310739Y30026908D01*
X13193840Y30170240D01*
X13187777Y30177674D01*
X13187776Y30177675D01*
X13185490Y30180478D01*
X13032798Y30306796D01*
X13015188Y30316318D01*
X12861662Y30399329D01*
X12858479Y30401050D01*
X12669172Y30459650D01*
X12472089Y30480364D01*
X12468485Y30480036D01*
X12468484Y30480036D01*
X12278348Y30462733D01*
X12278346Y30462733D01*
X12274735Y30462404D01*
X12084629Y30406452D01*
X12081430Y30404780D01*
X12081426Y30404778D01*
X11912217Y30316318D01*
X11912214Y30316316D01*
X11909010Y30314641D01*
X11906192Y30312375D01*
X11906190Y30312374D01*
X11890519Y30299774D01*
X11754570Y30190468D01*
X11752244Y30187696D01*
X11752242Y30187694D01*
X11690879Y30114564D01*
X11627189Y30038661D01*
X11625447Y30035493D01*
X11625446Y30035491D01*
X11619059Y30023873D01*
X11531720Y29865004D01*
X11471800Y29676111D01*
X11449710Y29479177D01*
X11450013Y29475568D01*
X11450013Y29475566D01*
X11458285Y29377054D01*
X11466292Y29281703D01*
X11520915Y29091210D01*
X11611498Y28914955D01*
X11641613Y28876960D01*
X11732340Y28762490D01*
X11732343Y28762486D01*
X11734590Y28759652D01*
X11737344Y28757309D01*
X11737346Y28757306D01*
X11769802Y28729684D01*
X11885504Y28631214D01*
X11958262Y28590551D01*
X11960865Y28589096D01*
X11993940Y28550778D01*
X11994647Y28500164D01*
X11962654Y28460937D01*
X11924763Y28450500D01*
X10468530Y28450500D01*
X10420964Y28467813D01*
X10395654Y28511650D01*
X10404444Y28561500D01*
X10435165Y28590551D01*
X10465839Y28606045D01*
X10465842Y28606047D01*
X10469073Y28607679D01*
X10625232Y28729684D01*
X10754720Y28879697D01*
X10756503Y28882836D01*
X10756506Y28882840D01*
X10803662Y28965851D01*
X10852604Y29052004D01*
X10855173Y29059727D01*
X10914013Y29236605D01*
X10914014Y29236608D01*
X10915156Y29240042D01*
X10939993Y29436649D01*
X10940389Y29465000D01*
X10932778Y29542628D01*
X10921404Y29658620D01*
X10921051Y29662223D01*
X10917943Y29672519D01*
X10908708Y29703107D01*
X10863774Y29851935D01*
X10817257Y29939421D01*
X10772438Y30023713D01*
X10772437Y30023714D01*
X10770739Y30026908D01*
X10653840Y30170240D01*
X10647777Y30177674D01*
X10647776Y30177675D01*
X10645490Y30180478D01*
X10492798Y30306796D01*
X10475188Y30316318D01*
X10321662Y30399329D01*
X10318479Y30401050D01*
X10129172Y30459650D01*
X9932089Y30480364D01*
X9928485Y30480036D01*
X9928484Y30480036D01*
X9738348Y30462733D01*
X9738346Y30462733D01*
X9734735Y30462404D01*
X9544629Y30406452D01*
X9541430Y30404780D01*
X9541426Y30404778D01*
X9372217Y30316318D01*
X9372214Y30316316D01*
X9369010Y30314641D01*
X9366192Y30312375D01*
X9366190Y30312374D01*
X9350519Y30299774D01*
X9214570Y30190468D01*
X9212244Y30187696D01*
X9212242Y30187694D01*
X9150879Y30114564D01*
X9087189Y30038661D01*
X9085447Y30035493D01*
X9085446Y30035491D01*
X9079059Y30023873D01*
X8991720Y29865004D01*
X8931800Y29676111D01*
X8909710Y29479177D01*
X8910013Y29475568D01*
X8910013Y29475566D01*
X8918285Y29377054D01*
X8926292Y29281703D01*
X8980915Y29091210D01*
X9071498Y28914955D01*
X9101613Y28876960D01*
X9192340Y28762490D01*
X9192343Y28762486D01*
X9194590Y28759652D01*
X9197344Y28757309D01*
X9197346Y28757306D01*
X9229802Y28729684D01*
X9345504Y28631214D01*
X9418262Y28590551D01*
X9420865Y28589096D01*
X9453940Y28550778D01*
X9454647Y28500164D01*
X9422654Y28460937D01*
X9384763Y28450500D01*
X7905246Y28450500D01*
X7857680Y28467813D01*
X7832370Y28511650D01*
X7841160Y28561500D01*
X7871881Y28590551D01*
X7920187Y28614952D01*
X7926269Y28618812D01*
X8075104Y28735095D01*
X8080323Y28740065D01*
X8203736Y28883041D01*
X8207885Y28888921D01*
X8301180Y29053152D01*
X8304108Y29059727D01*
X8363725Y29238942D01*
X8365322Y29245976D01*
X8381882Y29377054D01*
X8379525Y29387427D01*
X8376135Y29390000D01*
X6400783Y29390000D01*
X6390787Y29386362D01*
X6388389Y29382208D01*
X6396366Y29287215D01*
X6397667Y29280127D01*
X6449727Y29098573D01*
X6452377Y29091878D01*
X6538711Y28923890D01*
X6542616Y28917832D01*
X6659930Y28769818D01*
X6664935Y28764634D01*
X6808768Y28642224D01*
X6814687Y28638110D01*
X6902387Y28589096D01*
X6935462Y28550778D01*
X6936169Y28500164D01*
X6904176Y28460937D01*
X6866285Y28450500D01*
X2473926Y28450500D01*
X2459489Y28451922D01*
X2448128Y28454182D01*
X2448126Y28454182D01*
X2440978Y28455604D01*
X2415320Y28450500D01*
X2346483Y28436807D01*
X2346482Y28436806D01*
X2339336Y28435385D01*
X2302533Y28410794D01*
X2272998Y28399234D01*
X2159571Y28381269D01*
X2154383Y28378626D01*
X2154381Y28378625D01*
X2116929Y28359542D01*
X2055000Y28327988D01*
X1972012Y28245000D01*
X1918731Y28140429D01*
X1900371Y28024511D01*
X1918731Y27908593D01*
X1921374Y27903405D01*
X1921375Y27903403D01*
X1940203Y27866452D01*
X1972012Y27804022D01*
X2055000Y27721034D01*
X2104978Y27695569D01*
X2154381Y27670397D01*
X2154383Y27670396D01*
X2159571Y27667753D01*
X2275489Y27649393D01*
X2391407Y27667753D01*
X2396595Y27670396D01*
X2396597Y27670397D01*
X2446000Y27695569D01*
X2495978Y27721034D01*
X2578966Y27804022D01*
X2622313Y27889096D01*
X2659332Y27923617D01*
X2688247Y27929500D01*
X6312659Y27929500D01*
X6360225Y27912187D01*
X6385535Y27868350D01*
X6382206Y27837944D01*
X6383813Y27837624D01*
X6378161Y27809208D01*
X6374500Y27790806D01*
X6374500Y26059194D01*
X6375210Y26055625D01*
X6375210Y26055624D01*
X6375511Y26054114D01*
X6383813Y26012376D01*
X6387860Y26006319D01*
X6387861Y26006317D01*
X6410300Y25972735D01*
X6419286Y25959286D01*
X6425346Y25955237D01*
X6466317Y25927861D01*
X6466319Y25927860D01*
X6472376Y25923813D01*
X6479521Y25922392D01*
X6479523Y25922391D01*
X6515624Y25915210D01*
X6515625Y25915210D01*
X6519194Y25914500D01*
X7050500Y25914500D01*
X7098066Y25897187D01*
X7123376Y25853350D01*
X7124500Y25840500D01*
X7124500Y14247942D01*
X7123078Y14233506D01*
X7119397Y14215000D01*
X7124500Y14189346D01*
X7139615Y14113358D01*
X7197190Y14027190D01*
X7203250Y14023141D01*
X7212882Y14016705D01*
X7224096Y14007502D01*
X9804271Y11427326D01*
X9825663Y11381450D01*
X9812562Y11332555D01*
X9804271Y11322674D01*
X8174981Y9693383D01*
X8134232Y9672621D01*
X8034082Y9656758D01*
X8028894Y9654115D01*
X8028892Y9654114D01*
X7979489Y9628942D01*
X7929511Y9603477D01*
X7846523Y9520489D01*
X7793242Y9415918D01*
X7774882Y9300000D01*
X7793242Y9184082D01*
X7795885Y9178894D01*
X7795886Y9178892D01*
X7813396Y9144526D01*
X7825053Y9121650D01*
X7826864Y9118095D01*
X7833032Y9067854D01*
X7805463Y9025401D01*
X7760929Y9010500D01*
X6944118Y9010500D01*
X6896552Y9027813D01*
X6891792Y9032174D01*
X6870489Y9053477D01*
X6814167Y9082174D01*
X6771108Y9104114D01*
X6771106Y9104115D01*
X6765918Y9106758D01*
X6650000Y9125118D01*
X6534082Y9106758D01*
X6528894Y9104115D01*
X6528892Y9104114D01*
X6485833Y9082174D01*
X6429511Y9053477D01*
X6346523Y8970489D01*
X6293242Y8865918D01*
X6274882Y8750000D01*
X6293242Y8634082D01*
X6295885Y8628894D01*
X6295886Y8628892D01*
X6333661Y8554754D01*
X6345589Y8531344D01*
X6345590Y8531341D01*
X6346523Y8529511D01*
X6346167Y8529330D01*
X6359070Y8484342D01*
X6338484Y8438098D01*
X6292989Y8415906D01*
X6285250Y8415500D01*
X3569346Y8415500D01*
X3565777Y8414790D01*
X3565776Y8414790D01*
X3541449Y8409951D01*
X3513101Y8404312D01*
X3463071Y8412012D01*
X3429695Y8450069D01*
X3428591Y8500676D01*
X3438344Y8519756D01*
X3444521Y8528448D01*
X3447442Y8532558D01*
X3465942Y8583942D01*
X3496824Y8669721D01*
X3498533Y8674468D01*
X3500024Y8694761D01*
X3509210Y8819858D01*
X3509580Y8824891D01*
X3501308Y8865918D01*
X3480764Y8967800D01*
X3480763Y8967802D01*
X3479767Y8972743D01*
X3411293Y9107132D01*
X3353128Y9170386D01*
X3312618Y9214441D01*
X3312614Y9214444D01*
X3309201Y9218156D01*
X3304915Y9220813D01*
X3304912Y9220816D01*
X3223572Y9271248D01*
X3181014Y9297635D01*
X3093016Y9323201D01*
X3039897Y9338634D01*
X3039894Y9338635D01*
X3036175Y9339715D01*
X3031303Y9340073D01*
X3026840Y9340401D01*
X3026826Y9340401D01*
X3025485Y9340500D01*
X2917215Y9340500D01*
X2805568Y9325206D01*
X2667145Y9265305D01*
X2612206Y9220816D01*
X2553849Y9173560D01*
X2553847Y9173558D01*
X2549930Y9170386D01*
X2547008Y9166274D01*
X2465479Y9051553D01*
X2465477Y9051550D01*
X2462558Y9047442D01*
X2460850Y9042698D01*
X2449258Y9010500D01*
X2411467Y8905532D01*
X2411098Y8900503D01*
X2411097Y8900500D01*
X2400997Y8762962D01*
X2380247Y8716792D01*
X2334674Y8694761D01*
X2305765Y8699004D01*
X2305486Y8697963D01*
X2300797Y8699220D01*
X2296320Y8701074D01*
X2291518Y8701706D01*
X2291515Y8701707D01*
X2211701Y8712214D01*
X2186741Y8715500D01*
X1413259Y8715500D01*
X1388299Y8712214D01*
X1308485Y8701707D01*
X1308482Y8701706D01*
X1303680Y8701074D01*
X1167332Y8644596D01*
X1163487Y8641646D01*
X1163484Y8641644D01*
X1056486Y8559542D01*
X1050246Y8554754D01*
X1047291Y8550903D01*
X963356Y8441517D01*
X963354Y8441514D01*
X960404Y8437669D01*
X903926Y8301320D01*
X884663Y8155000D01*
X885296Y8150192D01*
X900056Y8038078D01*
X903926Y8008680D01*
X960404Y7872332D01*
X963354Y7868487D01*
X963356Y7868484D01*
X1015892Y7800017D01*
X1050246Y7755246D01*
X1054097Y7752291D01*
X1163484Y7668356D01*
X1163487Y7668354D01*
X1167332Y7665404D01*
X1303680Y7608926D01*
X1308482Y7608294D01*
X1308485Y7608293D01*
X1388299Y7597786D01*
X1413259Y7594500D01*
X2186741Y7594500D01*
X2211701Y7597786D01*
X2291515Y7608293D01*
X2291518Y7608294D01*
X2296320Y7608926D01*
X2302150Y7611341D01*
X2303033Y7611380D01*
X2305486Y7612037D01*
X2305632Y7611493D01*
X2352720Y7613551D01*
X2392880Y7582738D01*
X2404272Y7537555D01*
X2400997Y7492962D01*
X2380247Y7446791D01*
X2334674Y7424761D01*
X2305765Y7429004D01*
X2305486Y7427963D01*
X2300797Y7429220D01*
X2296320Y7431074D01*
X2291518Y7431706D01*
X2291515Y7431707D01*
X2211701Y7442214D01*
X2186741Y7445500D01*
X1413259Y7445500D01*
X1388299Y7442214D01*
X1308485Y7431707D01*
X1308482Y7431706D01*
X1303680Y7431074D01*
X1167332Y7374596D01*
X1163487Y7371646D01*
X1163484Y7371644D01*
X1160530Y7369377D01*
X1050246Y7284754D01*
X1047291Y7280903D01*
X963356Y7171517D01*
X963354Y7171514D01*
X960404Y7167669D01*
X903926Y7031320D01*
X903294Y7026518D01*
X903293Y7026515D01*
X900421Y7004698D01*
X884663Y6885000D01*
X903926Y6738680D01*
X960404Y6602332D01*
X963354Y6598487D01*
X963356Y6598484D01*
X1047291Y6489097D01*
X1050246Y6485246D01*
X1054097Y6482291D01*
X1163484Y6398356D01*
X1163487Y6398354D01*
X1167332Y6395404D01*
X1303680Y6338926D01*
X1308482Y6338294D01*
X1308485Y6338293D01*
X1388299Y6327786D01*
X1413259Y6324500D01*
X2186741Y6324500D01*
X2211701Y6327786D01*
X2291515Y6338293D01*
X2291518Y6338294D01*
X2296320Y6338926D01*
X2302150Y6341341D01*
X2303033Y6341380D01*
X2305486Y6342037D01*
X2305632Y6341493D01*
X2352720Y6343551D01*
X2392880Y6312738D01*
X2404272Y6267555D01*
X2400997Y6222962D01*
X2380247Y6176791D01*
X2334674Y6154761D01*
X2305765Y6159004D01*
X2305486Y6157963D01*
X2300797Y6159220D01*
X2296320Y6161074D01*
X2291518Y6161706D01*
X2291515Y6161707D01*
X2211701Y6172214D01*
X2186741Y6175500D01*
X1413259Y6175500D01*
X1388299Y6172214D01*
X1308485Y6161707D01*
X1308482Y6161706D01*
X1303680Y6161074D01*
X1167332Y6104596D01*
X1163487Y6101646D01*
X1163484Y6101644D01*
X1054097Y6017709D01*
X1050246Y6014754D01*
X1047291Y6010903D01*
X963356Y5901517D01*
X963354Y5901514D01*
X960404Y5897669D01*
X903926Y5761320D01*
X903294Y5756518D01*
X903293Y5756515D01*
X896033Y5701367D01*
X884663Y5615000D01*
X885296Y5610192D01*
X901781Y5484976D01*
X903926Y5468680D01*
X960404Y5332332D01*
X963354Y5328487D01*
X963356Y5328484D01*
X1027992Y5244248D01*
X1050246Y5215246D01*
X1054097Y5212291D01*
X1163484Y5128356D01*
X1163487Y5128354D01*
X1167332Y5125404D01*
X1303680Y5068926D01*
X1308482Y5068294D01*
X1308485Y5068293D01*
X1382275Y5058579D01*
X1413259Y5054500D01*
X2186741Y5054500D01*
X2217725Y5058579D01*
X2291515Y5068293D01*
X2291518Y5068294D01*
X2296320Y5068926D01*
X2302150Y5071341D01*
X2303033Y5071380D01*
X2305486Y5072037D01*
X2305632Y5071493D01*
X2352720Y5073551D01*
X2392880Y5042738D01*
X2404272Y4997556D01*
X2401966Y4966161D01*
X2400997Y4952962D01*
X2380247Y4906791D01*
X2334674Y4884761D01*
X2305765Y4889004D01*
X2305486Y4887963D01*
X2300797Y4889220D01*
X2296320Y4891074D01*
X2291518Y4891706D01*
X2291515Y4891707D01*
X2194458Y4904484D01*
X2186741Y4905500D01*
X1413259Y4905500D01*
X1405542Y4904484D01*
X1308485Y4891707D01*
X1308482Y4891706D01*
X1303680Y4891074D01*
X1167332Y4834596D01*
X1163487Y4831646D01*
X1163484Y4831644D01*
X1090121Y4775351D01*
X1050246Y4744754D01*
X1047291Y4740903D01*
X963356Y4631517D01*
X963354Y4631514D01*
X960404Y4627669D01*
X903926Y4491320D01*
X903294Y4486518D01*
X903293Y4486515D01*
X897540Y4442813D01*
X884663Y4345000D01*
X300000Y4345000D01*
X300000Y28307216D01*
X317313Y28354782D01*
X321674Y28359542D01*
X1515099Y29552967D01*
X6388552Y29552967D01*
X6391054Y29542628D01*
X6394619Y29540000D01*
X7296952Y29540000D01*
X7306948Y29543638D01*
X7310000Y29548925D01*
X7310000Y29553048D01*
X7460000Y29553048D01*
X7463638Y29543052D01*
X7468925Y29540000D01*
X8369437Y29540000D01*
X8379433Y29543638D01*
X8381737Y29547629D01*
X8371055Y29656571D01*
X8369656Y29663639D01*
X8315065Y29844451D01*
X8312321Y29851109D01*
X8223651Y30017874D01*
X8219665Y30023873D01*
X8100291Y30170240D01*
X8095215Y30175351D01*
X7949694Y30295737D01*
X7943709Y30299774D01*
X7777574Y30389603D01*
X7770936Y30392393D01*
X7590510Y30448244D01*
X7583450Y30449693D01*
X7472977Y30461305D01*
X7462657Y30458732D01*
X7460000Y30455075D01*
X7460000Y29553048D01*
X7310000Y29553048D01*
X7310000Y30449303D01*
X7306362Y30459299D01*
X7302290Y30461649D01*
X7200325Y30452370D01*
X7193234Y30451017D01*
X7012048Y30397690D01*
X7005378Y30394996D01*
X6837994Y30307490D01*
X6831967Y30303546D01*
X6684770Y30185197D01*
X6679623Y30180156D01*
X6558221Y30035475D01*
X6554152Y30029531D01*
X6463159Y29864016D01*
X6460323Y29857399D01*
X6403212Y29677365D01*
X6401716Y29670327D01*
X6388552Y29552967D01*
X1515099Y29552967D01*
X2790458Y30828326D01*
X2836334Y30849718D01*
X2842784Y30850000D01*
X38926000Y30850000D01*
X38973566Y30832687D01*
G37*
%TD.AperFunction*%
%TA.AperFunction,Conductor*%
G36*
X11951520Y27912187D02*
G01*
X11976830Y27868350D01*
X11968040Y27818500D01*
X11938238Y27789921D01*
X11912217Y27776318D01*
X11912214Y27776316D01*
X11909010Y27774641D01*
X11906192Y27772375D01*
X11906190Y27772374D01*
X11890519Y27759774D01*
X11754570Y27650468D01*
X11752244Y27647696D01*
X11752242Y27647694D01*
X11690879Y27574564D01*
X11627189Y27498661D01*
X11625447Y27495493D01*
X11625446Y27495491D01*
X11619059Y27483873D01*
X11531720Y27325004D01*
X11471800Y27136111D01*
X11449710Y26939177D01*
X11450013Y26935568D01*
X11450013Y26935566D01*
X11457948Y26841075D01*
X11466292Y26741703D01*
X11520915Y26551210D01*
X11611498Y26374955D01*
X11641613Y26336960D01*
X11732340Y26222490D01*
X11732343Y26222486D01*
X11734590Y26219652D01*
X11737344Y26217309D01*
X11737346Y26217306D01*
X11769802Y26189684D01*
X11885504Y26091214D01*
X11915947Y26074200D01*
X12055331Y25996300D01*
X12055335Y25996298D01*
X12058490Y25994535D01*
X12246960Y25933298D01*
X12308071Y25926011D01*
X12440135Y25910263D01*
X12440138Y25910263D01*
X12443735Y25909834D01*
X12495235Y25913797D01*
X12637710Y25924759D01*
X12637712Y25924759D01*
X12641320Y25925037D01*
X12832190Y25978329D01*
X12862059Y25993417D01*
X13005839Y26066045D01*
X13005842Y26066047D01*
X13009073Y26067679D01*
X13165232Y26189684D01*
X13294720Y26339697D01*
X13296503Y26342836D01*
X13296506Y26342840D01*
X13372206Y26476097D01*
X13392604Y26512004D01*
X13395173Y26519727D01*
X13454013Y26696605D01*
X13454014Y26696608D01*
X13455156Y26700042D01*
X13479993Y26896649D01*
X13480389Y26925000D01*
X13472778Y27002628D01*
X13461404Y27118620D01*
X13461051Y27122223D01*
X13457943Y27132519D01*
X13406528Y27302813D01*
X13403774Y27311935D01*
X13357257Y27399421D01*
X13312438Y27483713D01*
X13312437Y27483714D01*
X13310739Y27486908D01*
X13193840Y27630240D01*
X13187777Y27637674D01*
X13187776Y27637675D01*
X13185490Y27640478D01*
X13032798Y27766796D01*
X13015188Y27776318D01*
X13006938Y27780779D01*
X12989132Y27790406D01*
X12955525Y27828259D01*
X12954111Y27878858D01*
X12985553Y27918528D01*
X13024328Y27929500D01*
X14443954Y27929500D01*
X14491520Y27912187D01*
X14516830Y27868350D01*
X14508040Y27818500D01*
X14478238Y27789921D01*
X14452217Y27776318D01*
X14452214Y27776316D01*
X14449010Y27774641D01*
X14446192Y27772375D01*
X14446190Y27772374D01*
X14430519Y27759774D01*
X14294570Y27650468D01*
X14292244Y27647696D01*
X14292242Y27647694D01*
X14230879Y27574564D01*
X14167189Y27498661D01*
X14165447Y27495493D01*
X14165446Y27495491D01*
X14159059Y27483873D01*
X14071720Y27325004D01*
X14011800Y27136111D01*
X13989710Y26939177D01*
X13990013Y26935568D01*
X13990013Y26935566D01*
X13997948Y26841075D01*
X14006292Y26741703D01*
X14060915Y26551210D01*
X14151498Y26374955D01*
X14181613Y26336960D01*
X14272340Y26222490D01*
X14272343Y26222486D01*
X14274590Y26219652D01*
X14277344Y26217309D01*
X14277346Y26217306D01*
X14309802Y26189684D01*
X14425504Y26091214D01*
X14455947Y26074200D01*
X14595331Y25996300D01*
X14595335Y25996298D01*
X14598490Y25994535D01*
X14786960Y25933298D01*
X14848071Y25926011D01*
X14980135Y25910263D01*
X14980138Y25910263D01*
X14983735Y25909834D01*
X15035235Y25913797D01*
X15177710Y25924759D01*
X15177712Y25924759D01*
X15181320Y25925037D01*
X15372190Y25978329D01*
X15402059Y25993417D01*
X15545839Y26066045D01*
X15545842Y26066047D01*
X15549073Y26067679D01*
X15705232Y26189684D01*
X15834720Y26339697D01*
X15836503Y26342836D01*
X15836506Y26342840D01*
X15912206Y26476097D01*
X15932604Y26512004D01*
X15935173Y26519727D01*
X15994013Y26696605D01*
X15994014Y26696608D01*
X15995156Y26700042D01*
X16019993Y26896649D01*
X16020389Y26925000D01*
X16012778Y27002628D01*
X16001404Y27118620D01*
X16001051Y27122223D01*
X15997943Y27132519D01*
X15946528Y27302813D01*
X15943774Y27311935D01*
X15897257Y27399421D01*
X15852438Y27483713D01*
X15852437Y27483714D01*
X15850739Y27486908D01*
X15733840Y27630240D01*
X15727777Y27637674D01*
X15727776Y27637675D01*
X15725490Y27640478D01*
X15572798Y27766796D01*
X15555188Y27776318D01*
X15546938Y27780779D01*
X15529132Y27790406D01*
X15495525Y27828259D01*
X15494111Y27878858D01*
X15525553Y27918528D01*
X15564328Y27929500D01*
X16983954Y27929500D01*
X17031520Y27912187D01*
X17056830Y27868350D01*
X17048040Y27818500D01*
X17018238Y27789921D01*
X16992217Y27776318D01*
X16992214Y27776316D01*
X16989010Y27774641D01*
X16986192Y27772375D01*
X16986190Y27772374D01*
X16970519Y27759774D01*
X16834570Y27650468D01*
X16832244Y27647696D01*
X16832242Y27647694D01*
X16770879Y27574564D01*
X16707189Y27498661D01*
X16705447Y27495493D01*
X16705446Y27495491D01*
X16699059Y27483873D01*
X16611720Y27325004D01*
X16551800Y27136111D01*
X16529710Y26939177D01*
X16530013Y26935568D01*
X16530013Y26935566D01*
X16537948Y26841075D01*
X16546292Y26741703D01*
X16600915Y26551210D01*
X16691498Y26374955D01*
X16721613Y26336960D01*
X16812340Y26222490D01*
X16812343Y26222486D01*
X16814590Y26219652D01*
X16817344Y26217309D01*
X16817346Y26217306D01*
X16849802Y26189684D01*
X16965504Y26091214D01*
X16995947Y26074200D01*
X17135331Y25996300D01*
X17135335Y25996298D01*
X17138490Y25994535D01*
X17326960Y25933298D01*
X17388071Y25926011D01*
X17520135Y25910263D01*
X17520138Y25910263D01*
X17523735Y25909834D01*
X17575235Y25913797D01*
X17717710Y25924759D01*
X17717712Y25924759D01*
X17721320Y25925037D01*
X17912190Y25978329D01*
X17942059Y25993417D01*
X18085839Y26066045D01*
X18085842Y26066047D01*
X18089073Y26067679D01*
X18245232Y26189684D01*
X18374720Y26339697D01*
X18376503Y26342836D01*
X18376506Y26342840D01*
X18452206Y26476097D01*
X18472604Y26512004D01*
X18475173Y26519727D01*
X18534013Y26696605D01*
X18534014Y26696608D01*
X18535156Y26700042D01*
X18559993Y26896649D01*
X18560389Y26925000D01*
X18552778Y27002628D01*
X18541404Y27118620D01*
X18541051Y27122223D01*
X18537943Y27132519D01*
X18486528Y27302813D01*
X18483774Y27311935D01*
X18437257Y27399421D01*
X18392438Y27483713D01*
X18392437Y27483714D01*
X18390739Y27486908D01*
X18273840Y27630240D01*
X18267777Y27637674D01*
X18267776Y27637675D01*
X18265490Y27640478D01*
X18112798Y27766796D01*
X18095188Y27776318D01*
X18086938Y27780779D01*
X18069132Y27790406D01*
X18035525Y27828259D01*
X18034111Y27878858D01*
X18065553Y27918528D01*
X18104328Y27929500D01*
X19523954Y27929500D01*
X19571520Y27912187D01*
X19596830Y27868350D01*
X19588040Y27818500D01*
X19558238Y27789921D01*
X19532217Y27776318D01*
X19532214Y27776316D01*
X19529010Y27774641D01*
X19526192Y27772375D01*
X19526190Y27772374D01*
X19510519Y27759774D01*
X19374570Y27650468D01*
X19372244Y27647696D01*
X19372242Y27647694D01*
X19310879Y27574564D01*
X19247189Y27498661D01*
X19245447Y27495493D01*
X19245446Y27495491D01*
X19239059Y27483873D01*
X19151720Y27325004D01*
X19091800Y27136111D01*
X19069710Y26939177D01*
X19070013Y26935568D01*
X19070013Y26935566D01*
X19077948Y26841075D01*
X19086292Y26741703D01*
X19140915Y26551210D01*
X19231498Y26374955D01*
X19261613Y26336960D01*
X19352340Y26222490D01*
X19352343Y26222486D01*
X19354590Y26219652D01*
X19357344Y26217309D01*
X19357346Y26217306D01*
X19389802Y26189684D01*
X19505504Y26091214D01*
X19535947Y26074200D01*
X19675331Y25996300D01*
X19675335Y25996298D01*
X19678490Y25994535D01*
X19866960Y25933298D01*
X19928071Y25926011D01*
X20060135Y25910263D01*
X20060138Y25910263D01*
X20063735Y25909834D01*
X20115235Y25913797D01*
X20257710Y25924759D01*
X20257712Y25924759D01*
X20261320Y25925037D01*
X20452190Y25978329D01*
X20482059Y25993417D01*
X20625839Y26066045D01*
X20625842Y26066047D01*
X20629073Y26067679D01*
X20785232Y26189684D01*
X20914720Y26339697D01*
X20916503Y26342836D01*
X20916506Y26342840D01*
X20992206Y26476097D01*
X21012604Y26512004D01*
X21015173Y26519727D01*
X21074013Y26696605D01*
X21074014Y26696608D01*
X21075156Y26700042D01*
X21093116Y26842208D01*
X21628389Y26842208D01*
X21636366Y26747215D01*
X21637667Y26740127D01*
X21689727Y26558573D01*
X21692377Y26551878D01*
X21778711Y26383890D01*
X21782616Y26377832D01*
X21899930Y26229818D01*
X21904935Y26224634D01*
X22048768Y26102224D01*
X22054687Y26098110D01*
X22219555Y26005968D01*
X22226156Y26003085D01*
X22405780Y25944722D01*
X22412825Y25943173D01*
X22537043Y25928360D01*
X22547400Y25930789D01*
X22550000Y25934264D01*
X22550000Y25940819D01*
X22700000Y25940819D01*
X22703638Y25930823D01*
X22707875Y25928377D01*
X22795877Y25935149D01*
X22802978Y25936401D01*
X22984891Y25987193D01*
X22991599Y25989794D01*
X23160195Y26074957D01*
X23166269Y26078812D01*
X23315104Y26195095D01*
X23320323Y26200065D01*
X23443736Y26343041D01*
X23447885Y26348921D01*
X23541180Y26513152D01*
X23544108Y26519727D01*
X23603725Y26698942D01*
X23605322Y26705976D01*
X23621882Y26837054D01*
X23619525Y26847427D01*
X23616135Y26850000D01*
X22713048Y26850000D01*
X22703052Y26846362D01*
X22700000Y26841075D01*
X22700000Y25940819D01*
X22550000Y25940819D01*
X22550000Y26836952D01*
X22546362Y26846948D01*
X22541075Y26850000D01*
X21640783Y26850000D01*
X21630787Y26846362D01*
X21628389Y26842208D01*
X21093116Y26842208D01*
X21099993Y26896649D01*
X21100389Y26925000D01*
X21092778Y27002628D01*
X21081404Y27118620D01*
X21081051Y27122223D01*
X21077943Y27132519D01*
X21026528Y27302813D01*
X21023774Y27311935D01*
X20977257Y27399421D01*
X20932438Y27483713D01*
X20932437Y27483714D01*
X20930739Y27486908D01*
X20813840Y27630240D01*
X20807777Y27637674D01*
X20807776Y27637675D01*
X20805490Y27640478D01*
X20652798Y27766796D01*
X20635188Y27776318D01*
X20626938Y27780779D01*
X20609132Y27790406D01*
X20575525Y27828259D01*
X20574111Y27878858D01*
X20605553Y27918528D01*
X20644328Y27929500D01*
X22086618Y27929500D01*
X22134184Y27912187D01*
X22159494Y27868350D01*
X22150704Y27818500D01*
X22120902Y27789921D01*
X22077994Y27767489D01*
X22071967Y27763546D01*
X21924770Y27645197D01*
X21919623Y27640156D01*
X21798221Y27495475D01*
X21794152Y27489531D01*
X21703159Y27324016D01*
X21700323Y27317399D01*
X21643212Y27137365D01*
X21641716Y27130327D01*
X21628552Y27012967D01*
X21631054Y27002628D01*
X21634619Y27000000D01*
X23609437Y27000000D01*
X23619433Y27003638D01*
X23621737Y27007629D01*
X23611055Y27116571D01*
X23609656Y27123639D01*
X23555065Y27304451D01*
X23552321Y27311109D01*
X23463651Y27477874D01*
X23459665Y27483873D01*
X23340291Y27630240D01*
X23335215Y27635351D01*
X23189694Y27755737D01*
X23183709Y27759774D01*
X23127056Y27790406D01*
X23093449Y27828259D01*
X23092035Y27878858D01*
X23123477Y27918528D01*
X23162252Y27929500D01*
X24603954Y27929500D01*
X24651520Y27912187D01*
X24676830Y27868350D01*
X24668040Y27818500D01*
X24638238Y27789921D01*
X24612217Y27776318D01*
X24612214Y27776316D01*
X24609010Y27774641D01*
X24606192Y27772375D01*
X24606190Y27772374D01*
X24590519Y27759774D01*
X24454570Y27650468D01*
X24452244Y27647696D01*
X24452242Y27647694D01*
X24390879Y27574564D01*
X24327189Y27498661D01*
X24325447Y27495493D01*
X24325446Y27495491D01*
X24319059Y27483873D01*
X24231720Y27325004D01*
X24171800Y27136111D01*
X24149710Y26939177D01*
X24150013Y26935568D01*
X24150013Y26935566D01*
X24157948Y26841075D01*
X24166292Y26741703D01*
X24220915Y26551210D01*
X24311498Y26374955D01*
X24341613Y26336960D01*
X24432340Y26222490D01*
X24432343Y26222486D01*
X24434590Y26219652D01*
X24437344Y26217309D01*
X24437346Y26217306D01*
X24469802Y26189684D01*
X24585504Y26091214D01*
X24615947Y26074200D01*
X24755331Y25996300D01*
X24755335Y25996298D01*
X24758490Y25994535D01*
X24946960Y25933298D01*
X25008071Y25926011D01*
X25140135Y25910263D01*
X25140138Y25910263D01*
X25143735Y25909834D01*
X25195235Y25913797D01*
X25337710Y25924759D01*
X25337712Y25924759D01*
X25341320Y25925037D01*
X25532190Y25978329D01*
X25562059Y25993417D01*
X25705839Y26066045D01*
X25705842Y26066047D01*
X25709073Y26067679D01*
X25865232Y26189684D01*
X25994720Y26339697D01*
X25996503Y26342836D01*
X25996506Y26342840D01*
X26072206Y26476097D01*
X26092604Y26512004D01*
X26093746Y26515437D01*
X26095218Y26518743D01*
X26096601Y26518127D01*
X26124671Y26553533D01*
X26163438Y26564500D01*
X26708915Y26564500D01*
X26756481Y26547187D01*
X26774732Y26524325D01*
X26851498Y26374955D01*
X26881613Y26336960D01*
X26972340Y26222490D01*
X26972343Y26222486D01*
X26974590Y26219652D01*
X26977344Y26217309D01*
X26977346Y26217306D01*
X27009802Y26189684D01*
X27125504Y26091214D01*
X27155947Y26074200D01*
X27295331Y25996300D01*
X27295335Y25996298D01*
X27298490Y25994535D01*
X27486960Y25933298D01*
X27548071Y25926011D01*
X27680135Y25910263D01*
X27680138Y25910263D01*
X27683735Y25909834D01*
X27735235Y25913797D01*
X27877710Y25924759D01*
X27877712Y25924759D01*
X27881320Y25925037D01*
X28072190Y25978329D01*
X28075417Y25979959D01*
X28077135Y25980625D01*
X28127743Y25981683D01*
X28156218Y25963958D01*
X29142305Y24977871D01*
X29152146Y24965685D01*
X29156356Y24959165D01*
X29159676Y24954024D01*
X29164481Y24950236D01*
X29186842Y24932608D01*
X29193355Y24926821D01*
X29196266Y24923910D01*
X29206993Y24916245D01*
X29212052Y24912629D01*
X29214838Y24910537D01*
X29234719Y24894865D01*
X29253926Y24879723D01*
X29259696Y24877696D01*
X29261245Y24876845D01*
X29261851Y24876464D01*
X29261976Y24876399D01*
X29262649Y24876117D01*
X29264232Y24875341D01*
X29269209Y24871785D01*
X29316876Y24857529D01*
X29320185Y24856454D01*
X29367162Y24839957D01*
X29372439Y24839500D01*
X29373677Y24839500D01*
X29378536Y24839089D01*
X29384192Y24837397D01*
X29390302Y24837637D01*
X29436264Y24839443D01*
X29439169Y24839500D01*
X31970024Y24839500D01*
X32017590Y24822187D01*
X32022350Y24817826D01*
X32267826Y24572350D01*
X32289218Y24526474D01*
X32289500Y24520024D01*
X32289500Y22455569D01*
X32272187Y22408003D01*
X32228350Y22382693D01*
X32178500Y22391483D01*
X32153971Y22414457D01*
X32142193Y22432084D01*
X32132084Y22442193D01*
X32094585Y22467249D01*
X32081380Y22472719D01*
X32048345Y22479290D01*
X32041135Y22480000D01*
X31468048Y22480000D01*
X31458052Y22476362D01*
X31455000Y22471075D01*
X31455000Y21293049D01*
X31458638Y21283053D01*
X31463925Y21280001D01*
X32041133Y21280001D01*
X32048347Y21280712D01*
X32081378Y21287281D01*
X32094587Y21292752D01*
X32132084Y21317807D01*
X32142193Y21327916D01*
X32153971Y21345543D01*
X32194792Y21375475D01*
X32245303Y21372164D01*
X32281868Y21337161D01*
X32289500Y21304431D01*
X32289500Y20974468D01*
X32272187Y20926902D01*
X32228350Y20901592D01*
X32178500Y20910382D01*
X32153971Y20933356D01*
X32145714Y20945714D01*
X32102680Y20974468D01*
X32098683Y20977139D01*
X32098681Y20977140D01*
X32092624Y20981187D01*
X32085479Y20982608D01*
X32085477Y20982609D01*
X32033570Y20992934D01*
X32033569Y20992934D01*
X32030000Y20993644D01*
X30792644Y20993644D01*
X30745078Y21010957D01*
X30719768Y21054794D01*
X30718644Y21067644D01*
X30718644Y21206000D01*
X30735957Y21253566D01*
X30779794Y21278876D01*
X30792644Y21280000D01*
X31291952Y21280000D01*
X31301948Y21283638D01*
X31305000Y21288925D01*
X31305000Y21791952D01*
X31301362Y21801948D01*
X31296075Y21805000D01*
X30593049Y21805000D01*
X30583053Y21801362D01*
X30580001Y21796075D01*
X30580001Y21484144D01*
X30562688Y21436578D01*
X30518851Y21411268D01*
X30506001Y21410144D01*
X27430000Y21410144D01*
X27426431Y21409434D01*
X27426430Y21409434D01*
X27374523Y21399109D01*
X27374521Y21399108D01*
X27367376Y21397687D01*
X27361319Y21393640D01*
X27361317Y21393639D01*
X27334133Y21375475D01*
X27314286Y21362214D01*
X27310237Y21356154D01*
X27284615Y21317807D01*
X27278813Y21309124D01*
X27277392Y21301979D01*
X27277391Y21301977D01*
X27267066Y21250070D01*
X27266356Y21246500D01*
X27266356Y20814500D01*
X27249043Y20766934D01*
X27205206Y20741624D01*
X27192356Y20740500D01*
X26316457Y20740500D01*
X26268891Y20757813D01*
X26243368Y20802923D01*
X26241650Y20813771D01*
X26241650Y20813772D01*
X26240739Y20819522D01*
X26183502Y20931855D01*
X26094355Y21021002D01*
X25982022Y21078239D01*
X25888823Y21093000D01*
X25885914Y21093000D01*
X25620001Y21092999D01*
X25351178Y21092999D01*
X25348306Y21092544D01*
X25348304Y21092544D01*
X25263730Y21079150D01*
X25257978Y21078239D01*
X25145645Y21021002D01*
X25056498Y20931855D01*
X24999261Y20819522D01*
X24998350Y20813768D01*
X24996550Y20808230D01*
X24994079Y20809033D01*
X24974471Y20773654D01*
X24925919Y20755500D01*
X24524976Y20755500D01*
X24477410Y20772813D01*
X24472650Y20777174D01*
X23840195Y21409629D01*
X23830354Y21421815D01*
X23826144Y21428335D01*
X23826142Y21428337D01*
X23822824Y21433476D01*
X23795658Y21454892D01*
X23789145Y21460679D01*
X23786234Y21463590D01*
X23783752Y21465364D01*
X23783748Y21465367D01*
X23770436Y21474880D01*
X23767647Y21476974D01*
X23758552Y21484144D01*
X23728574Y21507777D01*
X23722801Y21509805D01*
X23721256Y21510654D01*
X23720639Y21511043D01*
X23720527Y21511100D01*
X23719855Y21511382D01*
X23718269Y21512159D01*
X23713291Y21515716D01*
X23665620Y21529973D01*
X23662304Y21531050D01*
X23654636Y21533743D01*
X23615338Y21547543D01*
X23610061Y21548000D01*
X23608823Y21548000D01*
X23603964Y21548411D01*
X23598308Y21550103D01*
X23592198Y21549863D01*
X23546236Y21548057D01*
X23543331Y21548000D01*
X21900873Y21548000D01*
X21877100Y21553708D01*
X21876647Y21552314D01*
X21871109Y21554113D01*
X21865918Y21556758D01*
X21750000Y21575118D01*
X21744248Y21574207D01*
X21663460Y21561411D01*
X21651884Y21560500D01*
X16148116Y21560500D01*
X16136540Y21561411D01*
X16055752Y21574207D01*
X16050000Y21575118D01*
X15934082Y21556758D01*
X15928894Y21554115D01*
X15928892Y21554114D01*
X15883627Y21531050D01*
X15829511Y21503477D01*
X15746523Y21420489D01*
X15743881Y21415303D01*
X15737153Y21402099D01*
X15723544Y21383368D01*
X14377871Y20037695D01*
X14365685Y20027854D01*
X14359165Y20023644D01*
X14359163Y20023642D01*
X14354024Y20020324D01*
X14350236Y20015519D01*
X14332608Y19993158D01*
X14326821Y19986645D01*
X14323910Y19983734D01*
X14322136Y19981252D01*
X14322133Y19981248D01*
X14312620Y19967936D01*
X14310528Y19965150D01*
X14279723Y19926074D01*
X14277695Y19920301D01*
X14276846Y19918756D01*
X14276457Y19918139D01*
X14276400Y19918027D01*
X14276118Y19917355D01*
X14275341Y19915769D01*
X14271784Y19910791D01*
X14267974Y19898052D01*
X14257527Y19863120D01*
X14256450Y19859804D01*
X14254422Y19854029D01*
X14239957Y19812838D01*
X14239500Y19807561D01*
X14239500Y19806323D01*
X14239089Y19801464D01*
X14237397Y19795808D01*
X14237637Y19789698D01*
X14239443Y19743736D01*
X14239500Y19740831D01*
X14239500Y19048116D01*
X14238589Y19036541D01*
X14224882Y18950000D01*
X14243242Y18834082D01*
X14245886Y18828892D01*
X14245888Y18828887D01*
X14281434Y18759124D01*
X14289500Y18725529D01*
X14289500Y15798116D01*
X14288589Y15786541D01*
X14274882Y15700000D01*
X14293242Y15584082D01*
X14346523Y15479511D01*
X14429511Y15396523D01*
X14475837Y15372919D01*
X14528892Y15345886D01*
X14528894Y15345885D01*
X14534082Y15343242D01*
X14564936Y15338355D01*
X14585014Y15335175D01*
X14625764Y15314412D01*
X17023544Y12916632D01*
X17037153Y12897901D01*
X17046523Y12879511D01*
X17129511Y12796523D01*
X17144394Y12788940D01*
X17228892Y12745886D01*
X17228894Y12745885D01*
X17234082Y12743242D01*
X17350000Y12724882D01*
X17436541Y12738589D01*
X17448116Y12739500D01*
X20451884Y12739500D01*
X20463459Y12738589D01*
X20550000Y12724882D01*
X20665918Y12743242D01*
X20671106Y12745885D01*
X20671108Y12745886D01*
X20755606Y12788940D01*
X20770489Y12796523D01*
X20853477Y12879511D01*
X20878942Y12929489D01*
X20904114Y12978892D01*
X20904115Y12978894D01*
X20906758Y12984082D01*
X20925118Y13100000D01*
X20906758Y13215918D01*
X20853477Y13320489D01*
X20770489Y13403477D01*
X20698808Y13440000D01*
X20671108Y13454114D01*
X20671106Y13454115D01*
X20665918Y13456758D01*
X20550000Y13475118D01*
X20544248Y13474207D01*
X20503854Y13467809D01*
X20490274Y13465658D01*
X20463460Y13461411D01*
X20451884Y13460500D01*
X17529976Y13460500D01*
X17482410Y13477813D01*
X17477650Y13482174D01*
X17102196Y13857628D01*
X18018838Y13857628D01*
X18019716Y13854353D01*
X18019864Y13854209D01*
X18074891Y13817580D01*
X18084310Y13813088D01*
X18197281Y13777794D01*
X18207585Y13776124D01*
X18325925Y13773956D01*
X18336278Y13775245D01*
X18450464Y13806376D01*
X18460047Y13810523D01*
X18525361Y13850625D01*
X18530922Y13857628D01*
X19293838Y13857628D01*
X19294716Y13854353D01*
X19294864Y13854209D01*
X19349891Y13817580D01*
X19359310Y13813088D01*
X19472281Y13777794D01*
X19482585Y13776124D01*
X19600925Y13773956D01*
X19611278Y13775245D01*
X19725464Y13806376D01*
X19735047Y13810523D01*
X19800361Y13850625D01*
X19805922Y13857628D01*
X20568838Y13857628D01*
X20569716Y13854353D01*
X20569864Y13854209D01*
X20624891Y13817580D01*
X20634310Y13813088D01*
X20747281Y13777794D01*
X20757585Y13776124D01*
X20875925Y13773956D01*
X20886278Y13775245D01*
X21000464Y13806376D01*
X21010047Y13810523D01*
X21075361Y13850625D01*
X21081976Y13858956D01*
X21081904Y13861614D01*
X21081108Y13862826D01*
X20834226Y14109708D01*
X20824587Y14114203D01*
X20818688Y14112622D01*
X20573333Y13867267D01*
X20568838Y13857628D01*
X19805922Y13857628D01*
X19806976Y13858956D01*
X19806904Y13861614D01*
X19806108Y13862826D01*
X19559226Y14109708D01*
X19549587Y14114203D01*
X19543688Y14112622D01*
X19298333Y13867267D01*
X19293838Y13857628D01*
X18530922Y13857628D01*
X18531976Y13858956D01*
X18531904Y13861614D01*
X18531108Y13862826D01*
X18284226Y14109708D01*
X18274587Y14114203D01*
X18268688Y14112622D01*
X18023333Y13867267D01*
X18018838Y13857628D01*
X17102196Y13857628D01*
X16734496Y14225328D01*
X17821090Y14225328D01*
X17836437Y14107968D01*
X17839242Y14097919D01*
X17886912Y13989583D01*
X17892428Y13980722D01*
X17898749Y13973201D01*
X17907967Y13967890D01*
X17912655Y13968721D01*
X18159708Y14215774D01*
X18163818Y14224587D01*
X18385797Y14224587D01*
X18387378Y14218688D01*
X18634784Y13971282D01*
X18644423Y13966787D01*
X18649168Y13968059D01*
X18654204Y13975526D01*
X18705806Y14082031D01*
X18708981Y14091976D01*
X18729017Y14211072D01*
X18729526Y14216758D01*
X18729592Y14222139D01*
X18729385Y14225328D01*
X19096090Y14225328D01*
X19111437Y14107968D01*
X19114242Y14097919D01*
X19161912Y13989583D01*
X19167428Y13980722D01*
X19173749Y13973201D01*
X19182967Y13967890D01*
X19187655Y13968721D01*
X19434708Y14215774D01*
X19438818Y14224587D01*
X19660797Y14224587D01*
X19662378Y14218688D01*
X19909784Y13971282D01*
X19919423Y13966787D01*
X19924168Y13968059D01*
X19929204Y13975526D01*
X19980806Y14082031D01*
X19983981Y14091976D01*
X20004017Y14211072D01*
X20004526Y14216758D01*
X20004592Y14222139D01*
X20004385Y14225328D01*
X20371090Y14225328D01*
X20386437Y14107968D01*
X20389242Y14097919D01*
X20436912Y13989583D01*
X20442428Y13980722D01*
X20448749Y13973201D01*
X20457967Y13967890D01*
X20462655Y13968721D01*
X20709708Y14215774D01*
X20713818Y14224587D01*
X20935797Y14224587D01*
X20937378Y14218688D01*
X21184784Y13971282D01*
X21194423Y13966787D01*
X21199168Y13968059D01*
X21204204Y13975526D01*
X21255806Y14082031D01*
X21258981Y14091976D01*
X21279017Y14211072D01*
X21279526Y14216758D01*
X21279592Y14222139D01*
X21279222Y14227827D01*
X21262100Y14347383D01*
X21259171Y14357397D01*
X21210184Y14465141D01*
X21204561Y14473934D01*
X21201710Y14477243D01*
X21192430Y14482440D01*
X21187586Y14481520D01*
X20940292Y14234226D01*
X20935797Y14224587D01*
X20713818Y14224587D01*
X20714203Y14225413D01*
X20712622Y14231312D01*
X20465648Y14478286D01*
X20456009Y14482781D01*
X20451076Y14481459D01*
X20448509Y14478553D01*
X20442779Y14469829D01*
X20392479Y14362693D01*
X20389427Y14352710D01*
X20371218Y14235760D01*
X20371090Y14225328D01*
X20004385Y14225328D01*
X20004222Y14227827D01*
X19987100Y14347383D01*
X19984171Y14357397D01*
X19935184Y14465141D01*
X19929561Y14473934D01*
X19926710Y14477243D01*
X19917430Y14482440D01*
X19912586Y14481520D01*
X19665292Y14234226D01*
X19660797Y14224587D01*
X19438818Y14224587D01*
X19439203Y14225413D01*
X19437622Y14231312D01*
X19190648Y14478286D01*
X19181009Y14482781D01*
X19176076Y14481459D01*
X19173509Y14478553D01*
X19167779Y14469829D01*
X19117479Y14362693D01*
X19114427Y14352710D01*
X19096218Y14235760D01*
X19096090Y14225328D01*
X18729385Y14225328D01*
X18729222Y14227827D01*
X18712100Y14347383D01*
X18709171Y14357397D01*
X18660184Y14465141D01*
X18654561Y14473934D01*
X18651710Y14477243D01*
X18642430Y14482440D01*
X18637586Y14481520D01*
X18390292Y14234226D01*
X18385797Y14224587D01*
X18163818Y14224587D01*
X18164203Y14225413D01*
X18162622Y14231312D01*
X17915648Y14478286D01*
X17906009Y14482781D01*
X17901076Y14481459D01*
X17898509Y14478553D01*
X17892779Y14469829D01*
X17842479Y14362693D01*
X17839427Y14352710D01*
X17821218Y14235760D01*
X17821090Y14225328D01*
X16734496Y14225328D01*
X16368971Y14590853D01*
X18018288Y14590853D01*
X18018402Y14587952D01*
X18018975Y14587091D01*
X18265774Y14340292D01*
X18275413Y14335797D01*
X18281312Y14337378D01*
X18526813Y14582879D01*
X18530532Y14590853D01*
X19293288Y14590853D01*
X19293402Y14587952D01*
X19293975Y14587091D01*
X19540774Y14340292D01*
X19550413Y14335797D01*
X19556312Y14337378D01*
X19801813Y14582879D01*
X19805532Y14590853D01*
X20568288Y14590853D01*
X20568402Y14587952D01*
X20568975Y14587091D01*
X20815774Y14340292D01*
X20825413Y14335797D01*
X20831312Y14337378D01*
X21076813Y14582879D01*
X21081308Y14592518D01*
X21080493Y14595557D01*
X21080044Y14595991D01*
X21020117Y14634833D01*
X21010643Y14639210D01*
X20897251Y14673122D01*
X20886926Y14674665D01*
X20768569Y14675389D01*
X20758231Y14673972D01*
X20644432Y14641448D01*
X20634902Y14637185D01*
X20574801Y14599264D01*
X20568288Y14590853D01*
X19805532Y14590853D01*
X19806308Y14592518D01*
X19805493Y14595557D01*
X19805044Y14595991D01*
X19745117Y14634833D01*
X19735643Y14639210D01*
X19622251Y14673122D01*
X19611926Y14674665D01*
X19493569Y14675389D01*
X19483231Y14673972D01*
X19369432Y14641448D01*
X19359902Y14637185D01*
X19299801Y14599264D01*
X19293288Y14590853D01*
X18530532Y14590853D01*
X18531308Y14592518D01*
X18530493Y14595557D01*
X18530044Y14595991D01*
X18470117Y14634833D01*
X18460643Y14639210D01*
X18347251Y14673122D01*
X18336926Y14674665D01*
X18218569Y14675389D01*
X18208231Y14673972D01*
X18094432Y14641448D01*
X18084902Y14637185D01*
X18024801Y14599264D01*
X18018288Y14590853D01*
X16368971Y14590853D01*
X15827196Y15132628D01*
X18018838Y15132628D01*
X18019716Y15129353D01*
X18019864Y15129209D01*
X18074891Y15092580D01*
X18084310Y15088088D01*
X18197281Y15052794D01*
X18207585Y15051124D01*
X18325925Y15048956D01*
X18336278Y15050245D01*
X18450464Y15081376D01*
X18460047Y15085523D01*
X18525361Y15125625D01*
X18530922Y15132628D01*
X19293838Y15132628D01*
X19294716Y15129353D01*
X19294864Y15129209D01*
X19349891Y15092580D01*
X19359310Y15088088D01*
X19472281Y15052794D01*
X19482585Y15051124D01*
X19600925Y15048956D01*
X19611278Y15050245D01*
X19725464Y15081376D01*
X19735047Y15085523D01*
X19800361Y15125625D01*
X19805922Y15132628D01*
X20568838Y15132628D01*
X20569716Y15129353D01*
X20569864Y15129209D01*
X20624891Y15092580D01*
X20634310Y15088088D01*
X20747281Y15052794D01*
X20757585Y15051124D01*
X20875925Y15048956D01*
X20886278Y15050245D01*
X21000464Y15081376D01*
X21010047Y15085523D01*
X21075361Y15125625D01*
X21081976Y15133956D01*
X21081904Y15136614D01*
X21081108Y15137826D01*
X20834226Y15384708D01*
X20824587Y15389203D01*
X20818688Y15387622D01*
X20573333Y15142267D01*
X20568838Y15132628D01*
X19805922Y15132628D01*
X19806976Y15133956D01*
X19806904Y15136614D01*
X19806108Y15137826D01*
X19559226Y15384708D01*
X19549587Y15389203D01*
X19543688Y15387622D01*
X19298333Y15142267D01*
X19293838Y15132628D01*
X18530922Y15132628D01*
X18531976Y15133956D01*
X18531904Y15136614D01*
X18531108Y15137826D01*
X18284226Y15384708D01*
X18274587Y15389203D01*
X18268688Y15387622D01*
X18023333Y15142267D01*
X18018838Y15132628D01*
X15827196Y15132628D01*
X15459496Y15500328D01*
X17821090Y15500328D01*
X17836437Y15382968D01*
X17839242Y15372919D01*
X17886912Y15264583D01*
X17892428Y15255722D01*
X17898749Y15248201D01*
X17907967Y15242890D01*
X17912655Y15243721D01*
X18159708Y15490774D01*
X18163818Y15499587D01*
X18385797Y15499587D01*
X18387378Y15493688D01*
X18634784Y15246282D01*
X18644423Y15241787D01*
X18649168Y15243059D01*
X18654204Y15250526D01*
X18705806Y15357031D01*
X18708981Y15366976D01*
X18729017Y15486072D01*
X18729526Y15491758D01*
X18729592Y15497139D01*
X18729385Y15500328D01*
X19096090Y15500328D01*
X19111437Y15382968D01*
X19114242Y15372919D01*
X19161912Y15264583D01*
X19167428Y15255722D01*
X19173749Y15248201D01*
X19182967Y15242890D01*
X19187655Y15243721D01*
X19434708Y15490774D01*
X19438818Y15499587D01*
X19660797Y15499587D01*
X19662378Y15493688D01*
X19909784Y15246282D01*
X19919423Y15241787D01*
X19924168Y15243059D01*
X19929204Y15250526D01*
X19980806Y15357031D01*
X19983981Y15366976D01*
X20004017Y15486072D01*
X20004526Y15491758D01*
X20004592Y15497139D01*
X20004385Y15500328D01*
X20371090Y15500328D01*
X20386437Y15382968D01*
X20389242Y15372919D01*
X20436912Y15264583D01*
X20442428Y15255722D01*
X20448749Y15248201D01*
X20457967Y15242890D01*
X20462655Y15243721D01*
X20709708Y15490774D01*
X20713818Y15499587D01*
X20935797Y15499587D01*
X20937378Y15493688D01*
X21184784Y15246282D01*
X21194423Y15241787D01*
X21199168Y15243059D01*
X21204204Y15250526D01*
X21255806Y15357031D01*
X21258981Y15366976D01*
X21279017Y15486072D01*
X21279526Y15491758D01*
X21279592Y15497139D01*
X21279222Y15502827D01*
X21262100Y15622383D01*
X21259171Y15632397D01*
X21210184Y15740141D01*
X21204561Y15748934D01*
X21201710Y15752243D01*
X21192430Y15757440D01*
X21187586Y15756520D01*
X20940292Y15509226D01*
X20935797Y15499587D01*
X20713818Y15499587D01*
X20714203Y15500413D01*
X20712622Y15506312D01*
X20465648Y15753286D01*
X20456009Y15757781D01*
X20451076Y15756459D01*
X20448509Y15753553D01*
X20442779Y15744829D01*
X20392479Y15637693D01*
X20389427Y15627710D01*
X20371218Y15510760D01*
X20371090Y15500328D01*
X20004385Y15500328D01*
X20004222Y15502827D01*
X19987100Y15622383D01*
X19984171Y15632397D01*
X19935184Y15740141D01*
X19929561Y15748934D01*
X19926710Y15752243D01*
X19917430Y15757440D01*
X19912586Y15756520D01*
X19665292Y15509226D01*
X19660797Y15499587D01*
X19438818Y15499587D01*
X19439203Y15500413D01*
X19437622Y15506312D01*
X19190648Y15753286D01*
X19181009Y15757781D01*
X19176076Y15756459D01*
X19173509Y15753553D01*
X19167779Y15744829D01*
X19117479Y15637693D01*
X19114427Y15627710D01*
X19096218Y15510760D01*
X19096090Y15500328D01*
X18729385Y15500328D01*
X18729222Y15502827D01*
X18712100Y15622383D01*
X18709171Y15632397D01*
X18660184Y15740141D01*
X18654561Y15748934D01*
X18651710Y15752243D01*
X18642430Y15757440D01*
X18637586Y15756520D01*
X18390292Y15509226D01*
X18385797Y15499587D01*
X18163818Y15499587D01*
X18164203Y15500413D01*
X18162622Y15506312D01*
X17915648Y15753286D01*
X17906009Y15757781D01*
X17901076Y15756459D01*
X17898509Y15753553D01*
X17892779Y15744829D01*
X17842479Y15637693D01*
X17839427Y15627710D01*
X17821218Y15510760D01*
X17821090Y15500328D01*
X15459496Y15500328D01*
X15093971Y15865853D01*
X18018288Y15865853D01*
X18018402Y15862952D01*
X18018975Y15862091D01*
X18265774Y15615292D01*
X18275413Y15610797D01*
X18281312Y15612378D01*
X18526813Y15857879D01*
X18530532Y15865853D01*
X19293288Y15865853D01*
X19293402Y15862952D01*
X19293975Y15862091D01*
X19540774Y15615292D01*
X19550413Y15610797D01*
X19556312Y15612378D01*
X19801813Y15857879D01*
X19805532Y15865853D01*
X20568288Y15865853D01*
X20568402Y15862952D01*
X20568975Y15862091D01*
X20815774Y15615292D01*
X20825413Y15610797D01*
X20831312Y15612378D01*
X21076813Y15857879D01*
X21081308Y15867518D01*
X21080493Y15870557D01*
X21080044Y15870991D01*
X21020117Y15909833D01*
X21010643Y15914210D01*
X20897251Y15948122D01*
X20886926Y15949665D01*
X20768569Y15950389D01*
X20758231Y15948972D01*
X20644432Y15916448D01*
X20634902Y15912185D01*
X20574801Y15874264D01*
X20568288Y15865853D01*
X19805532Y15865853D01*
X19806308Y15867518D01*
X19805493Y15870557D01*
X19805044Y15870991D01*
X19745117Y15909833D01*
X19735643Y15914210D01*
X19622251Y15948122D01*
X19611926Y15949665D01*
X19493569Y15950389D01*
X19483231Y15948972D01*
X19369432Y15916448D01*
X19359902Y15912185D01*
X19299801Y15874264D01*
X19293288Y15865853D01*
X18530532Y15865853D01*
X18531308Y15867518D01*
X18530493Y15870557D01*
X18530044Y15870991D01*
X18470117Y15909833D01*
X18460643Y15914210D01*
X18347251Y15948122D01*
X18336926Y15949665D01*
X18218569Y15950389D01*
X18208231Y15948972D01*
X18094432Y15916448D01*
X18084902Y15912185D01*
X18024801Y15874264D01*
X18018288Y15865853D01*
X15093971Y15865853D01*
X15037695Y15922129D01*
X15027853Y15934316D01*
X15022332Y15942867D01*
X15010500Y15983006D01*
X15010500Y16407628D01*
X18018838Y16407628D01*
X18019716Y16404353D01*
X18019864Y16404209D01*
X18074891Y16367580D01*
X18084310Y16363088D01*
X18197281Y16327794D01*
X18207585Y16326124D01*
X18325925Y16323956D01*
X18336278Y16325245D01*
X18450464Y16356376D01*
X18460047Y16360523D01*
X18525361Y16400625D01*
X18530922Y16407628D01*
X19293838Y16407628D01*
X19294716Y16404353D01*
X19294864Y16404209D01*
X19349891Y16367580D01*
X19359310Y16363088D01*
X19472281Y16327794D01*
X19482585Y16326124D01*
X19600925Y16323956D01*
X19611278Y16325245D01*
X19725464Y16356376D01*
X19735047Y16360523D01*
X19800361Y16400625D01*
X19805922Y16407628D01*
X20568838Y16407628D01*
X20569716Y16404353D01*
X20569864Y16404209D01*
X20624891Y16367580D01*
X20634310Y16363088D01*
X20747281Y16327794D01*
X20757585Y16326124D01*
X20875925Y16323956D01*
X20886278Y16325245D01*
X21000464Y16356376D01*
X21010047Y16360523D01*
X21075361Y16400625D01*
X21081976Y16408956D01*
X21081904Y16411614D01*
X21081108Y16412826D01*
X20834226Y16659708D01*
X20824587Y16664203D01*
X20818688Y16662622D01*
X20573333Y16417267D01*
X20568838Y16407628D01*
X19805922Y16407628D01*
X19806976Y16408956D01*
X19806904Y16411614D01*
X19806108Y16412826D01*
X19559226Y16659708D01*
X19549587Y16664203D01*
X19543688Y16662622D01*
X19298333Y16417267D01*
X19293838Y16407628D01*
X18530922Y16407628D01*
X18531976Y16408956D01*
X18531904Y16411614D01*
X18531108Y16412826D01*
X18284226Y16659708D01*
X18274587Y16664203D01*
X18268688Y16662622D01*
X18023333Y16417267D01*
X18018838Y16407628D01*
X15010500Y16407628D01*
X15010500Y16775328D01*
X17821090Y16775328D01*
X17836437Y16657968D01*
X17839242Y16647919D01*
X17886912Y16539583D01*
X17892428Y16530722D01*
X17898749Y16523201D01*
X17907967Y16517890D01*
X17912655Y16518721D01*
X18159708Y16765774D01*
X18163818Y16774587D01*
X18385797Y16774587D01*
X18387378Y16768688D01*
X18634784Y16521282D01*
X18644423Y16516787D01*
X18649168Y16518059D01*
X18654204Y16525526D01*
X18705806Y16632031D01*
X18708981Y16641976D01*
X18729017Y16761072D01*
X18729526Y16766758D01*
X18729592Y16772139D01*
X18729385Y16775328D01*
X19096090Y16775328D01*
X19111437Y16657968D01*
X19114242Y16647919D01*
X19161912Y16539583D01*
X19167428Y16530722D01*
X19173749Y16523201D01*
X19182967Y16517890D01*
X19187655Y16518721D01*
X19434708Y16765774D01*
X19438818Y16774587D01*
X19660797Y16774587D01*
X19662378Y16768688D01*
X19909784Y16521282D01*
X19919423Y16516787D01*
X19924168Y16518059D01*
X19929204Y16525526D01*
X19980806Y16632031D01*
X19983981Y16641976D01*
X20004017Y16761072D01*
X20004526Y16766758D01*
X20004592Y16772139D01*
X20004385Y16775328D01*
X20371090Y16775328D01*
X20386437Y16657968D01*
X20389242Y16647919D01*
X20436912Y16539583D01*
X20442428Y16530722D01*
X20448749Y16523201D01*
X20457967Y16517890D01*
X20462655Y16518721D01*
X20709708Y16765774D01*
X20713818Y16774587D01*
X20935797Y16774587D01*
X20937378Y16768688D01*
X21184784Y16521282D01*
X21194423Y16516787D01*
X21199168Y16518059D01*
X21204204Y16525526D01*
X21255806Y16632031D01*
X21258981Y16641976D01*
X21279017Y16761072D01*
X21279526Y16766758D01*
X21279592Y16772139D01*
X21279222Y16777827D01*
X21262100Y16897383D01*
X21259171Y16907397D01*
X21210184Y17015141D01*
X21204561Y17023934D01*
X21201710Y17027243D01*
X21192430Y17032440D01*
X21187586Y17031520D01*
X20940292Y16784226D01*
X20935797Y16774587D01*
X20713818Y16774587D01*
X20714203Y16775413D01*
X20712622Y16781312D01*
X20465648Y17028286D01*
X20456009Y17032781D01*
X20451076Y17031459D01*
X20448509Y17028553D01*
X20442779Y17019829D01*
X20392479Y16912693D01*
X20389427Y16902710D01*
X20371218Y16785760D01*
X20371090Y16775328D01*
X20004385Y16775328D01*
X20004222Y16777827D01*
X19987100Y16897383D01*
X19984171Y16907397D01*
X19935184Y17015141D01*
X19929561Y17023934D01*
X19926710Y17027243D01*
X19917430Y17032440D01*
X19912586Y17031520D01*
X19665292Y16784226D01*
X19660797Y16774587D01*
X19438818Y16774587D01*
X19439203Y16775413D01*
X19437622Y16781312D01*
X19190648Y17028286D01*
X19181009Y17032781D01*
X19176076Y17031459D01*
X19173509Y17028553D01*
X19167779Y17019829D01*
X19117479Y16912693D01*
X19114427Y16902710D01*
X19096218Y16785760D01*
X19096090Y16775328D01*
X18729385Y16775328D01*
X18729222Y16777827D01*
X18712100Y16897383D01*
X18709171Y16907397D01*
X18660184Y17015141D01*
X18654561Y17023934D01*
X18651710Y17027243D01*
X18642430Y17032440D01*
X18637586Y17031520D01*
X18390292Y16784226D01*
X18385797Y16774587D01*
X18163818Y16774587D01*
X18164203Y16775413D01*
X18162622Y16781312D01*
X17915648Y17028286D01*
X17906009Y17032781D01*
X17901076Y17031459D01*
X17898509Y17028553D01*
X17892779Y17019829D01*
X17842479Y16912693D01*
X17839427Y16902710D01*
X17821218Y16785760D01*
X17821090Y16775328D01*
X15010500Y16775328D01*
X15010500Y17140853D01*
X18018288Y17140853D01*
X18018402Y17137952D01*
X18018975Y17137091D01*
X18265774Y16890292D01*
X18275413Y16885797D01*
X18281312Y16887378D01*
X18526813Y17132879D01*
X18530532Y17140853D01*
X19293288Y17140853D01*
X19293402Y17137952D01*
X19293975Y17137091D01*
X19540774Y16890292D01*
X19550413Y16885797D01*
X19556312Y16887378D01*
X19801813Y17132879D01*
X19805532Y17140853D01*
X20568288Y17140853D01*
X20568402Y17137952D01*
X20568975Y17137091D01*
X20815774Y16890292D01*
X20825413Y16885797D01*
X20831312Y16887378D01*
X21076813Y17132879D01*
X21081308Y17142518D01*
X21080493Y17145557D01*
X21080044Y17145991D01*
X21020117Y17184833D01*
X21010643Y17189210D01*
X20897251Y17223122D01*
X20886926Y17224665D01*
X20768569Y17225389D01*
X20758231Y17223972D01*
X20644432Y17191448D01*
X20634902Y17187185D01*
X20574801Y17149264D01*
X20568288Y17140853D01*
X19805532Y17140853D01*
X19806308Y17142518D01*
X19805493Y17145557D01*
X19805044Y17145991D01*
X19745117Y17184833D01*
X19735643Y17189210D01*
X19622251Y17223122D01*
X19611926Y17224665D01*
X19493569Y17225389D01*
X19483231Y17223972D01*
X19369432Y17191448D01*
X19359902Y17187185D01*
X19299801Y17149264D01*
X19293288Y17140853D01*
X18530532Y17140853D01*
X18531308Y17142518D01*
X18530493Y17145557D01*
X18530044Y17145991D01*
X18470117Y17184833D01*
X18460643Y17189210D01*
X18347251Y17223122D01*
X18336926Y17224665D01*
X18218569Y17225389D01*
X18208231Y17223972D01*
X18094432Y17191448D01*
X18084902Y17187185D01*
X18024801Y17149264D01*
X18018288Y17140853D01*
X15010500Y17140853D01*
X15010500Y18853640D01*
X15012156Y18869207D01*
X15015079Y18882783D01*
X15011296Y18914751D01*
X15011013Y18917138D01*
X15010500Y18925835D01*
X15010500Y18929950D01*
X15007312Y18949103D01*
X15006821Y18952555D01*
X15001692Y18995891D01*
X15000973Y19001967D01*
X14998324Y19007483D01*
X14997834Y19009171D01*
X14997672Y19009883D01*
X14997630Y19010014D01*
X14997358Y19010680D01*
X14996784Y19012357D01*
X14995780Y19018387D01*
X14992877Y19023767D01*
X14992876Y19023770D01*
X14972143Y19062195D01*
X14970561Y19065300D01*
X14967793Y19071064D01*
X14960500Y19103098D01*
X14960500Y19570024D01*
X14977813Y19617590D01*
X14982174Y19622350D01*
X16177650Y20817826D01*
X16223526Y20839218D01*
X16229976Y20839500D01*
X21651885Y20839500D01*
X21663446Y20838591D01*
X21665036Y20838340D01*
X21677986Y20835069D01*
X21695264Y20829001D01*
X21695268Y20829000D01*
X21699662Y20827457D01*
X21704939Y20827000D01*
X21706177Y20827000D01*
X21711036Y20826589D01*
X21716692Y20824897D01*
X21727185Y20825309D01*
X21738036Y20825735D01*
X21740935Y20825792D01*
X21744251Y20825792D01*
X21750000Y20824882D01*
X21755752Y20825793D01*
X21755755Y20825793D01*
X21756805Y20825959D01*
X21765466Y20826813D01*
X21765723Y20826823D01*
X21768783Y20826943D01*
X21771679Y20827000D01*
X23372524Y20827000D01*
X23420090Y20809687D01*
X23424850Y20805326D01*
X24057305Y20172871D01*
X24067146Y20160685D01*
X24071356Y20154165D01*
X24074676Y20149024D01*
X24079481Y20145236D01*
X24101842Y20127608D01*
X24108355Y20121821D01*
X24111266Y20118910D01*
X24121993Y20111245D01*
X24127052Y20107629D01*
X24129838Y20105537D01*
X24142081Y20095886D01*
X24168926Y20074723D01*
X24174696Y20072696D01*
X24176245Y20071845D01*
X24176851Y20071464D01*
X24176976Y20071399D01*
X24177649Y20071117D01*
X24179232Y20070341D01*
X24184209Y20066785D01*
X24231876Y20052529D01*
X24235185Y20051454D01*
X24282162Y20034957D01*
X24287439Y20034500D01*
X24288677Y20034500D01*
X24293536Y20034089D01*
X24299192Y20032397D01*
X24305302Y20032637D01*
X24351264Y20034443D01*
X24354169Y20034500D01*
X24925919Y20034500D01*
X24973485Y20017187D01*
X24993994Y19980940D01*
X24996550Y19981770D01*
X24998350Y19976230D01*
X24999261Y19970478D01*
X25056498Y19858145D01*
X25145645Y19768998D01*
X25257978Y19711761D01*
X25263732Y19710850D01*
X25269270Y19709050D01*
X25268467Y19706579D01*
X25303846Y19686971D01*
X25322000Y19638419D01*
X25322000Y16630616D01*
X25321089Y16619041D01*
X25307382Y16532500D01*
X25308293Y16526748D01*
X25321089Y16445960D01*
X25322000Y16434384D01*
X25322000Y7662476D01*
X25304687Y7614910D01*
X25300326Y7610150D01*
X24942871Y7252695D01*
X24930685Y7242854D01*
X24924165Y7238644D01*
X24924163Y7238642D01*
X24919024Y7235324D01*
X24915236Y7230519D01*
X24897608Y7208158D01*
X24891821Y7201645D01*
X24888910Y7198734D01*
X24887136Y7196252D01*
X24887133Y7196248D01*
X24877620Y7182936D01*
X24875528Y7180150D01*
X24844723Y7141074D01*
X24842695Y7135301D01*
X24841846Y7133756D01*
X24841457Y7133139D01*
X24841400Y7133027D01*
X24841118Y7132355D01*
X24840341Y7130769D01*
X24836784Y7125791D01*
X24835031Y7119929D01*
X24822527Y7078120D01*
X24821450Y7074804D01*
X24804957Y7027838D01*
X24804500Y7022561D01*
X24804500Y7021323D01*
X24804089Y7016464D01*
X24802397Y7010808D01*
X24802637Y7004698D01*
X24804443Y6958736D01*
X24804500Y6955831D01*
X24804500Y5061656D01*
X24787187Y5014090D01*
X24764785Y4996078D01*
X24609010Y4914641D01*
X24606192Y4912375D01*
X24606190Y4912374D01*
X24560693Y4875793D01*
X24454570Y4790468D01*
X24452244Y4787696D01*
X24452242Y4787694D01*
X24397587Y4722558D01*
X24327189Y4638661D01*
X24325447Y4635493D01*
X24325446Y4635491D01*
X24315761Y4617874D01*
X24231720Y4465004D01*
X24230626Y4461555D01*
X24192128Y4340192D01*
X24171800Y4276111D01*
X24149710Y4079177D01*
X24150013Y4075568D01*
X24150013Y4075566D01*
X24158285Y3977054D01*
X24166292Y3881703D01*
X24220915Y3691210D01*
X24263792Y3607781D01*
X24305176Y3527257D01*
X24311498Y3514955D01*
X24362981Y3450000D01*
X24432340Y3362490D01*
X24432343Y3362486D01*
X24434590Y3359652D01*
X24437344Y3357309D01*
X24437346Y3357306D01*
X24469802Y3329684D01*
X24585504Y3231214D01*
X24588666Y3229447D01*
X24625079Y3209096D01*
X24658154Y3170778D01*
X24658861Y3120163D01*
X24626868Y3080937D01*
X24588977Y3070500D01*
X23206964Y3070500D01*
X23159398Y3087813D01*
X23134088Y3131650D01*
X23142878Y3181500D01*
X23166960Y3206611D01*
X23169073Y3207679D01*
X23171921Y3209904D01*
X23171924Y3209906D01*
X23322379Y3327455D01*
X23325232Y3329684D01*
X23454720Y3479697D01*
X23456503Y3482836D01*
X23456506Y3482840D01*
X23519919Y3594468D01*
X23552604Y3652004D01*
X23564576Y3687993D01*
X23614013Y3836605D01*
X23614014Y3836608D01*
X23615156Y3840042D01*
X23639993Y4036649D01*
X23640389Y4065000D01*
X23632778Y4142628D01*
X23630467Y4166188D01*
X23621051Y4262223D01*
X23617943Y4272519D01*
X23608708Y4303107D01*
X23563774Y4451935D01*
X23500096Y4571695D01*
X23472438Y4623713D01*
X23472437Y4623714D01*
X23470739Y4626908D01*
X23353840Y4770240D01*
X23347777Y4777674D01*
X23347776Y4777675D01*
X23345490Y4780478D01*
X23211803Y4891074D01*
X23195593Y4904484D01*
X23195592Y4904485D01*
X23192798Y4906796D01*
X23175190Y4916317D01*
X23021662Y4999329D01*
X23021660Y4999330D01*
X23018479Y5001050D01*
X22829172Y5059650D01*
X22632089Y5080364D01*
X22628485Y5080036D01*
X22628484Y5080036D01*
X22438348Y5062733D01*
X22438346Y5062733D01*
X22434735Y5062404D01*
X22244629Y5006452D01*
X22241430Y5004780D01*
X22241426Y5004778D01*
X22072217Y4916318D01*
X22072214Y4916316D01*
X22069010Y4914641D01*
X22066192Y4912375D01*
X22066190Y4912374D01*
X22020693Y4875793D01*
X21914570Y4790468D01*
X21912244Y4787696D01*
X21912242Y4787694D01*
X21857587Y4722558D01*
X21787189Y4638661D01*
X21785447Y4635493D01*
X21785446Y4635491D01*
X21775761Y4617874D01*
X21691720Y4465004D01*
X21690626Y4461555D01*
X21652128Y4340192D01*
X21631800Y4276111D01*
X21609710Y4079177D01*
X21610013Y4075568D01*
X21610013Y4075566D01*
X21618285Y3977054D01*
X21626292Y3881703D01*
X21680915Y3691210D01*
X21723792Y3607781D01*
X21765176Y3527257D01*
X21771498Y3514955D01*
X21822981Y3450000D01*
X21892340Y3362490D01*
X21892343Y3362486D01*
X21894590Y3359652D01*
X21897344Y3357309D01*
X21897346Y3357306D01*
X21929802Y3329684D01*
X22045504Y3231214D01*
X22048666Y3229447D01*
X22085079Y3209096D01*
X22118154Y3170778D01*
X22118861Y3120163D01*
X22086868Y3080937D01*
X22048977Y3070500D01*
X20666964Y3070500D01*
X20619398Y3087813D01*
X20594088Y3131650D01*
X20602878Y3181500D01*
X20626960Y3206611D01*
X20629073Y3207679D01*
X20631921Y3209904D01*
X20631924Y3209906D01*
X20782379Y3327455D01*
X20785232Y3329684D01*
X20914720Y3479697D01*
X20916503Y3482836D01*
X20916506Y3482840D01*
X20979919Y3594468D01*
X21012604Y3652004D01*
X21024576Y3687993D01*
X21074013Y3836605D01*
X21074014Y3836608D01*
X21075156Y3840042D01*
X21099993Y4036649D01*
X21100389Y4065000D01*
X21092778Y4142628D01*
X21090467Y4166188D01*
X21081051Y4262223D01*
X21077943Y4272519D01*
X21068708Y4303107D01*
X21023774Y4451935D01*
X20960096Y4571695D01*
X20932438Y4623713D01*
X20932437Y4623714D01*
X20930739Y4626908D01*
X20813840Y4770240D01*
X20807777Y4777674D01*
X20807776Y4777675D01*
X20805490Y4780478D01*
X20671803Y4891074D01*
X20655593Y4904484D01*
X20655592Y4904485D01*
X20652798Y4906796D01*
X20635190Y4916317D01*
X20481662Y4999329D01*
X20481660Y4999330D01*
X20478479Y5001050D01*
X20289172Y5059650D01*
X20092089Y5080364D01*
X20088485Y5080036D01*
X20088484Y5080036D01*
X19898348Y5062733D01*
X19898346Y5062733D01*
X19894735Y5062404D01*
X19704629Y5006452D01*
X19701430Y5004780D01*
X19701426Y5004778D01*
X19532217Y4916318D01*
X19532214Y4916316D01*
X19529010Y4914641D01*
X19526192Y4912375D01*
X19526190Y4912374D01*
X19480693Y4875793D01*
X19374570Y4790468D01*
X19372244Y4787696D01*
X19372242Y4787694D01*
X19317587Y4722558D01*
X19247189Y4638661D01*
X19245447Y4635493D01*
X19245446Y4635491D01*
X19235761Y4617874D01*
X19151720Y4465004D01*
X19150626Y4461555D01*
X19112128Y4340192D01*
X19091800Y4276111D01*
X19069710Y4079177D01*
X19070013Y4075568D01*
X19070013Y4075566D01*
X19078285Y3977054D01*
X19086292Y3881703D01*
X19140915Y3691210D01*
X19183792Y3607781D01*
X19225176Y3527257D01*
X19231498Y3514955D01*
X19282981Y3450000D01*
X19352340Y3362490D01*
X19352343Y3362486D01*
X19354590Y3359652D01*
X19357344Y3357309D01*
X19357346Y3357306D01*
X19389802Y3329684D01*
X19505504Y3231214D01*
X19508666Y3229447D01*
X19545079Y3209096D01*
X19578154Y3170778D01*
X19578861Y3120163D01*
X19546868Y3080937D01*
X19508977Y3070500D01*
X18126964Y3070500D01*
X18079398Y3087813D01*
X18054088Y3131650D01*
X18062878Y3181500D01*
X18086960Y3206611D01*
X18089073Y3207679D01*
X18091921Y3209904D01*
X18091924Y3209906D01*
X18242379Y3327455D01*
X18245232Y3329684D01*
X18374720Y3479697D01*
X18376503Y3482836D01*
X18376506Y3482840D01*
X18439919Y3594468D01*
X18472604Y3652004D01*
X18484576Y3687993D01*
X18534013Y3836605D01*
X18534014Y3836608D01*
X18535156Y3840042D01*
X18559993Y4036649D01*
X18560389Y4065000D01*
X18552778Y4142628D01*
X18550467Y4166188D01*
X18541051Y4262223D01*
X18537943Y4272519D01*
X18528708Y4303107D01*
X18483774Y4451935D01*
X18420096Y4571695D01*
X18392438Y4623713D01*
X18392437Y4623714D01*
X18390739Y4626908D01*
X18273840Y4770240D01*
X18267777Y4777674D01*
X18267776Y4777675D01*
X18265490Y4780478D01*
X18131803Y4891074D01*
X18115593Y4904484D01*
X18115592Y4904485D01*
X18112798Y4906796D01*
X18095190Y4916317D01*
X17941662Y4999329D01*
X17941660Y4999330D01*
X17938479Y5001050D01*
X17749172Y5059650D01*
X17552089Y5080364D01*
X17548485Y5080036D01*
X17548484Y5080036D01*
X17358348Y5062733D01*
X17358346Y5062733D01*
X17354735Y5062404D01*
X17164629Y5006452D01*
X17161430Y5004780D01*
X17161426Y5004778D01*
X16992217Y4916318D01*
X16992214Y4916316D01*
X16989010Y4914641D01*
X16986192Y4912375D01*
X16986190Y4912374D01*
X16940693Y4875793D01*
X16834570Y4790468D01*
X16832244Y4787696D01*
X16832242Y4787694D01*
X16777587Y4722558D01*
X16707189Y4638661D01*
X16705447Y4635493D01*
X16705446Y4635491D01*
X16695761Y4617874D01*
X16611720Y4465004D01*
X16610626Y4461555D01*
X16572128Y4340192D01*
X16551800Y4276111D01*
X16529710Y4079177D01*
X16530013Y4075568D01*
X16530013Y4075566D01*
X16538285Y3977054D01*
X16546292Y3881703D01*
X16600915Y3691210D01*
X16643792Y3607781D01*
X16685176Y3527257D01*
X16691498Y3514955D01*
X16742981Y3450000D01*
X16812340Y3362490D01*
X16812343Y3362486D01*
X16814590Y3359652D01*
X16817344Y3357309D01*
X16817346Y3357306D01*
X16849802Y3329684D01*
X16965504Y3231214D01*
X16968666Y3229447D01*
X17005079Y3209096D01*
X17038154Y3170778D01*
X17038861Y3120163D01*
X17006868Y3080937D01*
X16968977Y3070500D01*
X15586964Y3070500D01*
X15539398Y3087813D01*
X15514088Y3131650D01*
X15522878Y3181500D01*
X15546960Y3206611D01*
X15549073Y3207679D01*
X15551921Y3209904D01*
X15551924Y3209906D01*
X15702379Y3327455D01*
X15705232Y3329684D01*
X15834720Y3479697D01*
X15836503Y3482836D01*
X15836506Y3482840D01*
X15899919Y3594468D01*
X15932604Y3652004D01*
X15944576Y3687993D01*
X15994013Y3836605D01*
X15994014Y3836608D01*
X15995156Y3840042D01*
X16019993Y4036649D01*
X16020389Y4065000D01*
X16012778Y4142628D01*
X16010467Y4166188D01*
X16001051Y4262223D01*
X15997943Y4272519D01*
X15988708Y4303107D01*
X15943774Y4451935D01*
X15880096Y4571695D01*
X15852438Y4623713D01*
X15852437Y4623714D01*
X15850739Y4626908D01*
X15733840Y4770240D01*
X15727777Y4777674D01*
X15727776Y4777675D01*
X15725490Y4780478D01*
X15591803Y4891074D01*
X15575593Y4904484D01*
X15575592Y4904485D01*
X15572798Y4906796D01*
X15555190Y4916317D01*
X15401662Y4999329D01*
X15401660Y4999330D01*
X15398479Y5001050D01*
X15209172Y5059650D01*
X15012089Y5080364D01*
X15008485Y5080036D01*
X15008484Y5080036D01*
X14818348Y5062733D01*
X14818346Y5062733D01*
X14814735Y5062404D01*
X14624629Y5006452D01*
X14621430Y5004780D01*
X14621426Y5004778D01*
X14452217Y4916318D01*
X14452214Y4916316D01*
X14449010Y4914641D01*
X14446192Y4912375D01*
X14446190Y4912374D01*
X14400693Y4875793D01*
X14294570Y4790468D01*
X14292244Y4787696D01*
X14292242Y4787694D01*
X14237587Y4722558D01*
X14167189Y4638661D01*
X14165447Y4635493D01*
X14165446Y4635491D01*
X14155761Y4617874D01*
X14071720Y4465004D01*
X14070626Y4461555D01*
X14032128Y4340192D01*
X14011800Y4276111D01*
X13989710Y4079177D01*
X13990013Y4075568D01*
X13990013Y4075566D01*
X13998285Y3977054D01*
X14006292Y3881703D01*
X14060915Y3691210D01*
X14103792Y3607781D01*
X14145176Y3527257D01*
X14151498Y3514955D01*
X14202981Y3450000D01*
X14272340Y3362490D01*
X14272343Y3362486D01*
X14274590Y3359652D01*
X14277344Y3357309D01*
X14277346Y3357306D01*
X14309802Y3329684D01*
X14425504Y3231214D01*
X14428666Y3229447D01*
X14465079Y3209096D01*
X14498154Y3170778D01*
X14498861Y3120163D01*
X14466868Y3080937D01*
X14428977Y3070500D01*
X13046964Y3070500D01*
X12999398Y3087813D01*
X12974088Y3131650D01*
X12982878Y3181500D01*
X13006960Y3206611D01*
X13009073Y3207679D01*
X13011921Y3209904D01*
X13011924Y3209906D01*
X13162379Y3327455D01*
X13165232Y3329684D01*
X13294720Y3479697D01*
X13296503Y3482836D01*
X13296506Y3482840D01*
X13359919Y3594468D01*
X13392604Y3652004D01*
X13404576Y3687993D01*
X13454013Y3836605D01*
X13454014Y3836608D01*
X13455156Y3840042D01*
X13479993Y4036649D01*
X13480389Y4065000D01*
X13472778Y4142628D01*
X13470467Y4166188D01*
X13461051Y4262223D01*
X13457943Y4272519D01*
X13448708Y4303107D01*
X13403774Y4451935D01*
X13340096Y4571695D01*
X13312438Y4623713D01*
X13312437Y4623714D01*
X13310739Y4626908D01*
X13193840Y4770240D01*
X13187777Y4777674D01*
X13187776Y4777675D01*
X13185490Y4780478D01*
X13051803Y4891074D01*
X13035593Y4904484D01*
X13035592Y4904485D01*
X13032798Y4906796D01*
X13015190Y4916317D01*
X12861662Y4999329D01*
X12861660Y4999330D01*
X12858479Y5001050D01*
X12669172Y5059650D01*
X12472089Y5080364D01*
X12468485Y5080036D01*
X12468484Y5080036D01*
X12278348Y5062733D01*
X12278346Y5062733D01*
X12274735Y5062404D01*
X12084629Y5006452D01*
X12081430Y5004780D01*
X12081426Y5004778D01*
X11912217Y4916318D01*
X11912214Y4916316D01*
X11909010Y4914641D01*
X11906192Y4912375D01*
X11906190Y4912374D01*
X11860693Y4875793D01*
X11754570Y4790468D01*
X11752244Y4787696D01*
X11752242Y4787694D01*
X11697587Y4722558D01*
X11627189Y4638661D01*
X11625447Y4635493D01*
X11625446Y4635491D01*
X11615761Y4617874D01*
X11531720Y4465004D01*
X11530626Y4461555D01*
X11492128Y4340192D01*
X11471800Y4276111D01*
X11449710Y4079177D01*
X11450013Y4075568D01*
X11450013Y4075566D01*
X11458285Y3977054D01*
X11466292Y3881703D01*
X11520915Y3691210D01*
X11563792Y3607781D01*
X11605176Y3527257D01*
X11611498Y3514955D01*
X11662981Y3450000D01*
X11732340Y3362490D01*
X11732343Y3362486D01*
X11734590Y3359652D01*
X11737344Y3357309D01*
X11737346Y3357306D01*
X11769802Y3329684D01*
X11885504Y3231214D01*
X11888666Y3229447D01*
X11925079Y3209096D01*
X11958154Y3170778D01*
X11958861Y3120163D01*
X11926868Y3080937D01*
X11888977Y3070500D01*
X10506964Y3070500D01*
X10459398Y3087813D01*
X10434088Y3131650D01*
X10442878Y3181500D01*
X10466960Y3206611D01*
X10469073Y3207679D01*
X10471921Y3209904D01*
X10471924Y3209906D01*
X10622379Y3327455D01*
X10625232Y3329684D01*
X10754720Y3479697D01*
X10756503Y3482836D01*
X10756506Y3482840D01*
X10819919Y3594468D01*
X10852604Y3652004D01*
X10864576Y3687993D01*
X10914013Y3836605D01*
X10914014Y3836608D01*
X10915156Y3840042D01*
X10939993Y4036649D01*
X10940389Y4065000D01*
X10932778Y4142628D01*
X10930467Y4166188D01*
X10921051Y4262223D01*
X10917943Y4272519D01*
X10908708Y4303107D01*
X10863774Y4451935D01*
X10800096Y4571695D01*
X10772438Y4623713D01*
X10772437Y4623714D01*
X10770739Y4626908D01*
X10653840Y4770240D01*
X10647777Y4777674D01*
X10647776Y4777675D01*
X10645490Y4780478D01*
X10511803Y4891074D01*
X10495593Y4904484D01*
X10495592Y4904485D01*
X10492798Y4906796D01*
X10475190Y4916317D01*
X10321662Y4999329D01*
X10321660Y4999330D01*
X10318479Y5001050D01*
X10129172Y5059650D01*
X9932089Y5080364D01*
X9928485Y5080036D01*
X9928484Y5080036D01*
X9738348Y5062733D01*
X9738346Y5062733D01*
X9734735Y5062404D01*
X9544629Y5006452D01*
X9541430Y5004780D01*
X9541426Y5004778D01*
X9372217Y4916318D01*
X9372214Y4916316D01*
X9369010Y4914641D01*
X9366192Y4912375D01*
X9366190Y4912374D01*
X9320693Y4875793D01*
X9214570Y4790468D01*
X9212244Y4787696D01*
X9212242Y4787694D01*
X9157587Y4722558D01*
X9087189Y4638661D01*
X9085447Y4635493D01*
X9085446Y4635491D01*
X9075761Y4617874D01*
X8991720Y4465004D01*
X8990626Y4461555D01*
X8952128Y4340192D01*
X8931800Y4276111D01*
X8909710Y4079177D01*
X8910013Y4075568D01*
X8910013Y4075566D01*
X8918285Y3977054D01*
X8926292Y3881703D01*
X8980915Y3691210D01*
X9023792Y3607781D01*
X9065176Y3527257D01*
X9071498Y3514955D01*
X9122981Y3450000D01*
X9192340Y3362490D01*
X9192343Y3362486D01*
X9194590Y3359652D01*
X9197344Y3357309D01*
X9197346Y3357306D01*
X9229802Y3329684D01*
X9345504Y3231214D01*
X9348666Y3229447D01*
X9385079Y3209096D01*
X9418154Y3170778D01*
X9418861Y3120163D01*
X9386868Y3080937D01*
X9348977Y3070500D01*
X8778554Y3070500D01*
X8730988Y3087813D01*
X8726228Y3092174D01*
X8299499Y3518903D01*
X8278107Y3564779D01*
X8287482Y3607781D01*
X8291229Y3614377D01*
X8312604Y3652004D01*
X8324576Y3687993D01*
X8374013Y3836605D01*
X8374014Y3836608D01*
X8375156Y3840042D01*
X8399993Y4036649D01*
X8400389Y4065000D01*
X8392778Y4142628D01*
X8390467Y4166188D01*
X8381051Y4262223D01*
X8377943Y4272519D01*
X8368708Y4303107D01*
X8323774Y4451935D01*
X8285804Y4523347D01*
X8278759Y4573472D01*
X8298816Y4610413D01*
X11706229Y8017826D01*
X11752105Y8039218D01*
X11758555Y8039500D01*
X19317058Y8039500D01*
X19331494Y8038078D01*
X19350000Y8034397D01*
X19375654Y8039500D01*
X19444495Y8053193D01*
X19444497Y8053194D01*
X19451642Y8054615D01*
X19537810Y8112190D01*
X19548295Y8127882D01*
X19557498Y8139096D01*
X24650907Y13232504D01*
X24662121Y13241707D01*
X24671750Y13248141D01*
X24677810Y13252190D01*
X24735385Y13338358D01*
X24744543Y13384397D01*
X24755604Y13440000D01*
X24752797Y13454114D01*
X24751922Y13458511D01*
X24750500Y13472948D01*
X24750500Y17057052D01*
X24751922Y17071489D01*
X24754182Y17082850D01*
X24754182Y17082852D01*
X24755604Y17090000D01*
X24746713Y17134697D01*
X24736807Y17184495D01*
X24736806Y17184496D01*
X24735385Y17191642D01*
X24692342Y17256061D01*
X24677810Y17277810D01*
X24672236Y17281534D01*
X24651641Y17321954D01*
X24637669Y17410165D01*
X24636758Y17415918D01*
X24583477Y17520489D01*
X24500489Y17603477D01*
X24410436Y17649361D01*
X24401108Y17654114D01*
X24401106Y17654115D01*
X24395918Y17656758D01*
X24280000Y17675118D01*
X24164082Y17656758D01*
X24158894Y17654115D01*
X24158892Y17654114D01*
X24149564Y17649361D01*
X24059511Y17603477D01*
X23976523Y17520489D01*
X23923242Y17415918D01*
X23904882Y17300000D01*
X23913706Y17244291D01*
X23904048Y17194604D01*
X23864710Y17162748D01*
X23852194Y17159627D01*
X23839831Y17157669D01*
X23839829Y17157668D01*
X23834082Y17156758D01*
X23828898Y17154117D01*
X23828896Y17154116D01*
X23806134Y17142518D01*
X23729511Y17103477D01*
X23646523Y17020489D01*
X23593242Y16915918D01*
X23574882Y16800000D01*
X23593242Y16684082D01*
X23595885Y16678894D01*
X23595886Y16678892D01*
X23620484Y16630616D01*
X23646523Y16579511D01*
X23667826Y16558208D01*
X23689218Y16512332D01*
X23689500Y16505882D01*
X23689500Y13788555D01*
X23672187Y13740989D01*
X23667826Y13736229D01*
X19013772Y9082174D01*
X18967896Y9060782D01*
X18961446Y9060500D01*
X18507554Y9060500D01*
X18459988Y9077813D01*
X18434678Y9121650D01*
X18443468Y9171500D01*
X18455228Y9186826D01*
X22160907Y12892504D01*
X22172121Y12901707D01*
X22181750Y12908141D01*
X22187810Y12912190D01*
X22245385Y12998358D01*
X22250330Y13023217D01*
X22265604Y13100000D01*
X22261922Y13118511D01*
X22260500Y13132948D01*
X22260500Y17055882D01*
X22277813Y17103448D01*
X22282174Y17108208D01*
X22303477Y17129511D01*
X22356758Y17234082D01*
X22375118Y17350000D01*
X22356758Y17465918D01*
X22303477Y17570489D01*
X22220489Y17653477D01*
X22170511Y17678942D01*
X22121108Y17704114D01*
X22121106Y17704115D01*
X22115918Y17706758D01*
X22000000Y17725118D01*
X21884082Y17706758D01*
X21878894Y17704115D01*
X21878892Y17704114D01*
X21829489Y17678942D01*
X21779511Y17653477D01*
X21696523Y17570489D01*
X21643242Y17465918D01*
X21624882Y17350000D01*
X21643242Y17234082D01*
X21696523Y17129511D01*
X21717826Y17108208D01*
X21739218Y17062332D01*
X21739500Y17055882D01*
X21739500Y13238555D01*
X21722187Y13190989D01*
X21717826Y13186229D01*
X18113772Y9582174D01*
X18067896Y9560782D01*
X18061446Y9560500D01*
X15208307Y9560500D01*
X15160741Y9577813D01*
X15135431Y9621650D01*
X15146781Y9675617D01*
X15148298Y9677887D01*
X15157498Y9689096D01*
X15586229Y10117826D01*
X15632106Y10139218D01*
X15638555Y10139500D01*
X17367058Y10139500D01*
X17381494Y10138078D01*
X17400000Y10134397D01*
X17425654Y10139500D01*
X17437158Y10141788D01*
X17463170Y10142299D01*
X17510000Y10134882D01*
X17625918Y10153242D01*
X17631106Y10155885D01*
X17631108Y10155886D01*
X17680511Y10181058D01*
X17730489Y10206523D01*
X17813477Y10289511D01*
X17866758Y10394082D01*
X17885118Y10510000D01*
X17875279Y10572121D01*
X17867670Y10620163D01*
X17867669Y10620166D01*
X17866758Y10625918D01*
X17864119Y10631097D01*
X17860500Y10653949D01*
X17860500Y11167058D01*
X17861922Y11181495D01*
X17864181Y11192851D01*
X17865603Y11200000D01*
X17853062Y11263048D01*
X17846807Y11294495D01*
X17846806Y11294497D01*
X17845385Y11301642D01*
X17814991Y11347130D01*
X17787810Y11387810D01*
X17772121Y11398293D01*
X17760907Y11407496D01*
X17257498Y11910904D01*
X17248295Y11922118D01*
X17241859Y11931750D01*
X17237810Y11937810D01*
X17151642Y11995385D01*
X17144497Y11996806D01*
X17144495Y11996807D01*
X17075654Y12010500D01*
X17057149Y12014181D01*
X17050000Y12015603D01*
X17042851Y12014181D01*
X17031495Y12011922D01*
X17017058Y12010500D01*
X11888555Y12010500D01*
X11840989Y12027813D01*
X11836229Y12032174D01*
X10207174Y13661228D01*
X10185782Y13707104D01*
X10185500Y13713554D01*
X10185500Y20450000D01*
X10499882Y20450000D01*
X10518242Y20334082D01*
X10520885Y20328894D01*
X10520886Y20328892D01*
X10535438Y20300332D01*
X10571523Y20229511D01*
X10654511Y20146523D01*
X10691634Y20127608D01*
X10753892Y20095886D01*
X10753894Y20095885D01*
X10759082Y20093242D01*
X10875000Y20074882D01*
X10990918Y20093242D01*
X10996106Y20095885D01*
X10996108Y20095886D01*
X11058366Y20127608D01*
X11095489Y20146523D01*
X11147674Y20198708D01*
X11193550Y20220100D01*
X11242445Y20206999D01*
X11252326Y20198708D01*
X11304511Y20146523D01*
X11341634Y20127608D01*
X11403892Y20095886D01*
X11403894Y20095885D01*
X11409082Y20093242D01*
X11525000Y20074882D01*
X11640918Y20093242D01*
X11646106Y20095885D01*
X11646108Y20095886D01*
X11708366Y20127608D01*
X11745489Y20146523D01*
X11828477Y20229511D01*
X11864562Y20300332D01*
X11879114Y20328892D01*
X11879115Y20328894D01*
X11881758Y20334082D01*
X11900118Y20450000D01*
X11881758Y20565918D01*
X11828477Y20670489D01*
X11745489Y20753477D01*
X11740306Y20756118D01*
X11740303Y20756120D01*
X11725906Y20763455D01*
X11691384Y20800476D01*
X11685501Y20829390D01*
X11685501Y21792413D01*
X24995000Y21792413D01*
X24995455Y21786631D01*
X25008461Y21704517D01*
X25012016Y21693573D01*
X25062455Y21594580D01*
X25069214Y21585278D01*
X25147778Y21506714D01*
X25157080Y21499955D01*
X25256073Y21449516D01*
X25267017Y21445961D01*
X25349131Y21432955D01*
X25354913Y21432500D01*
X25531952Y21432500D01*
X25541948Y21436138D01*
X25545000Y21441425D01*
X25545000Y21445548D01*
X25695000Y21445548D01*
X25698638Y21435552D01*
X25703925Y21432500D01*
X25885087Y21432500D01*
X25890869Y21432955D01*
X25972983Y21445961D01*
X25983927Y21449516D01*
X26082920Y21499955D01*
X26092222Y21506714D01*
X26170786Y21585278D01*
X26177545Y21594580D01*
X26227984Y21693573D01*
X26231539Y21704517D01*
X26244545Y21786631D01*
X26245000Y21792413D01*
X26245000Y22031952D01*
X26241362Y22041948D01*
X26236075Y22045000D01*
X25708048Y22045000D01*
X25698052Y22041362D01*
X25695000Y22036075D01*
X25695000Y21445548D01*
X25545000Y21445548D01*
X25545000Y22031952D01*
X25541362Y22041948D01*
X25536075Y22045000D01*
X25008048Y22045000D01*
X24998052Y22041362D01*
X24995000Y22036075D01*
X24995000Y21792413D01*
X11685501Y21792413D01*
X11685501Y21968247D01*
X11702814Y22015813D01*
X11707175Y22020573D01*
X11894650Y22208048D01*
X24995000Y22208048D01*
X24998638Y22198052D01*
X25003925Y22195000D01*
X25531952Y22195000D01*
X25541948Y22198638D01*
X25545000Y22203925D01*
X25545000Y22208048D01*
X25695000Y22208048D01*
X25698638Y22198052D01*
X25703925Y22195000D01*
X26231952Y22195000D01*
X26241948Y22198638D01*
X26245000Y22203925D01*
X26245000Y22447587D01*
X26244545Y22453369D01*
X26231539Y22535483D01*
X26227984Y22546427D01*
X26177545Y22645420D01*
X26170786Y22654722D01*
X26092221Y22733287D01*
X26082920Y22740045D01*
X25983927Y22790484D01*
X25972983Y22794039D01*
X25890869Y22807045D01*
X25885087Y22807500D01*
X25708048Y22807500D01*
X25698052Y22803862D01*
X25695000Y22798575D01*
X25695000Y22208048D01*
X25545000Y22208048D01*
X25545000Y22794452D01*
X25541362Y22804448D01*
X25536075Y22807500D01*
X25354913Y22807500D01*
X25349131Y22807045D01*
X25267017Y22794039D01*
X25256073Y22790484D01*
X25157080Y22740045D01*
X25147779Y22733287D01*
X25069214Y22654722D01*
X25062455Y22645420D01*
X25012016Y22546427D01*
X25008461Y22535483D01*
X24995455Y22453369D01*
X24995000Y22447587D01*
X24995000Y22208048D01*
X11894650Y22208048D01*
X13829429Y24142826D01*
X13875305Y24164218D01*
X13881755Y24164500D01*
X26368247Y24164500D01*
X26415813Y24147187D01*
X26420573Y24142826D01*
X28438666Y22124733D01*
X28460058Y22078857D01*
X28459429Y22060836D01*
X28445072Y21970190D01*
X28445983Y21964438D01*
X28447478Y21955000D01*
X28463432Y21854272D01*
X28516713Y21749701D01*
X28599701Y21666713D01*
X28649679Y21641248D01*
X28699082Y21616076D01*
X28699084Y21616075D01*
X28704272Y21613432D01*
X28820190Y21595072D01*
X28936108Y21613432D01*
X28941296Y21616075D01*
X28941298Y21616076D01*
X28990701Y21641248D01*
X29040679Y21666713D01*
X29123667Y21749701D01*
X29176948Y21854272D01*
X29192902Y21955000D01*
X29194397Y21964438D01*
X29194969Y21968048D01*
X30580000Y21968048D01*
X30583638Y21958052D01*
X30588925Y21955000D01*
X31291952Y21955000D01*
X31301948Y21958638D01*
X31305000Y21963925D01*
X31305000Y22466951D01*
X31301362Y22476947D01*
X31296075Y22479999D01*
X30718867Y22479999D01*
X30711653Y22479288D01*
X30678622Y22472719D01*
X30665413Y22467248D01*
X30627916Y22442193D01*
X30617807Y22432084D01*
X30592751Y22394585D01*
X30587281Y22381380D01*
X30580710Y22348345D01*
X30580000Y22341135D01*
X30580000Y21968048D01*
X29194969Y21968048D01*
X29195308Y21970190D01*
X29194397Y21975942D01*
X29194397Y21981603D01*
X29211710Y22029169D01*
X29255547Y22054479D01*
X29268397Y22055603D01*
X29274058Y22055603D01*
X29279810Y22054692D01*
X29395728Y22073052D01*
X29400916Y22075695D01*
X29400918Y22075696D01*
X29450321Y22100868D01*
X29500299Y22126333D01*
X29583287Y22209321D01*
X29636568Y22313892D01*
X29654928Y22429810D01*
X29636568Y22545728D01*
X29583287Y22650299D01*
X29500299Y22733287D01*
X29450321Y22758752D01*
X29400918Y22783924D01*
X29400916Y22783925D01*
X29395728Y22786568D01*
X29297464Y22802132D01*
X29285562Y22804017D01*
X29279810Y22804928D01*
X29274058Y22804017D01*
X29189169Y22790572D01*
X29139480Y22800231D01*
X29125267Y22811335D01*
X26900697Y25035904D01*
X26891494Y25047118D01*
X26885058Y25056750D01*
X26881009Y25062810D01*
X26794841Y25120385D01*
X26787696Y25121806D01*
X26787694Y25121807D01*
X26718853Y25135500D01*
X26700348Y25139181D01*
X26693199Y25140603D01*
X26686050Y25139181D01*
X26674694Y25136922D01*
X26660257Y25135500D01*
X13589742Y25135500D01*
X13575305Y25136922D01*
X13563949Y25139181D01*
X13556800Y25140603D01*
X13549651Y25139181D01*
X13531146Y25135500D01*
X13462305Y25121807D01*
X13462303Y25121806D01*
X13455158Y25120385D01*
X13368990Y25062810D01*
X13364941Y25056750D01*
X13358505Y25047118D01*
X13349302Y25035904D01*
X10814095Y22500697D01*
X10802881Y22491494D01*
X10787189Y22481009D01*
X10729614Y22394841D01*
X10728193Y22387696D01*
X10728192Y22387694D01*
X10726936Y22381380D01*
X10709396Y22293199D01*
X10710818Y22286050D01*
X10713077Y22274694D01*
X10714499Y22260257D01*
X10714499Y20829390D01*
X10697186Y20781824D01*
X10674094Y20763455D01*
X10659697Y20756120D01*
X10659694Y20756118D01*
X10654511Y20753477D01*
X10571523Y20670489D01*
X10518242Y20565918D01*
X10499882Y20450000D01*
X10185500Y20450000D01*
X10185500Y25892372D01*
X10202813Y25939938D01*
X10239599Y25963646D01*
X10292190Y25978329D01*
X10322059Y25993417D01*
X10465839Y26066045D01*
X10465842Y26066047D01*
X10469073Y26067679D01*
X10625232Y26189684D01*
X10754720Y26339697D01*
X10756503Y26342836D01*
X10756506Y26342840D01*
X10832206Y26476097D01*
X10852604Y26512004D01*
X10855173Y26519727D01*
X10914013Y26696605D01*
X10914014Y26696608D01*
X10915156Y26700042D01*
X10939993Y26896649D01*
X10940389Y26925000D01*
X10932778Y27002628D01*
X10921404Y27118620D01*
X10921051Y27122223D01*
X10917943Y27132519D01*
X10866528Y27302813D01*
X10863774Y27311935D01*
X10817257Y27399421D01*
X10772438Y27483713D01*
X10772437Y27483714D01*
X10770739Y27486908D01*
X10653840Y27630240D01*
X10647777Y27637674D01*
X10647776Y27637675D01*
X10645490Y27640478D01*
X10492798Y27766796D01*
X10475188Y27776318D01*
X10466938Y27780779D01*
X10449132Y27790406D01*
X10415525Y27828259D01*
X10414111Y27878858D01*
X10445553Y27918528D01*
X10484328Y27929500D01*
X11903954Y27929500D01*
X11951520Y27912187D01*
G37*
%TD.AperFunction*%
%TA.AperFunction,Conductor*%
G36*
X11360011Y8522187D02*
G01*
X11385321Y8478350D01*
X11376531Y8428500D01*
X11364771Y8413174D01*
X7930526Y4978929D01*
X7884650Y4957537D01*
X7843006Y4966160D01*
X7778479Y5001050D01*
X7589172Y5059650D01*
X7392089Y5080364D01*
X7388485Y5080036D01*
X7388484Y5080036D01*
X7198348Y5062733D01*
X7198346Y5062733D01*
X7194735Y5062404D01*
X7004629Y5006452D01*
X7001430Y5004780D01*
X7001426Y5004778D01*
X6832217Y4916318D01*
X6832214Y4916316D01*
X6829010Y4914641D01*
X6826192Y4912375D01*
X6826190Y4912374D01*
X6780693Y4875793D01*
X6674570Y4790468D01*
X6672244Y4787696D01*
X6672242Y4787694D01*
X6617587Y4722558D01*
X6547189Y4638661D01*
X6545447Y4635493D01*
X6545446Y4635491D01*
X6535761Y4617874D01*
X6451720Y4465004D01*
X6450626Y4461555D01*
X6412128Y4340192D01*
X6391800Y4276111D01*
X6369710Y4079177D01*
X6370013Y4075568D01*
X6370013Y4075566D01*
X6378285Y3977054D01*
X6386292Y3881703D01*
X6440915Y3691210D01*
X6442567Y3687996D01*
X6442568Y3687993D01*
X6484785Y3605847D01*
X6491129Y3555627D01*
X6471294Y3519696D01*
X6233772Y3282174D01*
X6187896Y3260782D01*
X6181446Y3260500D01*
X3454325Y3260500D01*
X3406759Y3277813D01*
X3381449Y3321650D01*
X3390239Y3371500D01*
X3394006Y3377367D01*
X3444521Y3448447D01*
X3444523Y3448450D01*
X3447442Y3452558D01*
X3498533Y3594468D01*
X3502759Y3652004D01*
X3505401Y3687993D01*
X3509580Y3744891D01*
X3506924Y3758066D01*
X3480764Y3887800D01*
X3480763Y3887802D01*
X3479767Y3892743D01*
X3411293Y4027132D01*
X3360127Y4082775D01*
X3312618Y4134441D01*
X3312614Y4134444D01*
X3309201Y4138156D01*
X3304915Y4140813D01*
X3304912Y4140816D01*
X3218808Y4194202D01*
X3181014Y4217635D01*
X3110648Y4238079D01*
X3039897Y4258634D01*
X3039894Y4258635D01*
X3036175Y4259715D01*
X3031303Y4260073D01*
X3026840Y4260401D01*
X3026826Y4260401D01*
X3025485Y4260500D01*
X2917215Y4260500D01*
X2829695Y4248511D01*
X2810568Y4245891D01*
X2810567Y4245891D01*
X2805568Y4245206D01*
X2804506Y4244746D01*
X2755576Y4248511D01*
X2719410Y4283927D01*
X2712778Y4325560D01*
X2714704Y4340191D01*
X2714704Y4340192D01*
X2715337Y4345000D01*
X2712148Y4369223D01*
X2723104Y4418641D01*
X2763262Y4449456D01*
X2806160Y4449943D01*
X2870100Y4431367D01*
X2870102Y4431367D01*
X2873825Y4430285D01*
X2878697Y4429927D01*
X2883160Y4429599D01*
X2883174Y4429599D01*
X2884515Y4429500D01*
X2992785Y4429500D01*
X3104432Y4444794D01*
X3242855Y4504695D01*
X3325593Y4571695D01*
X3356151Y4596440D01*
X3356153Y4596442D01*
X3360070Y4599614D01*
X3389791Y4641435D01*
X3444521Y4718447D01*
X3444523Y4718450D01*
X3447442Y4722558D01*
X3498533Y4864468D01*
X3500024Y4884761D01*
X3506001Y4966161D01*
X3509580Y5014891D01*
X3505587Y5034697D01*
X3480764Y5157800D01*
X3480763Y5157802D01*
X3479767Y5162743D01*
X3411293Y5297132D01*
X3348041Y5365918D01*
X3312618Y5404441D01*
X3312614Y5404444D01*
X3309201Y5408156D01*
X3304915Y5410813D01*
X3304912Y5410816D01*
X3217032Y5465303D01*
X3181014Y5487635D01*
X3101342Y5510782D01*
X3039897Y5528634D01*
X3039894Y5528635D01*
X3036175Y5529715D01*
X3031303Y5530073D01*
X3026840Y5530401D01*
X3026826Y5530401D01*
X3025485Y5530500D01*
X2917215Y5530500D01*
X2829695Y5518511D01*
X2810568Y5515891D01*
X2810567Y5515891D01*
X2805568Y5515206D01*
X2804506Y5514746D01*
X2755576Y5518511D01*
X2719410Y5553927D01*
X2712778Y5595560D01*
X2714704Y5610191D01*
X2714704Y5610192D01*
X2715337Y5615000D01*
X2712148Y5639223D01*
X2723104Y5688641D01*
X2763262Y5719456D01*
X2806160Y5719943D01*
X2870100Y5701367D01*
X2870102Y5701367D01*
X2873825Y5700285D01*
X2878697Y5699927D01*
X2883160Y5699599D01*
X2883174Y5699599D01*
X2884515Y5699500D01*
X2992785Y5699500D01*
X3104432Y5714794D01*
X3242855Y5774695D01*
X3301462Y5822154D01*
X3356151Y5866440D01*
X3356153Y5866442D01*
X3360070Y5869614D01*
X3388985Y5910301D01*
X3444521Y5988447D01*
X3444523Y5988450D01*
X3447442Y5992558D01*
X3498533Y6134468D01*
X3500024Y6154761D01*
X3509210Y6279858D01*
X3509580Y6284891D01*
X3501594Y6324500D01*
X3480764Y6427800D01*
X3480763Y6427802D01*
X3479767Y6432743D01*
X3453016Y6485246D01*
X3431332Y6527804D01*
X3425164Y6578046D01*
X3452733Y6620498D01*
X3501140Y6635298D01*
X3511699Y6633978D01*
X3545398Y6627275D01*
X3555776Y6625210D01*
X3555777Y6625210D01*
X3559346Y6624500D01*
X8802058Y6624500D01*
X8816494Y6623078D01*
X8835000Y6619397D01*
X8860654Y6624500D01*
X8864223Y6625210D01*
X8929495Y6638193D01*
X8929497Y6638194D01*
X8936642Y6639615D01*
X9022810Y6697190D01*
X9033295Y6712882D01*
X9042498Y6724096D01*
X10836228Y8517826D01*
X10882104Y8539218D01*
X10888554Y8539500D01*
X11312445Y8539500D01*
X11360011Y8522187D01*
G37*
%TD.AperFunction*%
%TA.AperFunction,Conductor*%
G36*
X9411520Y27912187D02*
G01*
X9436830Y27868350D01*
X9428040Y27818500D01*
X9398238Y27789921D01*
X9372217Y27776318D01*
X9372214Y27776316D01*
X9369010Y27774641D01*
X9366192Y27772375D01*
X9366190Y27772374D01*
X9350519Y27759774D01*
X9214570Y27650468D01*
X9212244Y27647696D01*
X9212242Y27647694D01*
X9150879Y27574564D01*
X9087189Y27498661D01*
X9085447Y27495493D01*
X9085446Y27495491D01*
X9079059Y27483873D01*
X8991720Y27325004D01*
X8931800Y27136111D01*
X8909710Y26939177D01*
X8910013Y26935568D01*
X8910013Y26935566D01*
X8917948Y26841075D01*
X8926292Y26741703D01*
X8980915Y26551210D01*
X9071498Y26374955D01*
X9101613Y26336960D01*
X9192340Y26222490D01*
X9192343Y26222486D01*
X9194590Y26219652D01*
X9197344Y26217309D01*
X9197346Y26217306D01*
X9229802Y26189684D01*
X9345504Y26091214D01*
X9375947Y26074200D01*
X9515331Y25996300D01*
X9515335Y25996298D01*
X9518490Y25994535D01*
X9613367Y25963708D01*
X9653255Y25932544D01*
X9664500Y25893330D01*
X9664500Y13607942D01*
X9663078Y13593506D01*
X9659397Y13575000D01*
X9666032Y13541642D01*
X9679615Y13473358D01*
X9737190Y13387190D01*
X9743250Y13383141D01*
X9752882Y13376705D01*
X9764096Y13367502D01*
X11542504Y11589093D01*
X11551707Y11577879D01*
X11562190Y11562190D01*
X11648358Y11504615D01*
X11664091Y11501486D01*
X11664094Y11501485D01*
X11742852Y11485818D01*
X11750000Y11484396D01*
X11757148Y11485818D01*
X11757150Y11485818D01*
X11768511Y11488078D01*
X11782948Y11489500D01*
X16886370Y11489500D01*
X16933936Y11472187D01*
X16959246Y11428350D01*
X16950456Y11378500D01*
X16919965Y11349565D01*
X16829511Y11303477D01*
X16808208Y11282174D01*
X16762332Y11260782D01*
X16755882Y11260500D01*
X10738555Y11260500D01*
X10690989Y11277813D01*
X10686229Y11282174D01*
X10457498Y11510904D01*
X10448295Y11522118D01*
X10441859Y11531750D01*
X10437810Y11537810D01*
X10422121Y11548293D01*
X10410907Y11557496D01*
X7667174Y14301228D01*
X7645782Y14347104D01*
X7645500Y14353554D01*
X7645500Y25840500D01*
X7662813Y25888066D01*
X7706650Y25913376D01*
X7719500Y25914500D01*
X8250806Y25914500D01*
X8254375Y25915210D01*
X8254376Y25915210D01*
X8290477Y25922391D01*
X8290479Y25922392D01*
X8297624Y25923813D01*
X8303681Y25927860D01*
X8303683Y25927861D01*
X8344654Y25955237D01*
X8350714Y25959286D01*
X8359700Y25972735D01*
X8382139Y26006317D01*
X8382140Y26006319D01*
X8386187Y26012376D01*
X8394490Y26054114D01*
X8394790Y26055624D01*
X8394790Y26055625D01*
X8395500Y26059194D01*
X8395500Y27790806D01*
X8391840Y27809208D01*
X8386187Y27837624D01*
X8388497Y27838083D01*
X8386769Y27877761D01*
X8417588Y27917916D01*
X8457341Y27929500D01*
X9363954Y27929500D01*
X9411520Y27912187D01*
G37*
%TD.AperFunction*%
%TD*%
M02*
